<?xml version="1.0" encoding="UTF-8" standalone="no"?>
<svg
   xmlns:dc="http://purl.org/dc/elements/1.1/"
   xmlns:cc="http://creativecommons.org/ns#"
   xmlns:rdf="http://www.w3.org/1999/02/22-rdf-syntax-ns#"
   xmlns:svg="http://www.w3.org/2000/svg"
   xmlns="http://www.w3.org/2000/svg"
   xmlns:sodipodi="http://sodipodi.sourceforge.net/DTD/sodipodi-0.dtd"
   xmlns:inkscape="http://www.inkscape.org/namespaces/inkscape"
   width="64.81926mm"
   height="292.03741mm"
   viewBox="0 0 64.81926 292.03741"
   version="1.1"
   id="svg8"
   inkscape:version="0.91 r13725"
   sodipodi:docname="Fläche_Einteilung_Pflegegrenzen.svg">
  <defs
     id="defs2" />
  <sodipodi:namedview
     id="base"
     pagecolor="#ffffff"
     bordercolor="#666666"
     borderopacity="1.0"
     inkscape:pageopacity="0.0"
     inkscape:pageshadow="2"
     inkscape:zoom="2.8"
     inkscape:cx="295.47166"
     inkscape:cy="335.20531"
     inkscape:document-units="mm"
     inkscape:current-layer="layer1"
     inkscape:document-rotation="0"
     showgrid="false"
     inkscape:window-width="1920"
     inkscape:window-height="1017"
     inkscape:window-x="-8"
     inkscape:window-y="-8"
     inkscape:window-maximized="1" />
  <metadata
     id="metadata5">
    <rdf:RDF>
      <cc:Work
         rdf:about="">
        <dc:format>image/svg+xml</dc:format>
        <dc:type
           rdf:resource="http://purl.org/dc/dcmitype/StillImage" />
        <dc:title />
      </cc:Work>
    </rdf:RDF>
  </metadata>
  <g
     inkscape:label="Ebene 1"
     inkscape:groupmode="layer"
     id="layer1"
     transform="translate(-2.1690763,-1.4302359)">
    <path
       style="fill:#000000;fill-opacity:1;stroke:none;stroke-width:0.0965516;stroke-linecap:round"
       d="m 48.912167,241.48917 c -0.149926,-0.0491 -0.254822,-0.14337 -0.342242,-0.3077 -0.03512,-0.066 -0.04161,-0.10313 -0.04151,-0.23504 1.39e-4,-0.1309 0.0075,-0.17106 0.0431,-0.24377 0.0546,-0.11088 0.160292,-0.21637 0.271201,-0.27079 0.123042,-0.0605 0.362698,-0.0615 0.483207,-0.002 0.110963,0.0545 0.219615,0.16611 0.274352,0.28184 0.06471,0.13686 0.0646,0.33385 -2.77e-4,0.47011 -0.05534,0.11623 -0.151714,0.21465 -0.2687,0.27446 -0.10462,0.0535 -0.307941,0.0696 -0.419137,0.0332 z"
       id="path966"
       inkscape:export-xdpi="500"
       inkscape:export-ydpi="500" />
    <path
       style="fill:#d3bc5f;fill-opacity:1;stroke:none;stroke-width:0.136546;stroke-linecap:round"
       d="m 40.912197,240.23245 -2.489846,-13.40043 9.454287,0.29544 c 5.134114,-0.003 9.372417,-0.36953 9.37943,-0.36305 0.01096,0.011 3.565311,23.7899 3.556712,23.79442 -0.01575,0.009 -17.303936,3.13839 -17.332246,3.13807 -0.03054,0 -0.489889,-2.55732 -2.514883,-13.30415 z m 2.679518,2.1511 c 0.34178,-0.0854 0.464781,-0.0873 0.464781,-0.0873 0.01883,0.008 -0.189663,-1.04032 -0.189663,-1.04032 -0.0087,-0.008 -1.325207,0.22475 -1.339915,0.23696 -0.0064,0.005 0.201617,0.94284 0.221945,1.00423 0.0074,0.0224 0.04297,0.0339 0.08767,0.0251 0.03714,-0.007 0.270903,-0.0177 0.612685,-0.10308 z m 5.81371,-0.88298 c 0.127033,-0.0529 0.211089,-0.17095 0.274573,-0.30659 0.08014,-0.1712 0.08493,-0.35592 -0.009,-0.5197 -0.102194,-0.17812 -0.59303,-0.60872 -1.156897,-0.0476 -0.191463,0.19054 -0.117307,0.5081 0.04409,0.73024 0.174203,0.23975 0.541636,0.27152 0.655748,0.22376 z m 3.074927,-0.45578 c 0.396127,-0.18565 0.499607,-0.66535 0.209451,-1.00334 -0.137208,-0.15979 -0.280633,-0.23757 -0.504612,-0.23757 -0.152151,0 -0.163354,0.0118 -0.26759,0.0654 -0.57316,0.29534 -0.475193,1.05186 0.151586,1.21685 0.114932,0.0303 0.287144,0.0164 0.411165,-0.0413 z m 3.214167,-0.48388 c 0.415498,-0.18325 0.52837,-0.66833 0.221526,-1.00859 -0.150841,-0.16729 -0.283221,-0.2264 -0.501166,-0.22566 -0.405641,0.002 -0.661825,0.25493 -0.665476,0.6622 -0.0032,0.30757 0.163947,0.52208 0.455955,0.62599 0.158813,0.0565 0.338225,0.0433 0.49807,-0.0272 z"
       id="path962"
       inkscape:export-xdpi="500"
       inkscape:export-ydpi="500"
       sodipodi:nodetypes="ccccscccssssscsscsssssccscscsccsssccc"
       inkscape:connector-curvature="0" />
    <path
       style="fill:#d3bc5f;fill-opacity:1;stroke:none;stroke-width:0.193105;stroke-linecap:round"
       d="m 24.135046,138.22374 c -0.02154,-0.0725 -2.572616,-20.57708 -2.572616,-20.57708 0,0 1.086232,-0.0882 2.24712,-0.19263 9.114422,-0.81998 11.223029,-1.02042 11.235503,-1.00799 0.01454,0.0145 1.962263,21.63592 1.961847,21.77892 l -2.78e-4,0.0827 -6.4195,0.006 c -4.206722,0.005 -6.463083,0.0237 -6.469945,7.3e-4 z"
       id="path936"
       inkscape:export-xdpi="500"
       inkscape:export-ydpi="500"
       inkscape:connector-curvature="0"
       sodipodi:nodetypes="ccscccccc" />
    <path
       style="fill:#d3bc5f;fill-opacity:1;stroke:none;stroke-width:0.136546;stroke-linecap:round"
       d="m 38.440169,226.89438 c -0.06456,-0.14848 -0.442918,-2.21541 -0.874589,-4.50417 -0.527129,-2.79495 -0.816166,-4.21974 -0.798251,-4.22975 0.01463,-0.009 0.415139,-0.11299 0.530605,-0.13489 0.115456,-0.0218 4.040721,-0.74283 8.996726,-1.68538 4.956005,-0.94252 9.12944,-1.76508 9.12944,-1.76508 0,0 0.428961,2.87371 0.935327,6.24592 0.506355,3.37219 0.986611,6.14869 0.960169,6.18456 l -0.08523,0.11564 -9.330304,0.43529 -9.365256,-0.43529 z"
       id="path964"
       inkscape:export-xdpi="500"
       inkscape:export-ydpi="500"
       sodipodi:nodetypes="sscsscsscccs"
       inkscape:connector-curvature="0" />
    <path
       style="fill:#00ff00;fill-opacity:1;stroke:none;stroke-width:0.27309;stroke-linecap:round"
       d="m 41.190914,256.8148 c -0.06427,-0.393 -8.158554,-40.21668 -8.141889,-40.25976 0.02483,-0.0643 24.623883,-4.65559 24.674405,-4.60523 0.0663,0.0661 6.238294,40.75783 6.18393,40.77063 -0.02895,0.006 -4.940877,0.92651 -10.768245,1.96749 -5.827357,1.04098 -8.791767,1.54177 -9.370319,1.65188 -0.578557,0.11012 -1.413288,0.26369 -1.452267,0.26369 0,0 -0.34221,0.0533 -0.403623,0.0657 z m 11.476562,-4.75484 c 0.619892,-0.12033 8.176021,-1.44416 8.186632,-1.45473 0.02288,-0.0228 -5.406108,-35.98406 -5.437015,-36.01487 -0.01171,-0.0116 -4.129192,0.75831 -9.301993,1.74287 l -9.266535,1.7449 -0.03714,0.29695 c -0.02599,0.20777 6.595324,35.1682 6.618866,35.23662 0.01479,0.0431 0.193796,0.10054 0.283145,0.0821 0.07471,-0.0153 6.792933,-1.26212 7.397556,-1.33171 z"
       id="path899"
       inkscape:export-xdpi="500"
       inkscape:export-ydpi="500"
       sodipodi:nodetypes="csscsssscssscsssscs"
       inkscape:connector-curvature="0" />
    <path
       style="fill:#00ff00;fill-opacity:1;stroke:none;stroke-width:0.27309;stroke-linecap:round"
       d="m 33.063622,216.2317 c -0.123966,-0.58947 -4.023944,-25.17422 -3.995574,-25.19937 0.06133,-0.0544 3.316493,-0.79425 3.353065,-0.75779 0.03169,0.0316 4.446957,25.73468 4.423771,25.75206 0,0 -0.811208,0.39176 -1.734894,0.55997 -0.923676,0.16823 -1.922495,0.17587 -1.967644,0.18846 -0.05848,0.0163 -0.05815,-0.44548 -0.07872,-0.54333 z"
       id="path901"
       inkscape:export-xdpi="500"
       inkscape:export-ydpi="500"
       sodipodi:nodetypes="ssscsss"
       inkscape:connector-curvature="0" />
    <path
       style="fill:#d3bc5f;fill-opacity:1;stroke:none;stroke-width:0.193105;stroke-linecap:round"
       d="m 26.545101,157.37626 c 0,0 -2.428709,-19.13745 -2.427873,-19.16143 0.0012,-0.0348 1.409704,-0.2244 6.473911,-0.0856 l 6.431074,0.13152 0.41686,4.47782 c 0.04309,0.46289 0.443836,5.24185 0.712421,6.03467 0.07521,0.22191 1.768583,5.9508 3.670723,12.73083 1.902138,6.78005 3.423558,12.39811 3.447196,12.48579 l 0.06433,0.23862 -8.153188,1.21018 c -4.441116,0.6592 -8.207714,1.21998 -8.227377,1.21899 -0.02124,-9.3e-4 -2.319004,-18.43013 -2.319004,-18.43013 z"
       id="path933"
       inkscape:export-xdpi="500"
       inkscape:export-ydpi="500"
       sodipodi:nodetypes="ccscsssscsccc"
       inkscape:connector-curvature="0" />
    <path
       style="fill:#00ff00;fill-opacity:1;stroke:none;stroke-width:0.27309;stroke-linecap:round"
       d="m 28.988322,190.53162 c -0.0028,-0.0349 -0.04229,-0.41843 -0.178683,-1.40643 -1.411584,-10.22551 -2.992333,-22.67 -4.542562,-34.56341 l -0.656622,-5.03763 0.975533,0 0.966621,-0.17818 1.722026,13.90184 c 0.928637,7.49685 1.670391,13.46291 1.672283,13.46759 0.002,0.004 3.618841,-0.54579 8.167226,-1.22858 5.086924,-0.76363 8.196779,-1.20946 8.208252,-1.2438 0.0132,-0.0395 -6.644774,-23.83852 -6.899427,-24.66398 -0.02473,-0.0803 0.163798,-0.26901 1.166015,-0.16627 l 1.148688,0.11136 0.190266,0.61664 c 0.101174,0.3279 2.4019,8.68887 5.159453,18.59847 2.757553,9.90962 5.051935,18.09435 5.051935,18.09435 0,0 -12.159596,2.37142 -18.547968,3.58945 -1.765867,0.33669 -3.386669,0.71823 -3.447797,0.73237 -0.07123,0.0165 -0.133112,-0.34361 -0.13634,-0.38448 z"
       id="path903"
       inkscape:export-xdpi="500"
       inkscape:export-ydpi="500"
       sodipodi:nodetypes="ssscccscsssscsscssss"
       inkscape:connector-curvature="0" />
    <path
       style="fill:#00ff00;fill-opacity:1;stroke:none;stroke-width:0.193105;stroke-linecap:round"
       d="m 38.404982,149.47109 c -0.0055,-0.019 -0.475995,-1.57356 -0.5258,-1.92762 -0.07951,-0.3837 -1.374272,-15.1762 -1.446212,-16.10693 -0.06365,-0.82353 -1.354168,-14.99563 -1.358477,-14.99993 -0.0042,-0.004 -1.224508,0.0994 -2.798659,0.24129 -1.57415,0.14193 -4.632118,0.40982 -6.817266,0.60621 -2.548149,0.22902 -3.857146,0.32577 -3.857089,0.34942 5e-5,0.0203 0.878121,7.16834 1.973044,15.92813 1.094928,8.75978 2.03532,15.94914 2.03532,15.94914 0,0 -0.593858,0.38474 -1.066112,0.3073 l -0.923571,-0.15146 -0.0027,-0.27314 c -0.06176,-0.39203 -1.2986,-10.60506 -2.028258,-16.66074 -0.586526,-4.86776 -2.070553,-17.00103 -2.070553,-17.07342 0,-0.01 3.949501,-0.0181 8.646001,-0.0181 l 8.539091,0 0.08773,0.0694 c 0.009,0.0431 0.09759,0.93346 0.185792,1.9677 0.324628,3.80634 1.266618,14.28388 1.474268,16.97622 0.06098,0.79063 1.08053,8.7593 1.159504,9.42966 l 0.290451,2.46545 0.356182,1.16505 c 0.182048,0.64077 0.357204,1.30956 0.40464,1.4862 l 0.01694,0.32115 -1.083482,0.01 c -0.701054,0.006 -1.140225,0.0683 -1.146265,0.0461 z"
       id="path907"
       inkscape:export-xdpi="500"
       inkscape:export-ydpi="500"
       inkscape:connector-curvature="0"
       sodipodi:nodetypes="ccsccscscsccsssccsssccccccc" />
    <path
       style="fill:#00ff00;fill-opacity:1;stroke:none;stroke-width:0.193105;stroke-linecap:round"
       d="m 19.540876,115.72897 c -0.02095,-0.12573 -0.03706,-0.16742 -0.941773,-7.94982 -0.796863,-6.85506 -1.601375,-14.740567 -2.291598,-20.797135 -0.287024,-2.518574 -0.527482,-4.622317 -0.534351,-4.674988 l -0.01249,-0.09576 3.355717,0.0037 c 3.918628,0.0047 2.620377,0.234579 1.255541,0.339927 -0.94743,0.07313 -1.622758,0.06364 -1.434733,0.123088 0.204561,0.06467 -0.222127,0.0531 -0.222127,0.107129 0,0.145774 3.069184,29.135789 3.08656,29.153119 0.0082,0.009 0.602215,-0.0593 1.397072,-0.12689 8.281785,-0.70382 10.394248,-0.85519 10.400699,-0.86175 0.0042,-0.004 -0.561227,-6.39149 -1.279504,-14.263234 -0.718266,-7.871729 -1.310843,-14.993864 -1.31127,-15.036947 l -0.05281,0.567999 1.409155,-0.510966 c 0.695289,-0.252115 1.315531,-0.295526 1.475547,0.476232 0.0016,0.0083 0.109638,0.904677 0.20515,1.868062 0.149298,1.505816 2.756442,31.717684 2.756442,31.717684 l 0.04869,0.62408 -8.623062,-0.31649 -8.216146,-0.0304 z"
       id="path909"
       inkscape:export-xdpi="500"
       inkscape:export-ydpi="500"
       sodipodi:nodetypes="ccssccssscccsccsscccccc"
       inkscape:connector-curvature="0" />
    <path
       style="fill:#d3bc5f;fill-opacity:1;stroke:none;stroke-width:0.193105;stroke-linecap:round"
       d="m 21.72831,111.55862 c -0.06126,-0.36671 -3.020025,-28.782587 -2.999632,-28.80292 0.01356,-0.01353 0.829788,-0.09283 1.737621,-0.176231 1.533865,-0.140939 1.614861,-0.171588 2.257209,-0.316334 0.765995,-0.172609 0.759291,-0.136435 1.179956,-0.422191 l 0.285385,-0.193861 0.256955,-0.441706 0.221323,-0.508523 0.032,-0.550046 c 0.01261,-0.390418 0.05346,-1.078633 -0.0043,-2.139357 -0.04691,-0.86187 -0.158886,-1.649376 -0.156286,-1.652016 0.0076,-0.0077 5.8675,-0.496147 5.874272,-0.489677 0.0093,0.0088 3.161797,35.021152 3.153888,35.026562 -0.0041,0.003 -2.614474,0.17524 -5.716899,0.43763 -3.102434,0.2624 -5.839356,0.58028 -5.928067,0.59093 -0.16084,0.0194 -0.123545,-0.0818 -0.143044,-0.19849 z"
       id="path938"
       inkscape:export-xdpi="500"
       inkscape:export-ydpi="500"
       inkscape:connector-curvature="0"
       sodipodi:nodetypes="cccssccccccccsccc" />
    <path
       style="fill:#ffe680;fill-opacity:1;stroke:none;stroke-width:0.193105;stroke-linecap:round"
       d="m 18.218295,79.779157 c -0.01022,-0.06225 -0.145985,-1.602813 -0.367006,-3.652149 -0.22102,-2.049333 -0.407354,-3.862238 -0.414074,-3.903455 -0.01192,-0.07313 0.107834,-0.03993 0.6393,-0.06523 0.620256,-0.02952 0.975353,0.06361 1.162205,0.187513 0.09177,0.06083 0.134799,0.180907 0.280114,0.468531 0.111742,0.221167 0.359401,0.591699 0.573843,0.882842 0.204271,0.277333 0.64091,0.89669 0.943087,1.36546 0.541064,0.839353 0.532139,0.851406 0.855946,1.658833 0.30445,0.759155 0.31903,0.872642 0.419574,1.420783 0.135326,0.737752 0.268116,1.562593 0.222973,1.590408 -0.02673,0.01646 -4.111544,0.419823 -4.197019,0.414946 -0.01354,-8.33e-4 -0.07752,-0.141429 -0.08775,-0.203668 z"
       id="path948"
       inkscape:export-xdpi="500"
       inkscape:export-ydpi="500"
       inkscape:connector-curvature="0"
       sodipodi:nodetypes="cscscssssscccc" />
    <path
       style="fill:#00ff00;fill-opacity:1;stroke:none;stroke-width:0.193105;stroke-linecap:round"
       d="m 22.036413,82.401732 c -0.03256,-0.02084 -3.107898,0.280329 -3.107898,0.280329 l -3.170002,-0.470843 0.0394,0.330695 C 15.811026,82.651904 14.99877,76.012716 14.192092,68.926231 13.385414,61.839748 12.450464,53.832195 12.14313,51.131672 11.835796,48.431145 11.549298,46.164943 11.576691,46.108102 l 0.05471,-0.113526 1.595365,0.009 1.675549,9.1e-5 1.347412,11.578229 c 0.740514,6.363193 1.345336,11.504396 1.353686,11.512157 0.0083,0.0078 0.640471,0.207079 1.39927,0.421155 0.758799,0.214075 1.415347,0.414705 1.448109,0.424065 0.03276,0.0094 0.480428,0.570714 1.032924,1.225674 0.552498,0.654959 1.329918,1.55157 1.771156,2.068692 0.44124,0.517121 0.856724,0.919978 0.857968,0.922454 0.0012,0.0026 0.215999,0.01335 0.542572,-0.01394 0.326571,-0.02729 1.713379,-0.132209 3.092684,-0.244036 1.379306,-0.111828 2.396748,-0.213507 2.40255,-0.220508 0.0061,-0.0069 -0.48317,-6.124699 -1.15182,-13.680424 -0.668643,-7.555724 -1.292073,-13.94659 -1.292948,-14.018413 l -0.02766,-0.234414 1.291005,-0.251135 1.231004,-0.01391 0.08631,0.650103 c 0.01168,0.09098 0.262167,2.824755 0.578433,6.042403 0.710162,7.225184 2.95036,29.663773 2.978398,29.866109 l 0.01418,0.236191 -1.52887,0.119692 -1.346181,-0.0189 -0.0038,-0.292547 c -5.73e-4,-0.04398 -0.131058,-1.437714 -0.286575,-3.160748 -0.155517,-1.723036 -0.296375,-3.070788 -0.305318,-3.079702 -0.0089,-0.0089 -1.188416,0.100328 -2.839704,0.248686 l -3.025611,0.271833 0.01839,0.124927 c 2.76e-4,0.105461 0.02769,0.89477 0.07177,1.775792 0.04928,0.984883 0.09363,1.758977 0.04117,2.010826 l -0.04342,0.449059 -0.181438,0.41507 -0.21707,0.455162 -0.352078,0.260627 c -0.31057,0.229901 -0.381901,0.207415 -0.90827,0.325668 -0.301009,0.06762 -0.677438,0.150774 -0.706255,0.159055 -0.02882,0.0083 -0.873653,0.161566 -0.902468,0.143136 z m -1.408538,-2.434133 c 0.148212,-0.01891 1.933163,-0.212776 1.937316,-0.215652 0.02318,-0.01606 -0.133526,-1.227775 -0.221477,-1.702035 -0.09467,-0.510459 -0.114362,-0.624235 -0.429711,-1.405877 -0.340771,-0.84465 -0.318483,-0.78588 -0.860059,-1.623438 -0.300868,-0.4653 -0.698583,-1.056879 -0.889254,-1.314621 -0.190672,-0.257741 -0.436294,-0.573068 -0.562157,-0.809616 -0.270812,-0.508959 -0.480335,-0.691842 -0.877106,-0.760155 -0.331034,-0.05699 -1.288626,-0.07507 -1.366,0.002 -0.04407,0.04393 0.08408,0.553132 0.456185,3.990883 0.234585,2.167284 0.407348,3.851688 0.416583,3.895565 0.0093,0.04388 0.03205,0.114915 0.05069,0.103435 0.01865,-0.01148 0.07845,0.01342 0.07845,0.03381 0,0.02029 0.286919,-0.01624 0.310929,-0.01583 0.02402,4.15e-4 1.188147,-0.08053 1.327526,-0.09832 z"
       id="path911"
       inkscape:export-xdpi="500"
       inkscape:export-ydpi="500"
       sodipodi:nodetypes="cccsssscccsssssscsscscccccsccccssssccsscccsssccssssssssccssssss"
       inkscape:connector-curvature="0" />
    <path
       style="fill:#00ff00;fill-opacity:1;stroke:none;stroke-width:0.193105;stroke-linecap:round"
       d="M 26.160827,28.048694 C 25.284179,18.171212 24.546208,10.035516 24.535877,9.9541172 l 0.0124,-0.1836344 1.167324,0.00891 1.18514,-0.00891 0.03128,0.038263 c 5.3e-5,0.043093 0.828061,10.0070042 0.845165,10.1693362 0.785904,7.458528 1.086789,12.055329 1.658592,17.86866 0.422944,4.299774 0.78293,7.878839 0.79454,7.969815 l 0.03446,0.192137 -0.700993,0.01779 -1.810164,-0.03121 z"
       id="path915"
       inkscape:export-xdpi="500"
       inkscape:export-ydpi="500"
       inkscape:connector-curvature="0"
       sodipodi:nodetypes="scccccssccccs" />
    <path
       style="fill:#00ff00;fill-opacity:1;stroke:none;stroke-width:0.193105;stroke-linecap:round"
       d="m 7.6362868,12.231697 c -0.012242,-0.107333 0.9764386,-0.485069 1.0498922,-0.519888 0.8272341,-0.392125 1.0650847,-0.491861 2.38814,-1.149296 l 1.475793,-0.8260256 1.192117,-0.8708979 c 0.646949,-0.4726263 1.895448,-1.4386573 2.831509,-2.0781211 l 1.64884,-1.2198255 2.356557,-0.7840285 c 1.274715,-0.4240988 2.288042,-0.7502838 2.288042,-0.7502838 -0.08229,-0.090165 0.165997,-0.5391691 0.408005,-1.1650729 l 0.373432,-1.2002064 0.387632,-0.029284 c 0.14767,-0.027416 2.05885,-0.1094788 2.077199,-0.091184 0.0063,0.00649 0.381989,3.8600175 0.40295,4.1418709 l 0.366527,4.0765516 -1.154929,0.063629 c -0.594268,0.00511 -1.162493,-0.012101 -1.169772,-0.019349 -0.0073,-0.00724 -0.07926,-0.6641631 -0.145707,-1.4071366 -0.06644,-0.7429734 -0.07975,-1.2919569 -0.08945,-1.3016292 -0.0097,-0.00968 -0.09237,0.084851 -0.183719,0.1338509 -4.460674,2.3921871 -9.419541,5.1417296 -9.419541,5.1417296 l -0.397136,0.312582 -3.252283,0.113207 -3.3854128,-0.144313 z"
       id="path917"
       inkscape:export-xdpi="500"
       inkscape:export-ydpi="500"
       sodipodi:nodetypes="ssscsscscsccssccssscccccs"
       inkscape:connector-curvature="0" />
    <path
       style="fill:#d3bc5f;fill-opacity:1;stroke:none;stroke-width:0.193105;stroke-linecap:round"
       d="m 23.380723,73.358636 c -0.358259,-0.375731 -1.047239,-1.304507 -1.678138,-2.052437 -0.6309,-0.747926 -1.188835,-1.397985 -1.212637,-1.422794 -0.0238,-0.02482 -0.578509,-0.165962 -1.352456,-0.384452 -0.773949,-0.218487 -1.513441,-0.405489 -1.523543,-0.415559 -0.01658,-0.01654 -3.697014,-32.257691 -3.699243,-32.402156 -8.34e-4,-0.05782 0.328818,-0.06094 6.442508,-0.06094 l 6.492444,-0.146998 0.07091,0.07654 c 0.06037,0.06517 3.255532,37.093598 3.245593,37.103936 -0.0034,0.0036 -1.377032,0.109293 -2.932672,0.234945 -1.555645,0.125651 -2.86024,0.230317 -2.936972,0.240014 l -0.161988,0.02047 z"
       id="path942"
       inkscape:export-xdpi="500"
       inkscape:export-ydpi="500"
       sodipodi:nodetypes="ssssscscsssscs"
       inkscape:connector-curvature="0" />
    <path
       style="fill:#d3bc5f;fill-opacity:1;stroke:none;stroke-width:0.193105;stroke-linecap:round"
       d="m 13.92453,36.716063 c 0,0 -0.611638,-5.139911 -1.306227,-11.11345 -1.214002,-10.440547 -1.35485,-10.868691 -1.291936,-10.903644 0.03599,-0.02 0.927054,-0.601444 1.946665,-1.295866 l 1.830821,-1.24691 2.386546,-1.306373 c 2.938868,-1.6087091 6.765767,-3.6843927 6.787638,-3.6625855 0.02391,0.02384 2.630259,29.5051435 2.610209,29.5251345 -0.0089,0.0089 -3.006444,0.421517 -6.540875,0.273206 z"
       id="path944"
       inkscape:export-xdpi="500"
       inkscape:export-ydpi="500"
       sodipodi:nodetypes="cssscssssc"
       inkscape:connector-curvature="0" />
    <path
       style="fill:#00ff00;fill-opacity:1;stroke:none;stroke-width:0.193105;stroke-linecap:round"
       d="m 11.546804,45.990249 c 0,-0.13726 -2.272733,-19.807699 -3.2452399,-28.066146 -0.3460482,-2.938598 -0.6209803,-5.341619 -0.6209803,-5.341619 0,0 1.5596457,-0.0136 3.3519142,-0.0087 l 3.561054,-0.0289 -1.808498,1.157944 c -0.858545,0.549708 -1.487765,0.984723 -1.496131,0.998221 -0.0083,0.0135 0.774827,6.994296 1.773795,15.570298 0.998966,8.576004 1.83736,15.714914 1.83736,15.749792 0,0.06041 -0.315473,0.732476 -1.705366,0.134277 -0.129613,-0.05578 -1.230515,-0.109201 -1.612131,-0.108801 z"
       id="path913"
       inkscape:export-xdpi="500"
       inkscape:export-ydpi="500"
       sodipodi:nodetypes="cscscssssscc"
       inkscape:connector-curvature="0" />
    <path
       style="fill:none;stroke:#000000;stroke-width:0.138098px;stroke-linecap:butt;stroke-linejoin:miter;stroke-opacity:1"
       d="m 49.634385,287.98582 5.343017,-2.29221 3.248253,-1.77597 3.399345,-2.75641 1.782682,-2.09235 1.716139,-3.35206 0.174628,-1.67151 -0.157163,-2.17642 -1.676516,0.34821 0.06982,0.83577 -17.952698,4.17875 z"
       id="path24"
       sodipodi:nodetypes="cccccccccccc"
       inkscape:export-xdpi="500"
       inkscape:export-ydpi="500" />
    <path
       style="fill:none;stroke:#000000;stroke-width:0.138098px;stroke-linecap:butt;stroke-linejoin:miter;stroke-opacity:1"
       d="m 45.187419,276.00284 0.394473,1.22878 17.952728,-4.17875 -0.06982,-0.83577 -0.116475,-0.71326 z"
       id="path26"
       inkscape:export-xdpi="500"
       inkscape:export-ydpi="500"
       sodipodi:nodetypes="cccccc" />
    <path
       style="fill:none;stroke:#000000;stroke-width:0.138098px;stroke-linecap:butt;stroke-linejoin:miter;stroke-opacity:1"
       d="m 65.141286,271.86889 -1.64481,-10.39917 1.728836,-0.34474 1.490308,9.51119 0.203066,3.78906 -1.298727,3.93329 -2.925774,3.40949 -2.309574,2.10917 -2.76611,1.57592 -3.260066,1.77289 -4.119556,2.21888 -0.604494,-1.45905 5.343017,-2.29221 3.248253,-1.77597 3.399345,-2.75641 1.782682,-2.09235 1.716139,-3.35206 0.174628,-1.67151 -0.157163,-2.17642"
       id="path28"
       sodipodi:nodetypes="ccccccccccccccccccc"
       inkscape:export-xdpi="500"
       inkscape:export-ydpi="500" />
    <path
       style="fill:none;stroke:#000000;stroke-width:0.138098px;stroke-linecap:butt;stroke-linejoin:miter;stroke-opacity:1"
       d="m 57.717288,211.92705 7.508024,49.19793 -1.728836,0.34474 1.64481,10.39917 -1.676516,0.34821 -0.116475,-0.71326 -18.25537,4.40451 -12.042315,-59.44842"
       id="path30"
       sodipodi:nodetypes="cccccccc"
       inkscape:export-xdpi="500"
       inkscape:export-ydpi="500" />
    <path
       style="fill:none;stroke:#000000;stroke-width:0.138098px;stroke-linecap:butt;stroke-linejoin:miter;stroke-opacity:1"
       d="m 29.068272,191.0955 3.982338,25.36443 m 3.74795,-0.69158 -4.371436,-25.31306"
       id="path32"
       sodipodi:nodetypes="cccc"
       inkscape:export-xdpi="500"
       inkscape:export-ydpi="500" />
    <path
       style="fill:none;stroke:#000000;stroke-width:0.138317;stroke-linecap:square;stroke-linejoin:miter;stroke-miterlimit:4;stroke-dasharray:none;stroke-opacity:1"
       d="m 32.427124,190.45529 18.720649,-3.59505 -9.977757,-35.85194 -0.687501,-2.55218 -0.558846,-1.9501 -0.209569,-1.6715 -0.41912,-3.27336 -0.488993,-4.24841 -0.558826,-5.57168 L 37.199332,120.17982 34.195567,85.635395 31.401375,57.568043 28.677036,29.918572 26.162262,1.5029894 23.647485,1.6422799 22.87908,4.0102449 18.233732,5.5424616 15.267983,7.7192351 12.535771,9.7389702 9.6367929,11.306006 7.611001,12.141759 C 14.692891,71.803051 20.830592,131.59883 29.068272,191.0955"
       id="path34"
       sodipodi:nodetypes="cccccccccccccccccccccc"
       inkscape:export-xdpi="500"
       inkscape:export-ydpi="500" />
    <path
       style="fill:none;stroke:#000000;stroke-width:0.138098px;stroke-linecap:butt;stroke-linejoin:miter;stroke-opacity:1"
       d="m 62.545929,255.99644 0.263997,-0.22842 0,-0.41339 -0.04938,-0.59097 -0.07407,-0.46786 -0.07407,-0.39396 -0.09877,-0.39399 -0.1235,-0.24624 -0.07407,-0.0739 -0.123489,-0.0739 -0.123489,-0.0246 -19.351126,3.4575 -0.349277,0.34824 0.209557,1.46257 0.698555,3.27334 0.488986,2.36796 0.209568,1.04471 0.349267,0.9054 0.628694,-0.0696 0.349278,-0.55717 0.139708,-0.97505 0.349278,-1.46256 0.302905,-1.1516 0.30006,-1.1451 0.475426,-0.81468 0.805452,-0.50533 0.691471,-0.28342 0.917426,-0.20894 1.327249,-0.20893 2.394301,-0.45189 2.63017,-0.68353 c 0.800702,-0.21026 1.740736,-0.55985 2.401393,-0.63006 1.100269,0.0874 1.813037,0.20323 2.675734,0.10053 0.679934,-0.15832 1.345858,-0.55975 1.832766,-0.90516 z"
       id="path1223"
       inkscape:export-xdpi="500"
       inkscape:export-ydpi="500"
       inkscape:connector-curvature="0"
       sodipodi:nodetypes="cccccccccccccccccccccccccccccccccc" />
    <path
       style="fill:none;stroke:#000000;stroke-width:0.138098px;stroke-linecap:butt;stroke-linejoin:miter;stroke-opacity:1"
       d="m 60.845213,250.59202 -17.376409,3.13407 -6.70607,-35.58912 18.668714,-3.55195 z"
       id="path1270"
       sodipodi:nodetypes="ccccc"
       inkscape:export-xdpi="500"
       inkscape:export-ydpi="500" />
    <path
       style="fill:none;stroke:#000000;stroke-width:0.138098px;stroke-linecap:butt;stroke-linejoin:miter;stroke-opacity:1"
       d="m 62.591577,271.65995 -1.571736,-7.66107 -0.209558,-1.04469 -0.698555,-0.52234 -0.803333,0.24374 -0.244488,0.55718 0.209569,1.00987 1.816224,7.76552 z"
       id="path1272"
       sodipodi:nodetypes="ccccccccc"
       inkscape:export-xdpi="500"
       inkscape:export-ydpi="500" />
    <path
       style="fill:none;stroke:#000000;stroke-width:0.138098px;stroke-linecap:butt;stroke-linejoin:miter;stroke-opacity:1"
       d="m 54.139128,272.42604 3.248264,-0.73128 0.244487,-0.13928 0.139709,-0.27859 -0.523916,-2.43761 -0.314337,-0.20894 c -0.139581,-0.80569 -1.146352,-0.72778 -1.152599,0.12189 l -4.296085,1.0621 c -0.126043,-0.69545 -1.24349,-0.56974 -1.204994,0.22634 l -0.192093,0.33083 0.558835,2.43759 0.104725,0.1393 0.209569,0.0696 0.244488,0.10451 z"
       id="path1274"
       sodipodi:nodetypes="ccccccccccccccc"
       inkscape:export-xdpi="500"
       inkscape:export-ydpi="500" />
    <path
       style="fill:none;stroke:#000000;stroke-width:0.138098px;stroke-linecap:butt;stroke-linejoin:miter;stroke-opacity:1"
       d="m 50.087564,270.3715 -0.331823,-0.19155 -0.174628,-0.19151 -0.06982,-0.24376 -0.03491,-0.27857 v -0.29601 l 0.08738,-0.24377 0.104832,-0.36563 0.227023,-0.36565 0.419126,-0.12187 -0.279417,-0.33083 -0.401662,-0.38306 -0.244498,-0.57458 -0.157163,-0.55715 0.01745,-0.76611 0.314358,-0.80093 0.523905,-0.53977 0.803323,-0.55715 0.995426,-0.33082 1.047832,-0.1393 0.908123,-0.0523 0.925566,0.19152 0.71602,0.41788 0.454056,0.47011 0.227023,0.6094 0.139719,0.41789 0.06982,0.50492 -0.192103,0.43528 -0.244488,0.36566 -0.314347,0.34822 0.50645,-0.0523 h 0.541371 l 0.454056,0.33081 0.331801,0.40048 0.174639,0.55715 0.03491,0.38305 -0.419127,0.41789"
       id="path1276"
       sodipodi:nodetypes="ccccccccccccccccccccccccccccccccccccc"
       inkscape:export-xdpi="500"
       inkscape:export-ydpi="500" />
    <path
       style="fill:none;stroke:#000000;stroke-width:0.138098px;stroke-linecap:butt;stroke-linejoin:miter;stroke-opacity:1"
       d="m 50.314586,268.07318 c 1.720567,-0.79082 3.495338,-1.17626 5.308987,-1.27104"
       id="path1278"
       sodipodi:nodetypes="cc"
       inkscape:export-xdpi="500"
       inkscape:export-ydpi="500" />
    <path
       style="fill:none;stroke:#000000;stroke-width:0.138098px;stroke-linecap:butt;stroke-linejoin:miter;stroke-opacity:1"
       d="m 17.395473,72.1763 0.873186,8.009291"
       id="path1426"
       inkscape:export-xdpi="500"
       inkscape:export-ydpi="500" />
    <path
       style="fill:none;stroke:#000000;stroke-width:0.138098px;stroke-linecap:butt;stroke-linejoin:miter;stroke-opacity:1"
       d="m 18.268659,80.185591 4.296074,-0.435286 -0.122246,-1.096925 -0.209564,-1.131749 -0.663622,-1.654093 -1.100214,-1.706325 -0.733475,-0.992458 -0.401667,-0.783518 -0.261955,-0.191526 -0.488984,-0.08706 -1.240987,0.06965"
       id="path1428"
       inkscape:export-xdpi="500"
       inkscape:export-ydpi="500"
       inkscape:connector-curvature="0"
       sodipodi:nodetypes="ccccccccccc" />
    <path
       style="fill:none;stroke:#000000;stroke-width:0.138098px;stroke-linecap:butt;stroke-linejoin:miter;stroke-opacity:1"
       d="M 30.173665,73.676159 24.29858,7.1403522 19.880826,9.5211461 15.13892,12.131247 l -3.875922,2.571798 6.336162,54.400276 2.884333,0.815266 2.092564,2.481733 1.515683,1.770059 z"
       id="path1430"
       sodipodi:nodetypes="cccccccccc"
       inkscape:export-xdpi="500"
       inkscape:export-ydpi="500" />
    <path
       style="fill:none;stroke:#000000;stroke-width:0.138098px;stroke-linecap:butt;stroke-linejoin:miter;stroke-opacity:1"
       d="m 30.402585,75.846204 -5.881914,0.507919 0.174636,3.396182 -0.03493,0.940221 -0.454057,0.940226 -0.698549,0.4527 -1.397098,0.3134 -3.422889,0.31341 3.110725,29.221058 11.801691,-1.00385 z"
       id="path1432"
       sodipodi:nodetypes="ccccccccccc"
       inkscape:export-xdpi="500"
       inkscape:export-ydpi="500" />
    <path
       style="fill:none;stroke:#000000;stroke-width:0.138098px;stroke-linecap:butt;stroke-linejoin:miter;stroke-opacity:1"
       d="m 21.565573,117.64749 13.516479,-1.21439 2.745979,30.78679 0.20956,1.13175 0.296884,0.88799 7.010398,24.98863 -16.400092,2.46244 z"
       id="path1518"
       sodipodi:nodetypes="cccccccc"
       inkscape:export-xdpi="500"
       inkscape:export-ydpi="500" />
    <path
       style="fill:none;stroke:#000000;stroke-width:0.138098px;stroke-linecap:butt;stroke-linejoin:miter;stroke-opacity:1"
       d="m 42.556073,241.50296 1.331166,-0.23479 0.158419,1.01131 -1.281783,0.24201 z"
       id="path85"
       sodipodi:nodetypes="ccccc"
       inkscape:export-xdpi="500"
       inkscape:export-ydpi="500" />
    <ellipse
       style="fill:none;stroke:#000000;stroke-width:0.104389;stroke-miterlimit:4;stroke-dasharray:none"
       id="path87"
       ry="0.63263887"
       rx="0.63153964"
       cy="240.94594"
       cx="49.085545"
       inkscape:export-xdpi="500"
       inkscape:export-ydpi="500" />
    <ellipse
       style="fill:none;stroke:#000000;stroke-width:0.104389;stroke-miterlimit:4;stroke-dasharray:none"
       id="path87-1"
       ry="0.63263887"
       rx="0.63153976"
       cy="240.45551"
       cx="52.190765"
       inkscape:export-xdpi="500"
       inkscape:export-ydpi="500" />
    <ellipse
       style="fill:none;stroke:#000000;stroke-width:0.104389;stroke-miterlimit:4;stroke-dasharray:none"
       id="path87-6"
       ry="0.63263887"
       rx="0.63153976"
       cy="239.98837"
       cx="55.41048"
       inkscape:export-xdpi="500"
       inkscape:export-ydpi="500" />
    <g
       id="g952"
       transform="matrix(1.0320095,0,0,1.028924,-204.44763,-248.18789)"
       inkscape:export-xdpi="500"
       inkscape:export-ydpi="500">
      <g
         id="g945"
         transform="matrix(2.6214829,0,0,1.6945572,-346.66409,-200.40746)">
        <path
           style="fill:none;stroke:#000000;stroke-width:0.264583px;stroke-linecap:butt;stroke-linejoin:miter;stroke-opacity:1"
           d="m 210.00703,297.00325 0.0334,-13.46369"
           id="path935" />
        <path
           style="fill:none;stroke:#000000;stroke-width:0.264583px;stroke-linecap:butt;stroke-linejoin:miter;stroke-opacity:1"
           d="m 211.30997,287.582 -1.26954,-4.04244 -1.30293,3.97563"
           id="path937" />
      </g>
      <text
         xml:space="preserve"
         style="font-size:10.5833px;line-height:1.25;font-family:sans-serif;letter-spacing:0px;fill:#0000ff;stroke-width:0.065;stroke-miterlimit:4;stroke-dasharray:none"
         x="199.8842"
         y="297.83853"
         id="text941"><tspan
           sodipodi:role="line"
           id="tspan939"
           x="199.8842"
           y="297.83853"
           style="fill:#0000ff;stroke-width:0.065;stroke-miterlimit:4;stroke-dasharray:none">N</tspan></text>
    </g>
    <path
       style="fill:none;stroke:#000000;stroke-width:1.02562;stroke-linecap:butt;stroke-linejoin:miter;stroke-miterlimit:4;stroke-dasharray:none;stroke-opacity:1"
       d="m 20.912804,216.62005 0.09445,75.77366"
       id="path1162"
       inkscape:export-xdpi="500"
       inkscape:export-ydpi="500" />
    <path
       style="fill:none;stroke:#000000;stroke-width:0.764655;stroke-linecap:round;stroke-linejoin:miter;stroke-miterlimit:4;stroke-dasharray:none;stroke-opacity:1"
       d="m 22.320241,254.45737 -2.759268,-0.0348"
       id="path1164"
       inkscape:export-xdpi="500"
       inkscape:export-ydpi="500" />
    <text
       xml:space="preserve"
       style="font-size:5.52395px;line-height:1.25;font-family:sans-serif;letter-spacing:0px;stroke-width:0.138098"
       x="4.4546824"
       y="218.91716"
       id="text1172"
       inkscape:export-xdpi="500"
       inkscape:export-ydpi="500"
       transform="scale(1.0014982,0.99850404)"><tspan
         sodipodi:role="line"
         id="tspan1170"
         x="4.4546824"
         y="218.91716"
         style="stroke-width:0.138098">20 m</tspan></text>
    <text
       xml:space="preserve"
       style="font-size:5.52395px;line-height:1.25;font-family:sans-serif;letter-spacing:0px;stroke-width:0.138098"
       x="3.8628342"
       y="256.64017"
       id="text1176"
       inkscape:export-xdpi="500"
       inkscape:export-ydpi="500"
       transform="scale(1.0014982,0.99850404)"><tspan
         sodipodi:role="line"
         id="tspan1174"
         x="3.8628342"
         y="256.64017"
         style="stroke-width:0.138098">10 m</tspan></text>
    <text
       xml:space="preserve"
       style="font-size:5.52395px;line-height:1.25;font-family:sans-serif;letter-spacing:0px;stroke-width:0.138098"
       x="7.8844194"
       y="293.8291"
       id="text1180"
       inkscape:export-xdpi="500"
       inkscape:export-ydpi="500"
       transform="scale(1.0014982,0.99850404)"><tspan
         sodipodi:role="line"
         id="tspan1178"
         x="7.8844194"
         y="293.8291"
         style="stroke-width:0.138098">0 m</tspan></text>
    <path
       style="fill:none;stroke:#000000;stroke-width:0.138098px;stroke-linecap:butt;stroke-linejoin:miter;stroke-opacity:1"
       d="m 43.975255,265.04355 2.25889,10.54869"
       id="path875"
       inkscape:export-xdpi="500"
       inkscape:export-ydpi="500"
       sodipodi:nodetypes="cc" />
    <path
       style="fill:none;stroke:#000000;stroke-width:0.138098px;stroke-linecap:butt;stroke-linejoin:miter;stroke-opacity:1"
       d="m 62.068992,253.08922 1.884754,-0.33818"
       id="path877"
       inkscape:export-xdpi="500"
       inkscape:export-ydpi="500" />
    <path
       style="fill:none;stroke:#000000;stroke-width:0.138098px;stroke-linecap:butt;stroke-linejoin:miter;stroke-opacity:1"
       d="m 62.809926,255.62548 0.68655,5.84424"
       id="path879"
       inkscape:export-xdpi="500"
       inkscape:export-ydpi="500" />
    <path
       style="fill:#d35f5f;stroke:#000000;stroke-width:0.138098px;stroke-linecap:butt;stroke-linejoin:miter;stroke-opacity:1"
       d="m 42.717855,256.54674 -1.491904,0.28215"
       id="path881"
       inkscape:export-xdpi="500"
       inkscape:export-ydpi="500"
       sodipodi:nodetypes="cc" />
    <path
       style="fill:#b3b3b3;stroke:none;stroke-width:0.546184;stroke-linecap:round"
       d="m 45.375952,276.42055 c -0.09756,-0.28859 -0.141161,-0.45635 -0.107189,-0.46874 0.248947,-0.0909 17.716717,-4.22655 17.847135,-4.22655 0.130736,0 0.181396,0.12969 0.234919,0.60133 0.03757,0.33073 0.05439,0.61209 0.03746,0.62524 -0.04757,0.0369 -17.609134,4.18072 -17.720991,4.18072 -0.05438,0 -0.05212,-0.004 -0.149586,-0.29268 z"
       id="path883"
       inkscape:export-xdpi="500"
       inkscape:export-ydpi="500"
       sodipodi:nodetypes="scssssss" />
    <path
       style="fill:#b3b3b3;stroke:none;stroke-width:0.546184;stroke-linecap:round"
       d="m 50.005475,267.56387 c -0.39684,-0.42181 -0.627364,-1.04121 -0.623937,-1.67639 0.0074,-1.37023 1.228526,-2.3548 3.267963,-2.63488 1.758924,-0.24153 2.918952,0.25805 3.382959,1.45694 0.235984,0.60972 0.204237,1.00233 -0.122627,1.5162 l -0.285409,0.4487 -0.727184,0.0689 c -1.156538,0.10953 -2.619643,0.43533 -3.601478,0.80196 -0.498873,0.18629 -0.925524,0.33873 -0.948098,0.33873 -0.02256,0 -0.176554,-0.14406 -0.342189,-0.32012 z"
       id="path885"
       inkscape:export-xdpi="500"
       inkscape:export-ydpi="500" />
    <path
       style="fill:#edb600;fill-opacity:1;stroke:none;stroke-width:0.546184;stroke-linecap:round"
       d="m 49.711841,270.01048 c -0.180854,-0.21746 -0.154407,-1.0158 0.03854,-1.38017 0.348928,-0.73004 4.286212,-1.76671 6.465231,-1.76671 0.489177,0 0.575183,0.0508 0.865892,0.30542 0.425938,0.37286 0.601242,1.10208 0.367993,1.35909 -0.162921,0.17947 -0.420067,0.18581 -0.463838,-0.0392 -0.04642,-0.23865 -0.349118,-0.50641 -0.659304,-0.50641 -0.313623,0 -0.608266,0.32843 -0.608266,0.58566 0,0.11614 -0.475068,0.25046 -2.03476,0.61499 l -2.126656,0.5211 c -0.08204,-0.11357 -0.134731,-0.22206 -0.260747,-0.31358 -0.262419,-0.19059 -0.942415,-0.14144 -1.085636,0.4514 -0.09317,0.38565 -0.122726,0.4668 -0.256148,0.34799 z"
       id="path889"
       inkscape:export-xdpi="500"
       inkscape:export-ydpi="500"
       sodipodi:nodetypes="ccscssssscsscc" />
    <path
       style="fill:#d38d5f;fill-opacity:1;stroke:none;stroke-width:0.27309;stroke-linecap:round"
       d="m 50.260803,289.31646 c -0.114236,-0.3316 -0.593007,-1.28812 -0.556226,-1.32333 0.02448,-0.0234 0.638798,-0.21987 2.323147,-0.93754 2.93597,-1.25093 3.128819,-1.34121 4.667818,-2.18513 l 1.605336,-0.88028 1.432454,-1.23174 c 1.287892,-1.10745 1.720785,-1.24163 2.653628,-2.41054 l 1.020722,-1.27902 0.909719,-1.67442 0.909709,-1.67439 0.0845,-0.86183 c 0.141231,-1.44168 0.07556,-2.0425 -0.890093,-8.14841 -0.445351,-2.81583 -0.793255,-5.13417 -0.773129,-5.15185 0.05949,-0.0523 1.444118,-0.30861 1.479016,-0.27381 0.01756,0.0176 0.360186,2.12647 0.761347,4.68656 l 0.729366,4.65468 0.103874,1.89063 0.103874,1.89063 -0.648331,1.95383 -0.64832,1.95384 -1.468522,1.70693 c -1.328016,1.54361 -1.575984,1.80523 -2.591291,2.73405 l -1.122757,1.02709 -1.245097,0.71416 c -0.684814,0.39279 -2.089756,1.17412 -3.122113,1.73629 -1.032347,0.56218 -2.949127,1.6768 -4.310059,2.3832 -0.61038,0.31682 -0.820631,0.41095 -1.104213,0.5749 0,0 -0.256732,0.1366 -0.289742,0.15264 z"
       id="path897"
       inkscape:export-xdpi="500"
       inkscape:export-ydpi="500"
       sodipodi:nodetypes="cssscssccccsscscccccsscsssccc" />
    <path
       style="fill:#008000;fill-opacity:1;stroke:none;stroke-width:0.27309;stroke-linecap:round"
       d="m 44.233834,265.44696 c -0.0994,-0.25322 -0.274926,-0.97998 -0.493658,-2.04376 -0.186687,-0.90794 -0.498522,-2.3932 -0.692967,-3.30057 -0.194445,-0.90739 -0.404908,-1.99328 -0.467679,-2.41312 l -0.114124,-0.76333 0.140688,-0.14402 c 0.140614,-0.14395 0.145605,-0.1449 9.738426,-1.85867 5.278749,-0.94308 9.65723,-1.71485 9.729974,-1.71507 0.263752,-0.002 0.403652,0.34987 0.559783,1.40316 0.09887,0.66715 0.139905,1.06297 0.03167,1.18625 0,0 -1.262348,0.95271 -1.980787,1.07358 -0.664163,0.11173 -2.308103,-0.18797 -2.678287,-0.15355 -0.651527,0.0606 -3.903599,1.07228 -4.882339,1.26197 -0.993452,0.22118 -3.172383,0.61172 -4.77326,0.91968 l -0.687582,0.27499 -0.687593,0.41751 -0.490734,0.63854 c 0,0 -0.323902,0.78864 -0.519899,1.57593 -0.122576,0.49236 -0.274572,1.09794 -0.442109,1.79911 -0.106003,0.44333 -0.219977,1.00401 -0.253364,1.24595 -0.04853,0.35202 -0.09366,0.49124 -0.225586,0.69691 -0.158333,0.24678 -0.174691,0.2577 -0.410644,0.27419 l -0.245722,0.0171 z"
       id="path923"
       inkscape:export-xdpi="500"
       inkscape:export-ydpi="500"
       inkscape:connector-curvature="0"
       sodipodi:nodetypes="csssccscccsscccccscccccc" />
    <path
       style="fill:#d3bc5f;fill-opacity:1;stroke:none;stroke-width:0.27309;stroke-linecap:round"
       d="m 46.32249,275.52944 c -0.0734,0.0198 -0.512097,-2.259 -1.039935,-4.76273 -0.521349,-2.47296 -1.014206,-4.56878 -1.028319,-4.62973 -0.02267,-0.0981 -0.0064,-0.11079 0.141273,-0.11079 0.09185,0 0.269403,-0.0139 0.394669,-0.0311 0.214348,-0.0293 0.238954,-0.0491 0.418286,-0.33411 0.162314,-0.25811 0.199798,-0.37203 0.253098,-0.76914 0.03438,-0.2564 0.138229,-0.78419 0.230737,-1.17285 0.131503,-0.55247 0.246695,-0.9597 0.310733,-1.33043 0.08909,-0.51576 0.404127,-1.50103 0.479063,-1.78476 0.22515,-0.8526 1.151121,-1.13661 1.509902,-1.37817 0.326332,-0.21973 4.686829,-0.9318 5.157759,-1.04184 0.88087,-0.20585 3.783705,-1.02485 4.420734,-1.20997 0.58531,-0.17009 2.191239,0.15718 3.031568,0.0317 0.610041,-0.0911 1.659231,-0.68028 2.143436,-1.05396 l 0.02852,0.19874 c 0.01564,0.10931 0.162932,1.35113 0.327172,2.75959 0.24006,2.05864 0.458218,3.56946 1.112391,7.70378 0.516807,3.2662 0.79566,5.15407 0.764168,5.17347 -0.07588,0.0467 -1.38934,0.308 -1.415808,0.28163 -0.01277,-0.0127 -0.04779,-0.17141 -0.07801,-0.35263 -0.0496,-0.29876 -0.06439,-0.32691 -0.157983,-0.30221 -0.30495,0.0805 -0.625151,0.14101 -0.644286,0.12194 -0.01192,-0.0119 -0.418999,-1.96016 -0.904494,-4.32934 l -0.882697,-4.30761 -0.377183,-0.28895 -0.377193,-0.28894 -0.450364,0.13772 -0.450363,0.13775 -0.140134,0.30816 -0.140145,0.30815 0.140262,0.65564 c 0.07716,0.36059 0.531238,2.3265 1.009102,4.36866 0.477886,2.04217 0.915986,3.74158 0.907748,3.74978 -0.01437,0.0143 -14.058423,3.39648 -14.103634,3.39648 -0.01192,0 -0.23663,0.0506 -0.310315,0.0705 z m 6.262643,-2.63564 c 0.743287,-0.17736 2.133648,-0.49859 3.089717,-0.71384 0.956058,-0.21524 1.796929,-0.41801 1.868619,-0.45056 0.07173,-0.0326 0.174639,-0.14581 0.228811,-0.2517 l 0.09845,-0.19247 -0.258046,-1.20429 -0.258036,-1.20428 0.210302,-0.21364 c 0.206046,-0.20932 0.209633,-0.21869 0.176225,-0.46081 -0.08738,-0.63318 -0.316827,-1.03639 -0.777738,-1.36654 -0.224904,-0.16109 -0.256652,-0.16928 -0.655759,-0.16928 l -0.419403,0 0.167827,-0.21923 c 0.09238,-0.12056 0.225522,-0.34485 0.296042,-0.4984 0.118827,-0.25878 0.124511,-0.30219 0.0778,-0.59365 -0.02778,-0.17298 -0.128661,-0.53041 -0.22433,-0.79434 -0.145669,-0.40189 -0.215731,-0.52246 -0.431195,-0.7421 -0.735517,-0.74971 -1.613766,-0.95966 -3.218996,-0.76951 -1.240808,0.14695 -2.054017,0.52021 -2.801848,1.286 -0.85062,0.87106 -0.805994,2.44758 0.09547,3.37138 l 0.318168,0.32606 -0.165581,0.031 c -0.206748,0.0386 -0.3715,0.29227 -0.53192,0.81886 -0.121413,0.39853 -0.113985,0.79298 0.02107,1.11507 0.05034,0.12006 0.356334,0.38463 0.503663,0.43547 0.0053,0.002 0.122946,0.50134 0.261654,1.1101 0.341051,1.49685 0.307143,1.41083 0.610506,1.54912 0.139965,0.0639 0.279833,0.11783 0.310825,0.12005 0.03108,0.002 0.664465,-0.14108 1.407741,-0.31844 z"
       id="path952"
       inkscape:export-xdpi="500"
       inkscape:export-ydpi="500"
       sodipodi:nodetypes="ssssccssssssssccsssscssscccccccsssssscssscccssssccscsssssccsscscccc"
       inkscape:connector-curvature="0" />
    <path
       style="fill:#bfd9bc;fill-opacity:1;stroke:none;stroke-width:0.136546;stroke-linecap:round"
       d="m 50.983394,272.94471 c -0.16076,-0.0666 -0.205205,-0.0971 -0.238538,-0.16323 -0.02246,-0.0447 -0.159835,-0.60225 -0.305141,-1.23901 l -0.264177,-1.15773 0.08557,-0.14731 c 0.05417,-0.0931 0.091,-0.19423 0.100043,-0.27493 0.03225,-0.28528 0.216082,-0.4778 0.492392,-0.51556 0.24172,-0.0331 0.482387,0.1199 0.538539,0.34222 0.01607,0.064 0.0364,0.11646 0.04491,0.11668 0.0085,0 1.006005,-0.2442 2.216523,-0.54313 l 2.200943,-0.54352 0.01405,-0.13624 c 0.0182,-0.1758 0.103768,-0.34374 0.223266,-0.43836 0.08461,-0.0669 0.113006,-0.0751 0.26124,-0.0751 0.14504,0 0.178225,0.01 0.259132,0.0706 0.111207,0.0846 0.178725,0.18715 0.218923,0.33267 0.02522,0.0913 0.05247,0.12288 0.178172,0.20696 0.08163,0.0546 0.152214,0.10217 0.156887,0.1059 0.0043,0.003 0.123361,0.54132 0.26373,1.19473 l 0.255226,1.18806 -0.05779,0.1137 c -0.09866,0.19407 -0.133812,0.20552 -1.741575,0.56648 -0.794628,0.1784 -2.168684,0.49531 -3.053446,0.70423 -0.884762,0.20892 -1.618278,0.37851 -1.630028,0.37687 -0.01181,-0.002 -0.110281,-0.0398 -0.218955,-0.0849 z"
       id="path954"
       inkscape:export-xdpi="500"
       inkscape:export-ydpi="500" />
    <path
       style="fill:#aade87;fill-opacity:1;stroke:none;stroke-width:0.27309;stroke-linecap:round"
       d="m 43.416965,267.29257 c -0.944486,-4.72151 -1.704371,-8.01252 -1.896798,-9.17644 l -0.199431,-1.20628 v 0 c 0.545545,-0.10068 1.008751,-0.18243 1.029344,-0.1816 0.02065,0.002 0.01192,0.0421 -0.01905,0.0919 -0.08504,0.13574 0.09962,1.31125 0.499714,3.18088 0.800023,3.73879 1.261139,5.92348 2.350665,11.01292 0.637828,2.97945 0.964702,4.55714 0.964702,4.55714 -0.0032,0.005 -0.722965,0.19305 -0.992109,0.24148 l -0.329943,-1.4859 z"
       id="path956"
       inkscape:export-xdpi="500"
       inkscape:export-ydpi="500"
       sodipodi:nodetypes="sscccccscccs" />
    <path
       style="fill:#aade87;fill-opacity:1;stroke:none;stroke-width:0.27309;stroke-linecap:round"
       d="m 63.577116,261.34598 c 0,-0.0107 -0.145604,-1.24779 -0.323564,-2.74883 -0.177959,-1.50105 -0.343296,-3.01822 -0.367434,-3.37148 -0.04896,-0.7154 -0.205119,-1.56167 -0.347829,-1.88386 -0.06854,-0.15483 -0.07759,-0.21664 -0.03374,-0.23059 0.168529,-0.0535 1.322853,-0.23581 1.346183,-0.21256 0.02171,0.0216 1.257613,7.99979 1.257613,8.11814 0,0.018 -0.305631,0.0926 -0.679185,0.1657 -0.373543,0.0732 -0.718073,0.14426 -0.765615,0.15806 -0.04747,0.0138 -0.08642,0.0162 -0.08642,0.005 z"
       id="path958"
       inkscape:export-xdpi="500"
       inkscape:export-ydpi="500" />
    <path
       style="fill:#d3bc5f;fill-opacity:1;stroke:none;stroke-width:0.193105;stroke-linecap:round"
       d="m 49.621718,287.76243 c -0.0096,-0.0244 -0.81371,-2.16303 -1.901614,-5.06294 l -2.026752,-5.4025 1.818992,-0.42314 c 10.48169,-2.43834 16.105396,-3.74828 16.110675,-3.75271 0.0032,-0.003 -0.0096,-0.18302 -0.02959,-0.4002 -0.01969,-0.21717 -0.02256,-0.40674 -0.0064,-0.42126 0.03406,-0.0304 1.44397,-0.32623 1.463297,-0.30698 0.0075,0.007 0.04619,0.4666 0.08716,1.0212 l 0.07429,1.0084 -0.07354,0.73128 c -0.04055,0.40221 -0.08121,0.7784 -0.09046,0.83599 -0.0096,0.0576 -0.408122,0.82398 -0.886465,1.70314 l -0.816549,1.74611 -0.792688,0.92013 -0.983343,1.15846 -1.899292,1.53625 -1.501684,1.19267 -1.606656,0.87932 -1.606666,0.87933 -2.774195,1.20352 c -1.618529,0.70216 -2.264582,1.00659 -2.327439,1.03298 -0.09153,0.0384 -0.183197,0.074 -0.19649,0.0378 z"
       id="path960"
       inkscape:export-xdpi="500"
       inkscape:export-ydpi="500"
       sodipodi:nodetypes="cscsccccccccscccccccsscc" />
    <path
       style="fill:#000000;fill-opacity:1;stroke:none;stroke-width:0.0965516;stroke-linecap:round"
       d="m 52.026735,241.00157 c -0.187911,-0.07 -0.316753,-0.19609 -0.374427,-0.36635 -0.04395,-0.12951 -0.02756,-0.32545 0.03672,-0.44344 0.196127,-0.35927 0.677024,-0.40813 0.94069,-0.0956 0.08663,0.1027 0.122946,0.2099 0.122925,0.36273 -1.1e-5,0.11868 -0.0074,0.15419 -0.05045,0.24011 -0.05928,0.11846 -0.171137,0.22735 -0.285516,0.2779 -0.102384,0.0453 -0.301001,0.0578 -0.389997,0.0247 z"
       id="path968"
       inkscape:export-xdpi="500"
       inkscape:export-ydpi="500" />
    <path
       style="fill:#000000;fill-opacity:1;stroke:none;stroke-width:0.0965516;stroke-linecap:round"
       d="m 55.260247,240.53923 c -0.15677,-0.0508 -0.303822,-0.17959 -0.37001,-0.32409 -0.05907,-0.12901 -0.05683,-0.33104 0.0053,-0.46141 0.05407,-0.11368 0.165145,-0.22733 0.276011,-0.28235 0.06556,-0.0326 0.108632,-0.0397 0.237262,-0.0397 0.184525,0 0.284302,0.0388 0.402129,0.15625 0.118061,0.11771 0.15678,0.21696 0.156354,0.40092 -4.04e-4,0.18383 -0.0397,0.28458 -0.156854,0.40138 -0.107291,0.10702 -0.219147,0.15448 -0.375427,0.15923 -0.07205,0.002 -0.150617,-0.003 -0.174638,-0.0106 z"
       id="path970"
       inkscape:export-xdpi="500"
       inkscape:export-ydpi="500" />
    <path
       style="fill:none;stroke:#000000;stroke-width:0.138098px;stroke-linecap:butt;stroke-linejoin:miter;stroke-opacity:1"
       d="m 24.520671,76.354123 3.362121,35.047117"
       id="path972"
       inkscape:export-xdpi="500"
       inkscape:export-ydpi="500" />
    <path
       style="fill:none;stroke:#000000;stroke-width:0.138098px;stroke-linecap:butt;stroke-linejoin:miter;stroke-opacity:1"
       d="M 24.138952,74.149202 17.797138,10.661443"
       id="path974"
       inkscape:export-xdpi="500"
       inkscape:export-ydpi="500"
       inkscape:connector-curvature="0"
       sodipodi:nodetypes="cc" />
    <path
       style="fill:none;stroke:#000000;stroke-width:0.138098px;stroke-linecap:butt;stroke-linejoin:miter;stroke-opacity:1"
       d="m 63.027232,257.67769 -0.815009,0.0246 -1.037295,0.24624 -2.000495,0.41861 -1.630027,0.34472 -2.494441,0.66484 -2.000484,0.51708 -1.852314,0.49249 -1.38305,0.56634 -1.185486,0.8372 -0.617435,0.68946 -0.765626,1.40355 -0.765604,1.87139 -0.222276,1.64978 0.07407,1.20656 0.148191,1.20656 0.518637,0.88644 0.568041,-0.12313 0.172883,-0.39395 c 0,0 0.172882,-1.7729 0.172882,-1.8714 0,-0.0985 0,-1.00957 0,-1.00957 l 0.172883,-1.0342 0.222265,-1.0588 0.469265,-1.23119 0.518648,-0.96033 1.234869,-1.00956 1.358358,-0.29548 1.284263,-0.17237 1.753517,-0.2216 0.963199,-0.0246 0.617435,0.29548 0.321063,0.76334 0.172882,1.20656 0.296383,0.86182 0.222265,0.93569 0.222276,1.10806 0.321074,1.00957 0.197584,1.13268 0.345765,1.42818 0.41985,0.5417 0.493935,-0.0246 0.123489,-0.66484 -0.02469,-0.76334 -0.321074,-1.57589 -0.444541,-2.14227 -0.419861,-2.06838 -0.02469,-1.00956 0.222276,-0.86183 0.790327,-0.49247 h 1.160774 l 0.642115,0.88645 0.518659,1.84677 0.568041,2.16687 1.037295,5.6265 0.116454,0.71328 1.676527,-0.34824 -1.187892,-5.22819 -0.740924,-3.32419 -0.605099,-1.63747 -0.580376,-1.31737 1.222523,-0.39397"
       id="path978"
       inkscape:export-xdpi="500"
       inkscape:export-ydpi="500" />
    <path
       style="fill:#c9c95f;fill-opacity:1;stroke:none;stroke-width:0.0108744;stroke-linecap:round;stroke-miterlimit:4;stroke-dasharray:none;stroke-opacity:1"
       d="m 63.546391,271.9918 c -0.0096,-0.0407 -0.03523,-0.16803 -0.05588,-0.28295 -0.02065,-0.11491 -0.04821,-0.23245 -0.06109,-0.26117 -0.01299,-0.0287 -0.252726,-1.29803 -0.532846,-2.82066 l -0.509335,-2.76843 -0.285973,-1.09022 c -0.23127,-0.88165 -0.719404,-2.66212 -0.794245,-2.89702 -0.0096,-0.0287 -0.164464,-0.25595 -0.345126,-0.50493 l -0.328492,-0.45269 -0.623128,-0.004 -0.623129,-0.004 -0.3975,0.24668 c -0.218625,0.13566 -0.404194,0.25253 -0.412379,0.25969 -0.0085,0.007 -0.06577,0.20769 -0.127905,0.44564 l -0.113028,0.43263 0.0096,0.53106 0.0096,0.53105 0.217699,1.07081 c 0.119732,0.58894 0.289294,1.41556 0.37681,1.83692 0.08749,0.42135 0.256227,1.2402 0.374906,1.81963 l 0.215794,1.05354 0.01192,0.38292 c 0.01181,0.37973 0.01149,0.38528 -0.04257,0.66905 -0.02991,0.15736 -0.05641,0.28807 -0.05875,0.29044 -0.0032,0.003 -0.09068,0.01 -0.196169,0.0159 l -0.191837,0.0116 -0.193243,-0.25061 -0.193231,-0.2506 -0.169786,-0.70262 c -0.110739,-0.4583 -0.205737,-0.90604 -0.273181,-1.2876 -0.09866,-0.55825 -0.110526,-0.60727 -0.259483,-1.07253 -0.133621,-0.41742 -0.171648,-0.56521 -0.264273,-1.0273 -0.178385,-0.88985 -0.330056,-1.49437 -0.489262,-1.95004 l -0.139922,-0.40046 -0.0878,-0.60941 -0.0878,-0.60941 -0.168423,-0.40339 -0.168413,-0.40341 -0.333025,-0.15868 -0.333026,-0.15867 -0.523916,0.0164 c -0.496148,0.0154 -0.574789,0.0229 -1.484412,0.13947 -1.81664,0.23288 -2.035297,0.26663 -2.750529,0.42438 l -0.654897,0.14443 -0.628982,0.51514 -0.629004,0.51515 -0.261473,0.48554 c -0.243094,0.45144 -0.277907,0.5284 -0.495255,1.09497 l -0.233781,0.6094 -0.111388,0.52235 c -0.0612,0.28727 -0.150628,0.75497 -0.198617,1.03929 l -0.08727,0.51695 v 0.50313 c 0,0.44839 -0.0074,0.58443 -0.06896,1.25034 -0.117519,1.27187 -0.100256,1.14437 -0.180311,1.33046 -0.03906,0.091 -0.07567,0.17093 -0.0812,0.17769 -0.0053,0.006 -0.114422,0.0349 -0.241923,0.0627 l -0.231812,0.0503 -0.09302,-0.15844 c -0.05109,-0.0872 -0.159941,-0.27266 -0.241731,-0.41225 l -0.148691,-0.25382 -0.07269,-0.59064 c -0.048,-0.38974 -0.08525,-0.79792 -0.109409,-1.20003 l -0.03672,-0.60941 0.108057,-0.80093 0.108078,-0.80094 0.375937,-0.9228 0.375949,-0.92281 0.384696,-0.70723 0.384697,-0.70723 0.304322,-0.34019 0.304321,-0.3402 0.557548,-0.39355 c 0.306631,-0.21644 0.583398,-0.40834 0.615018,-0.42644 0.03161,-0.0181 0.3561,-0.15452 0.721086,-0.30311 l 0.663635,-0.27017 0.98671,-0.26162 c 0.542679,-0.1439 1.42677,-0.37535 1.964649,-0.51436 0.53789,-0.13899 1.508444,-0.39439 2.156775,-0.56756 1.234358,-0.3297 1.311168,-0.34724 3.850745,-0.87947 0.5667,-0.11875 1.2622,-0.27046 1.545544,-0.33714 l 0.515178,-0.12123 0.348937,-0.005 0.348947,-0.005 0.125778,1.06211 c 0.06918,0.58414 0.120423,1.06707 0.113857,1.07317 -0.0064,0.006 -0.286995,0.0991 -0.623171,0.20657 -0.336176,0.10753 -0.620159,0.20049 -0.631058,0.20657 -0.01309,0.007 0.08301,0.24416 0.283611,0.69884 0.221563,0.50218 0.385825,0.9109 0.608782,1.51479 l 0.305354,0.82704 0.366349,1.64539 c 0.201501,0.90497 0.597851,2.66396 0.880802,3.90888 0.423671,1.86421 0.521011,2.31685 0.551726,2.56596 0.02043,0.16634 0.03491,0.30476 0.03214,0.30758 -0.02948,0.0293 -1.281336,0.28664 -1.394214,0.28664 -0.0075,0 -0.02097,-0.0332 -0.03097,-0.074 z"
       id="path980"
       inkscape:export-xdpi="500"
       inkscape:export-ydpi="500" />
    <path
       style="fill:none;stroke:#000000;stroke-width:0.138098px;stroke-linecap:butt;stroke-linejoin:miter;stroke-opacity:1"
       d="m 63.464813,272.21712 0.06982,0.83575 0.159451,0.99951 -0.246978,1.47741 -0.938497,1.45279 -1.407752,1.37892 -1.827612,1.35429 -1.778219,1.05882 -2.469739,0.88646 h -1.80291 l -1.753527,-0.73872 -1.654719,-1.10806 -1.185476,-0.68946 -0.518648,0.34473 -0.271669,0.98494 0.790317,0.73871 1.061986,0.76333 1.358359,0.76334 1.704134,0.56635 1.654708,0.27086 2.46976,-0.54174 2.198058,-1.10806 1.580634,-1.05881 1.852315,-1.72365 1.407751,-1.72366 1.207475,-1.68435"
       id="path982"
       inkscape:export-xdpi="500"
       inkscape:export-ydpi="500" />
    <path
       style="fill:#c9c95f;fill-opacity:1;stroke:none;stroke-width:0.0108744;stroke-linecap:round;stroke-miterlimit:4;stroke-dasharray:none;stroke-opacity:1"
       d="m 53.538882,283.33558 -0.803344,-0.13563 -0.829909,-0.27785 -0.829908,-0.27786 -0.663242,-0.37218 c -0.612815,-0.34389 -0.70395,-0.4014 -1.198875,-0.75648 -0.482855,-0.3464 -0.57266,-0.41899 -0.911209,-0.73651 l -0.375565,-0.35223 0.04236,-0.15199 c 0.0232,-0.0836 0.07897,-0.28674 0.123712,-0.45145 l 0.08131,-0.29946 0.22599,-0.15009 c 0.124298,-0.0825 0.236207,-0.14619 0.248681,-0.14141 0.01256,0.004 0.276938,0.15685 0.587688,0.33795 0.388123,0.22618 0.818946,0.49967 1.37611,0.87354 l 0.811103,0.54429 0.883538,0.3726 0.883527,0.37261 h 0.932804 0.932782 l 1.237349,-0.44412 1.237338,-0.44411 0.902812,-0.53825 0.902834,-0.53823 0.906973,-0.67268 0.906984,-0.67268 0.709208,-0.69402 0.709198,-0.69405 0.468349,-0.72518 c 0.257589,-0.39885 0.475448,-0.75015 0.484144,-0.78065 0.02512,-0.0882 0.242199,-1.41433 0.242199,-1.47967 0,-0.0325 -0.03054,-0.25416 -0.06801,-0.49269 -0.06301,-0.4016 -0.107344,-0.87292 -0.106854,-1.1349 2.77e-4,-0.13277 -0.03416,-0.11558 0.441072,-0.22001 0.297042,-0.0652 0.482494,-0.10291 0.959953,-0.19512 0.03895,-0.007 0.04896,-0.002 0.05651,0.0312 0.01064,0.0461 0.05875,0.64151 0.116592,1.43571 l 0.03948,0.54213 -0.04874,0.49386 c -0.105364,1.06644 -0.105151,1.06562 -0.193381,1.2479 -0.05524,0.11412 -0.230747,0.37423 -0.59336,0.87927 -0.410761,0.5721 -0.656451,0.89054 -1.214307,1.57376 l -0.699363,0.85655 -0.924237,0.86022 -0.924236,0.86022 -0.773799,0.51919 -0.773789,0.51921 -1.100216,0.55653 -1.100216,0.5565 -1.219192,0.26759 c -0.670564,0.14718 -1.236391,0.26684 -1.2574,0.2659 -0.02097,-0.002 -0.399671,-0.0627 -0.841509,-0.13731 z"
       id="path984"
       inkscape:export-xdpi="500"
       inkscape:export-ydpi="500" />
    <path
       style="fill:#a05a2c;fill-opacity:1;stroke:none;stroke-width:0.0108744;stroke-linecap:round;stroke-miterlimit:4;stroke-dasharray:none;stroke-opacity:1"
       d="m 61.139147,271.87198 c -0.0053,-0.0225 -0.407866,-1.74099 -0.893915,-3.81905 -0.771607,-3.29878 -1.09085,-4.70167 -1.091563,-4.79679 -1.17e-4,-0.0144 0.04779,-0.13652 0.106429,-0.27132 l 0.106599,-0.24512 0.364368,-0.10991 0.364369,-0.1099 0.32184,0.24 0.321851,0.24002 0.04683,0.23688 c 0.02586,0.13029 0.419627,2.05489 0.875173,4.27689 0.455546,2.222 0.828216,4.05151 0.828152,4.06559 -8.5e-5,0.0194 -0.154715,0.0613 -0.633058,0.17201 -0.348128,0.0805 -0.649597,0.14977 -0.669957,0.15393 -0.02746,0.005 -0.0397,-0.003 -0.04715,-0.0332 z"
       id="path986"
       inkscape:export-xdpi="500"
       inkscape:export-ydpi="500" />
    <text
       xml:space="preserve"
       style="font-size:3.68264px;line-height:1.25;font-family:sans-serif;letter-spacing:0px;stroke-width:0.138098"
       x="17.753071"
       y="8.7592793"
       id="text990"
       inkscape:export-xdpi="500"
       inkscape:export-ydpi="500"
       transform="scale(1.0014982,0.99850404)"><tspan
         sodipodi:role="line"
         id="tspan988"
         x="17.753071"
         y="8.7592793"
         style="font-size:3.68264px;stroke-width:0.138098">1</tspan></text>
    <text
       xml:space="preserve"
       style="font-style:normal;font-variant:normal;font-weight:normal;font-stretch:normal;font-size:3.68264px;line-height:1.25;font-family:sans-serif;-inkscape-font-specification:'sans-serif, Normal';font-variant-ligatures:normal;font-variant-caps:normal;font-variant-numeric:normal;font-variant-east-asian:normal;letter-spacing:0px;stroke-width:0.138098"
       x="15.59081"
       y="38.333439"
       id="text994"
       inkscape:export-xdpi="500"
       inkscape:export-ydpi="500"
       transform="scale(1.0014982,0.99850404)"><tspan
         sodipodi:role="line"
         id="tspan992"
         x="15.59081"
         y="38.333439"
         style="font-style:normal;font-variant:normal;font-weight:normal;font-stretch:normal;font-size:3.68264px;font-family:sans-serif;-inkscape-font-specification:'sans-serif, Normal';font-variant-ligatures:normal;font-variant-caps:normal;font-variant-numeric:normal;font-variant-east-asian:normal;stroke-width:0.138098">2</tspan></text>
    <text
       xml:space="preserve"
       style="font-style:normal;font-variant:normal;font-weight:normal;font-stretch:normal;font-size:3.68264px;line-height:1.25;font-family:sans-serif;-inkscape-font-specification:'sans-serif, Normal';font-variant-ligatures:normal;font-variant-caps:normal;font-variant-numeric:normal;font-variant-east-asian:normal;letter-spacing:0px;stroke-width:0.138098"
       x="22.844852"
       y="48.935497"
       id="text998"
       inkscape:export-xdpi="500"
       inkscape:export-ydpi="500"
       transform="scale(1.0014982,0.99850404)"><tspan
         sodipodi:role="line"
         id="tspan996"
         x="22.844852"
         y="48.935497"
         style="font-style:normal;font-variant:normal;font-weight:normal;font-stretch:normal;font-size:3.68264px;font-family:sans-serif;-inkscape-font-specification:'sans-serif, Normal';font-variant-ligatures:normal;font-variant-caps:normal;font-variant-numeric:normal;font-variant-east-asian:normal;stroke-width:0.138098">3</tspan></text>
    <text
       xml:space="preserve"
       style="font-style:normal;font-variant:normal;font-weight:normal;font-stretch:normal;font-size:3.68264px;line-height:1.25;font-family:sans-serif;-inkscape-font-specification:'sans-serif, Normal';font-variant-ligatures:normal;font-variant-caps:normal;font-variant-numeric:normal;font-variant-east-asian:normal;letter-spacing:0px;stroke-width:0.138098"
       x="18.659822"
       y="78.997902"
       id="text1002"
       inkscape:export-xdpi="500"
       inkscape:export-ydpi="500"
       transform="scale(1.0014982,0.99850404)"><tspan
         sodipodi:role="line"
         id="tspan1000"
         x="18.659822"
         y="78.997902"
         style="font-style:normal;font-variant:normal;font-weight:normal;font-stretch:normal;font-size:3.68264px;font-family:sans-serif;-inkscape-font-specification:'sans-serif, Normal';font-variant-ligatures:normal;font-variant-caps:normal;font-variant-numeric:normal;font-variant-east-asian:normal;stroke-width:0.138098">4</tspan></text>
    <text
       xml:space="preserve"
       style="font-style:normal;font-variant:normal;font-weight:normal;font-stretch:normal;font-size:3.68264px;line-height:1.25;font-family:sans-serif;-inkscape-font-specification:'sans-serif, Normal';font-variant-ligatures:normal;font-variant-caps:normal;font-variant-numeric:normal;font-variant-east-asian:normal;letter-spacing:0px;stroke-width:0.138098"
       x="21.03134"
       y="91.204231"
       id="text1006"
       inkscape:export-xdpi="500"
       inkscape:export-ydpi="500"
       transform="scale(1.0014982,0.99850404)"><tspan
         sodipodi:role="line"
         id="tspan1004"
         x="21.03134"
         y="91.204231"
         style="font-style:normal;font-variant:normal;font-weight:normal;font-stretch:normal;font-size:3.68264px;font-family:sans-serif;-inkscape-font-specification:'sans-serif, Normal';font-variant-ligatures:normal;font-variant-caps:normal;font-variant-numeric:normal;font-variant-east-asian:normal;stroke-width:0.138098">5</tspan></text>
    <text
       xml:space="preserve"
       style="font-size:10.5833px;line-height:1.25;font-family:sans-serif;letter-spacing:0px;stroke-width:0.264583"
       x="113.05501"
       y="57.062046"
       id="text1010"><tspan
         sodipodi:role="line"
         id="tspan1008"
         x="113.05501"
         y="57.062046"
         style="stroke-width:0.264583" /></text>
    <text
       xml:space="preserve"
       style="font-style:normal;font-variant:normal;font-weight:normal;font-stretch:normal;font-size:3.68264px;line-height:1.25;font-family:sans-serif;-inkscape-font-specification:'sans-serif, Normal';font-variant-ligatures:normal;font-variant-caps:normal;font-variant-numeric:normal;font-variant-east-asian:normal;letter-spacing:0px;stroke-width:0.138098"
       x="28.006384"
       y="98.039749"
       id="text1014"
       inkscape:export-xdpi="500"
       inkscape:export-ydpi="500"
       transform="scale(1.0014982,0.99850404)"><tspan
         sodipodi:role="line"
         id="tspan1012"
         x="28.006384"
         y="98.039749"
         style="font-style:normal;font-variant:normal;font-weight:normal;font-stretch:normal;font-size:3.68264px;font-family:sans-serif;-inkscape-font-specification:'sans-serif, Normal';font-variant-ligatures:normal;font-variant-caps:normal;font-variant-numeric:normal;font-variant-east-asian:normal;stroke-width:0.138098">6</tspan></text>
    <text
       xml:space="preserve"
       style="font-size:3.68264px;line-height:1.25;font-family:sans-serif;-inkscape-font-specification:'sans-serif, Normal';letter-spacing:0px;stroke-width:0.138098"
       x="29.56732"
       y="145.90788"
       id="text1018"
       inkscape:export-xdpi="500"
       inkscape:export-ydpi="500"
       transform="scale(1.0014982,0.99850404)"><tspan
         sodipodi:role="line"
         id="tspan1016"
         x="29.56732"
         y="145.90788"
         style="stroke-width:0.138098">7</tspan></text>
    <path
       style="fill:none;stroke:#000000;stroke-width:0.138317;stroke-linecap:square;stroke-linejoin:miter;stroke-miterlimit:4;stroke-dasharray:none;stroke-opacity:1"
       d="m 36.79856,215.76835 20.918728,-3.8413"
       id="path1024"
       inkscape:export-xdpi="500"
       inkscape:export-ydpi="500" />
    <text
       xml:space="preserve"
       style="font-size:3.68264px;line-height:1.25;font-family:sans-serif;-inkscape-font-specification:'sans-serif, Normal';letter-spacing:0px;stroke-width:0.138098"
       x="26.460089"
       y="115.97005"
       id="text1028"
       inkscape:export-xdpi="500"
       inkscape:export-ydpi="500"
       transform="scale(1.0014982,0.99850404)"><tspan
         sodipodi:role="line"
         id="tspan1026"
         x="26.460089"
         y="115.97005"
         style="stroke-width:0.138098">1</tspan></text>
    <text
       xml:space="preserve"
       style="font-size:3.68264px;line-height:1.25;font-family:sans-serif;-inkscape-font-specification:'sans-serif, Normal';letter-spacing:0px;stroke-width:0.138098"
       x="36.916126"
       y="182.25742"
       id="text1032"
       inkscape:export-xdpi="500"
       inkscape:export-ydpi="500"
       transform="scale(1.0014982,0.99850404)"><tspan
         sodipodi:role="line"
         id="tspan1030"
         x="36.916126"
         y="182.25742"
         style="stroke-width:0.138098">1</tspan></text>
    <text
       xml:space="preserve"
       style="font-size:3.68264px;line-height:1.25;font-family:sans-serif;-inkscape-font-specification:'sans-serif, Normal';letter-spacing:0px;stroke-width:0.138098"
       x="37.409344"
       y="238.87787"
       id="text1036"
       inkscape:export-xdpi="500"
       inkscape:export-ydpi="500"
       transform="scale(1.0014982,0.99850404)"><tspan
         sodipodi:role="line"
         id="tspan1034"
         x="37.409344"
         y="238.87787"
         style="stroke-width:0.138098">1</tspan></text>
    <text
       xml:space="preserve"
       style="font-size:3.68264px;line-height:1.25;font-family:sans-serif;-inkscape-font-specification:'sans-serif, Normal';letter-spacing:0px;stroke-width:0.138098"
       x="46.040512"
       y="228.76711"
       id="text1040"
       inkscape:export-xdpi="500"
       inkscape:export-ydpi="500"
       transform="scale(1.0014982,0.99850404)"><tspan
         sodipodi:role="line"
         id="tspan1038"
         x="46.040512"
         y="228.76711"
         style="stroke-width:0.138098">8</tspan></text>
    <text
       xml:space="preserve"
       style="font-size:3.68264px;line-height:1.25;font-family:sans-serif;-inkscape-font-specification:'sans-serif, Normal';letter-spacing:0px;stroke-width:0.138098"
       x="50.725994"
       y="258.31033"
       id="text1044"
       inkscape:export-xdpi="500"
       inkscape:export-ydpi="500"
       transform="scale(1.0014982,0.99850404)"><tspan
         sodipodi:role="line"
         id="tspan1042"
         x="50.725994"
         y="258.31033"
         style="stroke-width:0.138098">9</tspan></text>
    <text
       xml:space="preserve"
       style="font-size:1.90419px;line-height:1.25;font-family:sans-serif;-inkscape-font-specification:'sans-serif, Normal';letter-spacing:0px;stroke-width:0.0714073"
       x="48.36639"
       y="222.02809"
       id="text1048"
       transform="scale(0.84832141,1.1787985)"
       inkscape:export-xdpi="500"
       inkscape:export-ydpi="500"><tspan
         sodipodi:role="line"
         id="tspan1046"
         x="48.36639"
         y="222.02809"
         style="stroke-width:0.0714073">10</tspan></text>
    <text
       xml:space="preserve"
       style="font-size:1.74059px;line-height:1.25;font-family:sans-serif;-inkscape-font-specification:'sans-serif, Normal';letter-spacing:0px;stroke-width:0.065272"
       x="76.980408"
       y="212.59744"
       id="text1052"
       transform="scale(0.81972522,1.219921)"
       inkscape:export-xdpi="500"
       inkscape:export-ydpi="500"><tspan
         sodipodi:role="line"
         id="tspan1050"
         x="76.980408"
         y="212.59744"
         style="stroke-width:0.065272">11</tspan></text>
    <text
       xml:space="preserve"
       style="font-size:2.38622999px;line-height:1.25;font-family:sans-serif;-inkscape-font-specification:'sans-serif, Normal';letter-spacing:0px;stroke-width:0.0894836"
       x="48.523178"
       y="251.3476"
       id="text1056"
       transform="scale(0.96112583,1.0404465)"
       inkscape:export-xdpi="500"
       inkscape:export-ydpi="500"><tspan
         sodipodi:role="line"
         id="tspan1054"
         x="48.523178"
         y="251.3476"
         style="stroke-width:0.0894836">12</tspan></text>
    <text
       xml:space="preserve"
       style="font-size:2.15804px;line-height:1.25;font-family:sans-serif;-inkscape-font-specification:'sans-serif, Normal';letter-spacing:0px;stroke-width:0.0809267"
       x="56.968052"
       y="258.37402"
       id="text1060"
       transform="scale(0.99013145,1.0099669)"
       inkscape:export-xdpi="500"
       inkscape:export-ydpi="500"><tspan
         sodipodi:role="line"
         id="tspan1058"
         x="56.968052"
         y="258.37402"
         style="stroke-width:0.0809267">13</tspan></text>
    <text
       xml:space="preserve"
       style="font-size:2.70629px;line-height:1.25;font-family:sans-serif;-inkscape-font-specification:'sans-serif, Normal';letter-spacing:0px;stroke-width:0.101485"
       x="52.560448"
       y="257.57797"
       id="text1064"
       transform="scale(0.9669044,1.0342284)"
       inkscape:export-xdpi="500"
       inkscape:export-ydpi="500"><tspan
         sodipodi:role="line"
         id="tspan1062"
         x="52.560448"
         y="257.57797"
         style="stroke-width:0.101485">14</tspan></text>
    <text
       xml:space="preserve"
       style="font-size:1.64363px;line-height:1.25;font-family:sans-serif;-inkscape-font-specification:'sans-serif, Normal';letter-spacing:0px;stroke-width:0.0616362"
       x="58.215061"
       y="242.69594"
       id="text1068"
       transform="scale(0.90227732,1.1083067)"
       inkscape:export-xdpi="500"
       inkscape:export-ydpi="500"><tspan
         sodipodi:role="line"
         id="tspan1066"
         x="58.215061"
         y="242.69594"
         style="stroke-width:0.0616362">15</tspan></text>
    <text
       xml:space="preserve"
       style="font-size:2.822px;line-height:1.25;font-family:sans-serif;-inkscape-font-specification:'sans-serif, Normal';letter-spacing:0px;stroke-width:0.105825"
       x="51.276897"
       y="277.4722"
       id="text1072"
       transform="scale(1.0204071,0.98000102)"
       inkscape:export-xdpi="500"
       inkscape:export-ydpi="500"><tspan
         sodipodi:role="line"
         id="tspan1070"
         x="51.276897"
         y="277.4722"
         style="stroke-width:0.105825">16</tspan></text>
    <text
       xml:space="preserve"
       style="font-size:1.60994px;line-height:1.25;font-family:sans-serif;-inkscape-font-specification:'sans-serif, Normal';letter-spacing:0px;stroke-width:0.0603728"
       x="71.876335"
       y="225.84973"
       id="text1076"
       transform="scale(0.83819501,1.1930398)"
       inkscape:export-xdpi="500"
       inkscape:export-ydpi="500"><tspan
         sodipodi:role="line"
         id="tspan1074"
         x="71.876335"
         y="225.84973"
         style="stroke-width:0.0603728">17</tspan></text>
    <text
       xml:space="preserve"
       style="font-size:1.2363px;line-height:1.25;font-family:sans-serif;-inkscape-font-specification:'sans-serif, Normal';letter-spacing:0px;stroke-width:0.0463613"
       x="56.740692"
       y="267.69312"
       id="text1080"
       transform="scale(0.97500963,1.0256309)"
       inkscape:export-xdpi="500"
       inkscape:export-ydpi="500"><tspan
         sodipodi:role="line"
         id="tspan1078"
         x="56.740692"
         y="267.69312"
         style="stroke-width:0.0463613">18</tspan></text>
    <text
       xml:space="preserve"
       style="font-size:2.91722px;line-height:1.25;font-family:sans-serif;-inkscape-font-specification:'sans-serif, Normal';letter-spacing:0px;stroke-width:0.109395"
       x="54.310726"
       y="274.21576"
       id="text1084"
       transform="scale(0.98524498,1.014976)"
       inkscape:export-xdpi="500"
       inkscape:export-ydpi="500"><tspan
         sodipodi:role="line"
         id="tspan1082"
         x="54.310726"
         y="274.21576"
         style="stroke-width:0.109395">19</tspan></text>
    <text
       xml:space="preserve"
       style="font-size:1.82005px;line-height:1.25;font-family:sans-serif;-inkscape-font-specification:'sans-serif, Normal';letter-spacing:0px;stroke-width:0.0682508"
       x="56.262451"
       y="268.62418"
       id="text1060-3"
       transform="scale(0.94837736,1.0544326)"
       inkscape:export-xdpi="500"
       inkscape:export-ydpi="500"><tspan
         sodipodi:role="line"
         id="tspan1058-6"
         x="56.262451"
         y="268.62418"
         style="stroke-width:0.0682508">13</tspan></text>
    <text
       xml:space="preserve"
       style="font-size:1.43781px;line-height:1.25;font-family:sans-serif;-inkscape-font-specification:'sans-serif, Normal';letter-spacing:0px;stroke-width:0.053917"
       x="74.938148"
       y="234.78896"
       id="text1124"
       transform="scale(0.86684273,1.1536118)"
       inkscape:export-xdpi="500"
       inkscape:export-ydpi="500"><tspan
         sodipodi:role="line"
         id="tspan1122"
         x="74.938148"
         y="234.78896"
         style="stroke-width:0.053917">20</tspan></text>
  </g>
</svg>
