<?xml version="1.0" encoding="UTF-8" standalone="no"?>
<svg
   xmlns:dc="http://purl.org/dc/elements/1.1/"
   xmlns:cc="http://creativecommons.org/ns#"
   xmlns:rdf="http://www.w3.org/1999/02/22-rdf-syntax-ns#"
   xmlns:svg="http://www.w3.org/2000/svg"
   xmlns="http://www.w3.org/2000/svg"
   xmlns:sodipodi="http://sodipodi.sourceforge.net/DTD/sodipodi-0.dtd"
   xmlns:inkscape="http://www.inkscape.org/namespaces/inkscape"
   width="28mm"
   height="38mm"
   viewBox="0 0 28 37.999999"
   version="1.1"
   id="svg8"
   inkscape:version="0.91 r13725"
   sodipodi:docname="Fläche_Einteilung_Pflegegrenzen_klein.svg">
  <defs
     id="defs2" />
  <sodipodi:namedview
     id="base"
     pagecolor="#ffffff"
     bordercolor="#666666"
     borderopacity="1.0"
     inkscape:pageopacity="0.0"
     inkscape:pageshadow="2"
     inkscape:zoom="1.979899"
     inkscape:cx="11.962894"
     inkscape:cy="149.9528"
     inkscape:document-units="mm"
     inkscape:current-layer="layer1"
     inkscape:document-rotation="0"
     showgrid="false"
     inkscape:window-width="1920"
     inkscape:window-height="1017"
     inkscape:window-x="-8"
     inkscape:window-y="-8"
     inkscape:window-maximized="1" />
  <metadata
     id="metadata5">
    <rdf:RDF>
      <cc:Work
         rdf:about="">
        <dc:format>image/svg+xml</dc:format>
        <dc:type
           rdf:resource="http://purl.org/dc/dcmitype/StillImage" />
        <dc:title></dc:title>
      </cc:Work>
    </rdf:RDF>
  </metadata>
  <g
     inkscape:label="Ebene 1"
     inkscape:groupmode="layer"
     id="layer1"
     transform="translate(-2.1690763,-255.46766)">
    <path
       style="fill:none;stroke:#000000;stroke-width:0.138098px;stroke-linecap:butt;stroke-linejoin:miter;stroke-opacity:1"
       d="m 11.383745,291.82574 5.343017,-2.29221 3.248253,-1.77597 3.399345,-2.75641 1.782682,-2.09235 1.716139,-3.35206 0.174628,-1.67151 -0.157163,-2.17642 -1.676516,0.34821 0.06982,0.83577 -17.9526975,4.17875 z"
       id="path24"
       sodipodi:nodetypes="cccccccccccc"
       inkscape:export-xdpi="500"
       inkscape:export-ydpi="500"
       inkscape:connector-curvature="0" />
    <path
       style="fill:none;stroke:#000000;stroke-width:0.138098px;stroke-linecap:butt;stroke-linejoin:miter;stroke-opacity:1"
       d="m 6.9367795,279.84276 0.394473,1.22878 17.9527275,-4.17875 -0.06982,-0.83577 -0.116475,-0.71326 z"
       id="path26"
       inkscape:export-xdpi="500"
       inkscape:export-ydpi="500"
       sodipodi:nodetypes="cccccc"
       inkscape:connector-curvature="0" />
    <path
       style="fill:none;stroke:#000000;stroke-width:0.138098px;stroke-linecap:butt;stroke-linejoin:miter;stroke-opacity:1"
       d="m 26.890646,275.70881 -1.64481,-10.39917 1.728836,-0.34474 1.490308,9.51119 0.203066,3.78906 -1.298727,3.93329 -2.925774,3.40949 -2.309574,2.10917 -2.76611,1.57592 -3.260066,1.77289 -4.119556,2.21888 -0.604494,-1.45905 5.343017,-2.29221 3.248253,-1.77597 3.399345,-2.75641 1.782682,-2.09235 1.716139,-3.35206 0.174628,-1.67151 -0.157163,-2.17642"
       id="path28"
       sodipodi:nodetypes="ccccccccccccccccccc"
       inkscape:export-xdpi="500"
       inkscape:export-ydpi="500"
       inkscape:connector-curvature="0" />
    <path
       style="fill:none;stroke:#000000;stroke-width:0.138098px;stroke-linecap:butt;stroke-linejoin:miter;stroke-opacity:1"
       d="m 19.466648,215.76697 7.508024,49.19793 -1.728836,0.34474 1.64481,10.39917 -1.676516,0.34821 -0.116475,-0.71326 -18.2553695,4.40451 -12.0423152,-59.44842"
       id="path30"
       sodipodi:nodetypes="cccccccc"
       inkscape:export-xdpi="500"
       inkscape:export-ydpi="500"
       inkscape:connector-curvature="0" />
    <path
       style="fill:none;stroke:#000000;stroke-width:0.138098px;stroke-linecap:butt;stroke-linejoin:miter;stroke-opacity:1"
       d="m -9.1823677,194.93542 3.982338,25.36443 m 3.7479501,-0.69158 -4.3714361,-25.31306"
       id="path32"
       sodipodi:nodetypes="cccc"
       inkscape:export-xdpi="500"
       inkscape:export-ydpi="500"
       inkscape:connector-curvature="0" />
    <path
       style="fill:none;stroke:#000000;stroke-width:0.138317;stroke-linecap:square;stroke-linejoin:miter;stroke-miterlimit:4;stroke-dasharray:none;stroke-opacity:1"
       d="m -5.8235157,194.29521 18.7206487,-3.59505 -9.9777567,-35.85194 -0.687501,-2.55218 -0.558846,-1.9501 -0.209569,-1.6715 -0.41912,-3.27337 -0.488993,-4.24841 -0.55882595,-5.57168 -1.04782895,-11.56125 -3.0037651,-34.544422 -2.794192,-28.06735 -2.724339,-27.64947 -2.5147743,-28.4155897 -2.514777,0.13929 -0.768405,2.36797 -4.645348,1.53222 -2.965749,2.1767697 -2.732212,2.01973 -2.898978,1.56704 -2.025792,0.83575 c 7.08189,59.66129 13.219591,119.457072 21.4572713,178.953752"
       id="path34"
       sodipodi:nodetypes="cccccccccccccccccccccc"
       inkscape:export-xdpi="500"
       inkscape:export-ydpi="500"
       inkscape:connector-curvature="0" />
    <path
       style="fill:none;stroke:#000000;stroke-width:0.138098px;stroke-linecap:butt;stroke-linejoin:miter;stroke-opacity:1"
       d="m 24.295289,259.83636 0.263997,-0.22842 0,-0.41339 -0.04938,-0.59097 -0.07407,-0.46786 -0.07407,-0.39396 -0.09877,-0.39399 -0.1235,-0.24624 -0.07407,-0.0739 -0.123489,-0.0739 -0.123489,-0.0246 -19.3511257,3.4575 -0.349277,0.34824 0.209557,1.46257 0.698555,3.27334 0.4889862,2.36796 0.209568,1.04471 0.349267,0.9054 0.628694,-0.0696 0.349278,-0.55717 0.139708,-0.97505 0.349278,-1.46256 0.302905,-1.1516 0.30006,-1.1451 0.475426,-0.81468 0.805452,-0.50533 0.6914715,-0.28342 0.917425,-0.20894 1.327249,-0.20893 2.394301,-0.45189 2.63017,-0.68353 c 0.800702,-0.21026 1.740736,-0.55985 2.401393,-0.63006 1.100269,0.0874 1.813037,0.20323 2.675734,0.10053 0.679934,-0.15832 1.345858,-0.55975 1.832766,-0.90516 z"
       id="path1223"
       inkscape:export-xdpi="500"
       inkscape:export-ydpi="500"
       inkscape:connector-curvature="0"
       sodipodi:nodetypes="cccccccccccccccccccccccccccccccccc" />
    <path
       style="fill:none;stroke:#000000;stroke-width:0.138098px;stroke-linecap:butt;stroke-linejoin:miter;stroke-opacity:1"
       d="M 22.594573,254.43194 5.2181643,257.56601 -1.4879056,221.97689 17.180808,218.42494 Z"
       id="path1270"
       sodipodi:nodetypes="ccccc"
       inkscape:export-xdpi="500"
       inkscape:export-ydpi="500"
       inkscape:connector-curvature="0" />
    <path
       style="fill:none;stroke:#000000;stroke-width:0.138098px;stroke-linecap:butt;stroke-linejoin:miter;stroke-opacity:1"
       d="m 24.340937,275.49987 -1.571736,-7.66107 -0.209558,-1.04469 -0.698555,-0.52234 -0.803333,0.24374 -0.244488,0.55718 0.209569,1.00987 1.816224,7.76552 z"
       id="path1272"
       sodipodi:nodetypes="ccccccccc"
       inkscape:export-xdpi="500"
       inkscape:export-ydpi="500"
       inkscape:connector-curvature="0" />
    <path
       style="fill:none;stroke:#000000;stroke-width:0.138098px;stroke-linecap:butt;stroke-linejoin:miter;stroke-opacity:1"
       d="m 15.888488,276.26596 3.248264,-0.73128 0.244487,-0.13928 0.139709,-0.27859 -0.523916,-2.43761 -0.314337,-0.20894 c -0.139581,-0.80569 -1.146352,-0.72778 -1.152599,0.12189 l -4.296085,1.0621 c -0.126043,-0.69545 -1.24349,-0.56974 -1.204994,0.22634 l -0.192093,0.33083 0.558835,2.43759 0.104725,0.1393 0.209569,0.0696 0.244488,0.10451 z"
       id="path1274"
       sodipodi:nodetypes="ccccccccccccccc"
       inkscape:export-xdpi="500"
       inkscape:export-ydpi="500"
       inkscape:connector-curvature="0" />
    <path
       style="fill:none;stroke:#000000;stroke-width:0.138098px;stroke-linecap:butt;stroke-linejoin:miter;stroke-opacity:1"
       d="m 11.836924,274.21142 -0.331823,-0.19155 -0.174628,-0.19151 -0.06982,-0.24376 -0.03491,-0.27857 0,-0.29601 0.08738,-0.24377 0.104832,-0.36563 0.227023,-0.36565 0.419126,-0.12187 -0.279417,-0.33083 -0.401662,-0.38306 -0.244498,-0.57458 -0.157163,-0.55715 0.01745,-0.76611 0.314358,-0.80093 0.523905,-0.53977 0.803323,-0.55715 0.995426,-0.33082 1.047832,-0.1393 0.908123,-0.0523 0.925566,0.19152 0.71602,0.41788 0.454056,0.47011 0.227023,0.6094 0.139719,0.41789 0.06982,0.50492 -0.192103,0.43528 -0.244488,0.36566 -0.314347,0.34822 0.50645,-0.0523 0.541371,0 0.454056,0.33081 0.331801,0.40048 0.174639,0.55715 0.03491,0.38305 -0.419127,0.41789"
       id="path1276"
       sodipodi:nodetypes="ccccccccccccccccccccccccccccccccccccc"
       inkscape:export-xdpi="500"
       inkscape:export-ydpi="500"
       inkscape:connector-curvature="0" />
    <path
       style="fill:none;stroke:#000000;stroke-width:0.138098px;stroke-linecap:butt;stroke-linejoin:miter;stroke-opacity:1"
       d="m 12.063946,271.9131 c 1.720567,-0.79082 3.495338,-1.17626 5.308987,-1.27104"
       id="path1278"
       sodipodi:nodetypes="cc"
       inkscape:export-xdpi="500"
       inkscape:export-ydpi="500"
       inkscape:connector-curvature="0" />
    <path
       style="fill:none;stroke:#000000;stroke-width:0.138098px;stroke-linecap:butt;stroke-linejoin:miter;stroke-opacity:1"
       d="m -20.855167,76.016208 0.873186,8.00929"
       id="path1426"
       inkscape:export-xdpi="500"
       inkscape:export-ydpi="500"
       inkscape:connector-curvature="0" />
    <path
       style="fill:none;stroke:#000000;stroke-width:0.138098px;stroke-linecap:butt;stroke-linejoin:miter;stroke-opacity:1"
       d="m -19.981981,84.025498 4.296074,-0.43528 -0.122246,-1.09693 -0.209564,-1.13175 -0.663622,-1.65409 -1.100214,-1.70632 -0.733475,-0.99246 -0.401667,-0.78352 -0.261955,-0.19153 -0.488984,-0.0871 -1.187533,0.0696"
       id="path1428"
       inkscape:export-xdpi="500"
       inkscape:export-ydpi="500"
       inkscape:connector-curvature="0" />
    <path
       style="fill:none;stroke:#000000;stroke-width:0.138098px;stroke-linecap:butt;stroke-linejoin:miter;stroke-opacity:1"
       d="m -8.0769747,77.516068 -5.8750853,-66.5358 -4.417754,2.38079 -4.741906,2.6101 -3.875922,2.5718 6.336162,54.40027 2.884333,0.81527 2.092564,2.48173 1.515683,1.77006 z"
       id="path1430"
       sodipodi:nodetypes="cccccccccc"
       inkscape:export-xdpi="500"
       inkscape:export-ydpi="500"
       inkscape:connector-curvature="0" />
    <path
       style="fill:none;stroke:#000000;stroke-width:0.138098px;stroke-linecap:butt;stroke-linejoin:miter;stroke-opacity:1"
       d="m -7.8480547,79.686118 -5.8819143,0.50792 0.174636,3.39618 -0.03493,0.94022 -0.454057,0.94023 -0.698549,0.4527 -1.397098,0.3134 -3.422889,0.31341 3.110725,29.221052 11.8016913,-1.00385 z"
       id="path1432"
       sodipodi:nodetypes="ccccccccccc"
       inkscape:export-xdpi="500"
       inkscape:export-ydpi="500"
       inkscape:connector-curvature="0" />
    <path
       style="fill:none;stroke:#000000;stroke-width:0.138098px;stroke-linecap:butt;stroke-linejoin:miter;stroke-opacity:1"
       d="m -16.685067,121.4874 13.5164793,-1.21439 2.74597905,30.7868 0.20956,1.13175 0.296884,0.88799 7.01039815,24.98863 -16.4000922,2.46244 z"
       id="path1518"
       sodipodi:nodetypes="cccccccc"
       inkscape:export-xdpi="500"
       inkscape:export-ydpi="500"
       inkscape:connector-curvature="0" />
    <path
       style="fill:none;stroke:#000000;stroke-width:0.138098px;stroke-linecap:butt;stroke-linejoin:miter;stroke-opacity:1"
       d="m 4.3054333,245.34288 1.3311662,-0.23479 0.158419,1.01131 -1.2817832,0.24201 z"
       id="path85"
       sodipodi:nodetypes="ccccc"
       inkscape:export-xdpi="500"
       inkscape:export-ydpi="500"
       inkscape:connector-curvature="0" />
    <ellipse
       style="fill:none;stroke:#000000;stroke-width:0.104389;stroke-miterlimit:4;stroke-dasharray:none"
       id="path87"
       ry="0.63263887"
       rx="0.63153964"
       cy="244.78586"
       cx="10.834904"
       inkscape:export-xdpi="500"
       inkscape:export-ydpi="500" />
    <ellipse
       style="fill:none;stroke:#000000;stroke-width:0.104389;stroke-miterlimit:4;stroke-dasharray:none"
       id="path87-1"
       ry="0.63263887"
       rx="0.63153976"
       cy="244.29543"
       cx="13.940125"
       inkscape:export-xdpi="500"
       inkscape:export-ydpi="500" />
    <ellipse
       style="fill:none;stroke:#000000;stroke-width:0.104389;stroke-miterlimit:4;stroke-dasharray:none"
       id="path87-6"
       ry="0.63263887"
       rx="0.63153976"
       cy="243.82829"
       cx="17.159842"
       inkscape:export-xdpi="500"
       inkscape:export-ydpi="500" />
    <g
       id="g952"
       transform="matrix(1.0320095,0,0,1.028924,-242.69828,-244.34798)"
       inkscape:export-xdpi="500"
       inkscape:export-ydpi="500">
      <g
         id="g945"
         transform="matrix(2.6214829,0,0,1.6945572,-346.66409,-200.40746)">
        <path
           style="fill:none;stroke:#000000;stroke-width:0.26458299px;stroke-linecap:butt;stroke-linejoin:miter;stroke-opacity:1"
           d="m 210.00703,297.00325 0.0334,-13.46369"
           id="path935"
           inkscape:connector-curvature="0" />
        <path
           style="fill:none;stroke:#000000;stroke-width:0.26458299px;stroke-linecap:butt;stroke-linejoin:miter;stroke-opacity:1"
           d="m 211.30997,287.582 -1.26954,-4.04244 -1.30293,3.97563"
           id="path937"
           inkscape:connector-curvature="0" />
      </g>
      <text
         xml:space="preserve"
         style="font-size:10.58329964px;line-height:1.25;font-family:sans-serif;letter-spacing:0px;fill:#0000ff;stroke-width:0.065;stroke-miterlimit:4;stroke-dasharray:none"
         x="199.8842"
         y="297.83853"
         id="text941"><tspan
           sodipodi:role="line"
           id="tspan939"
           x="199.8842"
           y="297.83853"
           style="fill:#0000ff;stroke-width:0.065;stroke-miterlimit:4;stroke-dasharray:none">N</tspan></text>
    </g>
    <path
       style="fill:none;stroke:#000000;stroke-width:1.02561998;stroke-linecap:butt;stroke-linejoin:miter;stroke-miterlimit:4;stroke-dasharray:none;stroke-opacity:1"
       d="m -17.337836,220.45997 0.09445,75.77366"
       id="path1162"
       inkscape:export-xdpi="500"
       inkscape:export-ydpi="500"
       inkscape:connector-curvature="0" />
    <path
       style="fill:none;stroke:#000000;stroke-width:0.76465499;stroke-linecap:round;stroke-linejoin:miter;stroke-miterlimit:4;stroke-dasharray:none;stroke-opacity:1"
       d="m -15.930399,258.29729 -2.759268,-0.0348"
       id="path1164"
       inkscape:export-xdpi="500"
       inkscape:export-ydpi="500"
       inkscape:connector-curvature="0" />
    <text
       xml:space="preserve"
       style="font-size:5.5239501px;line-height:1.25;font-family:sans-serif;letter-spacing:0px;stroke-width:0.138098"
       x="-33.738739"
       y="222.76283"
       id="text1172"
       inkscape:export-xdpi="500"
       inkscape:export-ydpi="500"
       transform="scale(1.0014982,0.99850404)"><tspan
         sodipodi:role="line"
         id="tspan1170"
         x="-33.738739"
         y="222.76283"
         style="stroke-width:0.138098">20 m</tspan></text>
    <text
       xml:space="preserve"
       style="font-size:5.5239501px;line-height:1.25;font-family:sans-serif;letter-spacing:0px;stroke-width:0.138098"
       x="-34.330589"
       y="260.48584"
       id="text1176"
       inkscape:export-xdpi="500"
       inkscape:export-ydpi="500"
       transform="scale(1.0014982,0.99850404)"><tspan
         sodipodi:role="line"
         id="tspan1174"
         x="-34.330589"
         y="260.48584"
         style="stroke-width:0.138098">10 m</tspan></text>
    <text
       xml:space="preserve"
       style="font-size:5.5239501px;line-height:1.25;font-family:sans-serif;letter-spacing:0px;stroke-width:0.138098"
       x="-30.308996"
       y="297.67477"
       id="text1180"
       inkscape:export-xdpi="500"
       inkscape:export-ydpi="500"
       transform="scale(1.0014982,0.99850404)"><tspan
         sodipodi:role="line"
         id="tspan1178"
         x="-30.308996"
         y="297.67477"
         style="stroke-width:0.138098">0 m</tspan></text>
    <path
       style="fill:none;stroke:#000000;stroke-width:0.138098px;stroke-linecap:butt;stroke-linejoin:miter;stroke-opacity:1"
       d="m 5.7246155,268.88347 2.25889,10.54869"
       id="path875"
       inkscape:export-xdpi="500"
       inkscape:export-ydpi="500"
       sodipodi:nodetypes="cc"
       inkscape:connector-curvature="0" />
    <path
       style="fill:none;stroke:#000000;stroke-width:0.138098px;stroke-linecap:butt;stroke-linejoin:miter;stroke-opacity:1"
       d="m 23.818352,256.92914 1.884754,-0.33818"
       id="path877"
       inkscape:export-xdpi="500"
       inkscape:export-ydpi="500"
       inkscape:connector-curvature="0" />
    <path
       style="fill:none;stroke:#000000;stroke-width:0.138098px;stroke-linecap:butt;stroke-linejoin:miter;stroke-opacity:1"
       d="m 24.559286,259.4654 0.68655,5.84424"
       id="path879"
       inkscape:export-xdpi="500"
       inkscape:export-ydpi="500"
       inkscape:connector-curvature="0" />
    <path
       style="fill:#d35f5f;stroke:#000000;stroke-width:0.138098px;stroke-linecap:butt;stroke-linejoin:miter;stroke-opacity:1"
       d="m 4.4672153,260.38666 -1.491904,0.28215"
       id="path881"
       inkscape:export-xdpi="500"
       inkscape:export-ydpi="500"
       sodipodi:nodetypes="cc"
       inkscape:connector-curvature="0" />
    <path
       style="fill:#b3b3b3;stroke:none;stroke-width:0.546184;stroke-linecap:round"
       d="m 7.1253125,280.26047 c -0.09756,-0.28859 -0.141161,-0.45635 -0.107189,-0.46874 0.248947,-0.0909 17.7167165,-4.22655 17.8471345,-4.22655 0.130736,0 0.181396,0.12969 0.234919,0.60133 0.03757,0.33073 0.05439,0.61209 0.03746,0.62524 -0.04757,0.0369 -17.6091335,4.18072 -17.7209905,4.18072 -0.05438,0 -0.05212,-0.004 -0.149586,-0.29268 z"
       id="path883"
       inkscape:export-xdpi="500"
       inkscape:export-ydpi="500"
       sodipodi:nodetypes="scssssss"
       inkscape:connector-curvature="0" />
    <path
       style="fill:#b3b3b3;stroke:none;stroke-width:0.546184;stroke-linecap:round"
       d="m 11.754835,271.40379 c -0.39684,-0.42181 -0.627364,-1.04121 -0.623937,-1.67639 0.0074,-1.37023 1.228526,-2.3548 3.267963,-2.63488 1.758924,-0.24153 2.918952,0.25805 3.382959,1.45694 0.235984,0.60972 0.204237,1.00233 -0.122627,1.5162 l -0.285409,0.4487 -0.727184,0.0689 c -1.156538,0.10953 -2.619643,0.43533 -3.601478,0.80196 -0.498873,0.18629 -0.925524,0.33873 -0.948098,0.33873 -0.02256,0 -0.176554,-0.14406 -0.342189,-0.32012 z"
       id="path885"
       inkscape:export-xdpi="500"
       inkscape:export-ydpi="500"
       inkscape:connector-curvature="0" />
    <path
       style="fill:#edb600;fill-opacity:1;stroke:none;stroke-width:0.546184;stroke-linecap:round"
       d="m 11.461201,273.8504 c -0.180854,-0.21746 -0.154407,-1.0158 0.03854,-1.38017 0.348928,-0.73004 4.286212,-1.76671 6.465231,-1.76671 0.489177,0 0.575183,0.0508 0.865892,0.30542 0.425938,0.37286 0.601242,1.10208 0.367993,1.35909 -0.162921,0.17947 -0.420067,0.18581 -0.463838,-0.0392 -0.04642,-0.23865 -0.349118,-0.50641 -0.659304,-0.50641 -0.313623,0 -0.608266,0.32843 -0.608266,0.58566 0,0.11614 -0.475068,0.25046 -2.03476,0.61499 l -2.126656,0.5211 c -0.08204,-0.11357 -0.134731,-0.22206 -0.260747,-0.31358 -0.262419,-0.19059 -0.942415,-0.14144 -1.085636,0.4514 -0.09317,0.38565 -0.122726,0.4668 -0.256148,0.34799 z"
       id="path889"
       inkscape:export-xdpi="500"
       inkscape:export-ydpi="500"
       sodipodi:nodetypes="ccscssssscsscc"
       inkscape:connector-curvature="0" />
    <path
       style="fill:#d38d5f;fill-opacity:1;stroke:none;stroke-width:0.27309;stroke-linecap:round"
       d="m 12.010163,293.15638 c -0.114236,-0.3316 -0.593007,-1.28812 -0.556226,-1.32333 0.02448,-0.0234 0.638798,-0.21987 2.323147,-0.93754 2.93597,-1.25093 3.128819,-1.34121 4.667818,-2.18513 l 1.605336,-0.88028 1.432454,-1.23174 c 1.287892,-1.10745 1.720785,-1.24163 2.653628,-2.41054 l 1.020722,-1.27902 0.909719,-1.67442 0.909709,-1.67439 0.0845,-0.86183 c 0.141231,-1.44168 0.07556,-2.0425 -0.890093,-8.14841 -0.445351,-2.81583 -0.793255,-5.13417 -0.773129,-5.15185 0.05949,-0.0523 1.444118,-0.30861 1.479016,-0.27381 0.01756,0.0176 0.360186,2.12647 0.761347,4.68656 l 0.729366,4.65468 0.103874,1.89063 0.103874,1.89063 -0.648331,1.95383 -0.64832,1.95384 -1.468522,1.70693 c -1.328016,1.54361 -1.575984,1.80523 -2.591291,2.73405 l -1.122757,1.02709 -1.245097,0.71416 c -0.684814,0.39279 -2.089756,1.17412 -3.122113,1.73629 -1.032347,0.56218 -2.949127,1.6768 -4.310059,2.3832 -0.61038,0.31682 -0.820631,0.41095 -1.104213,0.5749 0,0 -0.256732,0.1366 -0.289742,0.15264 z"
       id="path897"
       inkscape:export-xdpi="500"
       inkscape:export-ydpi="500"
       sodipodi:nodetypes="cssscssccccsscscccccsscsssccc"
       inkscape:connector-curvature="0" />
    <path
       style="fill:#00ff00;fill-opacity:1;stroke:none;stroke-width:0.27309;stroke-linecap:round"
       d="m 3.0471823,260.57454 c -0.06427,-0.393 -8.152069,-40.1365 -8.135404,-40.17958 0.02483,-0.0643 24.4035817,-4.52196 24.4541037,-4.4716 0.0663,0.0661 6.224931,40.58856 6.170567,40.60136 -0.02895,0.006 -4.820606,0.86415 -10.647974,1.90513 -5.8273565,1.04098 -8.8051295,1.58186 -9.3836815,1.69197 -0.5785572,0.11012 -1.4408722,0.2712 -1.4798512,0.2712 0,0 -0.329515,0.0569 -0.391024,0.0688 z m 10.9974527,-4.50476 c 4.738391,-0.85359 8.623948,-1.56061 8.634559,-1.57118 0.02288,-0.0228 -5.401653,-36.1266 -5.43256,-36.15741 -0.01171,-0.0116 -4.25347,0.7844 -9.4262705,1.76896 l -9.4050722,1.79008 0.01631,0.11877 c 0.02845,0.20745 6.679959,35.52456 6.703501,35.59298 0.01479,0.0431 0.06907,0.056 0.158419,0.0376 0.07471,-0.0153 4.0127612,-0.72624 8.7511517,-1.57982 z"
       id="path899"
       inkscape:export-xdpi="500"
       inkscape:export-ydpi="500"
       sodipodi:nodetypes="csscsssscssscsssscs"
       inkscape:connector-curvature="0" />
    <path
       style="fill:#00ff00;fill-opacity:1;stroke:none;stroke-width:0.27309;stroke-linecap:round"
       d="m -5.1366207,220.05902 c -0.123966,-0.58947 -3.998746,-25.24981 -3.970376,-25.27496 0.06133,-0.0544 3.121206,-0.67456 3.157778,-0.6381 0.03169,0.0316 4.4784551,25.70318 4.4552691,25.72056 0,0 -0.7230141,0.39176 -1.6467001,0.55997 -0.923676,0.16823 -1.802803,0.11917 -1.847952,0.13176 -0.05848,0.0163 -0.127446,-0.40138 -0.148019,-0.49923 z"
       id="path901"
       inkscape:export-xdpi="500"
       inkscape:export-ydpi="500"
       sodipodi:nodetypes="ssscsss"
       inkscape:connector-curvature="0" />
    <path
       style="fill:#00ff00;fill-opacity:1;stroke:none;stroke-width:0.27309;stroke-linecap:round"
       d="m -9.1174267,194.76842 c 0,-0.035 -0.11159,-0.87201 -0.247979,-1.86001 -1.4115843,-10.22551 -3.0420453,-22.63308 -4.5379763,-34.53344 l -0.629895,-5.0109 0.868625,0 0.868622,0 1.700333,13.62917 c 0.935186,7.49603 1.7018893,13.633 1.7037813,13.63768 0.002,0.004 3.724853,-0.55012 8.2732381,-1.23291 5.0869239,-0.76363 8.2769601,-1.26291 8.2884331,-1.29725 0.0132,-0.0395 -6.6536832,-23.91425 -6.90833615,-24.73971 -0.02473,-0.0803 0.07391,0.003 1.08137895,0.003 l 1.081871,0 0.159085,0.60328 c 0.08754,0.3318 2.415263,8.71114 5.1728162,18.62074 2.7575525,9.90962 5.0068665,18.02401 4.9984805,18.03199 -0.0149,0.0142 -12.0511587,2.33038 -18.4395307,3.54841 -1.765867,0.33669 -3.260677,0.62373 -3.321805,0.63787 -0.07123,0.0165 -0.111142,0.003 -0.111142,-0.038 z"
       id="path903"
       inkscape:export-xdpi="500"
       inkscape:export-ydpi="500"
       sodipodi:nodetypes="ssscccscsssscsssssss"
       inkscape:connector-curvature="0" />
    <path
       style="fill:#00ff00;fill-opacity:1;stroke:none;stroke-width:0.193105;stroke-linecap:round"
       d="m 0.25234135,153.34665 c -0.0055,-0.019 -0.09649,-0.30905 -0.202992,-0.64422 -0.358928,-1.12945 -0.26086,-0.17959 -1.77252505,-17.1677 -0.750723,-8.43671 -1.368481,-15.343 -1.37279,-15.3473 -0.0042,-0.004 -1.29578,0.10829 -2.869931,0.2502 -1.57415,0.14193 -4.6499363,0.41873 -6.8350843,0.61512 -2.548149,0.22902 -3.972963,0.37031 -3.972906,0.39396 5e-5,0.0203 0.895939,7.20398 1.990862,15.96377 1.094928,8.75978 1.990775,15.93289 1.990775,15.94024 0,0.007 -0.391552,0.0133 -0.870114,0.0133 l -0.870117,0 -0.02056,-0.1306 c -0.06176,-0.39203 -1.316418,-10.61398 -2.046076,-16.66966 -0.586526,-4.86776 -2.026008,-16.99212 -2.026008,-17.06451 0,-0.01 3.842593,-0.0181 8.539093,-0.0181 l 8.5390914,0 0.01646,0.0783 c 0.009,0.0431 0.08868,0.92455 0.176883,1.95879 0.324628,3.80634 1.28451095,14.28941 1.55444895,16.97622 0.32824795,3.26733 0.64803095,6.06377 1.07932295,9.43858 l 0.313936,2.45654 0.330983,1.16505 c 0.182048,0.64077 0.369803,1.30956 0.417239,1.4862 l 0.08624,0.32115 -1.083482,0.01 c -0.701054,0.006 -1.08677095,-0.003 -1.09281095,-0.0252 z"
       id="path907"
       inkscape:export-xdpi="500"
       inkscape:export-ydpi="500"
       inkscape:connector-curvature="0" />
    <path
       style="fill:#00ff00;fill-opacity:1;stroke:none;stroke-width:0.193105;stroke-linecap:round"
       d="m -18.620674,119.53324 c -0.02095,-0.12573 -0.02536,-0.15698 -0.930069,-7.93938 -0.796863,-6.85506 -1.702169,-14.715362 -2.392392,-20.771932 -0.287024,-2.51858 -0.527482,-4.62232 -0.534351,-4.67499 l -0.01249,-0.0958 3.355717,0.004 c 3.918628,0.005 3.934452,0.007 1.251087,0.25529 -0.946234,0.0873 -1.728172,0.15873 -1.737639,0.15873 -0.0095,0 -0.01722,0.0442 -0.01722,0.0982 0,0.14577 3.102341,29.262992 3.119717,29.280322 0.0082,0.009 0.665211,-0.0404 1.460068,-0.108 8.2817853,-0.70382 10.4887423,-0.89298 10.4951933,-0.89954 0.0042,-0.004 -0.580125,-6.44819 -1.298402,-14.31993 -0.718266,-7.871732 -1.380139,-14.987562 -1.380566,-15.030652 l 0.07318,0.5617 1.283163,-0.50466 c 0.688271,-0.27069 1.246235,-0.25143 1.406251,0.52032 0.0016,0.008 0.07814,0.80389 0.173652,1.76727 0.149298,1.50582 2.7879401,31.761782 2.7879401,31.761782 l -0.3507981,0.31927 -8.1542823,9.2e-4 -8.216146,-0.0304 z"
       id="path909"
       inkscape:export-xdpi="500"
       inkscape:export-ydpi="500"
       sodipodi:nodetypes="ccssccssscccsccsscccccc"
       inkscape:connector-curvature="0" />
    <path
       style="fill:#00ff00;fill-opacity:1;stroke:none;stroke-width:0.193105;stroke-linecap:round"
       d="m -16.040502,86.085738 c -0.03256,-0.0208 -1.70796,0.23611 -3.695891,0.23578 l -2.755734,-0.27039 0.0394,0.3307 c 0.01311,0.10999 -0.742447,-6.5292 -1.549125,-13.61569 -0.806678,-7.08648 -1.718143,-15.09403 -2.025477,-17.79455 -0.307334,-2.70053 -0.566241,-4.96114 -0.575348,-5.02357 l -0.01656,-0.11353 1.595365,0.009 1.595368,0.009 1.347412,11.56932 c 0.741077,6.36313 1.354245,11.57567 1.362595,11.58343 0.0083,0.008 0.636017,0.18926 1.394816,0.40334 0.758799,0.21407 1.406438,0.39688 1.4392,0.40624 0.03276,0.009 0.511609,0.5529 1.064105,1.20786 0.552498,0.65496 1.365554,1.61393 1.806792,2.13105 0.44124,0.51712 0.80327,0.94225 0.804514,0.94473 0.0012,0.003 0.269453,-0.0178 0.596026,-0.0451 0.326571,-0.0273 1.722288,-0.14112 3.101593,-0.25295 1.3793063,-0.11182 2.5125653,-0.20905 2.5183673,-0.21605 0.0061,-0.007 -0.536531,-6.19467 -1.205181,-13.75039 -0.668643,-7.55573 -1.2164403,-13.79644 -1.2173153,-13.86827 l -0.01875,-0.26114 1.1885523,-0.1175 1.08846,-0.16536 0.09522,0.57883 c 0.01168,0.091 0.279985,2.79802 0.596251,6.01567 0.710162,7.22519 2.942347,29.68452 2.970385,29.88686 l 0.02048,0.14799 -1.346181,0 -1.346181,0 -0.01641,-0.0784 c -0.0089,-0.0431 -0.143657,-1.48811 -0.299174,-3.21114 -0.155517,-1.72304 -0.290075,-3.14009 -0.299018,-3.149 -0.0089,-0.009 -1.367765,0.1001 -3.0195983,0.24226 l -3.003338,0.25846 5.74e-4,0.19175 c 2.76e-4,0.10546 0.03659,0.91259 0.08067,1.79361 0.04928,0.98488 0.072,1.76281 0.05899,2.01973 l -0.02115,0.41788 -0.212619,0.43734 -0.212616,0.43735 -0.338714,0.21608 c -0.325766,0.20781 -0.359629,0.22078 -0.885998,0.33903 -0.301009,0.0676 -0.962525,0.18196 -0.991342,0.19024 -0.02882,0.008 0.315696,-0.0523 0.286881,-0.0707 z m -1.711443,-2.19805 c 1.18142,-0.11818 2.151433,-0.21723 2.155586,-0.2201 0.02318,-0.0161 -0.14689,-1.3035 -0.234841,-1.77776 -0.09467,-0.51046 -0.13218,-0.62869 -0.447529,-1.41034 -0.340771,-0.84465 -0.349664,-0.8616 -0.89124,-1.69916 -0.300868,-0.4653 -0.703038,-1.05688 -0.893709,-1.31462 -0.190672,-0.25774 -0.449657,-0.66216 -0.57552,-0.89871 -0.270812,-0.50896 -0.368973,-0.59384 -0.765744,-0.66215 -0.331034,-0.057 -1.408897,-0.004 -1.486271,0.0733 -0.04407,0.0439 0.0039,0.55313 0.376004,3.99088 0.234585,2.16728 0.434075,3.97641 0.44331,4.02029 0.0093,0.0439 0.03205,0.0704 0.05069,0.0589 0.01865,-0.0115 0.03391,-0.004 0.03391,0.016 0,0.0203 0.01965,0.0372 0.04366,0.0376 0.02402,4.2e-4 1.010275,-0.096 2.191697,-0.21414 z"
       id="path911"
       inkscape:export-xdpi="500"
       inkscape:export-ydpi="500"
       sodipodi:nodetypes="cccsssscccsssssscsscscccccsccccssssccsscccsssccssssssssccssssss"
       inkscape:connector-curvature="0" />
    <path
       style="fill:#00ff00;fill-opacity:1;stroke:none;stroke-width:0.193105;stroke-linecap:round"
       d="m -26.623516,49.800238 c 0,-0.13726 -2.274308,-19.77148 -3.246815,-28.02992 -0.346048,-2.9386 -0.624071,-5.348 -0.617831,-5.35422 0.0062,-0.006 1.477751,-0.007 3.27002,-0.002 l 3.258673,0.009 -1.543915,1.02565 c -0.849152,0.56411 -1.55076,1.03669 -1.559126,1.05019 -0.0083,0.0135 0.802121,7.04127 1.801089,15.61728 0.998966,8.576 1.813215,15.71361 1.813215,15.74848 0,0.0604 -0.217829,0.72933 -1.607722,0.13113 -0.129613,-0.0558 -1.181693,-0.16117 -1.563309,-0.16077 z"
       id="path913"
       inkscape:export-xdpi="500"
       inkscape:export-ydpi="500"
       sodipodi:nodetypes="cssscssssscc"
       inkscape:connector-curvature="0" />
    <path
       style="fill:#00ff00;fill-opacity:1;stroke:none;stroke-width:0.193105;stroke-linecap:round"
       d="m -12.018541,31.875238 c -0.871141,-9.87797 -1.592347,-18.02654 -1.602678,-18.10794 l -0.01878,-0.14799 1.104961,0 1.104959,0 1.03e-4,0.0784 c 5.3e-5,0.0431 0.400429,4.59925 0.88971,10.12479 0.6615333,7.47059 1.0867893,12.05087 1.6585923,17.86421 0.422944,4.29977 0.778475,7.8922 0.790085,7.98317 l 0.0211,0.16541 -1.182079,-3e-5 -1.1820803,-2e-5 z"
       id="path915"
       inkscape:export-xdpi="500"
       inkscape:export-ydpi="500"
       inkscape:connector-curvature="0" />
    <path
       style="fill:#00ff00;fill-opacity:1;stroke:none;stroke-width:0.193105;stroke-linecap:round"
       d="m -30.51356,16.235398 c -0.04063,-0.26598 -0.106226,-0.16572 0.945949,-0.59863 0.846605,-0.34834 1.15382,-0.4987 2.453653,-1.20093 l 1.485875,-0.80274 1.170069,-0.86775 c 0.643538,-0.47726 1.917718,-1.41667 2.831509,-2.08757 l 1.661439,-1.2198297 2.320288,-0.76315 c 1.27616,-0.41973 2.325824,-0.76739 2.332587,-0.77256 0.0068,-0.006 0.182348,-0.53146 0.390187,-1.16952 l 0.377886,-1.16012 0.133726,-0.0248 c 0.14767,-0.0274 2.214758,-0.14066 2.233107,-0.12236 0.0063,0.006 0.173612,1.84408 0.371768,4.08396 l 0.375436,4.0899097 -1.092566,0.0503 c -0.594268,0.005 -1.095676,-0.0121 -1.102955,-0.0193 -0.0073,-0.007 -0.06144,-0.66416 -0.127889,-1.40714 -0.06644,-0.74297 -0.128745,-1.35877 -0.138448,-1.36844 -0.0097,-0.01 -0.09237,0.0225 -0.183719,0.0715 -4.460674,2.39219 -9.000843,4.88733 -9.499274,5.22052 l -0.384537,0.25588 -3.252283,0.11321 -3.262571,-0.0435 z"
       id="path917"
       inkscape:export-xdpi="500"
       inkscape:export-ydpi="500"
       sodipodi:nodetypes="ssscsscscsccssccssscscccs"
       inkscape:connector-curvature="0" />
    <path
       style="fill:#008000;fill-opacity:1;stroke:none;stroke-width:0.27309;stroke-linecap:round"
       d="m 5.9831945,269.28688 c -0.0994,-0.25322 -0.274926,-0.97998 -0.493658,-2.04376 -0.1866872,-0.90794 -0.4985222,-2.3932 -0.6929672,-3.30057 -0.194445,-0.90739 -0.404908,-1.99328 -0.467679,-2.41312 l -0.114124,-0.76333 0.140688,-0.14402 c 0.140614,-0.14395 0.145605,-0.1449 9.7384257,-1.85867 5.278749,-0.94308 9.65723,-1.71485 9.729974,-1.71507 0.263752,-0.002 0.403652,0.34987 0.559783,1.40316 0.09887,0.66715 0.139905,1.06297 0.03167,1.18625 0,0 -1.262348,0.95271 -1.980787,1.07358 -0.664163,0.11173 -2.308103,-0.18797 -2.678287,-0.15355 -0.651527,0.0606 -3.903599,1.07228 -4.882339,1.26197 -0.993452,0.22118 -3.172383,0.61172 -4.773259,0.91968 l -0.6875825,0.27499 -0.687593,0.41751 -0.490734,0.63854 c 0,0 -0.323902,0.78864 -0.519899,1.57593 -0.122576,0.49236 -0.274572,1.09794 -0.442109,1.79911 -0.106003,0.44333 -0.219977,1.00401 -0.253364,1.24595 -0.04853,0.35202 -0.09366,0.49124 -0.225586,0.69691 -0.158333,0.24678 -0.174691,0.2577 -0.410644,0.27419 l -0.245722,0.0171 z"
       id="path923"
       inkscape:export-xdpi="500"
       inkscape:export-ydpi="500"
       inkscape:connector-curvature="0"
       sodipodi:nodetypes="csssccscccsscccccscccccc" />
    <path
       style="fill:#d3bc5f;fill-opacity:1;stroke:none;stroke-width:0.193105;stroke-linecap:round"
       d="m -11.616897,161.32219 c -1.311473,-10.50044 -2.401534,-19.1722 -2.400698,-19.19618 0.0012,-0.0348 1.293887,-0.29567 6.3580943,-0.15682 l 6.3397571,0.17384 0.40738296,4.4229 c 0.44468699,4.82793 0.48226699,5.26337 0.75085199,6.05619 0.07521,0.22191 1.69298795,5.9508 3.59512795,12.73083 1.902138,6.78005 3.4793772,12.39866 3.5049732,12.48579 l 0.04651,0.15844 -8.0730071,1.21018 c -4.4401611,0.6656 -8.0891021,1.20936 -8.1087651,1.20837 -0.02124,-9.3e-4 -1.0015723,-7.73478 -2.4202463,-19.09354 z"
       id="path933"
       inkscape:export-xdpi="500"
       inkscape:export-ydpi="500"
       sodipodi:nodetypes="scscsssscscss"
       inkscape:connector-curvature="0" />
    <path
       style="fill:#d3bc5f;fill-opacity:1;stroke:none;stroke-width:0.193105;stroke-linecap:round"
       d="m -14.017595,142.12601 c -0.02154,-0.0725 -2.565942,-20.53924 -2.554798,-20.55035 0.0065,-0.006 0.961506,-0.0971 2.122394,-0.20154 9.1144223,-0.81998 11.1784843,-1.0026 11.1909583,-0.99017 0.01454,0.0145 1.9399911,21.53792 1.9395751,21.68092 l -2.78e-4,0.0782 -6.3437741,0.01 c -4.2067223,0.005 -6.3472663,-0.003 -6.3541283,-0.026 z"
       id="path936"
       inkscape:export-xdpi="500"
       inkscape:export-ydpi="500"
       inkscape:connector-curvature="0" />
    <path
       style="fill:#d3bc5f;fill-opacity:1;stroke:none;stroke-width:0.193105;stroke-linecap:round"
       d="m -16.383739,115.56862 c -0.06126,-0.36671 -3.073981,-28.899222 -3.053588,-28.919552 0.01356,-0.0135 0.767425,-0.0928 1.675258,-0.17623 1.533865,-0.14094 1.699497,-0.16268 2.341845,-0.30743 0.765995,-0.17261 0.726051,-0.15731 1.148774,-0.44001 l 0.303203,-0.20277 0.230228,-0.47734 0.230232,-0.47734 0.01864,-0.57677 c 0.01261,-0.39042 -0.0089,-1.08309 -0.06666,-2.14382 -0.04691,-0.86187 -0.08316,-1.56919 -0.08056,-1.57183 0.0076,-0.008 5.6972803,-0.49443 5.7040523,-0.48796 0.0093,0.009 3.186995,34.895152 3.179086,34.900562 -0.0041,0.003 -2.545178,0.21934 -5.6476033,0.48173 -3.102434,0.2624 -5.713364,0.48579 -5.802075,0.49644 -0.16084,0.0194 -0.161343,0.019 -0.180842,-0.0977 z"
       id="path938"
       inkscape:export-xdpi="500"
       inkscape:export-ydpi="500"
       inkscape:connector-curvature="0" />
    <path
       style="fill:#d3bc5f;fill-opacity:1;stroke:none;stroke-width:0.193105;stroke-linecap:round"
       d="m -14.731828,77.207458 c -0.336177,-0.39561 -1.12742,-1.33124 -1.758319,-2.07917 -0.6309,-0.74792 -1.166562,-1.38016 -1.190364,-1.40497 -0.0238,-0.0248 -0.676508,-0.22387 -1.450455,-0.44236 -0.773949,-0.21849 -1.415442,-0.40549 -1.425544,-0.41556 -0.01658,-0.0165 -3.777195,-32.19978 -3.779424,-32.34425 -8.34e-4,-0.0578 0.328818,-0.0609 6.442508,-0.0609 l 6.443445,0 -0.01818,-0.0348 c -0.0412,-0.0787 3.3000773,36.9956 3.2901383,37.00594 -0.0034,0.004 -1.279034,0.10929 -2.8346743,0.23494 -1.555645,0.12565 -2.891314,0.23567 -2.968153,0.24447 l -0.139715,0.016 z"
       id="path942"
       inkscape:export-xdpi="500"
       inkscape:export-ydpi="500"
       sodipodi:nodetypes="ssssscscsssscs"
       inkscape:connector-curvature="0" />
    <path
       style="fill:#d3bc5f;fill-opacity:1;stroke:none;stroke-width:0.193105;stroke-linecap:round"
       d="m -24.32611,40.555978 c 0,0 -0.611638,-5.13991 -1.306227,-11.11345 -1.214002,-10.44055 -1.260356,-10.86239 -1.197442,-10.89735 0.03599,-0.02 0.906327,-0.59463 1.934066,-1.27697 l 1.868618,-1.24061 2.235356,-1.23077 c 2.934897,-1.61595 6.730448,-3.66231 6.752319,-3.6405 0.02391,0.0238 2.639168,29.38042 2.619118,29.40041 -0.0089,0.009 -2.948536,0.41706 -6.482967,0.26875 z"
       id="path944"
       inkscape:export-xdpi="500"
       inkscape:export-ydpi="500"
       sodipodi:nodetypes="cssscssssc"
       inkscape:connector-curvature="0" />
    <path
       style="fill:#ffe680;fill-opacity:1;stroke:none;stroke-width:0.193105;stroke-linecap:round"
       d="m -19.916528,83.806158 c -0.01022,-0.0623 -0.199439,-1.7899 -0.42046,-3.83924 -0.22102,-2.04933 -0.407354,-3.75978 -0.414074,-3.801 -0.01192,-0.0731 9.26e-4,-0.0756 0.532392,-0.10086 0.620256,-0.0295 0.921899,0.006 1.108751,0.1296 0.09177,0.0608 0.170435,0.17645 0.31575,0.46408 0.111742,0.22116 0.350492,0.59615 0.564934,0.88729 0.204271,0.27734 0.618638,0.88779 0.920815,1.35656 0.541064,0.83935 0.554411,0.86476 0.878218,1.67219 0.30445,0.75916 0.336848,0.86373 0.437392,1.41188 0.135326,0.73775 0.223571,1.48686 0.178428,1.51468 -0.02673,0.0165 -3.973455,0.42428 -4.05893,0.4194 -0.01354,-8.3e-4 -0.03298,-0.0523 -0.04321,-0.11458 z"
       id="path948"
       inkscape:export-xdpi="500"
       inkscape:export-ydpi="500"
       inkscape:connector-curvature="0" />
    <path
       style="fill:#d3bc5f;fill-opacity:1;stroke:none;stroke-width:0.27309;stroke-linecap:round"
       d="m 8.0718505,279.36936 c -0.0734,0.0198 -0.512097,-2.259 -1.039935,-4.76273 -0.521349,-2.47296 -1.014206,-4.56878 -1.028319,-4.62973 -0.02267,-0.0981 -0.0064,-0.11079 0.141273,-0.11079 0.09185,0 0.269403,-0.0139 0.394669,-0.0311 0.214348,-0.0293 0.238954,-0.0491 0.418286,-0.33411 0.162314,-0.25811 0.199798,-0.37203 0.253098,-0.76914 0.03438,-0.2564 0.138229,-0.78419 0.230737,-1.17285 0.131503,-0.55247 0.246695,-0.9597 0.310733,-1.33043 0.08909,-0.51576 0.404127,-1.50103 0.479063,-1.78476 0.22515,-0.8526 1.151121,-1.13661 1.5099025,-1.37817 0.326332,-0.21973 4.686828,-0.9318 5.157758,-1.04184 0.88087,-0.20585 3.783705,-1.02485 4.420734,-1.20997 0.58531,-0.17009 2.191239,0.15718 3.031568,0.0317 0.610041,-0.0911 1.659231,-0.68028 2.143436,-1.05396 l 0.02852,0.19874 c 0.01564,0.10931 0.162932,1.35113 0.327172,2.75959 0.24006,2.05864 0.458218,3.56946 1.112391,7.70378 0.516807,3.2662 0.79566,5.15407 0.764168,5.17347 -0.07588,0.0467 -1.38934,0.308 -1.415808,0.28163 -0.01277,-0.0127 -0.04779,-0.17141 -0.07801,-0.35263 -0.0496,-0.29876 -0.06439,-0.32691 -0.157983,-0.30221 -0.30495,0.0805 -0.625151,0.14101 -0.644286,0.12194 -0.01192,-0.0119 -0.418999,-1.96016 -0.904494,-4.32934 l -0.882697,-4.30761 -0.377183,-0.28895 -0.377193,-0.28894 -0.450364,0.13772 -0.450363,0.13775 -0.140134,0.30816 -0.140145,0.30815 0.140262,0.65564 c 0.07716,0.36059 0.531238,2.3265 1.009102,4.36866 0.477886,2.04217 0.915986,3.74158 0.907748,3.74978 -0.01437,0.0143 -14.0584225,3.39648 -14.1036335,3.39648 -0.01192,0 -0.23663,0.0506 -0.310315,0.0705 z m 6.2626425,-2.63564 c 0.743287,-0.17736 2.133648,-0.49859 3.089717,-0.71384 0.956058,-0.21524 1.796929,-0.41801 1.868619,-0.45056 0.07173,-0.0326 0.174639,-0.14581 0.228811,-0.2517 l 0.09845,-0.19247 -0.258046,-1.20429 -0.258036,-1.20428 0.210302,-0.21364 c 0.206046,-0.20932 0.209633,-0.21869 0.176225,-0.46081 -0.08738,-0.63318 -0.316827,-1.03639 -0.777738,-1.36654 -0.224904,-0.16109 -0.256652,-0.16928 -0.655759,-0.16928 l -0.419403,0 0.167827,-0.21923 c 0.09238,-0.12056 0.225522,-0.34485 0.296042,-0.4984 0.118827,-0.25878 0.124511,-0.30219 0.0778,-0.59365 -0.02778,-0.17298 -0.128661,-0.53041 -0.22433,-0.79434 -0.145669,-0.40189 -0.215731,-0.52246 -0.431195,-0.7421 -0.735517,-0.74971 -1.613766,-0.95966 -3.218996,-0.76951 -1.240808,0.14695 -2.054017,0.52021 -2.801848,1.286 -0.85062,0.87106 -0.805994,2.44758 0.09547,3.37138 l 0.318168,0.32606 -0.165581,0.031 c -0.206748,0.0386 -0.3715,0.29227 -0.53192,0.81886 -0.121413,0.39853 -0.113985,0.79298 0.02107,1.11507 0.05034,0.12006 0.356334,0.38463 0.503663,0.43547 0.0053,0.002 0.122946,0.50134 0.261654,1.1101 0.341051,1.49685 0.307143,1.41083 0.610506,1.54912 0.139965,0.0639 0.279833,0.11783 0.310825,0.12005 0.03108,0.002 0.664465,-0.14108 1.407741,-0.31844 z"
       id="path952"
       inkscape:export-xdpi="500"
       inkscape:export-ydpi="500"
       sodipodi:nodetypes="ssssccssssssssccsssscssscccccccsssssscssscccssssccscsssssccsscscccc"
       inkscape:connector-curvature="0" />
    <path
       style="fill:#bfd9bc;fill-opacity:1;stroke:none;stroke-width:0.136546;stroke-linecap:round"
       d="m 12.732754,276.78463 c -0.16076,-0.0666 -0.205205,-0.0971 -0.238538,-0.16323 -0.02246,-0.0447 -0.159835,-0.60225 -0.305141,-1.23901 l -0.264177,-1.15773 0.08557,-0.14731 c 0.05417,-0.0931 0.091,-0.19423 0.100043,-0.27493 0.03225,-0.28528 0.216082,-0.4778 0.492392,-0.51556 0.24172,-0.0331 0.482387,0.1199 0.538539,0.34222 0.01607,0.064 0.0364,0.11646 0.04491,0.11668 0.0085,0 1.006005,-0.2442 2.216523,-0.54313 l 2.200943,-0.54352 0.01405,-0.13624 c 0.0182,-0.1758 0.103768,-0.34374 0.223266,-0.43836 0.08461,-0.0669 0.113006,-0.0751 0.26124,-0.0751 0.14504,0 0.178225,0.01 0.259132,0.0706 0.111207,0.0846 0.178725,0.18715 0.218923,0.33267 0.02522,0.0913 0.05247,0.12288 0.178172,0.20696 0.08163,0.0546 0.152214,0.10217 0.156887,0.1059 0.0043,0.003 0.123361,0.54132 0.26373,1.19473 l 0.255226,1.18806 -0.05779,0.1137 c -0.09866,0.19407 -0.133812,0.20552 -1.741575,0.56648 -0.794628,0.1784 -2.168684,0.49531 -3.053446,0.70423 -0.884762,0.20892 -1.618278,0.37851 -1.630028,0.37687 -0.01181,-0.002 -0.110281,-0.0398 -0.218955,-0.0849 z"
       id="path954"
       inkscape:export-xdpi="500"
       inkscape:export-ydpi="500"
       inkscape:connector-curvature="0" />
    <path
       style="fill:#aade87;fill-opacity:1;stroke:none;stroke-width:0.27309;stroke-linecap:round"
       d="m 5.1663253,271.13249 c -0.944486,-4.72151 -1.704371,-8.01252 -1.896798,-9.17644 l -0.199431,-1.20628 0,0 c 0.545545,-0.10068 1.008751,-0.18243 1.029344,-0.1816 0.02065,0.002 0.01192,0.0421 -0.01905,0.0919 -0.08504,0.13574 0.09962,1.31125 0.499714,3.18088 0.800023,3.73879 1.2611392,5.92348 2.3506652,11.01292 0.637828,2.97945 0.964702,4.55714 0.964702,4.55714 -0.0032,0.005 -0.722965,0.19305 -0.992109,0.24148 l -0.329943,-1.4859 z"
       id="path956"
       inkscape:export-xdpi="500"
       inkscape:export-ydpi="500"
       sodipodi:nodetypes="sscccccscccs"
       inkscape:connector-curvature="0" />
    <path
       style="fill:#aade87;fill-opacity:1;stroke:none;stroke-width:0.27309;stroke-linecap:round"
       d="m 25.326476,265.1859 c 0,-0.0107 -0.145604,-1.24779 -0.323564,-2.74883 -0.177959,-1.50105 -0.343296,-3.01822 -0.367434,-3.37148 -0.04896,-0.7154 -0.205119,-1.56167 -0.347829,-1.88386 -0.06854,-0.15483 -0.07759,-0.21664 -0.03374,-0.23059 0.168529,-0.0535 1.322853,-0.23581 1.346183,-0.21256 0.02171,0.0216 1.257613,7.99979 1.257613,8.11814 0,0.018 -0.305631,0.0926 -0.679185,0.1657 -0.373543,0.0732 -0.718073,0.14426 -0.765615,0.15806 -0.04747,0.0138 -0.08642,0.0162 -0.08642,0.005 z"
       id="path958"
       inkscape:export-xdpi="500"
       inkscape:export-ydpi="500"
       inkscape:connector-curvature="0" />
    <path
       style="fill:#d3bc5f;fill-opacity:1;stroke:none;stroke-width:0.193105;stroke-linecap:round"
       d="m 11.371078,291.60235 c -0.0096,-0.0244 -0.81371,-2.16303 -1.901613,-5.06294 l -2.0267525,-5.4025 1.818992,-0.42314 c 10.4816895,-2.43834 16.1053955,-3.74828 16.1106745,-3.75271 0.0032,-0.003 -0.0096,-0.18302 -0.02959,-0.4002 -0.01969,-0.21717 -0.02256,-0.40674 -0.0064,-0.42126 0.03406,-0.0304 1.44397,-0.32623 1.463297,-0.30698 0.0075,0.007 0.04619,0.4666 0.08716,1.0212 l 0.07429,1.0084 -0.07354,0.73128 c -0.04055,0.40221 -0.08121,0.7784 -0.09046,0.83599 -0.0096,0.0576 -0.408122,0.82398 -0.886465,1.70314 l -0.816549,1.74611 -0.792688,0.92013 -0.983343,1.15846 -1.899292,1.53625 -1.501684,1.19267 -1.606656,0.87932 -1.606666,0.87933 -2.774195,1.20352 c -1.618529,0.70216 -2.264582,1.00659 -2.327439,1.03298 -0.09153,0.0384 -0.183197,0.074 -0.19649,0.0378 z"
       id="path960"
       inkscape:export-xdpi="500"
       inkscape:export-ydpi="500"
       sodipodi:nodetypes="cscsccccccccscccccccsscc"
       inkscape:connector-curvature="0" />
    <path
       style="fill:#d3bc5f;fill-opacity:1;stroke:none;stroke-width:0.136546;stroke-linecap:round"
       d="M 2.7862833,244.21491 0.23407435,230.67194 9.625999,230.96738 c 5.134113,-0.003 9.296821,-0.35693 9.303834,-0.35045 0.01096,0.011 3.578543,23.74612 3.569944,23.75064 -0.01575,0.009 -17.1524827,3.08939 -17.1807927,3.08907 -0.03054,0 -0.507707,-2.49496 -2.532701,-13.24179 z m 2.434521,2.09765 c 0.3463822,-0.0642 0.6377192,-0.12349 0.6474152,-0.1318 0.01554,-0.0134 -0.146552,-1.13347 -0.167391,-1.15613 -0.0074,-0.009 -1.4722052,0.24257 -1.4869132,0.25478 -0.0064,0.005 0.210526,1.08093 0.230854,1.14232 0.0074,0.0224 0.03406,0.0294 0.07876,0.0206 0.03714,-0.007 0.350938,-0.0656 0.69732,-0.12981 z m 5.8894357,-0.88298 c 0.127033,-0.0529 0.286815,-0.21104 0.350299,-0.34668 0.08014,-0.1712 0.08003,-0.42001 -1.28e-4,-0.59097 -0.240283,-0.51221 -0.962752,-0.53745 -1.232622,-0.0431 -0.129438,0.23709 -0.108398,0.53928 0.053,0.76142 0.174203,0.23975 0.545042,0.33781 0.829473,0.21931 z m 3.13729,-0.50923 c 0.396127,-0.18565 0.508516,-0.74108 0.21836,-1.07907 -0.137208,-0.15979 -0.302906,-0.23312 -0.526885,-0.23312 -0.152151,0 -0.207898,0.0118 -0.312134,0.0654 -0.57316,0.29534 -0.475193,1.1365 0.151586,1.30149 0.114932,0.0303 0.345052,0.003 0.469073,-0.0547 z m 3.203031,-0.45938 c 0.415498,-0.18325 0.532824,-0.74852 0.22598,-1.08878 -0.150841,-0.16729 -0.296584,-0.23308 -0.514529,-0.23234 -0.405641,0.002 -0.686325,0.28166 -0.689976,0.68893 -0.0032,0.30757 0.168402,0.55103 0.46041,0.65494 0.158813,0.0565 0.35827,0.0478 0.518115,-0.0227 z"
       id="path962"
       inkscape:export-xdpi="500"
       inkscape:export-ydpi="500"
       sodipodi:nodetypes="ccccscccssssscsssssssscsscscssssss"
       inkscape:connector-curvature="0" />
    <path
       style="fill:#d3bc5f;fill-opacity:1;stroke:none;stroke-width:0.136546;stroke-linecap:round"
       d="m 0.23407435,230.67194 c -0.02982,-0.15914 -0.407282,-2.16196 -0.83895299,-4.45072 -0.52712896,-2.79495 -0.77607596,-4.16629 -0.75816096,-4.1763 0.01463,-0.009 0.121143,-0.0328 0.236609,-0.0547 0.115456,-0.0218 4.2648429,-0.81086 9.2208481,-1.75341 4.9560045,-0.94252 9.0135075,-1.71021 9.0166795,-1.70596 0.0032,0.004 0.420052,2.7668 0.926418,6.13901 0.506355,3.37219 0.926418,6.16728 0.933442,6.21129 l 0.01277,0.08 -9.330303,0.43529 -9.36525665,-0.43529 z"
       id="path964"
       inkscape:export-xdpi="500"
       inkscape:export-ydpi="500"
       sodipodi:nodetypes="sscssssscccs"
       inkscape:connector-curvature="0" />
    <path
       style="fill:#000000;fill-opacity:1;stroke:none;stroke-width:0.0965516;stroke-linecap:round"
       d="m 10.661527,245.32909 c -0.149926,-0.0491 -0.254822,-0.14337 -0.342242,-0.3077 -0.03512,-0.066 -0.04161,-0.10313 -0.04151,-0.23504 1.39e-4,-0.1309 0.0075,-0.17106 0.0431,-0.24377 0.0546,-0.11088 0.160292,-0.21637 0.271201,-0.27079 0.123042,-0.0605 0.362698,-0.0615 0.483207,-0.002 0.110963,0.0545 0.219615,0.16611 0.274352,0.28184 0.06471,0.13686 0.0646,0.33385 -2.77e-4,0.47011 -0.05534,0.11623 -0.151714,0.21465 -0.2687,0.27446 -0.10462,0.0535 -0.307941,0.0696 -0.419137,0.0332 z"
       id="path966"
       inkscape:export-xdpi="500"
       inkscape:export-ydpi="500"
       inkscape:connector-curvature="0" />
    <path
       style="fill:#000000;fill-opacity:1;stroke:none;stroke-width:0.0965516;stroke-linecap:round"
       d="m 13.776095,244.84149 c -0.187911,-0.07 -0.316753,-0.19609 -0.374427,-0.36635 -0.04395,-0.12951 -0.02756,-0.32545 0.03672,-0.44344 0.196127,-0.35927 0.677024,-0.40813 0.94069,-0.0956 0.08663,0.1027 0.122946,0.2099 0.122925,0.36273 -1.1e-5,0.11868 -0.0074,0.15419 -0.05045,0.24011 -0.05928,0.11846 -0.171137,0.22735 -0.285516,0.2779 -0.102384,0.0453 -0.301001,0.0578 -0.389997,0.0247 z"
       id="path968"
       inkscape:export-xdpi="500"
       inkscape:export-ydpi="500"
       inkscape:connector-curvature="0" />
    <path
       style="fill:#000000;fill-opacity:1;stroke:none;stroke-width:0.0965516;stroke-linecap:round"
       d="m 17.009607,244.37915 c -0.15677,-0.0508 -0.303822,-0.17959 -0.37001,-0.32409 -0.05907,-0.12901 -0.05683,-0.33104 0.0053,-0.46141 0.05407,-0.11368 0.165145,-0.22733 0.276011,-0.28235 0.06556,-0.0326 0.108632,-0.0397 0.237262,-0.0397 0.184525,0 0.284302,0.0388 0.402129,0.15625 0.118061,0.11771 0.15678,0.21696 0.156354,0.40092 -4.04e-4,0.18383 -0.0397,0.28458 -0.156854,0.40138 -0.107291,0.10702 -0.219147,0.15448 -0.375427,0.15923 -0.07205,0.002 -0.150617,-0.003 -0.174638,-0.0106 z"
       id="path970"
       inkscape:export-xdpi="500"
       inkscape:export-ydpi="500"
       inkscape:connector-curvature="0" />
    <path
       style="fill:none;stroke:#000000;stroke-width:0.138098px;stroke-linecap:butt;stroke-linejoin:miter;stroke-opacity:1"
       d="m -13.729969,80.194038 3.362121,35.047112"
       id="path972"
       inkscape:export-xdpi="500"
       inkscape:export-ydpi="500"
       inkscape:connector-curvature="0" />
    <path
       style="fill:none;stroke:#000000;stroke-width:0.138098px;stroke-linecap:butt;stroke-linejoin:miter;stroke-opacity:1"
       d="m -14.120597,77.926748 -6.332905,-63.42539"
       id="path974"
       inkscape:export-xdpi="500"
       inkscape:export-ydpi="500"
       inkscape:connector-curvature="0" />
    <path
       style="fill:none;stroke:#000000;stroke-width:0.138098px;stroke-linecap:butt;stroke-linejoin:miter;stroke-opacity:1"
       d="m 24.776592,261.51761 -0.815009,0.0246 -1.037295,0.24624 -2.000495,0.41861 -1.630027,0.34472 -2.494441,0.66484 -2.000484,0.51708 -1.852314,0.49249 -1.38305,0.56634 -1.185486,0.8372 -0.617434,0.68946 -0.7656265,1.40355 -0.765604,1.87139 -0.222276,1.64978 0.07407,1.20656 0.148191,1.20656 0.518637,0.88644 0.568041,-0.12313 0.1728835,-0.39395 c 0,0 0.172882,-1.7729 0.172882,-1.8714 0,-0.0985 0,-1.00957 0,-1.00957 l 0.172883,-1.0342 0.222265,-1.0588 0.469264,-1.23119 0.518648,-0.96033 1.234869,-1.00956 1.358358,-0.29548 1.284263,-0.17237 1.753517,-0.2216 0.963199,-0.0246 0.617435,0.29548 0.321063,0.76334 0.172882,1.20656 0.296383,0.86182 0.222265,0.93569 0.222276,1.10806 0.321074,1.00957 0.197584,1.13268 0.345765,1.42818 0.41985,0.5417 0.493935,-0.0246 0.123489,-0.66484 -0.02469,-0.76334 -0.321074,-1.57589 -0.444541,-2.14227 -0.419861,-2.06838 -0.02469,-1.00956 0.222276,-0.86183 0.790327,-0.49247 1.160774,0 0.642115,0.88645 0.518659,1.84677 0.568041,2.16687 1.037295,5.6265 0.116454,0.71328 1.676527,-0.34824 -1.187892,-5.22819 -0.740924,-3.32419 -0.605099,-1.63747 -0.580376,-1.31737 1.222523,-0.39397"
       id="path978"
       inkscape:export-xdpi="500"
       inkscape:export-ydpi="500"
       inkscape:connector-curvature="0" />
    <path
       style="fill:#c9c95f;fill-opacity:1;stroke:none;stroke-width:0.0108744;stroke-linecap:round;stroke-miterlimit:4;stroke-dasharray:none;stroke-opacity:1"
       d="m 25.295751,275.83172 c -0.0096,-0.0407 -0.03523,-0.16803 -0.05588,-0.28295 -0.02065,-0.11491 -0.04821,-0.23245 -0.06109,-0.26117 -0.01299,-0.0287 -0.252726,-1.29803 -0.532846,-2.82066 l -0.509335,-2.76843 -0.285973,-1.09022 c -0.23127,-0.88165 -0.719404,-2.66212 -0.794245,-2.89702 -0.0096,-0.0287 -0.164464,-0.25595 -0.345126,-0.50493 l -0.328492,-0.45269 -0.623128,-0.004 -0.623129,-0.004 -0.3975,0.24668 c -0.218625,0.13566 -0.404194,0.25253 -0.412379,0.25969 -0.0085,0.007 -0.06577,0.20769 -0.127905,0.44564 l -0.113028,0.43263 0.0096,0.53106 0.0096,0.53105 0.217699,1.07081 c 0.119732,0.58894 0.289294,1.41556 0.37681,1.83692 0.08749,0.42135 0.256227,1.2402 0.374906,1.81963 l 0.215794,1.05354 0.01192,0.38292 c 0.01181,0.37973 0.01149,0.38528 -0.04257,0.66905 -0.02991,0.15736 -0.05641,0.28807 -0.05875,0.29044 -0.0032,0.003 -0.09068,0.01 -0.196169,0.0159 l -0.191837,0.0116 -0.193243,-0.25061 -0.193231,-0.2506 -0.169786,-0.70262 c -0.110739,-0.4583 -0.205737,-0.90604 -0.273181,-1.2876 -0.09866,-0.55825 -0.110526,-0.60727 -0.259483,-1.07253 -0.133621,-0.41742 -0.171648,-0.56521 -0.264273,-1.0273 -0.178385,-0.88985 -0.330056,-1.49437 -0.489262,-1.95004 l -0.139922,-0.40046 -0.0878,-0.60941 -0.0878,-0.60941 -0.168423,-0.40339 -0.168413,-0.40341 -0.333025,-0.15868 -0.333026,-0.15867 -0.523916,0.0164 c -0.496148,0.0154 -0.574789,0.0229 -1.484412,0.13947 -1.81664,0.23288 -2.035297,0.26663 -2.750529,0.42438 l -0.654897,0.14443 -0.628982,0.51514 -0.629004,0.51515 -0.261473,0.48554 c -0.243094,0.45144 -0.277907,0.5284 -0.495254,1.09497 l -0.233781,0.6094 -0.111388,0.52235 c -0.0612,0.28727 -0.150628,0.75497 -0.198617,1.03929 l -0.08727,0.51695 0,0.50313 c 0,0.44839 -0.0074,0.58443 -0.06896,1.25034 -0.1175195,1.27187 -0.1002565,1.14437 -0.1803115,1.33046 -0.03906,0.091 -0.07567,0.17093 -0.0812,0.17769 -0.0053,0.006 -0.114422,0.0349 -0.241923,0.0627 l -0.231812,0.0503 -0.09302,-0.15844 c -0.05109,-0.0872 -0.159941,-0.27266 -0.241731,-0.41225 l -0.148691,-0.25382 -0.07269,-0.59064 c -0.048,-0.38974 -0.08525,-0.79792 -0.109409,-1.20003 l -0.03672,-0.60941 0.108057,-0.80093 0.108078,-0.80094 0.375937,-0.9228 0.375949,-0.92281 0.3846965,-0.70723 0.384697,-0.70723 0.304322,-0.34019 0.30432,-0.3402 0.557548,-0.39355 c 0.306631,-0.21644 0.583398,-0.40834 0.615018,-0.42644 0.03161,-0.0181 0.3561,-0.15452 0.721086,-0.30311 l 0.663635,-0.27017 0.98671,-0.26162 c 0.542679,-0.1439 1.42677,-0.37535 1.964649,-0.51436 0.53789,-0.13899 1.508444,-0.39439 2.156775,-0.56756 1.234358,-0.3297 1.311168,-0.34724 3.850745,-0.87947 0.5667,-0.11875 1.2622,-0.27046 1.545544,-0.33714 l 0.515178,-0.12123 0.348937,-0.005 0.348947,-0.005 0.125778,1.06211 c 0.06918,0.58414 0.120423,1.06707 0.113857,1.07317 -0.0064,0.006 -0.286995,0.0991 -0.623171,0.20657 -0.336176,0.10753 -0.620159,0.20049 -0.631058,0.20657 -0.01309,0.007 0.08301,0.24416 0.283611,0.69884 0.221563,0.50218 0.385825,0.9109 0.608782,1.51479 l 0.305354,0.82704 0.366349,1.64539 c 0.201501,0.90497 0.597851,2.66396 0.880802,3.90888 0.423671,1.86421 0.521011,2.31685 0.551726,2.56596 0.02043,0.16634 0.03491,0.30476 0.03214,0.30758 -0.02948,0.0293 -1.281336,0.28664 -1.394214,0.28664 -0.0075,0 -0.02097,-0.0332 -0.03097,-0.074 z"
       id="path980"
       inkscape:export-xdpi="500"
       inkscape:export-ydpi="500"
       inkscape:connector-curvature="0" />
    <path
       style="fill:none;stroke:#000000;stroke-width:0.138098px;stroke-linecap:butt;stroke-linejoin:miter;stroke-opacity:1"
       d="m 25.214173,276.05704 0.06982,0.83575 0.159451,0.99951 -0.246978,1.47741 -0.938497,1.45279 -1.407752,1.37892 -1.827612,1.35429 -1.778219,1.05882 -2.469739,0.88646 -1.80291,0 -1.753527,-0.73872 -1.654719,-1.10806 -1.185476,-0.68946 -0.518647,0.34473 -0.271669,0.98494 0.790316,0.73871 1.061986,0.76333 1.358359,0.76334 1.704134,0.56635 1.654708,0.27086 2.46976,-0.54174 2.198058,-1.10806 1.580634,-1.05881 1.852315,-1.72365 1.407751,-1.72366 1.207475,-1.68435"
       id="path982"
       inkscape:export-xdpi="500"
       inkscape:export-ydpi="500"
       inkscape:connector-curvature="0" />
    <path
       style="fill:#c9c95f;fill-opacity:1;stroke:none;stroke-width:0.0108744;stroke-linecap:round;stroke-miterlimit:4;stroke-dasharray:none;stroke-opacity:1"
       d="m 15.288242,287.1755 -0.803344,-0.13563 -0.829909,-0.27785 -0.829908,-0.27786 -0.663242,-0.37218 c -0.612815,-0.34389 -0.70395,-0.4014 -1.198875,-0.75648 -0.482855,-0.3464 -0.57266,-0.41899 -0.911208,-0.73651 l -0.375565,-0.35223 0.04236,-0.15199 c 0.0232,-0.0836 0.07897,-0.28674 0.123712,-0.45145 l 0.08131,-0.29946 0.22599,-0.15009 c 0.124297,-0.0825 0.236206,-0.14619 0.24868,-0.14141 0.01256,0.004 0.276938,0.15685 0.587688,0.33795 0.388123,0.22618 0.818946,0.49967 1.37611,0.87354 l 0.811103,0.54429 0.883538,0.3726 0.883527,0.37261 0.932804,0 0.932782,0 1.237349,-0.44412 1.237338,-0.44411 0.902812,-0.53825 0.902834,-0.53823 0.906973,-0.67268 0.906984,-0.67268 0.709208,-0.69402 0.709198,-0.69405 0.468349,-0.72518 c 0.257589,-0.39885 0.475448,-0.75015 0.484144,-0.78065 0.02512,-0.0882 0.242199,-1.41433 0.242199,-1.47967 0,-0.0325 -0.03054,-0.25416 -0.06801,-0.49269 -0.06301,-0.4016 -0.107344,-0.87292 -0.106854,-1.1349 2.77e-4,-0.13277 -0.03416,-0.11558 0.441072,-0.22001 0.297042,-0.0652 0.482494,-0.10291 0.959953,-0.19512 0.03895,-0.007 0.04896,-0.002 0.05651,0.0312 0.01064,0.0461 0.05875,0.64151 0.116592,1.43571 l 0.03948,0.54213 -0.04874,0.49386 c -0.105364,1.06644 -0.105151,1.06562 -0.193381,1.2479 -0.05524,0.11412 -0.230747,0.37423 -0.59336,0.87927 -0.410761,0.5721 -0.656451,0.89054 -1.214307,1.57376 l -0.699363,0.85655 -0.924237,0.86022 -0.924236,0.86022 -0.773799,0.51919 -0.773789,0.51921 -1.100216,0.55653 -1.100216,0.5565 -1.219192,0.26759 c -0.670564,0.14718 -1.236391,0.26684 -1.2574,0.2659 -0.02097,-0.002 -0.399671,-0.0627 -0.841509,-0.13731 z"
       id="path984"
       inkscape:export-xdpi="500"
       inkscape:export-ydpi="500"
       inkscape:connector-curvature="0" />
    <path
       style="fill:#a05a2c;fill-opacity:1;stroke:none;stroke-width:0.0108744;stroke-linecap:round;stroke-miterlimit:4;stroke-dasharray:none;stroke-opacity:1"
       d="m 22.888507,275.7119 c -0.0053,-0.0225 -0.407866,-1.74099 -0.893915,-3.81905 -0.771607,-3.29878 -1.09085,-4.70167 -1.091563,-4.79679 -1.17e-4,-0.0144 0.04779,-0.13652 0.106429,-0.27132 l 0.106599,-0.24512 0.364368,-0.10991 0.364369,-0.1099 0.32184,0.24 0.321851,0.24002 0.04683,0.23688 c 0.02586,0.13029 0.419627,2.05489 0.875173,4.27689 0.455546,2.222 0.828216,4.05151 0.828152,4.06559 -8.5e-5,0.0194 -0.154715,0.0613 -0.633058,0.17201 -0.348128,0.0805 -0.649597,0.14977 -0.669957,0.15393 -0.02746,0.005 -0.0397,-0.003 -0.04715,-0.0332 z"
       id="path986"
       inkscape:export-xdpi="500"
       inkscape:export-ydpi="500"
       inkscape:connector-curvature="0" />
    <text
       xml:space="preserve"
       style="font-size:3.68264008px;line-height:1.25;font-family:sans-serif;letter-spacing:0px;stroke-width:0.138098"
       x="-20.440346"
       y="12.60495"
       id="text990"
       inkscape:export-xdpi="500"
       inkscape:export-ydpi="500"
       transform="scale(1.0014982,0.99850404)"><tspan
         sodipodi:role="line"
         id="tspan988"
         x="-20.440346"
         y="12.60495"
         style="font-size:3.68264008px;stroke-width:0.138098">1</tspan></text>
    <text
       xml:space="preserve"
       style="font-style:normal;font-variant:normal;font-weight:normal;font-stretch:normal;font-size:3.68264008px;line-height:1.25;font-family:sans-serif;-inkscape-font-specification:'sans-serif, Normal';letter-spacing:0px;stroke-width:0.138098"
       x="-22.602606"
       y="42.179108"
       id="text994"
       inkscape:export-xdpi="500"
       inkscape:export-ydpi="500"
       transform="scale(1.0014982,0.99850404)"><tspan
         sodipodi:role="line"
         id="tspan992"
         x="-22.602606"
         y="42.179108"
         style="font-style:normal;font-variant:normal;font-weight:normal;font-stretch:normal;font-size:3.68264008px;font-family:sans-serif;-inkscape-font-specification:'sans-serif, Normal';stroke-width:0.138098">2</tspan></text>
    <text
       xml:space="preserve"
       style="font-style:normal;font-variant:normal;font-weight:normal;font-stretch:normal;font-size:3.68264008px;line-height:1.25;font-family:sans-serif;-inkscape-font-specification:'sans-serif, Normal';letter-spacing:0px;stroke-width:0.138098"
       x="-15.348567"
       y="52.781158"
       id="text998"
       inkscape:export-xdpi="500"
       inkscape:export-ydpi="500"
       transform="scale(1.0014982,0.99850404)"><tspan
         sodipodi:role="line"
         id="tspan996"
         x="-15.348567"
         y="52.781158"
         style="font-style:normal;font-variant:normal;font-weight:normal;font-stretch:normal;font-size:3.68264008px;font-family:sans-serif;-inkscape-font-specification:'sans-serif, Normal';stroke-width:0.138098">3</tspan></text>
    <text
       xml:space="preserve"
       style="font-style:normal;font-variant:normal;font-weight:normal;font-stretch:normal;font-size:3.68264008px;line-height:1.25;font-family:sans-serif;-inkscape-font-specification:'sans-serif, Normal';letter-spacing:0px;stroke-width:0.138098"
       x="-19.533594"
       y="82.843567"
       id="text1002"
       inkscape:export-xdpi="500"
       inkscape:export-ydpi="500"
       transform="scale(1.0014982,0.99850404)"><tspan
         sodipodi:role="line"
         id="tspan1000"
         x="-19.533594"
         y="82.843567"
         style="font-style:normal;font-variant:normal;font-weight:normal;font-stretch:normal;font-size:3.68264008px;font-family:sans-serif;-inkscape-font-specification:'sans-serif, Normal';stroke-width:0.138098">4</tspan></text>
    <text
       xml:space="preserve"
       style="font-style:normal;font-variant:normal;font-weight:normal;font-stretch:normal;font-size:3.68264008px;line-height:1.25;font-family:sans-serif;-inkscape-font-specification:'sans-serif, Normal';letter-spacing:0px;stroke-width:0.138098"
       x="-17.162077"
       y="95.049896"
       id="text1006"
       inkscape:export-xdpi="500"
       inkscape:export-ydpi="500"
       transform="scale(1.0014982,0.99850404)"><tspan
         sodipodi:role="line"
         id="tspan1004"
         x="-17.162077"
         y="95.049896"
         style="font-style:normal;font-variant:normal;font-weight:normal;font-stretch:normal;font-size:3.68264008px;font-family:sans-serif;-inkscape-font-specification:'sans-serif, Normal';stroke-width:0.138098">5</tspan></text>
    <text
       xml:space="preserve"
       style="font-size:10.58329964px;line-height:1.25;font-family:sans-serif;letter-spacing:0px;stroke-width:0.26458299"
       x="113.05501"
       y="57.062046"
       id="text1010"><tspan
         sodipodi:role="line"
         id="tspan1008"
         x="113.05501"
         y="57.062046"
         style="stroke-width:0.26458299" /></text>
    <text
       xml:space="preserve"
       style="font-style:normal;font-variant:normal;font-weight:normal;font-stretch:normal;font-size:3.68264008px;line-height:1.25;font-family:sans-serif;-inkscape-font-specification:'sans-serif, Normal';letter-spacing:0px;stroke-width:0.138098"
       x="-10.187035"
       y="101.88542"
       id="text1014"
       inkscape:export-xdpi="500"
       inkscape:export-ydpi="500"
       transform="scale(1.0014982,0.99850404)"><tspan
         sodipodi:role="line"
         id="tspan1012"
         x="-10.187035"
         y="101.88542"
         style="font-style:normal;font-variant:normal;font-weight:normal;font-stretch:normal;font-size:3.68264008px;font-family:sans-serif;-inkscape-font-specification:'sans-serif, Normal';stroke-width:0.138098">6</tspan></text>
    <text
       xml:space="preserve"
       style="font-size:3.68264008px;line-height:1.25;font-family:sans-serif;-inkscape-font-specification:'sans-serif, Normal';letter-spacing:0px;stroke-width:0.138098"
       x="-8.6260986"
       y="149.75354"
       id="text1018"
       inkscape:export-xdpi="500"
       inkscape:export-ydpi="500"
       transform="scale(1.0014982,0.99850404)"><tspan
         sodipodi:role="line"
         id="tspan1016"
         x="-8.6260986"
         y="149.75354"
         style="stroke-width:0.138098">7</tspan></text>
    <path
       style="fill:none;stroke:#000000;stroke-width:0.138317;stroke-linecap:square;stroke-linejoin:miter;stroke-miterlimit:4;stroke-dasharray:none;stroke-opacity:1"
       d="m -1.4520796,219.60827 20.9187276,-3.8413"
       id="path1024"
       inkscape:export-xdpi="500"
       inkscape:export-ydpi="500"
       inkscape:connector-curvature="0" />
    <text
       xml:space="preserve"
       style="font-size:3.68264008px;line-height:1.25;font-family:sans-serif;-inkscape-font-specification:'sans-serif, Normal';letter-spacing:0px;stroke-width:0.138098"
       x="-11.73333"
       y="119.81573"
       id="text1028"
       inkscape:export-xdpi="500"
       inkscape:export-ydpi="500"
       transform="scale(1.0014982,0.99850404)"><tspan
         sodipodi:role="line"
         id="tspan1026"
         x="-11.73333"
         y="119.81573"
         style="stroke-width:0.138098">1</tspan></text>
    <text
       xml:space="preserve"
       style="font-size:3.68264008px;line-height:1.25;font-family:sans-serif;-inkscape-font-specification:'sans-serif, Normal';letter-spacing:0px;stroke-width:0.138098"
       x="-1.277292"
       y="186.10309"
       id="text1032"
       inkscape:export-xdpi="500"
       inkscape:export-ydpi="500"
       transform="scale(1.0014982,0.99850404)"><tspan
         sodipodi:role="line"
         id="tspan1030"
         x="-1.277292"
         y="186.10309"
         style="stroke-width:0.138098">1</tspan></text>
    <text
       xml:space="preserve"
       style="font-size:3.68264008px;line-height:1.25;font-family:sans-serif;-inkscape-font-specification:'sans-serif, Normal';letter-spacing:0px;stroke-width:0.138098"
       x="-0.78407449"
       y="242.72354"
       id="text1036"
       inkscape:export-xdpi="500"
       inkscape:export-ydpi="500"
       transform="scale(1.0014982,0.99850404)"><tspan
         sodipodi:role="line"
         id="tspan1034"
         x="-0.78407449"
         y="242.72354"
         style="stroke-width:0.138098">1</tspan></text>
    <text
       xml:space="preserve"
       style="font-size:3.68264008px;line-height:1.25;font-family:sans-serif;-inkscape-font-specification:'sans-serif, Normal';letter-spacing:0px;stroke-width:0.138098"
       x="7.8470931"
       y="232.61278"
       id="text1040"
       inkscape:export-xdpi="500"
       inkscape:export-ydpi="500"
       transform="scale(1.0014982,0.99850404)"><tspan
         sodipodi:role="line"
         id="tspan1038"
         x="7.8470931"
         y="232.61278"
         style="stroke-width:0.138098">8</tspan></text>
    <text
       xml:space="preserve"
       style="font-size:3.68264008px;line-height:1.25;font-family:sans-serif;-inkscape-font-specification:'sans-serif, Normal';letter-spacing:0px;stroke-width:0.138098"
       x="12.532576"
       y="262.15601"
       id="text1044"
       inkscape:export-xdpi="500"
       inkscape:export-ydpi="500"
       transform="scale(1.0014982,0.99850404)"><tspan
         sodipodi:role="line"
         id="tspan1042"
         x="12.532576"
         y="262.15601"
         style="stroke-width:0.138098">9</tspan></text>
    <text
       xml:space="preserve"
       style="font-size:1.90418994px;line-height:1.25;font-family:sans-serif;-inkscape-font-specification:'sans-serif, Normal';letter-spacing:0px;stroke-width:0.0714073"
       x="3.2765939"
       y="225.28557"
       id="text1048"
       transform="scale(0.84832141,1.1787985)"
       inkscape:export-xdpi="500"
       inkscape:export-ydpi="500"><tspan
         sodipodi:role="line"
         id="tspan1046"
         x="3.2765939"
         y="225.28557"
         style="stroke-width:0.0714073">10</tspan></text>
    <text
       xml:space="preserve"
       style="font-size:1.74058998px;line-height:1.25;font-family:sans-serif;-inkscape-font-specification:'sans-serif, Normal';letter-spacing:0px;stroke-width:0.065272"
       x="30.31765"
       y="215.74512"
       id="text1052"
       transform="scale(0.81972522,1.219921)"
       inkscape:export-xdpi="500"
       inkscape:export-ydpi="500"><tspan
         sodipodi:role="line"
         id="tspan1050"
         x="30.31765"
         y="215.74512"
         style="stroke-width:0.065272">11</tspan></text>
    <text
       xml:space="preserve"
       style="font-size:2.38622999px;line-height:1.25;font-family:sans-serif;-inkscape-font-specification:'sans-serif, Normal';letter-spacing:0px;stroke-width:0.0894836"
       x="8.7254343"
       y="255.03824"
       id="text1056"
       transform="scale(0.96112583,1.0404465)"
       inkscape:export-xdpi="500"
       inkscape:export-ydpi="500"><tspan
         sodipodi:role="line"
         id="tspan1054"
         x="8.7254343"
         y="255.03824"
         style="stroke-width:0.0894836">12</tspan></text>
    <text
       xml:space="preserve"
       style="font-size:2.15804005px;line-height:1.25;font-family:sans-serif;-inkscape-font-specification:'sans-serif, Normal';letter-spacing:0px;stroke-width:0.0809267"
       x="18.336172"
       y="262.17606"
       id="text1060"
       transform="scale(0.99013145,1.0099669)"
       inkscape:export-xdpi="500"
       inkscape:export-ydpi="500"><tspan
         sodipodi:role="line"
         id="tspan1058"
         x="18.336172"
         y="262.17606"
         style="stroke-width:0.0809267">13</tspan></text>
    <text
       xml:space="preserve"
       style="font-size:2.70629001px;line-height:1.25;font-family:sans-serif;-inkscape-font-specification:'sans-serif, Normal';letter-spacing:0px;stroke-width:0.101485"
       x="13.00055"
       y="261.2908"
       id="text1064"
       transform="scale(0.9669044,1.0342284)"
       inkscape:export-xdpi="500"
       inkscape:export-ydpi="500"><tspan
         sodipodi:role="line"
         id="tspan1062"
         x="13.00055"
         y="261.2908"
         style="stroke-width:0.101485">14</tspan></text>
    <text
       xml:space="preserve"
       style="font-size:1.64363003px;line-height:1.25;font-family:sans-serif;-inkscape-font-specification:'sans-serif, Normal';letter-spacing:0px;stroke-width:0.0616362"
       x="15.821622"
       y="246.1606"
       id="text1068"
       transform="scale(0.90227732,1.1083067)"
       inkscape:export-xdpi="500"
       inkscape:export-ydpi="500"><tspan
         sodipodi:role="line"
         id="tspan1066"
         x="15.821622"
         y="246.1606"
         style="stroke-width:0.0616362">15</tspan></text>
    <text
       xml:space="preserve"
       style="font-size:2.82200003px;line-height:1.25;font-family:sans-serif;-inkscape-font-specification:'sans-serif, Normal';letter-spacing:0px;stroke-width:0.105825"
       x="13.791231"
       y="281.39047"
       id="text1072"
       transform="scale(1.0204071,0.98000102)"
       inkscape:export-xdpi="500"
       inkscape:export-ydpi="500"><tspan
         sodipodi:role="line"
         id="tspan1070"
         x="13.791231"
         y="281.39047"
         style="stroke-width:0.105825">16</tspan></text>
    <text
       xml:space="preserve"
       style="font-size:1.60994005px;line-height:1.25;font-family:sans-serif;-inkscape-font-specification:'sans-serif, Normal';letter-spacing:0px;stroke-width:0.0603728"
       x="26.241802"
       y="229.06833"
       id="text1076"
       transform="scale(0.83819501,1.1930398)"
       inkscape:export-xdpi="500"
       inkscape:export-ydpi="500"><tspan
         sodipodi:role="line"
         id="tspan1074"
         x="26.241802"
         y="229.06833"
         style="stroke-width:0.0603728">17</tspan></text>
    <text
       xml:space="preserve"
       style="font-size:1.23629999px;line-height:1.25;font-family:sans-serif;-inkscape-font-specification:'sans-serif, Normal';letter-spacing:0px;stroke-width:0.0463613"
       x="17.509655"
       y="271.43707"
       id="text1080"
       transform="scale(0.97500963,1.0256309)"
       inkscape:export-xdpi="500"
       inkscape:export-ydpi="500"><tspan
         sodipodi:role="line"
         id="tspan1078"
         x="17.509655"
         y="271.43707"
         style="stroke-width:0.0463613">18</tspan></text>
    <text
       xml:space="preserve"
       style="font-size:2.91722012px;line-height:1.25;font-family:sans-serif;-inkscape-font-specification:'sans-serif, Normal';letter-spacing:0px;stroke-width:0.109395"
       x="15.487246"
       y="277.99902"
       id="text1084"
       transform="scale(0.98524498,1.014976)"
       inkscape:export-xdpi="500"
       inkscape:export-ydpi="500"><tspan
         sodipodi:role="line"
         id="tspan1082"
         x="15.487246"
         y="277.99902"
         style="stroke-width:0.109395">19</tspan></text>
    <text
       xml:space="preserve"
       style="font-size:1.82005px;line-height:1.25;font-family:sans-serif;-inkscape-font-specification:'sans-serif, Normal';letter-spacing:0px;stroke-width:0.0682508"
       x="15.92973"
       y="272.26587"
       id="text1060-3"
       transform="scale(0.94837736,1.0544326)"
       inkscape:export-xdpi="500"
       inkscape:export-ydpi="500"><tspan
         sodipodi:role="line"
         id="tspan1058-6"
         x="15.92973"
         y="272.26587"
         style="stroke-width:0.0682508">13</tspan></text>
    <text
       xml:space="preserve"
       style="font-size:1.43780994px;line-height:1.25;font-family:sans-serif;-inkscape-font-specification:'sans-serif, Normal';letter-spacing:0px;stroke-width:0.053917"
       x="30.81176"
       y="238.11755"
       id="text1124"
       transform="scale(0.86684273,1.1536118)"
       inkscape:export-xdpi="500"
       inkscape:export-ydpi="500"><tspan
         sodipodi:role="line"
         id="tspan1122"
         x="30.81176"
         y="238.11755"
         style="stroke-width:0.053917">20</tspan></text>
  </g>
</svg>
