<svg version="1.1" viewBox="0.0 0.0 600.0 401.0" fill="none" stroke="none" stroke-linecap="square" stroke-miterlimit="10" width="600" height="401" xmlns:xlink="http://www.w3.org/1999/xlink" xmlns="http://www.w3.org/2000/svg"><path fill="#ffffff" fill-opacity="0.0" d="M0 0L600.0 0L600.0 401.0L0 401.0L0 0Z" fill-rule="nonzero"/><path stroke="#333333" stroke-width="1.0" stroke-linecap="butt" d="M47.5 326.5L579.5 326.5" fill-rule="nonzero"/><path stroke="#434343" stroke-width="1.0" stroke-linecap="butt" d="M47.5 302.5L579.5 302.5" fill-rule="nonzero"/><path stroke="#434343" stroke-width="1.0" stroke-linecap="butt" d="M47.5 277.5L579.5 277.5" fill-rule="nonzero"/><path stroke="#434343" stroke-width="1.0" stroke-linecap="butt" d="M47.5 252.5L579.5 252.5" fill-rule="nonzero"/><path stroke="#434343" stroke-width="1.0" stroke-linecap="butt" d="M47.5 227.5L579.5 227.5" fill-rule="nonzero"/><path stroke="#434343" stroke-width="1.0" stroke-linecap="butt" d="M47.5 203.5L579.5 203.5" fill-rule="nonzero"/><path stroke="#434343" stroke-width="1.0" stroke-linecap="butt" d="M47.5 178.5L579.5 178.5" fill-rule="nonzero"/><path stroke="#434343" stroke-width="1.0" stroke-linecap="butt" d="M47.5 153.5L579.5 153.5" fill-rule="nonzero"/><path stroke="#434343" stroke-width="1.0" stroke-linecap="butt" d="M47.5 128.5L579.5 128.5" fill-rule="nonzero"/><path stroke="#434343" stroke-width="1.0" stroke-linecap="butt" d="M47.5 103.5L579.5 103.5" fill-rule="nonzero"/><path stroke="#434343" stroke-width="1.0" stroke-linecap="butt" d="M47.5 79.5L579.5 79.5" fill-rule="nonzero"/><path stroke="#434343" stroke-width="1.0" stroke-linecap="butt" d="M47.5 54.5L579.5 54.5" fill-rule="nonzero"/><clipPath id="id_0"><path d="M47.05 54.416668L579.95 54.416668L579.95 326.86673L47.05 326.86673L47.05 54.416668Z" clip-rule="nonzero"/></clipPath><path stroke="#000000" stroke-width="2.0" stroke-linecap="butt" stroke-opacity="0.0" clip-path="url(#id_0)" d="M81.0 327.0L66.0 327.0L66.0 289.0C66.0 287.89542 66.89543 287.0 68.0 287.0L79.0 287.0C80.10457 287.0 81.0 287.89542 81.0 289.0Z" fill-rule="nonzero"/><path fill="#4285f4" clip-path="url(#id_0)" d="M81.0 327.0L66.0 327.0L66.0 289.0C66.0 287.89542 66.89543 287.0 68.0 287.0L79.0 287.0C80.10457 287.0 81.0 287.89542 81.0 289.0Z" fill-rule="nonzero"/><path stroke="#000000" stroke-width="2.0" stroke-linecap="butt" stroke-opacity="0.0" clip-path="url(#id_0)" d="M132.0 327.0L117.0 327.0L117.0 260.0C117.0 258.89542 117.89543 258.0 119.0 258.0L130.0 258.0C131.10457 258.0 132.0 258.89542 132.0 260.0Z" fill-rule="nonzero"/><path fill="#4285f4" clip-path="url(#id_0)" d="M132.0 327.0L117.0 327.0L117.0 260.0C117.0 258.89542 117.89543 258.0 119.0 258.0L130.0 258.0C131.10457 258.0 132.0 258.89542 132.0 260.0Z" fill-rule="nonzero"/><path stroke="#000000" stroke-width="2.0" stroke-linecap="butt" stroke-opacity="0.0" clip-path="url(#id_0)" d="M184.0 327.0L169.0 327.0L169.0 141.0C169.0 139.89543 169.89543 139.0 171.0 139.0L182.0 139.0C183.10457 139.0 184.0 139.89543 184.0 141.0Z" fill-rule="nonzero"/><path fill="#4285f4" clip-path="url(#id_0)" d="M184.0 327.0L169.0 327.0L169.0 141.0C169.0 139.89543 169.89543 139.0 171.0 139.0L182.0 139.0C183.10457 139.0 184.0 139.89543 184.0 141.0Z" fill-rule="nonzero"/><path stroke="#000000" stroke-width="2.0" stroke-linecap="butt" stroke-opacity="0.0" clip-path="url(#id_0)" d="M235.0 327.0L220.0 327.0L220.0 71.0C220.0 69.89543 220.89543 69.0 222.0 69.0L233.0 69.0C234.10457 69.0 235.0 69.89543 235.0 71.0Z" fill-rule="nonzero"/><path fill="#4285f4" clip-path="url(#id_0)" d="M235.0 327.0L220.0 327.0L220.0 71.0C220.0 69.89543 220.89543 69.0 222.0 69.0L233.0 69.0C234.10457 69.0 235.0 69.89543 235.0 71.0Z" fill-rule="nonzero"/><path stroke="#000000" stroke-width="2.0" stroke-linecap="butt" stroke-opacity="0.0" clip-path="url(#id_0)" d="M287.0 327.0L272.0 327.0L272.0 61.0C272.0 59.89543 272.89542 59.0 274.0 59.0L285.0 59.0C286.10458 59.0 287.0 59.89543 287.0 61.0Z" fill-rule="nonzero"/><path fill="#4285f4" clip-path="url(#id_0)" d="M287.0 327.0L272.0 327.0L272.0 61.0C272.0 59.89543 272.89542 59.0 274.0 59.0L285.0 59.0C286.10458 59.0 287.0 59.89543 287.0 61.0Z" fill-rule="nonzero"/><path stroke="#000000" stroke-width="2.0" stroke-linecap="butt" stroke-opacity="0.0" clip-path="url(#id_0)" d="M338.0 327.0L323.0 327.0L323.0 91.0C323.0 89.89543 323.89542 89.0 325.0 89.0L336.0 89.0C337.10458 89.0 338.0 89.89543 338.0 91.0Z" fill-rule="nonzero"/><path fill="#4285f4" clip-path="url(#id_0)" d="M338.0 327.0L323.0 327.0L323.0 91.0C323.0 89.89543 323.89542 89.0 325.0 89.0L336.0 89.0C337.10458 89.0 338.0 89.89543 338.0 91.0Z" fill-rule="nonzero"/><path stroke="#000000" stroke-width="2.0" stroke-linecap="butt" stroke-opacity="0.0" clip-path="url(#id_0)" d="M390.0 327.0L375.0 327.0L375.0 131.0C375.0 129.89543 375.89542 129.0 377.0 129.0L388.0 129.0C389.10458 129.0 390.0 129.89543 390.0 131.0Z" fill-rule="nonzero"/><path fill="#4285f4" clip-path="url(#id_0)" d="M390.0 327.0L375.0 327.0L375.0 131.0C375.0 129.89543 375.89542 129.0 377.0 129.0L388.0 129.0C389.10458 129.0 390.0 129.89543 390.0 131.0Z" fill-rule="nonzero"/><path stroke="#000000" stroke-width="2.0" stroke-linecap="butt" stroke-opacity="0.0" clip-path="url(#id_0)" d="M441.0 327.0L426.0 327.0L426.0 210.0C426.0 208.89543 426.89542 208.0 428.0 208.0L439.0 208.0C440.10458 208.0 441.0 208.89543 441.0 210.0Z" fill-rule="nonzero"/><path fill="#4285f4" clip-path="url(#id_0)" d="M441.0 327.0L426.0 327.0L426.0 210.0C426.0 208.89543 426.89542 208.0 428.0 208.0L439.0 208.0C440.10458 208.0 441.0 208.89543 441.0 210.0Z" fill-rule="nonzero"/><path stroke="#000000" stroke-width="2.0" stroke-linecap="butt" stroke-opacity="0.0" clip-path="url(#id_0)" d="M493.0 327.0L478.0 327.0L478.0 314.0C478.0 312.89542 478.89542 312.0 480.0 312.0L491.0 312.0C492.10458 312.0 493.0 312.89542 493.0 314.0Z" fill-rule="nonzero"/><path fill="#4285f4" clip-path="url(#id_0)" d="M493.0 327.0L478.0 327.0L478.0 314.0C478.0 312.89542 478.89542 312.0 480.0 312.0L491.0 312.0C492.10458 312.0 493.0 312.89542 493.0 314.0Z" fill-rule="nonzero"/><path stroke="#000000" stroke-width="2.0" stroke-linecap="butt" stroke-opacity="0.0" clip-path="url(#id_0)" d="M544.0 327.0L529.0 327.0L529.0 327.0L544.0 327.0Z" fill-rule="nonzero"/><path fill="#4285f4" clip-path="url(#id_0)" d="M544.0 327.0L529.0 327.0L529.0 327.0L544.0 327.0Z" fill-rule="nonzero"/><path stroke="#000000" stroke-width="2.0" stroke-linecap="butt" stroke-opacity="0.0" clip-path="url(#id_0)" d="M98.0 327.0L83.0 327.0L83.0 299.0C83.0 297.89542 83.89543 297.0 85.0 297.0L96.0 297.0C97.10457 297.0 98.0 297.89542 98.0 299.0Z" fill-rule="nonzero"/><path fill="#ea4335" clip-path="url(#id_0)" d="M98.0 327.0L83.0 327.0L83.0 299.0C83.0 297.89542 83.89543 297.0 85.0 297.0L96.0 297.0C97.10457 297.0 98.0 297.89542 98.0 299.0Z" fill-rule="nonzero"/><path stroke="#000000" stroke-width="2.0" stroke-linecap="butt" stroke-opacity="0.0" clip-path="url(#id_0)" d="M149.0 327.0L134.0 327.0L134.0 274.0C134.0 272.89542 134.89543 272.0 136.0 272.0L147.0 272.0C148.10457 272.0 149.0 272.89542 149.0 274.0Z" fill-rule="nonzero"/><path fill="#ea4335" clip-path="url(#id_0)" d="M149.0 327.0L134.0 327.0L134.0 274.0C134.0 272.89542 134.89543 272.0 136.0 272.0L147.0 272.0C148.10457 272.0 149.0 272.89542 149.0 274.0Z" fill-rule="nonzero"/><path stroke="#000000" stroke-width="2.0" stroke-linecap="butt" stroke-opacity="0.0" clip-path="url(#id_0)" d="M201.0 327.0L186.0 327.0L186.0 205.0C186.0 203.89543 186.89543 203.0 188.0 203.0L199.0 203.0C200.10457 203.0 201.0 203.89543 201.0 205.0Z" fill-rule="nonzero"/><path fill="#ea4335" clip-path="url(#id_0)" d="M201.0 327.0L186.0 327.0L186.0 205.0C186.0 203.89543 186.89543 203.0 188.0 203.0L199.0 203.0C200.10457 203.0 201.0 203.89543 201.0 205.0Z" fill-rule="nonzero"/><path stroke="#000000" stroke-width="2.0" stroke-linecap="butt" stroke-opacity="0.0" clip-path="url(#id_0)" d="M252.0 327.0L237.0 327.0L237.0 180.0C237.0 178.89543 237.89543 178.0 239.0 178.0L250.0 178.0C251.10457 178.0 252.0 178.89543 252.0 180.0Z" fill-rule="nonzero"/><path fill="#ea4335" clip-path="url(#id_0)" d="M252.0 327.0L237.0 327.0L237.0 180.0C237.0 178.89543 237.89543 178.0 239.0 178.0L250.0 178.0C251.10457 178.0 252.0 178.89543 252.0 180.0Z" fill-rule="nonzero"/><path stroke="#000000" stroke-width="2.0" stroke-linecap="butt" stroke-opacity="0.0" clip-path="url(#id_0)" d="M304.0 327.0L289.0 327.0L289.0 245.0C289.0 243.89543 289.89542 243.0 291.0 243.0L302.0 243.0C303.10458 243.0 304.0 243.89543 304.0 245.0Z" fill-rule="nonzero"/><path fill="#ea4335" clip-path="url(#id_0)" d="M304.0 327.0L289.0 327.0L289.0 245.0C289.0 243.89543 289.89542 243.0 291.0 243.0L302.0 243.0C303.10458 243.0 304.0 243.89543 304.0 245.0Z" fill-rule="nonzero"/><path stroke="#000000" stroke-width="2.0" stroke-linecap="butt" stroke-opacity="0.0" clip-path="url(#id_0)" d="M355.0 327.0L340.0 327.0L340.0 250.0C340.0 248.89543 340.89542 248.0 342.0 248.0L353.0 248.0C354.10458 248.0 355.0 248.89543 355.0 250.0Z" fill-rule="nonzero"/><path fill="#ea4335" clip-path="url(#id_0)" d="M355.0 327.0L340.0 327.0L340.0 250.0C340.0 248.89543 340.89542 248.0 342.0 248.0L353.0 248.0C354.10458 248.0 355.0 248.89543 355.0 250.0Z" fill-rule="nonzero"/><path stroke="#000000" stroke-width="2.0" stroke-linecap="butt" stroke-opacity="0.0" clip-path="url(#id_0)" d="M407.0 327.0L392.0 327.0L392.0 225.0C392.0 223.89543 392.89542 223.0 394.0 223.0L405.0 223.0C406.10458 223.0 407.0 223.89543 407.0 225.0Z" fill-rule="nonzero"/><path fill="#ea4335" clip-path="url(#id_0)" d="M407.0 327.0L392.0 327.0L392.0 225.0C392.0 223.89543 392.89542 223.0 394.0 223.0L405.0 223.0C406.10458 223.0 407.0 223.89543 407.0 225.0Z" fill-rule="nonzero"/><path stroke="#000000" stroke-width="2.0" stroke-linecap="butt" stroke-opacity="0.0" clip-path="url(#id_0)" d="M458.0 327.0L443.0 327.0L443.0 260.0C443.0 258.89542 443.89542 258.0 445.0 258.0L456.0 258.0C457.10458 258.0 458.0 258.89542 458.0 260.0Z" fill-rule="nonzero"/><path fill="#ea4335" clip-path="url(#id_0)" d="M458.0 327.0L443.0 327.0L443.0 260.0C443.0 258.89542 443.89542 258.0 445.0 258.0L456.0 258.0C457.10458 258.0 458.0 258.89542 458.0 260.0Z" fill-rule="nonzero"/><path stroke="#000000" stroke-width="2.0" stroke-linecap="butt" stroke-opacity="0.0" clip-path="url(#id_0)" d="M510.0 327.0L495.0 327.0L495.0 289.0C495.0 287.89542 495.89542 287.0 497.0 287.0L508.0 287.0C509.10458 287.0 510.0 287.89542 510.0 289.0Z" fill-rule="nonzero"/><path fill="#ea4335" clip-path="url(#id_0)" d="M510.0 327.0L495.0 327.0L495.0 289.0C495.0 287.89542 495.89542 287.0 497.0 287.0L508.0 287.0C509.10458 287.0 510.0 287.89542 510.0 289.0Z" fill-rule="nonzero"/><path stroke="#000000" stroke-width="2.0" stroke-linecap="butt" stroke-opacity="0.0" clip-path="url(#id_0)" d="M561.0 327.0L546.0 327.0L546.0 314.0C546.0 312.89542 546.89545 312.0 548.0 312.0L559.0 312.0C560.10455 312.0 561.0 312.89542 561.0 314.0Z" fill-rule="nonzero"/><path fill="#ea4335" clip-path="url(#id_0)" d="M561.0 327.0L546.0 327.0L546.0 314.0C546.0 312.89542 546.89545 312.0 548.0 312.0L559.0 312.0C560.10455 312.0 561.0 312.89542 561.0 314.0Z" fill-rule="nonzero"/><path fill="#000000" d="M34.55 326.63235Q34.55 325.1011 34.8625 324.17923Q35.175 323.24173 35.784374 322.74173Q36.409374 322.24173 37.346874 322.24173Q38.034374 322.24173 38.55 322.52298Q39.08125 322.80423 39.425 323.33548Q39.76875 323.8511 39.95625 324.6011Q40.14375 325.3511 40.14375 326.63235Q40.14375 328.14798 39.83125 329.06985Q39.534374 329.99173 38.909374 330.50735Q38.3 331.00735 37.346874 331.00735Q36.1125 331.00735 35.39375 330.11673Q34.55 329.05423 34.55 326.63235ZM35.628124 326.63235Q35.628124 328.74173 36.128124 329.44485Q36.628124 330.14798 37.346874 330.14798Q38.08125 330.14798 38.565624 329.44485Q39.065624 328.74173 39.065624 326.63235Q39.065624 324.50735 38.565624 323.81985Q38.08125 323.11673 37.33125 323.11673Q36.6125 323.11673 36.175 323.7261Q35.628124 324.50735 35.628124 326.63235Z" fill-rule="nonzero"/><path fill="#000000" d="M34.55 303.84854L35.659374 303.7548Q35.784374 304.5673 36.221874 304.97354Q36.675 305.3798 37.315624 305.3798Q38.065624 305.3798 38.596874 304.80167Q39.128124 304.22354 39.128124 303.28604Q39.128124 302.3798 38.6125 301.86417Q38.1125 301.33292 37.284374 301.33292Q36.784374 301.33292 36.3625 301.5673Q35.95625 301.80167 35.721874 302.16104L34.7375 302.03604L35.565624 297.6298L39.846874 297.6298L39.846874 298.6298L36.409374 298.6298L35.95625 300.9423Q36.721874 300.39542 37.565624 300.39542Q38.690624 300.39542 39.45625 301.17667Q40.2375 301.95792 40.2375 303.1923Q40.2375 304.34854 39.565624 305.20792Q38.7375 306.23917 37.315624 306.23917Q36.14375 306.23917 35.39375 305.58292Q34.659374 304.92667 34.55 303.84854Z" fill-rule="nonzero"/><path fill="#000000" d="M31.51875 281.33035L30.471874 281.33035L30.471874 274.6116Q30.08125 274.97098 29.45625 275.34598Q28.846874 275.70535 28.3625 275.87723L28.3625 274.8616Q29.2375 274.43973 29.89375 273.8616Q30.565624 273.26785 30.846874 272.70535L31.51875 272.70535L31.51875 281.33035ZM34.55 277.09598Q34.55 275.56473 34.8625 274.64285Q35.175 273.70535 35.784374 273.20535Q36.409374 272.70535 37.346874 272.70535Q38.034374 272.70535 38.55 272.9866Q39.08125 273.26785 39.425 273.7991Q39.76875 274.31473 39.95625 275.06473Q40.14375 275.81473 40.14375 277.09598Q40.14375 278.6116 39.83125 279.53348Q39.534374 280.45535 38.909374 280.97098Q38.3 281.47098 37.346874 281.47098Q36.1125 281.47098 35.39375 280.58035Q34.55 279.51785 34.55 277.09598ZM35.628124 277.09598Q35.628124 279.20535 36.128124 279.90848Q36.628124 280.6116 37.346874 280.6116Q38.08125 280.6116 38.565624 279.90848Q39.065624 279.20535 39.065624 277.09598Q39.065624 274.97098 38.565624 274.28348Q38.08125 273.58035 37.33125 273.58035Q36.6125 273.58035 36.175 274.18973Q35.628124 274.97098 35.628124 277.09598Z" fill-rule="nonzero"/><path fill="#000000" d="M31.51875 256.56216L30.471874 256.56216L30.471874 249.84341Q30.08125 250.20279 29.45625 250.57779Q28.846874 250.93716 28.3625 251.10904L28.3625 250.09341Q29.2375 249.67154 29.89375 249.09341Q30.565624 248.49966 30.846874 247.93716L31.51875 247.93716L31.51875 256.56216ZM34.55 254.31216L35.659374 254.21841Q35.784374 255.03091 36.221874 255.43716Q36.675 255.84341 37.315624 255.84341Q38.065624 255.84341 38.596874 255.26529Q39.128124 254.68716 39.128124 253.74966Q39.128124 252.84341 38.6125 252.32779Q38.1125 251.79654 37.284374 251.79654Q36.784374 251.79654 36.3625 252.03091Q35.95625 252.26529 35.721874 252.62466L34.7375 252.49966L35.565624 248.09341L39.846874 248.09341L39.846874 249.09341L36.409374 249.09341L35.95625 251.40591Q36.721874 250.85904 37.565624 250.85904Q38.690624 250.85904 39.45625 251.64029Q40.2375 252.42154 40.2375 253.65591Q40.2375 254.81216 39.565624 255.67154Q38.7375 256.7028 37.315624 256.7028Q36.14375 256.7028 35.39375 256.04654Q34.659374 255.39029 34.55 254.31216Z" fill-rule="nonzero"/><path fill="#000000" d="M33.096874 230.77837L33.096874 231.79399L27.409374 231.79399Q27.409374 231.41899 27.534374 231.05962Q27.753124 230.48149 28.221874 229.91899Q28.70625 229.35649 29.6125 228.62212Q31.01875 227.46587 31.503124 226.79399Q32.003124 226.12212 32.003124 225.52837Q32.003124 224.90337 31.55 224.48149Q31.096874 224.04399 30.378124 224.04399Q29.6125 224.04399 29.159374 224.49712Q28.70625 224.95024 28.690624 225.76274L27.6125 225.65337Q27.721874 224.43462 28.440624 223.80962Q29.175 223.16899 30.409374 223.16899Q31.64375 223.16899 32.3625 223.85649Q33.08125 224.54399 33.08125 225.55962Q33.08125 226.07524 32.8625 226.57524Q32.659374 227.05962 32.159374 227.62212Q31.675 228.16899 30.55 229.12212Q29.596874 229.91899 29.315624 230.21587Q29.05 230.49712 28.878124 230.77837L33.096874 230.77837ZM34.55 227.55962Q34.55 226.02837 34.8625 225.10649Q35.175 224.16899 35.784374 223.66899Q36.409374 223.16899 37.346874 223.16899Q38.034374 223.16899 38.55 223.45024Q39.08125 223.73149 39.425 224.26274Q39.76875 224.77837 39.95625 225.52837Q40.14375 226.27837 40.14375 227.55962Q40.14375 229.07524 39.83125 229.99712Q39.534374 230.91899 38.909374 231.43462Q38.3 231.93462 37.346874 231.93462Q36.1125 231.93462 35.39375 231.04399Q34.55 229.98149 34.55 227.55962ZM35.628124 227.55962Q35.628124 229.66899 36.128124 230.37212Q36.628124 231.07524 37.346874 231.07524Q38.08125 231.07524 38.565624 230.37212Q39.065624 229.66899 39.065624 227.55962Q39.065624 225.43462 38.565624 224.74712Q38.08125 224.04399 37.33125 224.04399Q36.6125 224.04399 36.175 224.65337Q35.628124 225.43462 35.628124 227.55962Z" fill-rule="nonzero"/><path fill="#000000" d="M33.096874 206.01018L33.096874 207.0258L27.409374 207.0258Q27.409374 206.6508 27.534374 206.29143Q27.753124 205.7133 28.221874 205.1508Q28.70625 204.5883 29.6125 203.85393Q31.01875 202.69768 31.503124 202.0258Q32.003124 201.35393 32.003124 200.76018Q32.003124 200.13518 31.55 199.7133Q31.096874 199.2758 30.378124 199.2758Q29.6125 199.2758 29.159374 199.72893Q28.70625 200.18205 28.690624 200.99455L27.6125 200.88518Q27.721874 199.66643 28.440624 199.04143Q29.175 198.4008 30.409374 198.4008Q31.64375 198.4008 32.3625 199.0883Q33.08125 199.7758 33.08125 200.79143Q33.08125 201.30705 32.8625 201.80705Q32.659374 202.29143 32.159374 202.85393Q31.675 203.4008 30.55 204.35393Q29.596874 205.1508 29.315624 205.44768Q29.05 205.72893 28.878124 206.01018L33.096874 206.01018ZM34.55 204.7758L35.659374 204.68205Q35.784374 205.49455 36.221874 205.9008Q36.675 206.30705 37.315624 206.30705Q38.065624 206.30705 38.596874 205.72893Q39.128124 205.1508 39.128124 204.2133Q39.128124 203.30705 38.6125 202.79143Q38.1125 202.26018 37.284374 202.26018Q36.784374 202.26018 36.3625 202.49455Q35.95625 202.72893 35.721874 203.0883L34.7375 202.9633L35.565624 198.55705L39.846874 198.55705L39.846874 199.55705L36.409374 199.55705L35.95625 201.86955Q36.721874 201.32268 37.565624 201.32268Q38.690624 201.32268 39.45625 202.10393Q40.2375 202.88518 40.2375 204.11955Q40.2375 205.2758 39.565624 206.13518Q38.7375 207.16643 37.315624 207.16643Q36.14375 207.16643 35.39375 206.51018Q34.659374 205.85393 34.55 204.7758Z" fill-rule="nonzero"/><path fill="#000000" d="M27.55 179.99199L28.6125 179.85136Q28.784374 180.74199 29.221874 181.14824Q29.659374 181.53886 30.284374 181.53886Q31.034374 181.53886 31.55 181.02324Q32.065624 180.50761 32.065624 179.74199Q32.065624 179.02324 31.58125 178.55449Q31.1125 178.07011 30.378124 178.07011Q30.08125 178.07011 29.628124 178.19511L29.753124 177.25761Q29.8625 177.27324 29.925 177.27324Q30.596874 177.27324 31.128124 176.92949Q31.675 176.57011 31.675 175.83574Q31.675 175.25761 31.284374 174.88261Q30.89375 174.49199 30.26875 174.49199Q29.659374 174.49199 29.2375 174.88261Q28.83125 175.27324 28.721874 176.03886L27.659374 175.85136Q27.846874 174.80449 28.534374 174.22636Q29.221874 173.63261 30.2375 173.63261Q30.940624 173.63261 31.534374 173.94511Q32.128124 174.24199 32.440624 174.75761Q32.753124 175.27324 32.753124 175.86699Q32.753124 176.41386 32.45625 176.88261Q32.159374 177.33574 31.58125 177.60136Q32.33125 177.77324 32.753124 178.33574Q33.175 178.88261 33.175 179.72636Q33.175 180.85136 32.346874 181.63261Q31.534374 182.41386 30.284374 182.41386Q29.159374 182.41386 28.409374 181.74199Q27.659374 181.05449 27.55 179.99199ZM34.55 178.02324Q34.55 176.49199 34.8625 175.57011Q35.175 174.63261 35.784374 174.13261Q36.409374 173.63261 37.346874 173.63261Q38.034374 173.63261 38.55 173.91386Q39.08125 174.19511 39.425 174.72636Q39.76875 175.24199 39.95625 175.99199Q40.14375 176.74199 40.14375 178.02324Q40.14375 179.53886 39.83125 180.46074Q39.534374 181.38261 38.909374 181.89824Q38.3 182.39824 37.346874 182.39824Q36.1125 182.39824 35.39375 181.50761Q34.55 180.44511 34.55 178.02324ZM35.628124 178.02324Q35.628124 180.13261 36.128124 180.83574Q36.628124 181.53886 37.346874 181.53886Q38.08125 181.53886 38.565624 180.83574Q39.065624 180.13261 39.065624 178.02324Q39.065624 175.89824 38.565624 175.21074Q38.08125 174.50761 37.33125 174.50761Q36.6125 174.50761 36.175 175.11699Q35.628124 175.89824 35.628124 178.02324Z" fill-rule="nonzero"/><path fill="#000000" d="M27.55 155.2238L28.6125 155.08318Q28.784374 155.9738 29.221874 156.38005Q29.659374 156.77068 30.284374 156.77068Q31.034374 156.77068 31.55 156.25505Q32.065624 155.73943 32.065624 154.9738Q32.065624 154.25505 31.58125 153.7863Q31.1125 153.30193 30.378124 153.30193Q30.08125 153.30193 29.628124 153.42693L29.753124 152.48943Q29.8625 152.50505 29.925 152.50505Q30.596874 152.50505 31.128124 152.1613Q31.675 151.80193 31.675 151.06755Q31.675 150.48943 31.284374 150.11443Q30.89375 149.7238 30.26875 149.7238Q29.659374 149.7238 29.2375 150.11443Q28.83125 150.50505 28.721874 151.27068L27.659374 151.08318Q27.846874 150.0363 28.534374 149.45818Q29.221874 148.86443 30.2375 148.86443Q30.940624 148.86443 31.534374 149.17693Q32.128124 149.4738 32.440624 149.98943Q32.753124 150.50505 32.753124 151.0988Q32.753124 151.64568 32.45625 152.11443Q32.159374 152.56755 31.58125 152.83318Q32.33125 153.00505 32.753124 153.56755Q33.175 154.11443 33.175 154.95818Q33.175 156.08318 32.346874 156.86443Q31.534374 157.64568 30.284374 157.64568Q29.159374 157.64568 28.409374 156.9738Q27.659374 156.2863 27.55 155.2238ZM34.55 155.23943L35.659374 155.14568Q35.784374 155.95818 36.221874 156.36443Q36.675 156.77068 37.315624 156.77068Q38.065624 156.77068 38.596874 156.19255Q39.128124 155.61443 39.128124 154.67693Q39.128124 153.77068 38.6125 153.25505Q38.1125 152.7238 37.284374 152.7238Q36.784374 152.7238 36.3625 152.95818Q35.95625 153.19255 35.721874 153.55193L34.7375 153.42693L35.565624 149.02068L39.846874 149.02068L39.846874 150.02068L36.409374 150.02068L35.95625 152.33318Q36.721874 151.7863 37.565624 151.7863Q38.690624 151.7863 39.45625 152.56755Q40.2375 153.3488 40.2375 154.58318Q40.2375 155.73943 39.565624 156.5988Q38.7375 157.63005 37.315624 157.63005Q36.14375 157.63005 35.39375 156.9738Q34.659374 156.31755 34.55 155.23943Z" fill-rule="nonzero"/><path fill="#000000" d="M30.925 132.72124L30.925 130.65874L27.20625 130.65874L27.20625 129.68999L31.128124 124.12749L31.9875 124.12749L31.9875 129.68999L33.14375 129.68999L33.14375 130.65874L31.9875 130.65874L31.9875 132.72124L30.925 132.72124ZM30.925 129.68999L30.925 125.83061L28.2375 129.68999L30.925 129.68999ZM34.55 128.48686Q34.55 126.95561 34.8625 126.03374Q35.175 125.09624 35.784374 124.59624Q36.409374 124.09624 37.346874 124.09624Q38.034374 124.09624 38.55 124.37749Q39.08125 124.65874 39.425 125.18999Q39.76875 125.70561 39.95625 126.45561Q40.14375 127.20561 40.14375 128.48686Q40.14375 130.00249 39.83125 130.92436Q39.534374 131.84624 38.909374 132.36186Q38.3 132.86186 37.346874 132.86186Q36.1125 132.86186 35.39375 131.97124Q34.55 130.90874 34.55 128.48686ZM35.628124 128.48686Q35.628124 130.59624 36.128124 131.29936Q36.628124 132.00249 37.346874 132.00249Q38.08125 132.00249 38.565624 131.29936Q39.065624 130.59624 39.065624 128.48686Q39.065624 126.36186 38.565624 125.67436Q38.08125 124.97124 37.33125 124.97124Q36.6125 124.97124 36.175 125.58061Q35.628124 126.36186 35.628124 128.48686Z" fill-rule="nonzero"/><path fill="#000000" d="M30.925 107.95304L30.925 105.89054L27.20625 105.89054L27.20625 104.92179L31.128124 99.35929L31.9875 99.35929L31.9875 104.92179L33.14375 104.92179L33.14375 105.89054L31.9875 105.89054L31.9875 107.95304L30.925 107.95304ZM30.925 104.92179L30.925 101.062416L28.2375 104.92179L30.925 104.92179ZM34.55 105.70304L35.659374 105.60929Q35.784374 106.42179 36.221874 106.82804Q36.675 107.23429 37.315624 107.23429Q38.065624 107.23429 38.596874 106.656166Q39.128124 106.07804 39.128124 105.14054Q39.128124 104.23429 38.6125 103.718666Q38.1125 103.187416 37.284374 103.187416Q36.784374 103.187416 36.3625 103.42179Q35.95625 103.656166 35.721874 104.01554L34.7375 103.89054L35.565624 99.48429L39.846874 99.48429L39.846874 100.48429L36.409374 100.48429L35.95625 102.79679Q36.721874 102.249916 37.565624 102.249916Q38.690624 102.249916 39.45625 103.031166Q40.2375 103.812416 40.2375 105.04679Q40.2375 106.20304 39.565624 107.062416Q38.7375 108.093666 37.315624 108.093666Q36.14375 108.093666 35.39375 107.437416Q34.659374 106.781166 34.55 105.70304Z" fill-rule="nonzero"/><path fill="#000000" d="M27.55 80.93485L28.659374 80.8411Q28.784374 81.6536 29.221874 82.05985Q29.675 82.4661 30.315624 82.4661Q31.065624 82.4661 31.596874 81.88798Q32.128124 81.30985 32.128124 80.37235Q32.128124 79.4661 31.6125 78.95048Q31.1125 78.41923 30.284374 78.41923Q29.784374 78.41923 29.3625 78.6536Q28.95625 78.88798 28.721874 79.24735L27.7375 79.12235L28.565624 74.7161L32.846874 74.7161L32.846874 75.7161L29.409374 75.7161L28.95625 78.0286Q29.721874 77.48173 30.565624 77.48173Q31.690624 77.48173 32.45625 78.26298Q33.2375 79.04423 33.2375 80.2786Q33.2375 81.43485 32.565624 82.29423Q31.7375 83.32548 30.315624 83.32548Q29.14375 83.32548 28.39375 82.66923Q27.659374 82.01298 27.55 80.93485ZM34.55 78.95048Q34.55 77.41923 34.8625 76.49735Q35.175 75.55985 35.784374 75.05985Q36.409374 74.55985 37.346874 74.55985Q38.034374 74.55985 38.55 74.8411Q39.08125 75.12235 39.425 75.6536Q39.76875 76.16923 39.95625 76.91923Q40.14375 77.66923 40.14375 78.95048Q40.14375 80.4661 39.83125 81.38798Q39.534374 82.30985 38.909374 82.82548Q38.3 83.32548 37.346874 83.32548Q36.1125 83.32548 35.39375 82.43485Q34.55 81.37235 34.55 78.95048ZM35.628124 78.95048Q35.628124 81.05985 36.128124 81.76298Q36.628124 82.4661 37.346874 82.4661Q38.08125 82.4661 38.565624 81.76298Q39.065624 81.05985 39.065624 78.95048Q39.065624 76.82548 38.565624 76.13798Q38.08125 75.43485 37.33125 75.43485Q36.6125 75.43485 36.175 76.04423Q35.628124 76.82548 35.628124 78.95048Z" fill-rule="nonzero"/><path fill="#000000" d="M27.55 56.166668L28.659374 56.072918Q28.784374 56.885418 29.221874 57.291668Q29.675 57.697918 30.315624 57.697918Q31.065624 57.697918 31.596874 57.119793Q32.128124 56.541668 32.128124 55.604168Q32.128124 54.697918 31.6125 54.182293Q31.1125 53.651043 30.284374 53.651043Q29.784374 53.651043 29.3625 53.885418Q28.95625 54.119793 28.721874 54.479168L27.7375 54.354168L28.565624 49.947918L32.846874 49.947918L32.846874 50.947918L29.409374 50.947918L28.95625 53.260418Q29.721874 52.713543 30.565624 52.713543Q31.690624 52.713543 32.45625 53.494793Q33.2375 54.276043 33.2375 55.510418Q33.2375 56.666668 32.565624 57.526043Q31.7375 58.557293 30.315624 58.557293Q29.14375 58.557293 28.39375 57.901043Q27.659374 57.244793 27.55 56.166668ZM34.55 56.166668L35.659374 56.072918Q35.784374 56.885418 36.221874 57.291668Q36.675 57.697918 37.315624 57.697918Q38.065624 57.697918 38.596874 57.119793Q39.128124 56.541668 39.128124 55.604168Q39.128124 54.697918 38.6125 54.182293Q38.1125 53.651043 37.284374 53.651043Q36.784374 53.651043 36.3625 53.885418Q35.95625 54.119793 35.721874 54.479168L34.7375 54.354168L35.565624 49.947918L39.846874 49.947918L39.846874 50.947918L36.409374 50.947918L35.95625 53.260418Q36.721874 52.713543 37.565624 52.713543Q38.690624 52.713543 39.45625 53.494793Q40.2375 54.276043 40.2375 55.510418Q40.2375 56.666668 39.565624 57.526043Q38.7375 58.557293 37.315624 58.557293Q36.14375 58.557293 35.39375 57.901043Q34.659374 57.244793 34.55 56.166668Z" fill-rule="nonzero"/><path fill="#000000" d="M72.53462 357.6928L66.45792 351.61612L67.673256 350.4008L73.407455 353.26236Q74.214 353.67114 74.60069 353.88107Q74.368675 353.45016 73.94883 352.58838L71.17565 346.89838L72.25841 345.81564L78.335106 351.89233L77.56171 352.66574L72.47938 347.5834L75.79394 354.4335L75.064735 355.1627L68.1373 351.7487L73.308014 356.9194L72.53462 357.6928ZM81.16353 347.98114Q81.09724 348.75455 80.85417 349.28488Q80.622154 349.80417 80.180214 350.2461Q79.451004 350.9753 78.710754 351.00845Q77.970505 351.0416 77.418076 350.48917Q77.097664 350.16876 76.976135 349.75995Q76.84355 349.34012 76.93194 348.94238Q77.00928 348.53357 77.23025 348.15793Q77.37388 347.8817 77.77163 347.37347Q78.56712 346.37912 78.84334 345.79355Q78.68866 345.63885 78.65551 345.6057Q78.191475 345.14166 77.793724 345.16376Q77.2634 345.20795 76.69992 345.77142Q76.18064 346.2907 76.11435 346.73267Q76.03701 347.16354 76.37951 347.7491L75.55087 348.3789Q75.18627 347.81543 75.13103 347.29614Q75.07578 346.77686 75.352 346.19128Q75.62821 345.6057 76.19169 345.04224Q76.755165 344.47876 77.241295 344.25778Q77.72743 344.0368 78.09203 344.06995Q78.456635 344.10312 78.83229 344.34616Q79.05326 344.50085 79.550446 344.99805L80.544815 345.9924Q81.583374 347.03098 81.903786 347.263Q82.23524 347.48395 82.63299 347.59445L81.84854 348.3789Q81.506035 348.25735 81.16353 347.98114ZM79.42891 346.37912Q79.185844 346.95364 78.50083 347.8817Q78.10309 348.41205 78.00365 348.68826Q77.893166 348.95343 77.937355 349.2186Q77.9926 349.4727 78.191475 349.67157Q78.489784 349.96988 78.90963 349.94778Q79.34052 349.91464 79.771416 349.48373Q80.20231 349.05286 80.34594 348.53357Q80.50062 348.00323 80.323845 347.51712Q80.19126 347.14145 79.705124 346.65533L79.42891 346.37912ZM74.180855 345.52838L73.33012 344.67764L74.103516 343.90424L74.95425 344.75497L74.180855 345.52838ZM75.727646 343.98157L74.87691 343.13083L75.65031 342.35742L76.501045 343.20816L75.727646 343.98157ZM83.77099 346.45645L79.373665 342.0591L80.04763 341.38516L80.71054 342.04807Q80.50062 341.32993 80.56691 340.97638Q80.6332 340.6007 80.89837 340.33554Q81.27402 339.9599 81.89274 339.80524L82.33468 340.7554Q81.89274 340.86588 81.62757 341.13104Q81.37345 341.38516 81.32926 341.7387Q81.285065 342.07016 81.47289 342.4127Q81.73805 342.94302 82.202095 343.40704L84.51124 345.7162L83.77099 346.45645ZM86.212715 344.0147L85.60505 343.40704L85.19625 337.3856Q84.73221 337.89383 84.36761 338.25842L82.57774 340.04828L81.981125 339.45166L85.58295 335.84985L86.069084 336.33597L86.47788 341.51776L86.52207 342.49002Q86.99716 341.94864 87.428055 341.51776L89.47204 339.47375L90.112854 340.1146L86.212715 344.0147Z" fill-rule="nonzero"/><path fill="#000000" d="M124.08884 357.62653L120.34338 349.21857L121.20517 348.35678L129.76779 351.94757L128.86182 352.85355L126.298546 351.7266L123.76843 354.2567L124.939575 356.7758L124.08884 357.62653ZM123.34859 353.37283L125.40362 351.3178L123.09447 350.2682Q122.033806 349.80414 121.404045 349.43954Q121.86808 350.14667 122.23268 350.9311L123.34859 353.37283ZM131.30354 353.79266L125.21579 347.70493L125.88975 347.03098L126.453224 347.59445Q126.36484 347.01993 126.49742 346.55588Q126.64105 346.08078 127.071945 345.6499Q127.63542 345.08643 128.35358 344.94278Q129.07173 344.79916 129.81198 345.11957Q130.56328 345.42892 131.19305 346.0587Q131.86702 346.73267 132.16533 347.5171Q132.47469 348.2905 132.29791 349.0418Q132.12112 349.7931 131.6129 350.30133Q131.23724 350.67697 130.78426 350.82062Q130.32022 350.9532 129.90038 350.909L132.0438 353.05243L131.30354 353.79266ZM128.1105 349.2517Q128.96124 350.10245 129.71254 350.16876Q130.4528 350.224 130.93893 349.73785Q131.43613 349.24066 131.36983 348.4673Q131.30354 347.69388 130.41965 346.81Q129.57997 345.9703 128.82866 345.90402Q128.06631 345.82666 127.58018 346.3128Q127.10509 346.7879 127.182434 347.59445Q127.25977 348.40097 128.1105 349.2517ZM134.5518 347.16354L130.1545 342.76624L130.82845 342.09225L131.49136 342.7552Q131.28143 342.03702 131.34773 341.68347Q131.41402 341.30783 131.67918 341.04266Q132.05484 340.667 132.67355 340.51233L133.1155 341.4625Q132.67355 341.573 132.40839 341.83817Q132.15428 342.09225 132.11008 342.44583Q132.06589 342.77728 132.25371 343.11978Q132.51888 343.65012 132.98291 344.11414L135.29207 346.4233L134.5518 347.16354ZM132.17638 339.10916L131.31459 338.24738L132.06589 337.49606L132.92767 338.35785L132.17638 339.10916ZM137.39128 344.32407L132.99396 339.92676L133.74527 339.17545L138.14258 343.57278L137.39128 344.32407ZM139.49051 342.22485L133.4138 336.14816L134.16512 335.39685L140.2418 341.47354L139.49051 342.22485Z" fill-rule="nonzero"/><path fill="#000000" d="M179.7531 353.45016L173.6764 347.37347L174.89174 346.15814L180.62595 349.0197Q181.43248 349.4285 181.81918 349.63843Q181.58716 349.20752 181.16731 348.34573L178.39413 342.65576L179.4769 341.573L185.55359 347.6497L184.7802 348.4231L179.69786 343.34076L183.01242 350.19086L182.28322 350.92004L175.35579 347.50607L180.5265 352.6768L179.7531 353.45016ZM188.38202 343.7385Q188.31572 344.5119 188.07266 345.04224Q187.84064 345.56152 187.3987 346.00345Q186.6695 346.73267 185.92924 346.7658Q185.189 346.79895 184.63657 346.24652Q184.31615 345.92612 184.19463 345.51733Q184.06204 345.09747 184.15042 344.69974Q184.22777 344.29092 184.44873 343.91528Q184.59236 343.63907 184.99011 343.13083Q185.78561 342.13647 186.06183 341.5509Q185.90715 341.3962 185.874 341.36307Q185.40996 340.89902 185.0122 340.9211Q184.48189 340.96533 183.91841 341.5288Q183.39912 342.04807 183.33284 342.49002Q183.2555 342.9209 183.59799 343.5065L182.76936 344.13626Q182.40475 343.57278 182.34952 343.0535Q182.29427 342.5342 182.57048 341.94864Q182.8467 341.36307 183.41017 340.7996Q183.97365 340.2361 184.45978 340.01514Q184.94592 339.7942 185.31052 339.82733Q185.67513 339.86047 186.05078 340.10355Q186.27174 340.2582 186.76894 340.7554L187.7633 341.74976Q188.80186 342.78833 189.12227 343.02036Q189.45372 343.24133 189.85147 343.3518L189.06703 344.13626Q188.72452 344.0147 188.38202 343.7385ZM186.6474 342.13647Q186.40433 342.711 185.71931 343.63907Q185.32156 344.1694 185.22214 344.44562Q185.11165 344.7108 185.15584 344.97595Q185.21109 345.23007 185.40996 345.42892Q185.70827 345.72723 186.12811 345.70514Q186.559 345.672 186.9899 345.24112Q187.42079 344.8102 187.56442 344.29092Q187.7191 343.7606 187.54233 343.27448Q187.40974 342.8988 186.92361 342.4127L186.6474 342.13647ZM185.78561 336.98785L184.92383 336.12607L185.67513 335.37476L186.53691 336.23654L185.78561 336.98785ZM191.00052 342.20276L186.6032 337.80545L187.3545 337.05414L191.75182 341.45145L191.00052 342.20276Z" fill-rule="nonzero"/><path fill="#000000" d="M226.30234 354.9417L226.9321 354.11307Q227.65025 354.78705 228.1364 354.80914Q228.62253 354.83124 229.04237 354.4114Q229.34068 354.11307 229.42908 353.75952Q229.50641 353.39493 229.35173 353.08557Q229.19705 352.75412 228.67776 352.23483L224.49037 348.04742L225.28587 347.25192L229.42908 351.39514Q230.19142 352.1575 230.42345 352.76517Q230.6665 353.3618 230.48973 353.9805Q230.30191 354.58817 229.76053 355.12955Q228.96503 355.92505 228.08115 355.90295Q227.19727 355.85876 226.30234 354.9417ZM235.47263 349.21857L234.82076 348.5667Q235.05278 349.8373 234.1689 350.7212Q233.7822 351.10788 233.29607 351.30676Q232.80992 351.48352 232.42323 351.42828Q232.02548 351.362 231.62773 351.09683Q231.37361 350.9311 230.88748 350.44498L228.16954 347.72702L228.92084 346.9757L231.36256 349.41745Q231.93709 349.99197 232.19121 350.1577Q232.54475 350.37866 232.9425 350.33447Q233.34026 350.2682 233.68275 349.9257Q234.01422 349.59424 234.13576 349.14124Q234.25728 348.66614 234.0805 348.2463Q233.91478 347.8154 233.3513 347.25192L230.99797 344.8986L231.73822 344.15836L236.13554 348.55566L235.47263 349.21857ZM237.5387 347.1525L233.14139 342.7552L233.80429 342.09225L234.42302 342.711Q234.191 341.50668 235.10802 340.58966Q235.50577 340.19193 235.98087 340.0041Q236.467 339.8052 236.86475 339.87152Q237.26248 339.9378 237.63814 340.18088Q237.88121 340.35764 238.40048 340.87692L241.10738 343.58383L240.36713 344.32407L237.69339 341.65033Q237.22934 341.18628 236.91998 341.0537Q236.61063 340.9211 236.25706 341.00952Q235.89247 341.08685 235.59416 341.38516Q235.11906 341.86026 235.07487 342.52316Q235.03069 343.16397 235.87038 344.00366L238.27896 346.41226L237.5387 347.1525ZM237.27354 336.98785L236.41176 336.12607L237.16306 335.37476L238.02484 336.23654L237.27354 336.98785ZM242.48845 342.20276L238.09113 337.80542L238.84244 337.05414L243.23975 341.45145L242.48845 342.20276Z" fill-rule="nonzero"/><path fill="#000000" d="M280.61868 352.1133L281.24844 351.28467Q281.9666 351.95862 282.45273 351.9807Q282.93887 352.0028 283.3587 351.58298Q283.657 351.28467 283.74542 350.93112Q283.82275 350.5665 283.6681 350.25714Q283.5134 349.9257 282.9941 349.4064L278.80673 345.21902L279.6022 344.42352L283.74542 348.5667Q284.50775 349.32907 284.73978 349.93674Q284.98285 350.53336 284.8061 351.15207Q284.61826 351.75974 284.07687 352.30112Q283.28137 353.09662 282.3975 353.07452Q281.5136 353.03033 280.61868 352.1133ZM289.78897 346.39017L289.13712 345.73828Q289.3691 347.00888 288.48523 347.89276Q288.09854 348.27945 287.6124 348.47833Q287.12628 348.65512 286.73956 348.59985Q286.34183 348.53357 285.94406 348.2684Q285.68997 348.1027 285.20383 347.61655L282.48587 344.8986L283.23718 344.1473L285.67892 346.58902Q286.25345 347.16354 286.50754 347.32928Q286.8611 347.55026 287.25885 347.50607Q287.6566 347.43976 287.9991 347.09726Q288.33057 346.7658 288.4521 346.3128Q288.57364 345.83774 288.39685 345.41788Q288.2311 344.987 287.66766 344.42352L285.3143 342.07016L286.05457 341.32993L290.45187 345.72723L289.78897 346.39017ZM291.83295 344.34616L285.75626 338.26947L286.50754 337.5182L292.58426 343.59488L291.83295 344.34616ZM288.76144 336.98785L287.89966 336.12607L288.65097 335.37476L289.51276 336.23654L288.76144 336.98785ZM293.97638 342.20276L289.57904 337.80545L290.33035 337.05414L294.72766 341.45145L293.97638 342.20276Z" fill-rule="nonzero"/><path fill="#000000" d="M320.14102 367.52603L316.39557 359.11807L317.25735 358.2563L325.81998 361.84708L324.914 362.75305L322.35074 361.6261L319.82062 364.15622L320.99176 366.6753L320.14102 367.52603ZM319.40076 363.27234L321.4558 361.21732L319.14667 360.1677Q318.086 359.70364 317.45624 359.33905Q317.92026 360.04617 318.28488 360.8306L319.40076 363.27234ZM328.54895 359.11807L327.8971 358.46622Q328.12912 359.73682 327.24524 360.6207Q326.85855 361.0074 326.3724 361.20627Q325.88626 361.38303 325.49957 361.3278Q325.1018 361.2615 324.70407 360.99634Q324.44995 360.8306 323.9638 360.34448L321.24588 357.62653L321.9972 356.8752L324.4389 359.31696Q325.01343 359.89148 325.26755 360.05722Q325.6211 360.27817 326.01886 360.23398Q326.4166 360.1677 326.7591 359.8252Q327.09055 359.49374 327.2121 359.04074Q327.33362 358.56564 327.15686 358.1458Q326.99112 357.7149 326.42764 357.15143L324.0743 354.7981L324.81454 354.05786L329.21188 358.45517L328.54895 359.11807ZM330.836 357.56024L331.6757 356.94153Q332.05136 357.2288 332.41595 357.17355Q332.9021 357.10724 333.37717 356.63217Q333.89645 356.11288 333.96274 355.62674Q334.0401 355.12955 333.77493 354.66553Q333.6092 354.36722 332.86896 353.64905Q332.95734 354.70972 332.22812 355.4389Q331.32214 356.3449 330.1731 356.19022Q329.013 356.0245 328.10703 355.1185Q327.47726 354.48874 327.1679 353.73746Q326.85855 352.96405 327.00217 352.24588Q327.1458 351.52774 327.73138 350.94217Q328.5158 350.1577 329.6538 350.27924L329.12347 349.74893L329.8085 349.0639L333.6092 352.8646Q334.63672 353.89212 334.8577 354.53293Q335.07864 355.17377 334.86874 355.8698Q334.66986 356.5769 334.00696 357.23984Q333.2225 358.0243 332.3828 358.15686Q331.54312 358.28943 330.836 357.56024ZM328.81412 354.3009Q329.6759 355.1627 330.41617 355.21796Q331.15643 355.2732 331.6757 354.7539Q332.19498 354.23462 332.13974 353.4944Q332.09555 352.74307 331.25586 351.90338Q330.4493 351.09683 329.6759 351.05264Q328.91357 350.9974 328.40533 351.50565Q327.90814 352.0028 327.96338 352.76517Q328.01865 353.50543 328.81412 354.3009ZM338.44846 349.2186L337.7966 348.5667Q338.02863 349.8373 337.14474 350.7212Q336.75803 351.10788 336.2719 351.30676Q335.78577 351.48355 335.39905 351.42828Q335.0013 351.362 334.60358 351.09683Q334.34946 350.93112 333.8633 350.44498L331.1454 347.72702L331.89667 346.97574L334.3384 349.41745Q334.91293 349.99197 335.16705 350.1577Q335.5206 350.3787 335.91833 350.3345Q336.3161 350.2682 336.6586 349.9257Q336.99005 349.59424 337.11157 349.14124Q337.23312 348.66617 337.05634 348.2463Q336.89062 347.81543 336.32715 347.25195L333.9738 344.89862L334.71405 344.15836L339.11136 348.55566L338.44846 349.2186ZM338.90146 346.13605L339.52017 345.29636Q340.0284 345.672 340.53662 345.6278Q341.0559 345.57257 341.5752 345.05328Q342.08344 344.54504 342.12762 344.10312Q342.1718 343.63907 341.88455 343.3518Q341.63043 343.0977 341.26584 343.17505Q341.01172 343.2303 340.24936 343.68326Q339.22186 344.29092 338.7578 344.4677Q338.2938 344.6224 337.86288 344.52295Q337.432 344.42352 337.10052 344.09207Q336.81326 343.8048 336.69174 343.4181Q336.57022 343.0314 336.6365 342.63367Q336.69174 342.33536 336.90167 341.94864Q337.11157 341.56195 337.46515 341.2084Q337.97336 340.70016 338.51474 340.46814Q339.05612 340.21402 339.49808 340.2803Q339.94 340.34662 340.42615 340.70016L339.7964 341.5288Q339.42075 341.24155 338.98984 341.29678Q338.55896 341.32993 338.117 341.77188Q337.60876 342.2801 337.56458 342.67786Q337.50934 343.06454 337.74136 343.29657Q337.88498 343.4402 338.08386 343.4623Q338.30484 343.4844 338.57 343.3739Q338.72467 343.30762 339.42075 342.89883Q340.4372 342.3243 340.87915 342.14752Q341.32108 341.97073 341.75198 342.0481Q342.18286 342.12543 342.56958 342.51212Q342.94522 342.8878 343.0557 343.4402Q343.1662 343.97052 342.94522 344.56714Q342.7132 345.1527 342.1939 345.672Q341.33212 346.53378 340.52557 346.63324Q339.71906 346.71057 338.90146 346.13605ZM346.4255 339.9157L347.18787 340.4571Q346.93375 340.84378 346.69067 341.08685Q346.2819 341.49567 345.93936 341.5951Q345.58582 341.68347 345.27646 341.573Q344.97815 341.45148 344.3042 340.7775L341.77408 338.24738L341.2327 338.78876L340.65817 338.21423L341.19955 337.67285L340.10574 336.57904L340.40405 335.39685L341.9398 336.93262L342.6911 336.1813L343.26562 336.75583L342.5143 337.50714L345.08862 340.08145Q345.40903 340.40186 345.53058 340.4571Q345.66315 340.50128 345.8068 340.46814Q345.9504 340.435 346.11615 340.26926Q346.24872 340.1367 346.4255 339.9157Z" fill-rule="nonzero"/><path fill="#000000" d="M353.80765 381.43613L354.49268 380.61853Q355.01196 381.02734 355.49808 381.11572Q355.98422 381.2041 356.58084 380.98312Q357.17746 380.74005 357.69675 380.2208Q358.14975 379.7678 358.3707 379.28165Q358.58063 378.7845 358.51434 378.38672Q358.44806 377.9669 358.17184 377.69067Q357.88458 377.4034 357.5089 377.35922Q357.12222 377.30396 356.60294 377.53598Q356.2494 377.69067 355.21082 378.33148Q354.18332 378.96124 353.67508 379.11594Q353.00113 379.32587 352.45975 379.2043Q351.90732 379.07175 351.48746 378.6519Q351.0345 378.1989 350.89084 377.54703Q350.74722 376.87308 351.04553 376.17703Q351.34384 375.45886 351.9515 374.8512Q352.62546 374.17725 353.36572 373.8789Q354.0949 373.56955 354.80203 373.72424Q355.49808 373.86786 356.0505 374.3761L355.33237 375.20474Q354.69156 374.6965 354.03967 374.77386Q353.38782 374.8291 352.69177 375.52515Q351.96255 376.25436 351.89627 376.85098Q351.83 377.4476 352.20563 377.82324Q352.53708 378.1547 352.97903 378.1326Q353.42096 378.1105 354.6142 377.35922Q355.81848 376.59686 356.34882 376.39798Q357.13327 376.12177 357.76303 376.24332Q358.38174 376.3538 358.87894 376.85098Q359.36508 377.33713 359.51974 378.04422Q359.6634 378.74026 359.38718 379.50262Q359.0999 380.25394 358.44806 380.9058Q357.61942 381.73444 356.8239 382.0659Q356.0284 382.37524 355.22186 382.20953Q354.4264 382.03275 353.80765 381.43613ZM363.18787 373.13867L364.04965 372.45364Q364.54684 373.30438 364.42532 374.17725Q364.30377 375.05008 363.54144 375.8124Q362.5802 376.77365 361.40906 376.75156Q360.24896 376.71838 359.17725 375.6467Q358.0724 374.54184 358.03925 373.35965Q357.99506 372.16638 358.90103 371.2604Q359.7849 370.37653 360.93396 370.42072Q362.09406 370.45386 363.18787 371.54767Q363.25418 371.61398 363.38675 371.74655L360.10532 375.02798Q360.87872 375.71298 361.63004 375.73508Q362.37027 375.74612 362.9227 375.1937Q363.3315 374.7849 363.40884 374.28772Q363.48618 373.76843 363.18787 373.13867ZM359.54187 374.3761L361.99463 371.92334Q361.38696 371.40405 360.87872 371.35986Q360.08322 371.29355 359.51974 371.85703Q359.0005 372.3763 358.98944 373.0724Q358.98944 373.7574 359.54187 374.3761ZM368.23706 374.29877L362.14932 368.21103L362.82327 367.53705L363.38675 368.10052Q363.29837 367.526 363.43094 367.06198Q363.5746 366.58688 364.00546 366.15598Q364.56894 365.5925 365.2871 365.44888Q366.00525 365.30524 366.7455 365.62567Q367.4968 365.93503 368.1266 366.5648Q368.80054 367.23874 369.09885 368.0232Q369.4082 368.7966 369.2314 369.54788Q369.05466 370.2992 368.54642 370.80743Q368.17078 371.18307 367.71777 371.32672Q367.25375 371.4593 366.8339 371.4151L368.97733 373.5585L368.23706 374.29877ZM365.04404 369.7578Q365.89478 370.60855 366.64606 370.67484Q367.38632 370.73007 367.87247 370.24396Q368.36963 369.74677 368.30334 368.97336Q368.23706 368.19998 367.35318 367.3161Q366.5135 366.4764 365.76218 366.4101Q364.99985 366.33276 364.5137 366.8189Q364.0386 367.29398 364.11597 368.10052Q364.1933 368.90707 365.04404 369.7578ZM372.4576 365.37155L373.21994 365.91293Q372.96585 366.29962 372.72278 366.5427Q372.31396 366.95148 371.97147 367.05093Q371.61792 367.1393 371.30856 367.02884Q371.01025 366.9073 370.33627 366.23334L367.80615 363.70322L367.2648 364.2446L366.69028 363.67007L367.23163 363.1287L366.13785 362.03488L366.43616 360.8527L367.9719 362.38843L368.7232 361.63715L369.29773 362.21167L368.54642 362.96295L371.12073 365.53726Q371.44113 365.85767 371.56268 365.91293Q371.69525 365.95712 371.8389 365.92398Q371.9825 365.89084 372.14825 365.7251Q372.28082 365.5925 372.4576 365.37155ZM375.20868 361.11786L376.07047 360.43283Q376.56766 361.28357 376.44614 362.1564Q376.3246 363.02927 375.56226 363.7916Q374.601 364.75284 373.42987 364.7307Q372.26978 364.69757 371.19806 363.6259Q370.0932 362.52103 370.06006 361.33884Q370.01587 360.14557 370.92184 359.2396Q371.80573 358.3557 372.95477 358.3999Q374.1149 358.43304 375.20868 359.52686Q375.275 359.59314 375.40756 359.72574L372.12616 363.00714Q372.89954 363.69217 373.65085 363.71426Q374.39108 363.7253 374.9435 363.17288Q375.35233 362.7641 375.42966 362.2669Q375.507 361.74762 375.20868 361.11786ZM371.56268 362.3553L374.01544 359.90253Q373.40778 359.38324 372.89954 359.33905Q372.10403 359.27274 371.5406 359.8362Q371.0213 360.3555 371.01025 361.05157Q371.01025 361.73657 371.56268 362.3553ZM378.56744 360.58752L374.17014 356.19022L374.83304 355.52728L375.45175 356.146Q375.33023 355.60464 375.4849 355.0743Q375.62854 354.53293 376.07047 354.09097Q376.5566 353.60486 377.06485 353.49435Q377.58414 353.37283 378.07025 353.6159Q377.83826 352.3232 378.66687 351.49457Q379.3298 350.83167 380.0369 350.85376Q380.74402 350.85376 381.50635 351.61612L384.5226 354.63235L383.78235 355.37262L381.0092 352.59943Q380.56723 352.15747 380.29102 352.03595Q380.02585 351.90338 379.7165 351.96967Q379.40714 352.03595 379.14197 352.30112Q378.67792 352.76517 378.67792 353.38388Q378.689 353.99155 379.374 354.67654L381.9262 357.22876L381.1749 357.98007L378.31332 355.1185Q377.81613 354.6213 377.38525 354.56607Q376.95435 354.48874 376.54556 354.89752Q376.22516 355.21793 376.12573 355.64883Q376.02628 356.0797 376.22516 356.52167Q376.42404 356.9636 377.02066 357.5602L379.3077 359.84726L378.56744 360.58752ZM387.03064 352.12433L386.33456 352.8204L380.25787 346.7437L381.0092 345.9924L383.17468 348.1579Q383.0642 347.09726 383.7934 346.36804Q384.2022 345.95926 384.7215 345.77142Q385.24075 345.5615 385.7711 345.6278Q386.31247 345.68304 386.8649 345.9703Q387.41733 346.25757 387.89243 346.73264Q389.01938 347.8596 389.07462 349.0418Q389.12985 350.224 388.35645 350.99738Q387.57202 351.78183 386.4782 351.5719L387.03064 352.12433ZM384.78778 349.9036Q385.57224 350.68802 386.14676 350.82062Q387.07483 351.0416 387.67145 350.44495Q388.1576 349.95883 388.09128 349.18542Q388.03604 348.40097 387.1853 347.55023Q386.32352 346.68845 385.57224 346.62216Q384.82092 346.55588 384.33478 347.04202Q383.84866 347.52814 383.91495 348.32364Q383.98123 349.09705 384.78778 349.9036ZM392.88635 343.4402L393.74814 342.7552Q394.24533 343.60593 394.1238 344.47876Q394.00226 345.3516 393.2399 346.11392Q392.2787 347.07516 391.10754 347.05307Q389.94745 347.0199 388.87573 345.9482Q387.77087 344.84335 387.73773 343.66116Q387.69354 342.46793 388.59952 341.56192Q389.4834 340.67804 390.63245 340.72223Q391.79254 340.7554 392.88635 341.84918Q392.95264 341.9155 393.08524 342.04807L389.8038 345.3295Q390.5772 346.0145 391.32852 346.0366Q392.06876 346.04764 392.6212 345.4952Q393.03 345.08643 393.10733 344.58923Q393.18466 344.06995 392.88635 343.4402ZM389.24033 344.6776L391.6931 342.22485Q391.08545 341.70557 390.5772 341.66138Q389.7817 341.59506 389.21823 342.15854Q388.69897 342.67783 388.68793 343.3739Q388.68793 344.0589 389.24033 344.6776ZM396.23407 342.9209L391.83676 338.5236L392.5107 337.8496L393.1736 338.51254Q392.9637 337.79437 393.03 337.44083Q393.09628 337.0652 393.36145 336.80002Q393.7371 336.42435 394.3558 336.26968L394.79776 337.21985Q394.3558 337.33035 394.09064 337.5955Q393.83655 337.8496 393.79233 338.2032Q393.74814 338.53464 393.93597 338.87714Q394.20114 339.40747 394.66516 339.8715L396.97433 342.18066L396.23407 342.9209Z" fill-rule="nonzero"/><path fill="#000000" d="M417.0402 367.6807Q415.52652 366.16705 415.48233 364.50977Q415.43814 362.83038 416.7198 361.54874Q417.5705 360.69803 418.65326 360.43286Q419.72498 360.15665 420.7967 360.52124Q421.8684 360.88583 422.78543 361.80286Q423.70245 362.7199 424.056 363.82474Q424.40955 364.9296 424.1002 365.99026Q423.80188 367.0399 423.0064 367.8354Q422.1446 368.69717 421.06186 368.9623Q419.96805 369.21643 418.90738 368.86288Q417.8467 368.48724 417.0402 367.6807ZM417.87988 366.8631Q418.9847 367.96796 420.20007 368.01215Q421.42645 368.0453 422.32138 367.15036Q423.22736 366.2444 423.18317 365.02905Q423.12793 363.80264 421.94574 362.62045Q421.20547 361.88022 420.39893 361.5819Q419.60345 361.27255 418.819 361.46036Q418.0235 361.63715 417.42688 362.23376Q416.57614 363.0845 416.543 364.2888Q416.50986 365.49307 417.87988 366.8631ZM426.51984 364.12308L420.44315 358.04636L421.19443 357.29507L424.66367 360.7643L424.63052 357.2177L425.6028 356.24545L425.5365 359.56003L430.16586 360.47705L429.2488 361.39407L425.5365 360.59857L425.52545 361.6261L427.27112 363.37177L426.51984 364.12308ZM431.7237 357.59338L432.48605 358.13477Q432.23193 358.52145 431.98886 358.76453Q431.58008 359.1733 431.23755 359.27277Q430.884 359.36115 430.57465 359.25064Q430.27634 359.12912 429.6024 358.45517L427.07227 355.92505L426.53088 356.46643L425.95636 355.8919L426.49774 355.35052L425.40393 354.2567L425.70224 353.07452L427.23798 354.61026L427.9893 353.85898L428.5638 354.4335L427.8125 355.18478L430.3868 357.7591Q430.7072 358.0795 430.82877 358.13477Q430.96133 358.17896 431.10498 358.1458Q431.2486 358.11264 431.41434 357.94693Q431.5469 357.81433 431.7237 357.59338ZM430.4089 355.83667Q429.18253 354.61026 429.2709 353.35074Q429.34827 352.30112 430.16586 351.48352Q431.07184 350.57755 432.24298 350.59964Q433.41412 350.59964 434.46375 351.64926Q435.31448 352.5 435.54648 353.24023Q435.7785 353.9805 435.55753 354.7539Q435.33658 355.5052 434.76205 356.0797Q433.845 356.99677 432.6849 356.98572Q431.5248 356.95255 430.4089 355.83667ZM431.17126 355.0743Q432.01096 355.914 432.7954 355.96924Q433.5909 356.01343 434.1433 355.461Q434.7068 354.89752 434.65155 354.11307Q434.5963 353.32864 433.73453 352.46686Q432.91693 351.64926 432.12143 351.60507Q431.337 351.54984 430.78458 352.10223Q430.23215 352.65466 430.27634 353.45016Q430.32053 354.22357 431.17126 355.0743ZM438.51855 352.12436L437.82248 352.8204L431.7458 346.7437L432.4971 345.9924L434.6626 348.15793Q434.55212 347.09726 435.2813 346.36804Q435.69012 345.95926 436.2094 345.77142Q436.7287 345.56152 437.259 345.6278Q437.80038 345.68304 438.3528 345.9703Q438.90524 346.25757 439.38034 346.73267Q440.5073 347.85962 440.56253 349.0418Q440.61777 350.224 439.84436 350.9974Q439.05994 351.78183 437.96613 351.57193L438.51855 352.12436ZM436.2757 349.9036Q437.06015 350.68802 437.63467 350.82062Q438.56274 351.0416 439.15936 350.44498Q439.6455 349.95883 439.57922 349.18542Q439.52396 348.40097 438.67322 347.55026Q437.81143 346.68845 437.06015 346.62216Q436.30884 346.55588 435.8227 347.04202Q435.33658 347.52814 435.40286 348.32364Q435.46915 349.09705 436.2757 349.9036ZM444.37427 343.4402L445.23605 342.7552Q445.73325 343.60593 445.61172 344.47876Q445.49017 345.3516 444.72784 346.11392Q443.7666 347.07516 442.59546 347.05307Q441.43536 347.01993 440.36365 345.9482Q439.2588 344.84335 439.22565 343.66116Q439.18146 342.46793 440.08743 341.56195Q440.9713 340.67804 442.12036 340.72226Q443.28046 340.7554 444.37427 341.8492Q444.44058 341.9155 444.57315 342.04807L441.29175 345.3295Q442.06512 346.0145 442.81644 346.0366Q443.55667 346.04764 444.1091 345.4952Q444.5179 345.08643 444.59525 344.58923Q444.67258 344.06995 444.37427 343.4402ZM440.72827 344.6776L443.18103 342.22485Q442.57336 341.70557 442.06512 341.66138Q441.26962 341.5951 440.70615 342.15857Q440.1869 342.67783 440.17584 343.3739Q440.17584 344.0589 440.72827 344.6776ZM447.722 342.9209L443.32468 338.5236L443.99863 337.84964L444.66153 338.51254Q444.45163 337.79437 444.5179 337.44083Q444.5842 337.0652 444.84937 336.80002Q445.225 336.42438 445.84372 336.26968L446.28568 337.21985Q445.84372 337.33035 445.57858 337.59552Q445.32446 337.84964 445.28024 338.2032Q445.23605 338.53464 445.4239 338.87714Q445.68906 339.40747 446.1531 339.87152L448.46225 342.18066L447.722 342.9209Z" fill-rule="nonzero"/><path fill="#000000" d="M461.83267 380.29813L455.75598 374.22144L456.57358 373.40384L464.53958 374.9838L459.7666 370.21082L460.54 369.4374L466.6167 375.51413L465.78806 376.34274L457.82205 374.76282L462.59503 379.5358L461.83267 380.29813ZM465.6334 372.10013Q464.40698 370.87372 464.4954 369.6142Q464.57272 368.56458 465.39032 367.74698Q466.2963 366.841 467.46744 366.8631Q468.63858 366.8631 469.6882 367.91272Q470.53894 368.76346 470.77097 369.50372Q471.00296 370.24396 470.782 371.01736Q470.56104 371.76865 469.9865 372.34317Q469.0695 373.26022 467.9094 373.24918Q466.74927 373.21603 465.6334 372.10013ZM466.39572 371.33777Q467.2354 372.17746 468.01987 372.2327Q468.81537 372.2769 469.3678 371.72446Q469.93127 371.16098 469.876 370.37656Q469.82077 369.5921 468.95898 368.73032Q468.1414 367.91272 467.34592 367.86853Q466.56146 367.8133 466.00903 368.36572Q465.4566 368.91812 465.5008 369.71362Q465.54498 370.48703 466.39572 371.33777ZM474.27335 367.85748L468.2077 365.12848L468.99213 364.34402L472.57187 366.0234Q473.1464 366.31067 473.73196 366.63107Q473.4889 366.18915 473.17953 365.52625L471.47806 361.85812L472.24042 361.09576L474.9694 367.1614L474.27335 367.85748ZM478.18454 361.11786L479.04633 360.43286Q479.5435 361.2836 479.42197 362.15643Q479.3004 363.02927 478.5381 363.79163Q477.57684 364.75284 476.4057 364.73074Q475.2456 364.6976 474.1739 363.6259Q473.06906 362.52103 473.0359 361.33884Q472.9917 360.1456 473.89767 359.23962Q474.7816 358.35574 475.93063 358.39993Q477.09073 358.43307 478.18454 359.5269Q478.25082 359.59317 478.3834 359.72574L475.102 363.00717Q475.87537 363.69217 476.62668 363.71426Q477.36694 363.7253 477.91937 363.17288Q478.32816 362.7641 478.4055 362.2669Q478.48285 361.74762 478.18454 361.11786ZM474.5385 362.3553L476.99127 359.90253Q476.3836 359.38324 475.87537 359.33905Q475.0799 359.27277 474.51642 359.83624Q473.99713 360.35553 473.98608 361.05157Q473.98608 361.73657 474.5385 362.3553ZM481.54327 360.58752L477.14597 356.19022L477.80887 355.5273L478.42758 356.14603Q478.30606 355.60464 478.46072 355.0743Q478.60437 354.53293 479.04633 354.091Q479.53244 353.60486 480.04068 353.49435Q480.55997 353.37283 481.0461 353.6159Q480.8141 352.3232 481.64273 351.49457Q482.30563 350.83167 483.01273 350.85376Q483.71985 350.85376 484.4822 351.61612L487.49844 354.63235L486.7582 355.37262L483.98502 352.59943Q483.54306 352.1575 483.26685 352.03595Q483.00168 351.90338 482.69232 351.96967Q482.38297 352.03595 482.1178 352.30112Q481.65378 352.76517 481.65378 353.38388Q481.66483 353.99155 482.34982 354.67657L484.90204 357.2288L484.15073 357.98007L481.28915 355.1185Q480.792 354.6213 480.36108 354.56607Q479.9302 354.48874 479.5214 354.89752Q479.201 355.21796 479.10156 355.64883Q479.0021 356.07974 479.201 356.52167Q479.39987 356.96362 479.9965 357.56024L482.28354 359.8473L481.54327 360.58752ZM490.00647 352.12436L489.3104 352.8204L483.2337 346.7437L483.98502 345.9924L486.1505 348.15793Q486.04004 347.09726 486.76926 346.36807Q487.17804 345.95926 487.69733 345.77142Q488.2166 345.56152 488.74692 345.6278Q489.2883 345.68304 489.84073 345.9703Q490.39316 346.25757 490.86826 346.73267Q491.9952 347.85962 492.05045 349.0418Q492.10568 350.224 491.3323 350.9974Q490.54785 351.78183 489.45404 351.57193L490.00647 352.12436ZM487.7636 349.9036Q488.54807 350.68805 489.1226 350.82062Q490.05066 351.0416 490.64728 350.44498Q491.13342 349.95883 491.06714 349.18542Q491.01187 348.401 490.16113 347.55026Q489.29935 346.68848 488.54807 346.62216Q487.79675 346.55588 487.3106 347.04202Q486.8245 347.52817 486.89078 348.32364Q486.95706 349.09705 487.7636 349.9036ZM495.86218 343.4402L496.72397 342.7552Q497.22116 343.60593 497.09964 344.47876Q496.9781 345.3516 496.21576 346.11395Q495.25452 347.07516 494.08337 347.05307Q492.92328 347.01993 491.85156 345.9482Q490.7467 344.84335 490.71356 343.66116Q490.66937 342.46793 491.57535 341.56195Q492.45923 340.67807 493.60828 340.72226Q494.7684 340.7554 495.86218 341.8492Q495.9285 341.9155 496.06107 342.04807L492.77966 345.3295Q493.55304 346.0145 494.30435 346.0366Q495.04462 346.04764 495.59702 345.4952Q496.00583 345.08643 496.08316 344.58923Q496.1605 344.06995 495.86218 343.4402ZM492.2162 344.67764L494.66895 342.22485Q494.06128 341.70557 493.55304 341.66138Q492.75757 341.5951 492.1941 342.15857Q491.6748 342.67786 491.66376 343.3739Q491.66376 344.0589 492.2162 344.67764ZM499.2099 342.9209L494.8126 338.5236L495.48654 337.84964L496.14944 338.51254Q495.93954 337.7944 496.00583 337.44083Q496.0721 337.0652 496.33728 336.80002Q496.71292 336.42438 497.33167 336.26968L497.7736 337.21988Q497.33167 337.33035 497.0665 337.59552Q496.81238 337.84964 496.7682 338.2032Q496.72397 338.53464 496.9118 338.87714Q497.17697 339.40747 497.64102 339.87152L499.95016 342.18066L499.2099 342.9209Z" fill-rule="nonzero"/><path fill="#000000" d="M513.3206 380.29813L507.2439 374.22144L509.3431 372.12222Q510.05023 371.4151 510.51428 371.12784Q511.1551 370.7301 511.82904 370.67487Q512.724 370.59753 513.5968 371.00632Q514.46967 371.393 515.2762 372.19955Q515.9722 372.89563 516.33685 373.59167Q516.7125 374.27667 516.81195 374.88437Q516.9114 375.49203 516.8009 376.00024Q516.7015 376.49744 516.3921 377.02777Q516.07166 377.54706 515.5193 378.0995L513.3206 380.29813ZM513.409 378.77344L514.70166 377.48077Q515.3093 376.87308 515.5414 376.4201Q515.7734 375.9671 515.7623 375.55832Q515.7734 374.99484 515.4419 374.35403Q515.1215 373.70215 514.4365 373.01715Q513.4863 372.067 512.6577 371.87915Q511.82904 371.66922 511.21033 371.9344Q510.75732 372.14432 510.05023 372.8514L508.7686 374.13306L513.409 378.77344ZM521.18713 369.60315L522.04895 368.91815Q522.54614 369.7689 522.4246 370.64172Q522.30304 371.51456 521.5407 372.2769Q520.57947 373.23813 519.4083 373.21603Q518.2482 373.1829 517.1765 372.11118Q516.07166 371.00632 516.0385 369.82413Q515.9943 368.6309 516.9003 367.72488Q517.7842 366.841 518.9332 366.88522Q520.0934 366.91837 521.18713 368.01215Q521.2535 368.07846 521.38605 368.21103L518.1046 371.49246Q518.878 372.17746 519.62933 372.19955Q520.36957 372.2106 520.922 371.65817Q521.3308 371.2494 521.40814 370.7522Q521.4855 370.2329 521.18713 369.60315ZM517.54114 370.84058L519.9939 368.38782Q519.3862 367.86853 518.878 367.82434Q518.0825 367.75806 517.51904 368.32153Q516.99976 368.8408 516.9887 369.53687Q516.9887 370.22186 517.54114 370.84058ZM524.1482 369.47058L523.5405 368.86288L523.1317 362.84143Q522.66766 363.34967 522.30304 363.71426L520.5132 365.50415L519.91656 364.90753L523.51843 361.3057L524.0045 361.79184L524.4133 366.9736L524.4575 367.94586Q524.9326 367.40448 525.3635 366.9736L527.4075 364.92963L528.0483 365.57043L524.1482 369.47058ZM529.6724 361.11786L530.53424 360.43286Q531.03143 361.2836 530.90985 362.15643Q530.7883 363.02927 530.026 363.79163Q529.06476 364.75284 527.8936 364.73074Q526.7335 364.6976 525.6618 363.6259Q524.55695 362.52103 524.5238 361.33884Q524.4796 360.1456 525.3856 359.23962Q526.2695 358.35574 527.4185 358.39993Q528.5786 358.43307 529.6724 359.5269Q529.7387 359.59317 529.87134 359.72574L526.5899 363.00717Q527.3633 363.69217 528.1146 363.71426Q528.85486 363.7253 529.4073 363.1729Q529.8161 362.7641 529.89343 362.2669Q529.97076 361.74765 529.6724 361.11786ZM526.0264 362.35532L528.4792 359.90253Q527.8715 359.38324 527.3633 359.33905Q526.5678 359.27277 526.00433 359.83624Q525.48505 360.35553 525.474 361.05157Q525.474 361.7366 526.0264 362.35532ZM533.0312 360.58752L528.63385 356.19022L529.2968 355.5273L529.9155 356.14603Q529.794 355.60464 529.94867 355.0743Q530.0923 354.53293 530.53424 354.091Q531.0204 353.60486 531.5286 353.4944Q532.04785 353.37283 532.534 353.6159Q532.302 352.32324 533.1306 351.4946Q533.7936 350.83167 534.5007 350.85376Q535.20776 350.85376 535.9701 351.61612L538.9864 354.6324L538.2461 355.37262L535.4729 352.59946Q535.031 352.1575 534.75476 352.03598Q534.4896 351.90338 534.18024 351.96967Q533.8709 352.03598 533.6057 352.30112Q533.14166 352.76517 533.14166 353.38388Q533.1527 353.99155 533.83777 354.67657L536.38995 357.2288L535.6387 357.98007L532.7771 355.1185Q532.2799 354.62134 531.849 354.56607Q531.4181 354.48874 531.00934 354.89755Q530.6889 355.21796 530.5895 355.64883Q530.49005 356.07974 530.6889 356.52167Q530.88776 356.96362 531.4844 357.56024L533.7714 359.8473L533.0312 360.58752ZM541.4944 352.12436L540.79834 352.8204L534.7216 346.7437L535.4729 345.9924L537.6384 348.15793Q537.52795 347.09726 538.25714 346.36807Q538.66595 345.95926 539.18524 345.77145Q539.7045 345.56152 540.23486 345.6278Q540.77625 345.68304 541.3287 345.9703Q541.8811 346.25757 542.35614 346.73267Q543.4831 347.85962 543.5384 349.0418Q543.5936 350.224 542.8202 350.9974Q542.03577 351.78186 540.94196 351.57193L541.4944 352.12436ZM539.2515 349.9036Q540.03595 350.68805 540.6105 350.82062Q541.5386 351.0416 542.1352 350.44498Q542.62134 349.95883 542.55505 349.18546Q542.4998 348.401 541.64905 347.55026Q540.7873 346.68848 540.03595 346.6222Q539.28467 346.55588 538.7985 347.04202Q538.3124 347.52817 538.3787 348.32367Q538.445 349.09705 539.2515 349.9036ZM547.3501 343.4402L548.2119 342.7552Q548.7091 343.60593 548.5875 344.47876Q548.466 345.3516 547.7037 346.11395Q546.74243 347.07516 545.5713 347.05307Q544.4112 347.01993 543.3395 345.9482Q542.2346 344.84335 542.2015 343.66116Q542.1573 342.46793 543.0633 341.56195Q543.94714 340.67807 545.0962 340.72226Q546.2563 340.7554 547.3501 341.8492Q547.4164 341.9155 547.549 342.0481L544.2676 345.3295Q545.04095 346.0145 545.79224 346.03662Q546.53253 346.04767 547.08496 345.49524Q547.4937 345.08643 547.5711 344.58923Q547.64844 344.06998 547.3501 343.4402ZM543.7041 344.67764L546.15686 342.22485Q545.5492 341.70557 545.04095 341.66138Q544.2455 341.5951 543.682 342.15857Q543.1627 342.67786 543.1517 343.3739Q543.1517 344.05893 543.7041 344.67764ZM550.6978 342.92093L546.3005 338.5236L546.9745 337.84964L547.6374 338.51254Q547.4274 337.7944 547.4937 337.44083Q547.56006 337.0652 547.8252 336.80002Q548.20087 336.42438 548.8196 336.26968L549.26154 337.21988Q548.8196 337.33035 548.5544 337.59552Q548.3003 337.84964 548.2561 338.2032Q548.2119 338.53464 548.3997 338.87714Q548.6649 339.40747 549.1289 339.87152L551.43805 342.18066L550.6978 342.92093Z" fill-rule="nonzero"/><path fill="#4285f4" d="M125.5 22.05C125.5 21.497715 125.947716 21.05 126.5 21.05L136.5 21.05C137.05229 21.05 137.5 21.497715 137.5 22.05L137.5 32.05C137.5 32.602283 137.05229 33.05 136.5 33.05L126.5 33.05C125.947716 33.05 125.5 32.602283 125.5 32.05Z" fill-rule="nonzero"/><path fill="#1a1a1a" d="M146.45312 31.05L146.45312 22.45625L152.65625 22.45625L152.65625 23.471874L147.59375 23.471874L147.59375 26.096874L152.34375 26.096874L152.34375 27.1125L147.59375 27.1125L147.59375 30.034374L152.85938 30.034374L152.85938 31.05L146.45312 31.05ZM154.28125 31.05L154.28125 24.83125L155.23438 24.83125L155.23438 25.76875Q155.59375 25.1125 155.89062 24.909374Q156.20312 24.690624 156.57812 24.690624Q157.10938 24.690624 157.65625 25.01875L157.29688 26.003124Q156.90625 25.76875 156.53125 25.76875Q156.17188 25.76875 155.89062 25.9875Q155.625 26.190624 155.51562 26.565624Q155.32812 27.128124 155.32812 27.784374L155.32812 31.05L154.28125 31.05ZM159.4375 31.05L157.53125 24.83125L158.625 24.83125L159.60938 28.425L159.98438 29.753124Q160.01562 29.659374 160.3125 28.471874L161.29688 24.83125L162.375 24.83125L163.3125 28.440624L163.625 29.628124L163.98438 28.425L165.04688 24.83125L166.07812 24.83125L164.125 31.05L163.03125 31.05L162.04688 27.315624L161.79688 26.26875L160.54688 31.05L159.4375 31.05ZM171.35938 30.284374Q170.76562 30.784374 170.21875 30.9875Q169.6875 31.190624 169.0625 31.190624Q168.03125 31.190624 167.48438 30.690624Q166.9375 30.190624 166.9375 29.409374Q166.9375 28.95625 167.14062 28.58125Q167.34375 28.190624 167.6875 27.971874Q168.03125 27.7375 168.45312 27.628124Q168.75 27.534374 169.39062 27.45625Q170.65625 27.315624 171.26562 27.096874Q171.26562 26.878124 171.26562 26.83125Q171.26562 26.175 170.96875 25.909374Q170.5625 25.565624 169.76562 25.565624Q169.03125 25.565624 168.67188 25.83125Q168.3125 26.08125 168.14062 26.7375L167.10938 26.596874Q167.25 25.940624 167.57812 25.534374Q167.90625 25.128124 168.51562 24.909374Q169.125 24.690624 169.92188 24.690624Q170.71875 24.690624 171.21875 24.878124Q171.71875 25.065624 171.95312 25.346874Q172.1875 25.628124 172.28125 26.065624Q172.32812 26.33125 172.32812 27.034374L172.32812 28.440624Q172.32812 29.909374 172.39062 30.3Q172.46875 30.690624 172.67188 31.05L171.5625 31.05Q171.40625 30.721874 171.35938 30.284374ZM171.26562 27.925Q170.6875 28.159374 169.54688 28.33125Q168.89062 28.425 168.625 28.55Q168.35938 28.659374 168.20312 28.878124Q168.0625 29.096874 168.0625 29.378124Q168.0625 29.8 168.375 30.08125Q168.70312 30.3625 169.3125 30.3625Q169.92188 30.3625 170.39062 30.096874Q170.875 29.83125 171.09375 29.3625Q171.26562 29.003124 171.26562 28.315624L171.26562 27.925ZM174.28125 31.05L174.28125 24.83125L175.23438 24.83125L175.23438 25.76875Q175.59375 25.1125 175.89062 24.909374Q176.20312 24.690624 176.57812 24.690624Q177.10938 24.690624 177.65625 25.01875L177.29688 26.003124Q176.90625 25.76875 176.53125 25.76875Q176.17188 25.76875 175.89062 25.9875Q175.625 26.190624 175.51562 26.565624Q175.32812 27.128124 175.32812 27.784374L175.32812 31.05L174.28125 31.05ZM180.59375 30.1125L180.75 31.034374Q180.29688 31.128124 179.95312 31.128124Q179.375 31.128124 179.0625 30.95625Q178.75 30.76875 178.60938 30.471874Q178.48438 30.175 178.48438 29.221874L178.48438 25.64375L177.71875 25.64375L177.71875 24.83125L178.48438 24.83125L178.48438 23.284374L179.53125 22.659374L179.53125 24.83125L180.59375 24.83125L180.59375 25.64375L179.53125 25.64375L179.53125 29.284374Q179.53125 29.7375 179.57812 29.8625Q179.64062 29.9875 179.76562 30.065624Q179.89062 30.14375 180.125 30.14375Q180.3125 30.14375 180.59375 30.1125ZM185.54688 29.05L186.64062 29.175Q186.39062 30.128124 185.6875 30.659374Q184.98438 31.190624 183.90625 31.190624Q182.54688 31.190624 181.73438 30.346874Q180.9375 29.503124 180.9375 27.9875Q180.9375 26.425 181.75 25.565624Q182.5625 24.690624 183.84375 24.690624Q185.09375 24.690624 185.875 25.534374Q186.67188 26.378124 186.67188 27.925Q186.67188 28.01875 186.67188 28.20625L182.03125 28.20625Q182.09375 29.2375 182.60938 29.784374Q183.125 30.315624 183.90625 30.315624Q184.48438 30.315624 184.89062 30.01875Q185.3125 29.70625 185.54688 29.05ZM182.09375 27.346874L185.5625 27.346874Q185.5 26.55 185.17188 26.159374Q184.65625 25.55 183.85938 25.55Q183.125 25.55 182.625 26.034374Q182.14062 26.51875 182.09375 27.346874ZM190.59375 30.1125L190.75 31.034374Q190.29688 31.128124 189.95312 31.128124Q189.375 31.128124 189.0625 30.95625Q188.75 30.76875 188.60938 30.471874Q188.48438 30.175 188.48438 29.221874L188.48438 25.64375L187.71875 25.64375L187.71875 24.83125L188.48438 24.83125L188.48438 23.284374L189.53125 22.659374L189.53125 24.83125L190.59375 24.83125L190.59375 25.64375L189.53125 25.64375L189.53125 29.284374Q189.53125 29.7375 189.57812 29.8625Q189.64062 29.9875 189.76562 30.065624Q189.89062 30.14375 190.125 30.14375Q190.3125 30.14375 190.59375 30.1125ZM195.54688 29.05L196.64062 29.175Q196.39062 30.128124 195.6875 30.659374Q194.98438 31.190624 193.90625 31.190624Q192.54688 31.190624 191.73438 30.346874Q190.9375 29.503124 190.9375 27.9875Q190.9375 26.425 191.75 25.565624Q192.5625 24.690624 193.84375 24.690624Q195.09375 24.690624 195.875 25.534374Q196.67188 26.378124 196.67188 27.925Q196.67188 28.01875 196.67188 28.20625L192.03125 28.20625Q192.09375 29.2375 192.60938 29.784374Q193.125 30.315624 193.90625 30.315624Q194.48438 30.315624 194.89062 30.01875Q195.3125 29.70625 195.54688 29.05ZM192.09375 27.346874L195.5625 27.346874Q195.5 26.55 195.17188 26.159374Q194.65625 25.55 193.85938 25.55Q193.125 25.55 192.625 26.034374Q192.14062 26.51875 192.09375 27.346874ZM202.26562 31.05L201.28125 31.05L201.28125 22.45625L202.34375 22.45625L202.34375 25.51875Q203.01562 24.690624 204.04688 24.690624Q204.625 24.690624 205.125 24.925Q205.64062 25.14375 205.96875 25.565624Q206.3125 25.9875 206.5 26.58125Q206.6875 27.175 206.6875 27.846874Q206.6875 29.440624 205.89062 30.315624Q205.09375 31.190624 204.0 31.190624Q202.89062 31.190624 202.26562 30.26875L202.26562 31.05ZM202.25 27.89375Q202.25 29.003124 202.5625 29.503124Q203.0625 30.315624 203.90625 30.315624Q204.59375 30.315624 205.09375 29.721874Q205.60938 29.128124 205.60938 27.925Q205.60938 26.70625 205.125 26.128124Q204.64062 25.55 203.95312 25.55Q203.26562 25.55 202.75 26.159374Q202.25 26.753124 202.25 27.89375ZM208.26562 31.05L208.26562 22.45625L209.32812 22.45625L209.32812 31.05L208.26562 31.05ZM215.375 31.05L215.375 30.128124Q214.64062 31.190624 213.39062 31.190624Q212.84375 31.190624 212.35938 30.9875Q211.89062 30.76875 211.65625 30.45625Q211.42188 30.128124 211.32812 29.659374Q211.26562 29.3625 211.26562 28.675L211.26562 24.83125L212.32812 24.83125L212.32812 28.284374Q212.32812 29.096874 212.39062 29.39375Q212.48438 29.8 212.79688 30.05Q213.125 30.284374 213.60938 30.284374Q214.07812 30.284374 214.48438 30.05Q214.90625 29.8 215.07812 29.378124Q215.26562 28.95625 215.26562 28.159374L215.26562 24.83125L216.3125 24.83125L216.3125 31.05L215.375 31.05ZM212.15625 23.6125L212.15625 22.409374L213.25 22.409374L213.25 23.6125L212.15625 23.6125ZM214.34375 23.6125L214.34375 22.409374L215.4375 22.409374L215.4375 23.6125L214.34375 23.6125ZM218.29688 31.05L218.29688 22.45625L219.34375 22.45625L219.34375 25.534374Q220.07812 24.690624 221.20312 24.690624Q221.90625 24.690624 222.40625 24.971874Q222.92188 25.2375 223.14062 25.721874Q223.35938 26.190624 223.35938 27.1125L223.35938 31.05L222.3125 31.05L222.3125 27.1125Q222.3125 26.315624 221.96875 25.95625Q221.625 25.596874 221.0 25.596874Q220.53125 25.596874 220.10938 25.846874Q219.70312 26.08125 219.51562 26.503124Q219.34375 26.909374 219.34375 27.64375L219.34375 31.05L218.29688 31.05ZM229.54688 29.05L230.64062 29.175Q230.39062 30.128124 229.6875 30.659374Q228.98438 31.190624 227.90625 31.190624Q226.54688 31.190624 225.73438 30.346874Q224.9375 29.503124 224.9375 27.9875Q224.9375 26.425 225.75 25.565624Q226.5625 24.690624 227.84375 24.690624Q229.09375 24.690624 229.875 25.534374Q230.67188 26.378124 230.67188 27.925Q230.67188 28.01875 230.67188 28.20625L226.03125 28.20625Q226.09375 29.2375 226.60938 29.784374Q227.125 30.315624 227.90625 30.315624Q228.48438 30.315624 228.89062 30.01875Q229.3125 29.70625 229.54688 29.05ZM226.09375 27.346874L229.5625 27.346874Q229.5 26.55 229.17188 26.159374Q228.65625 25.55 227.85938 25.55Q227.125 25.55 226.625 26.034374Q226.14062 26.51875 226.09375 27.346874ZM232.29688 31.05L232.29688 24.83125L233.23438 24.83125L233.23438 25.70625Q233.92188 24.690624 235.21875 24.690624Q235.78125 24.690624 236.25 24.89375Q236.73438 25.096874 236.96875 25.425Q237.20312 25.753124 237.29688 26.190624Q237.34375 26.4875 237.34375 27.221874L237.34375 31.05L236.29688 31.05L236.29688 27.26875Q236.29688 26.6125 236.17188 26.3Q236.04688 25.9875 235.73438 25.8Q235.42188 25.596874 235.0 25.596874Q234.32812 25.596874 233.82812 26.034374Q233.34375 26.45625 233.34375 27.64375L233.34375 31.05L232.29688 31.05ZM243.32812 31.05L243.32812 30.26875Q242.73438 31.190624 241.59375 31.190624Q240.84375 31.190624 240.21875 30.784374Q239.59375 30.3625 239.25 29.628124Q238.90625 28.89375 238.90625 27.940624Q238.90625 27.01875 239.21875 26.253124Q239.53125 25.4875 240.15625 25.096874Q240.78125 24.690624 241.54688 24.690624Q242.10938 24.690624 242.54688 24.925Q242.98438 25.159374 243.26562 25.534374L243.26562 22.45625L244.3125 22.45625L244.3125 31.05L243.32812 31.05ZM240.0 27.940624Q240.0 29.14375 240.5 29.7375Q241.0 30.315624 241.6875 30.315624Q242.375 30.315624 242.85938 29.753124Q243.34375 29.190624 243.34375 28.034374Q243.34375 26.753124 242.84375 26.159374Q242.35938 25.565624 241.64062 25.565624Q240.9375 25.565624 240.46875 26.14375Q240.0 26.70625 240.0 27.940624ZM250.54688 29.05L251.64062 29.175Q251.39062 30.128124 250.6875 30.659374Q249.98438 31.190624 248.90625 31.190624Q247.54688 31.190624 246.73438 30.346874Q245.9375 29.503124 245.9375 27.9875Q245.9375 26.425 246.75 25.565624Q247.5625 24.690624 248.84375 24.690624Q250.09375 24.690624 250.875 25.534374Q251.67188 26.378124 251.67188 27.925Q251.67188 28.01875 251.67188 28.20625L247.03125 28.20625Q247.09375 29.2375 247.60938 29.784374Q248.125 30.315624 248.90625 30.315624Q249.48438 30.315624 249.89062 30.01875Q250.3125 29.70625 250.54688 29.05ZM247.09375 27.346874L250.5625 27.346874Q250.5 26.55 250.17188 26.159374Q249.65625 25.55 248.85938 25.55Q248.125 25.55 247.625 26.034374Q247.14062 26.51875 247.09375 27.346874ZM255.48438 31.05L258.78125 22.45625L260.0 22.45625L263.51562 31.05L262.23438 31.05L261.21875 28.440624L257.64062 28.440624L256.6875 31.05L255.48438 31.05ZM257.96875 27.51875L260.875 27.51875L259.98438 25.14375Q259.5625 24.065624 259.375 23.3625Q259.20312 24.190624 258.90625 25.003124L257.96875 27.51875ZM263.28125 31.05L263.28125 24.83125L264.23438 24.83125L264.23438 25.76875Q264.59375 25.1125 264.89062 24.909374Q265.20312 24.690624 265.57812 24.690624Q266.10938 24.690624 266.65625 25.01875L266.29688 26.003124Q265.90625 25.76875 265.53125 25.76875Q265.17188 25.76875 264.89062 25.9875Q264.625 26.190624 264.51562 26.565624Q264.32812 27.128124 264.32812 27.784374L264.32812 31.05L263.28125 31.05ZM269.59375 30.1125L269.75 31.034374Q269.29688 31.128124 268.95312 31.128124Q268.375 31.128124 268.0625 30.95625Q267.75 30.76875 267.60938 30.471874Q267.48438 30.175 267.48438 29.221874L267.48438 25.64375L266.71875 25.64375L266.71875 24.83125L267.48438 24.83125L267.48438 23.284374L268.53125 22.659374L268.53125 24.83125L269.59375 24.83125L269.59375 25.64375L268.53125 25.64375L268.53125 29.284374Q268.53125 29.7375 268.57812 29.8625Q268.64062 29.9875 268.76562 30.065624Q268.89062 30.14375 269.125 30.14375Q269.3125 30.14375 269.59375 30.1125ZM274.54688 29.05L275.64062 29.175Q275.39062 30.128124 274.6875 30.659374Q273.98438 31.190624 272.90625 31.190624Q271.54688 31.190624 270.73438 30.346874Q269.9375 29.503124 269.9375 27.9875Q269.9375 26.425 270.75 25.565624Q271.5625 24.690624 272.84375 24.690624Q274.09375 24.690624 274.875 25.534374Q275.67188 26.378124 275.67188 27.925Q275.67188 28.01875 275.67188 28.20625L271.03125 28.20625Q271.09375 29.2375 271.60938 29.784374Q272.125 30.315624 272.90625 30.315624Q273.48438 30.315624 273.89062 30.01875Q274.3125 29.70625 274.54688 29.05ZM271.09375 27.346874L274.5625 27.346874Q274.5 26.55 274.17188 26.159374Q273.65625 25.55 272.85938 25.55Q272.125 25.55 271.625 26.034374Q271.14062 26.51875 271.09375 27.346874ZM277.29688 31.05L277.29688 24.83125L278.23438 24.83125L278.23438 25.70625Q278.92188 24.690624 280.21875 24.690624Q280.78125 24.690624 281.25 24.89375Q281.73438 25.096874 281.96875 25.425Q282.20312 25.753124 282.29688 26.190624Q282.34375 26.4875 282.34375 27.221874L282.34375 31.05L281.29688 31.05L281.29688 27.26875Q281.29688 26.6125 281.17188 26.3Q281.04688 25.9875 280.73438 25.8Q280.42188 25.596874 280.0 25.596874Q279.32812 25.596874 278.82812 26.034374Q278.34375 26.45625 278.34375 27.64375L278.34375 31.05L277.29688 31.05Z" fill-rule="nonzero"/><path fill="#ea4335" d="M299.5 22.05C299.5 21.497715 299.94772 21.05 300.5 21.05L310.5 21.05C311.05228 21.05 311.5 21.497715 311.5 22.05L311.5 32.05C311.5 32.602283 311.05228 33.05 310.5 33.05L300.5 33.05C299.94772 33.05 299.5 32.602283 299.5 32.05Z" fill-rule="nonzero"/><path fill="#1a1a1a" d="M320.375 31.05L320.375 22.45625L323.60938 22.45625Q324.59375 22.45625 325.1875 22.721874Q325.78125 22.9875 326.10938 23.534374Q326.45312 24.065624 326.45312 24.659374Q326.45312 25.20625 326.15625 25.690624Q325.85938 26.175 325.25 26.471874Q326.03125 26.70625 326.4375 27.26875Q326.85938 27.815624 326.85938 28.565624Q326.85938 29.159374 326.60938 29.690624Q326.35938 30.20625 325.98438 30.4875Q325.60938 30.76875 325.03125 30.909374Q324.46875 31.05 323.65625 31.05L320.375 31.05ZM321.51562 26.065624L323.375 26.065624Q324.125 26.065624 324.45312 25.971874Q324.89062 25.846874 325.10938 25.55Q325.32812 25.2375 325.32812 24.784374Q325.32812 24.3625 325.125 24.034374Q324.92188 23.70625 324.53125 23.596874Q324.15625 23.471874 323.23438 23.471874L321.51562 23.471874L321.51562 26.065624ZM321.51562 30.034374L323.65625 30.034374Q324.20312 30.034374 324.42188 29.9875Q324.82812 29.925 325.07812 29.76875Q325.34375 29.596874 325.51562 29.284374Q325.6875 28.971874 325.6875 28.565624Q325.6875 28.08125 325.4375 27.721874Q325.20312 27.3625 324.76562 27.221874Q324.32812 27.08125 323.5 27.08125L321.51562 27.08125L321.51562 30.034374ZM332.54688 29.05L333.64062 29.175Q333.39062 30.128124 332.6875 30.659374Q331.98438 31.190624 330.90625 31.190624Q329.54688 31.190624 328.73438 30.346874Q327.9375 29.503124 327.9375 27.9875Q327.9375 26.425 328.75 25.565624Q329.5625 24.690624 330.84375 24.690624Q332.09375 24.690624 332.875 25.534374Q333.67188 26.378124 333.67188 27.925Q333.67188 28.01875 333.67188 28.20625L329.03125 28.20625Q329.09375 29.2375 329.60938 29.784374Q330.125 30.315624 330.90625 30.315624Q331.48438 30.315624 331.89062 30.01875Q332.3125 29.70625 332.54688 29.05ZM329.09375 27.346874L332.5625 27.346874Q332.5 26.55 332.17188 26.159374Q331.65625 25.55 330.85938 25.55Q330.125 25.55 329.625 26.034374Q329.14062 26.51875 329.09375 27.346874ZM334.90625 27.940624Q334.90625 26.20625 335.85938 25.378124Q336.65625 24.690624 337.8125 24.690624Q339.09375 24.690624 339.90625 25.534374Q340.73438 26.3625 340.73438 27.846874Q340.73438 29.05 340.375 29.7375Q340.01562 30.425 339.3125 30.815624Q338.625 31.190624 337.8125 31.190624Q336.51562 31.190624 335.70312 30.3625Q334.90625 29.51875 334.90625 27.940624ZM335.98438 27.940624Q335.98438 29.128124 336.5 29.721874Q337.03125 30.315624 337.8125 30.315624Q338.60938 30.315624 339.125 29.721874Q339.64062 29.128124 339.64062 27.909374Q339.64062 26.753124 339.10938 26.159374Q338.59375 25.565624 337.8125 25.565624Q337.03125 25.565624 336.5 26.159374Q335.98438 26.7375 335.98438 27.940624ZM343.26562 31.05L342.28125 31.05L342.28125 22.45625L343.34375 22.45625L343.34375 25.51875Q344.01562 24.690624 345.04688 24.690624Q345.625 24.690624 346.125 24.925Q346.64062 25.14375 346.96875 25.565624Q347.3125 25.9875 347.5 26.58125Q347.6875 27.175 347.6875 27.846874Q347.6875 29.440624 346.89062 30.315624Q346.09375 31.190624 345.0 31.190624Q343.89062 31.190624 343.26562 30.26875L343.26562 31.05ZM343.25 27.89375Q343.25 29.003124 343.5625 29.503124Q344.0625 30.315624 344.90625 30.315624Q345.59375 30.315624 346.09375 29.721874Q346.60938 29.128124 346.60938 27.925Q346.60938 26.70625 346.125 26.128124Q345.64062 25.55 344.95312 25.55Q344.26562 25.55 343.75 26.159374Q343.25 26.753124 343.25 27.89375ZM353.35938 30.284374Q352.76562 30.784374 352.21875 30.9875Q351.6875 31.190624 351.0625 31.190624Q350.03125 31.190624 349.48438 30.690624Q348.9375 30.190624 348.9375 29.409374Q348.9375 28.95625 349.14062 28.58125Q349.34375 28.190624 349.6875 27.971874Q350.03125 27.7375 350.45312 27.628124Q350.75 27.534374 351.39062 27.45625Q352.65625 27.315624 353.26562 27.096874Q353.26562 26.878124 353.26562 26.83125Q353.26562 26.175 352.96875 25.909374Q352.5625 25.565624 351.76562 25.565624Q351.03125 25.565624 350.67188 25.83125Q350.3125 26.08125 350.14062 26.7375L349.10938 26.596874Q349.25 25.940624 349.57812 25.534374Q349.90625 25.128124 350.51562 24.909374Q351.125 24.690624 351.92188 24.690624Q352.71875 24.690624 353.21875 24.878124Q353.71875 25.065624 353.95312 25.346874Q354.1875 25.628124 354.28125 26.065624Q354.32812 26.33125 354.32812 27.034374L354.32812 28.440624Q354.32812 29.909374 354.39062 30.3Q354.46875 30.690624 354.67188 31.05L353.5625 31.05Q353.40625 30.721874 353.35938 30.284374ZM353.26562 27.925Q352.6875 28.159374 351.54688 28.33125Q350.89062 28.425 350.625 28.55Q350.35938 28.659374 350.20312 28.878124Q350.0625 29.096874 350.0625 29.378124Q350.0625 29.8 350.375 30.08125Q350.70312 30.3625 351.3125 30.3625Q351.92188 30.3625 352.39062 30.096874Q352.875 29.83125 353.09375 29.3625Q353.26562 29.003124 353.26562 28.315624L353.26562 27.925ZM360.35938 28.76875L361.39062 28.909374Q361.21875 29.971874 360.51562 30.58125Q359.8125 31.190624 358.79688 31.190624Q357.51562 31.190624 356.73438 30.3625Q355.96875 29.51875 355.96875 27.95625Q355.96875 26.95625 356.29688 26.20625Q356.64062 25.440624 357.3125 25.065624Q358.0 24.690624 358.8125 24.690624Q359.8125 24.690624 360.45312 25.20625Q361.10938 25.70625 361.29688 26.659374L360.26562 26.815624Q360.125 26.190624 359.75 25.878124Q359.375 25.55 358.84375 25.55Q358.04688 25.55 357.54688 26.128124Q357.04688 26.690624 357.04688 27.925Q357.04688 29.190624 357.53125 29.753124Q358.01562 30.315624 358.78125 30.315624Q359.40625 30.315624 359.8125 29.940624Q360.23438 29.565624 360.35938 28.76875ZM362.29688 31.05L362.29688 22.45625L363.34375 22.45625L363.34375 25.534374Q364.07812 24.690624 365.20312 24.690624Q365.90625 24.690624 366.40625 24.971874Q366.92188 25.2375 367.14062 25.721874Q367.35938 26.190624 367.35938 27.1125L367.35938 31.05L366.3125 31.05L366.3125 27.1125Q366.3125 26.315624 365.96875 25.95625Q365.625 25.596874 365.0 25.596874Q364.53125 25.596874 364.10938 25.846874Q363.70312 26.08125 363.51562 26.503124Q363.34375 26.909374 363.34375 27.64375L363.34375 31.05L362.29688 31.05ZM371.59375 30.1125L371.75 31.034374Q371.29688 31.128124 370.95312 31.128124Q370.375 31.128124 370.0625 30.95625Q369.75 30.76875 369.60938 30.471874Q369.48438 30.175 369.48438 29.221874L369.48438 25.64375L368.71875 25.64375L368.71875 24.83125L369.48438 24.83125L369.48438 23.284374L370.53125 22.659374L370.53125 24.83125L371.59375 24.83125L371.59375 25.64375L370.53125 25.64375L370.53125 29.284374Q370.53125 29.7375 370.57812 29.8625Q370.64062 29.9875 370.76562 30.065624Q370.89062 30.14375 371.125 30.14375Q371.3125 30.14375 371.59375 30.1125ZM376.54688 29.05L377.64062 29.175Q377.39062 30.128124 376.6875 30.659374Q375.98438 31.190624 374.90625 31.190624Q373.54688 31.190624 372.73438 30.346874Q371.9375 29.503124 371.9375 27.9875Q371.9375 26.425 372.75 25.565624Q373.5625 24.690624 374.84375 24.690624Q376.09375 24.690624 376.875 25.534374Q377.67188 26.378124 377.67188 27.925Q377.67188 28.01875 377.67188 28.20625L373.03125 28.20625Q373.09375 29.2375 373.60938 29.784374Q374.125 30.315624 374.90625 30.315624Q375.48438 30.315624 375.89062 30.01875Q376.3125 29.70625 376.54688 29.05ZM373.09375 27.346874L376.5625 27.346874Q376.5 26.55 376.17188 26.159374Q375.65625 25.55 374.85938 25.55Q374.125 25.55 373.625 26.034374Q373.14062 26.51875 373.09375 27.346874ZM381.59375 30.1125L381.75 31.034374Q381.29688 31.128124 380.95312 31.128124Q380.375 31.128124 380.0625 30.95625Q379.75 30.76875 379.60938 30.471874Q379.48438 30.175 379.48438 29.221874L379.48438 25.64375L378.71875 25.64375L378.71875 24.83125L379.48438 24.83125L379.48438 23.284374L380.53125 22.659374L380.53125 24.83125L381.59375 24.83125L381.59375 25.64375L380.53125 25.64375L380.53125 29.284374Q380.53125 29.7375 380.57812 29.8625Q380.64062 29.9875 380.76562 30.065624Q380.89062 30.14375 381.125 30.14375Q381.3125 30.14375 381.59375 30.1125ZM386.54688 29.05L387.64062 29.175Q387.39062 30.128124 386.6875 30.659374Q385.98438 31.190624 384.90625 31.190624Q383.54688 31.190624 382.73438 30.346874Q381.9375 29.503124 381.9375 27.9875Q381.9375 26.425 382.75 25.565624Q383.5625 24.690624 384.84375 24.690624Q386.09375 24.690624 386.875 25.534374Q387.67188 26.378124 387.67188 27.925Q387.67188 28.01875 387.67188 28.20625L383.03125 28.20625Q383.09375 29.2375 383.60938 29.784374Q384.125 30.315624 384.90625 30.315624Q385.48438 30.315624 385.89062 30.01875Q386.3125 29.70625 386.54688 29.05ZM383.09375 27.346874L386.5625 27.346874Q386.5 26.55 386.17188 26.159374Q385.65625 25.55 384.85938 25.55Q384.125 25.55 383.625 26.034374Q383.14062 26.51875 383.09375 27.346874ZM393.26562 31.05L392.28125 31.05L392.28125 22.45625L393.34375 22.45625L393.34375 25.51875Q394.01562 24.690624 395.04688 24.690624Q395.625 24.690624 396.125 24.925Q396.64062 25.14375 396.96875 25.565624Q397.3125 25.9875 397.5 26.58125Q397.6875 27.175 397.6875 27.846874Q397.6875 29.440624 396.89062 30.315624Q396.09375 31.190624 395.0 31.190624Q393.89062 31.190624 393.26562 30.26875L393.26562 31.05ZM393.25 27.89375Q393.25 29.003124 393.5625 29.503124Q394.0625 30.315624 394.90625 30.315624Q395.59375 30.315624 396.09375 29.721874Q396.60938 29.128124 396.60938 27.925Q396.60938 26.70625 396.125 26.128124Q395.64062 25.55 394.95312 25.55Q394.26562 25.55 393.75 26.159374Q393.25 26.753124 393.25 27.89375ZM399.26562 31.05L399.26562 22.45625L400.32812 22.45625L400.32812 31.05L399.26562 31.05ZM406.375 31.05L406.375 30.128124Q405.64062 31.190624 404.39062 31.190624Q403.84375 31.190624 403.35938 30.9875Q402.89062 30.76875 402.65625 30.45625Q402.42188 30.128124 402.32812 29.659374Q402.26562 29.3625 402.26562 28.675L402.26562 24.83125L403.32812 24.83125L403.32812 28.284374Q403.32812 29.096874 403.39062 29.39375Q403.48438 29.8 403.79688 30.05Q404.125 30.284374 404.60938 30.284374Q405.07812 30.284374 405.48438 30.05Q405.90625 29.8 406.07812 29.378124Q406.26562 28.95625 406.26562 28.159374L406.26562 24.83125L407.3125 24.83125L407.3125 31.05L406.375 31.05ZM403.15625 23.6125L403.15625 22.409374L404.25 22.409374L404.25 23.6125L403.15625 23.6125ZM405.34375 23.6125L405.34375 22.409374L406.4375 22.409374L406.4375 23.6125L405.34375 23.6125ZM409.29688 31.05L409.29688 22.45625L410.34375 22.45625L410.34375 25.534374Q411.07812 24.690624 412.20312 24.690624Q412.90625 24.690624 413.40625 24.971874Q413.92188 25.2375 414.14062 25.721874Q414.35938 26.190624 414.35938 27.1125L414.35938 31.05L413.3125 31.05L413.3125 27.1125Q413.3125 26.315624 412.96875 25.95625Q412.625 25.596874 412.0 25.596874Q411.53125 25.596874 411.10938 25.846874Q410.70312 26.08125 410.51562 26.503124Q410.34375 26.909374 410.34375 27.64375L410.34375 31.05L409.29688 31.05ZM420.54688 29.05L421.64062 29.175Q421.39062 30.128124 420.6875 30.659374Q419.98438 31.190624 418.90625 31.190624Q417.54688 31.190624 416.73438 30.346874Q415.9375 29.503124 415.9375 27.9875Q415.9375 26.425 416.75 25.565624Q417.5625 24.690624 418.84375 24.690624Q420.09375 24.690624 420.875 25.534374Q421.67188 26.378124 421.67188 27.925Q421.67188 28.01875 421.67188 28.20625L417.03125 28.20625Q417.09375 29.2375 417.60938 29.784374Q418.125 30.315624 418.90625 30.315624Q419.48438 30.315624 419.89062 30.01875Q420.3125 29.70625 420.54688 29.05ZM417.09375 27.346874L420.5625 27.346874Q420.5 26.55 420.17188 26.159374Q419.65625 25.55 418.85938 25.55Q418.125 25.55 417.625 26.034374Q417.14062 26.51875 417.09375 27.346874ZM423.29688 31.05L423.29688 24.83125L424.23438 24.83125L424.23438 25.70625Q424.92188 24.690624 426.21875 24.690624Q426.78125 24.690624 427.25 24.89375Q427.73438 25.096874 427.96875 25.425Q428.20312 25.753124 428.29688 26.190624Q428.34375 26.4875 428.34375 27.221874L428.34375 31.05L427.29688 31.05L427.29688 27.26875Q427.29688 26.6125 427.17188 26.3Q427.04688 25.9875 426.73438 25.8Q426.42188 25.596874 426.0 25.596874Q425.32812 25.596874 424.82812 26.034374Q424.34375 26.45625 424.34375 27.64375L424.34375 31.05L423.29688 31.05ZM434.32812 31.05L434.32812 30.26875Q433.73438 31.190624 432.59375 31.190624Q431.84375 31.190624 431.21875 30.784374Q430.59375 30.3625 430.25 29.628124Q429.90625 28.89375 429.90625 27.940624Q429.90625 27.01875 430.21875 26.253124Q430.53125 25.4875 431.15625 25.096874Q431.78125 24.690624 432.54688 24.690624Q433.10938 24.690624 433.54688 24.925Q433.98438 25.159374 434.26562 25.534374L434.26562 22.45625L435.3125 22.45625L435.3125 31.05L434.32812 31.05ZM431.0 27.940624Q431.0 29.14375 431.5 29.7375Q432.0 30.315624 432.6875 30.315624Q433.375 30.315624 433.85938 29.753124Q434.34375 29.190624 434.34375 28.034374Q434.34375 26.753124 433.84375 26.159374Q433.35938 25.565624 432.64062 25.565624Q431.9375 25.565624 431.46875 26.14375Q431.0 26.70625 431.0 27.940624ZM441.54688 29.05L442.64062 29.175Q442.39062 30.128124 441.6875 30.659374Q440.98438 31.190624 439.90625 31.190624Q438.54688 31.190624 437.73438 30.346874Q436.9375 29.503124 436.9375 27.9875Q436.9375 26.425 437.75 25.565624Q438.5625 24.690624 439.84375 24.690624Q441.09375 24.690624 441.875 25.534374Q442.67188 26.378124 442.67188 27.925Q442.67188 28.01875 442.67188 28.20625L438.03125 28.20625Q438.09375 29.2375 438.60938 29.784374Q439.125 30.315624 439.90625 30.315624Q440.48438 30.315624 440.89062 30.01875Q441.3125 29.70625 441.54688 29.05ZM438.09375 27.346874L441.5625 27.346874Q441.5 26.55 441.17188 26.159374Q440.65625 25.55 439.85938 25.55Q439.125 25.55 438.625 26.034374Q438.14062 26.51875 438.09375 27.346874ZM446.48438 31.05L449.78125 22.45625L451.0 22.45625L454.51562 31.05L453.23438 31.05L452.21875 28.440624L448.64062 28.440624L447.6875 31.05L446.48438 31.05ZM448.96875 27.51875L451.875 27.51875L450.98438 25.14375Q450.5625 24.065624 450.375 23.3625Q450.20312 24.190624 449.90625 25.003124L448.96875 27.51875ZM454.28125 31.05L454.28125 24.83125L455.23438 24.83125L455.23438 25.76875Q455.59375 25.1125 455.89062 24.909374Q456.20312 24.690624 456.57812 24.690624Q457.10938 24.690624 457.65625 25.01875L457.29688 26.003124Q456.90625 25.76875 456.53125 25.76875Q456.17188 25.76875 455.89062 25.9875Q455.625 26.190624 455.51562 26.565624Q455.32812 27.128124 455.32812 27.784374L455.32812 31.05L454.28125 31.05ZM460.59375 30.1125L460.75 31.034374Q460.29688 31.128124 459.95312 31.128124Q459.375 31.128124 459.0625 30.95625Q458.75 30.76875 458.60938 30.471874Q458.48438 30.175 458.48438 29.221874L458.48438 25.64375L457.71875 25.64375L457.71875 24.83125L458.48438 24.83125L458.48438 23.284374L459.53125 22.659374L459.53125 24.83125L460.59375 24.83125L460.59375 25.64375L459.53125 25.64375L459.53125 29.284374Q459.53125 29.7375 459.57812 29.8625Q459.64062 29.9875 459.76562 30.065624Q459.89062 30.14375 460.125 30.14375Q460.3125 30.14375 460.59375 30.1125ZM465.54688 29.05L466.64062 29.175Q466.39062 30.128124 465.6875 30.659374Q464.98438 31.190624 463.90625 31.190624Q462.54688 31.190624 461.73438 30.346874Q460.9375 29.503124 460.9375 27.9875Q460.9375 26.425 461.75 25.565624Q462.5625 24.690624 463.84375 24.690624Q465.09375 24.690624 465.875 25.534374Q466.67188 26.378124 466.67188 27.925Q466.67188 28.01875 466.67188 28.20625L462.03125 28.20625Q462.09375 29.2375 462.60938 29.784374Q463.125 30.315624 463.90625 30.315624Q464.48438 30.315624 464.89062 30.01875Q465.3125 29.70625 465.54688 29.05ZM462.09375 27.346874L465.5625 27.346874Q465.5 26.55 465.17188 26.159374Q464.65625 25.55 463.85938 25.55Q463.125 25.55 462.625 26.034374Q462.14062 26.51875 462.09375 27.346874ZM468.29688 31.05L468.29688 24.83125L469.23438 24.83125L469.23438 25.70625Q469.92188 24.690624 471.21875 24.690624Q471.78125 24.690624 472.25 24.89375Q472.73438 25.096874 472.96875 25.425Q473.20312 25.753124 473.29688 26.190624Q473.34375 26.4875 473.34375 27.221874L473.34375 31.05L472.29688 31.05L472.29688 27.26875Q472.29688 26.6125 472.17188 26.3Q472.04688 25.9875 471.73438 25.8Q471.42188 25.596874 471.0 25.596874Q470.32812 25.596874 469.82812 26.034374Q469.34375 26.45625 469.34375 27.64375L469.34375 31.05L468.29688 31.05Z" fill-rule="nonzero"/></svg>