<svg version="1.1" viewBox="0.0 0.0 600.0 371.0" fill="none" stroke="none" stroke-linecap="square" stroke-miterlimit="10" width="600" height="371" xmlns:xlink="http://www.w3.org/1999/xlink" xmlns="http://www.w3.org/2000/svg"><path fill="#ffffff" fill-opacity="0.0" d="M0 0L600.0 0L600.0 371.0L0 371.0L0 0Z" fill-rule="nonzero"/><path stroke="#333333" stroke-width="1.0" stroke-linecap="butt" d="M45.5 332.5L581.5 332.5" fill-rule="nonzero"/><path stroke="#cccccc" stroke-width="1.0" stroke-linecap="butt" d="M45.5 292.5L581.5 292.5" fill-rule="nonzero"/><path stroke="#cccccc" stroke-width="1.0" stroke-linecap="butt" d="M45.5 252.5L581.5 252.5" fill-rule="nonzero"/><path stroke="#cccccc" stroke-width="1.0" stroke-linecap="butt" d="M45.5 212.5L581.5 212.5" fill-rule="nonzero"/><path stroke="#cccccc" stroke-width="1.0" stroke-linecap="butt" d="M45.5 172.5L581.5 172.5" fill-rule="nonzero"/><path stroke="#cccccc" stroke-width="1.0" stroke-linecap="butt" d="M45.5 132.5L581.5 132.5" fill-rule="nonzero"/><path stroke="#cccccc" stroke-width="1.0" stroke-linecap="butt" d="M45.5 91.5L581.5 91.5" fill-rule="nonzero"/><path stroke="#cccccc" stroke-width="1.0" stroke-linecap="butt" d="M45.5 51.5L581.5 51.5" fill-rule="nonzero"/><clipPath id="id_0"><path d="M45.55 51.916668L581.45 51.916668L581.45 332.45L45.55 332.45L45.55 51.916668Z" clip-rule="nonzero"/></clipPath><path stroke="#000000" stroke-width="2.0" stroke-linecap="butt" stroke-opacity="0.0" clip-path="url(#id_0)" d="M74.0 332.0L62.0 332.0L62.0 330.0C62.0 328.89542 62.89543 328.0 64.0 328.0L72.0 328.0C73.10457 328.0 74.0 328.89542 74.0 330.0Z" fill-rule="nonzero"/><path fill="#4285f4" clip-path="url(#id_0)" d="M74.0 332.0L62.0 332.0L62.0 330.0C62.0 328.89542 62.89543 328.0 64.0 328.0L72.0 328.0C73.10457 328.0 74.0 328.89542 74.0 330.0Z" fill-rule="nonzero"/><path stroke="#000000" stroke-width="2.0" stroke-linecap="butt" stroke-opacity="0.0" clip-path="url(#id_0)" d="M117.0 332.0L105.0 332.0L105.0 322.0C105.0 320.89542 105.89543 320.0 107.0 320.0L115.0 320.0C116.10457 320.0 117.0 320.89542 117.0 322.0Z" fill-rule="nonzero"/><path fill="#4285f4" clip-path="url(#id_0)" d="M117.0 332.0L105.0 332.0L105.0 322.0C105.0 320.89542 105.89543 320.0 107.0 320.0L115.0 320.0C116.10457 320.0 117.0 320.89542 117.0 322.0Z" fill-rule="nonzero"/><path stroke="#000000" stroke-width="2.0" stroke-linecap="butt" stroke-opacity="0.0" clip-path="url(#id_0)" d="M161.0 332.0L149.0 332.0L149.0 306.0C149.0 304.89542 149.89543 304.0 151.0 304.0L159.0 304.0C160.10457 304.0 161.0 304.89542 161.0 306.0Z" fill-rule="nonzero"/><path fill="#4285f4" clip-path="url(#id_0)" d="M161.0 332.0L149.0 332.0L149.0 306.0C149.0 304.89542 149.89543 304.0 151.0 304.0L159.0 304.0C160.10457 304.0 161.0 304.89542 161.0 306.0Z" fill-rule="nonzero"/><path stroke="#000000" stroke-width="2.0" stroke-linecap="butt" stroke-opacity="0.0" clip-path="url(#id_0)" d="M204.0 332.0L192.0 332.0L192.0 266.0C192.0 264.89542 192.89543 264.0 194.0 264.0L202.0 264.0C203.10457 264.0 204.0 264.89542 204.0 266.0Z" fill-rule="nonzero"/><path fill="#4285f4" clip-path="url(#id_0)" d="M204.0 332.0L192.0 332.0L192.0 266.0C192.0 264.89542 192.89543 264.0 194.0 264.0L202.0 264.0C203.10457 264.0 204.0 264.89542 204.0 266.0Z" fill-rule="nonzero"/><path stroke="#000000" stroke-width="2.0" stroke-linecap="butt" stroke-opacity="0.0" clip-path="url(#id_0)" d="M247.0 332.0L235.0 332.0L235.0 150.0C235.0 148.89543 235.89543 148.0 237.0 148.0L245.0 148.0C246.10457 148.0 247.0 148.89543 247.0 150.0Z" fill-rule="nonzero"/><path fill="#4285f4" clip-path="url(#id_0)" d="M247.0 332.0L235.0 332.0L235.0 150.0C235.0 148.89543 235.89543 148.0 237.0 148.0L245.0 148.0C246.10457 148.0 247.0 148.89543 247.0 150.0Z" fill-rule="nonzero"/><path stroke="#000000" stroke-width="2.0" stroke-linecap="butt" stroke-opacity="0.0" clip-path="url(#id_0)" d="M291.0 332.0L279.0 332.0L279.0 62.0C279.0 60.89543 279.89542 60.0 281.0 60.0L289.0 60.0C290.10458 60.0 291.0 60.89543 291.0 62.0Z" fill-rule="nonzero"/><path fill="#4285f4" clip-path="url(#id_0)" d="M291.0 332.0L279.0 332.0L279.0 62.0C279.0 60.89543 279.89542 60.0 281.0 60.0L289.0 60.0C290.10458 60.0 291.0 60.89543 291.0 62.0Z" fill-rule="nonzero"/><path stroke="#000000" stroke-width="2.0" stroke-linecap="butt" stroke-opacity="0.0" clip-path="url(#id_0)" d="M334.0 332.0L322.0 332.0L322.0 54.0C322.0 52.89543 322.89542 52.0 324.0 52.0L332.0 52.0C333.10458 52.0 334.0 52.89543 334.0 54.0Z" fill-rule="nonzero"/><path fill="#4285f4" clip-path="url(#id_0)" d="M334.0 332.0L322.0 332.0L322.0 54.0C322.0 52.89543 322.89542 52.0 324.0 52.0L332.0 52.0C333.10458 52.0 334.0 52.89543 334.0 54.0Z" fill-rule="nonzero"/><path stroke="#000000" stroke-width="2.0" stroke-linecap="butt" stroke-opacity="0.0" clip-path="url(#id_0)" d="M378.0 332.0L366.0 332.0L366.0 70.0C366.0 68.89543 366.89542 68.0 368.0 68.0L376.0 68.0C377.10458 68.0 378.0 68.89543 378.0 70.0Z" fill-rule="nonzero"/><path fill="#4285f4" clip-path="url(#id_0)" d="M378.0 332.0L366.0 332.0L366.0 70.0C366.0 68.89543 366.89542 68.0 368.0 68.0L376.0 68.0C377.10458 68.0 378.0 68.89543 378.0 70.0Z" fill-rule="nonzero"/><path stroke="#000000" stroke-width="2.0" stroke-linecap="butt" stroke-opacity="0.0" clip-path="url(#id_0)" d="M421.0 332.0L409.0 332.0L409.0 130.0C409.0 128.89543 409.89542 128.0 411.0 128.0L419.0 128.0C420.10458 128.0 421.0 128.89543 421.0 130.0Z" fill-rule="nonzero"/><path fill="#4285f4" clip-path="url(#id_0)" d="M421.0 332.0L409.0 332.0L409.0 130.0C409.0 128.89543 409.89542 128.0 411.0 128.0L419.0 128.0C420.10458 128.0 421.0 128.89543 421.0 130.0Z" fill-rule="nonzero"/><path stroke="#000000" stroke-width="2.0" stroke-linecap="butt" stroke-opacity="0.0" clip-path="url(#id_0)" d="M464.0 332.0L452.0 332.0L452.0 250.0C452.0 248.89543 452.89542 248.0 454.0 248.0L462.0 248.0C463.10458 248.0 464.0 248.89543 464.0 250.0Z" fill-rule="nonzero"/><path fill="#4285f4" clip-path="url(#id_0)" d="M464.0 332.0L452.0 332.0L452.0 250.0C452.0 248.89543 452.89542 248.0 454.0 248.0L462.0 248.0C463.10458 248.0 464.0 248.89543 464.0 250.0Z" fill-rule="nonzero"/><path stroke="#000000" stroke-width="2.0" stroke-linecap="butt" stroke-opacity="0.0" clip-path="url(#id_0)" d="M508.0 332.0L496.0 332.0L496.0 330.0C496.0 328.89542 496.89542 328.0 498.0 328.0L506.0 328.0C507.10458 328.0 508.0 328.89542 508.0 330.0Z" fill-rule="nonzero"/><path fill="#4285f4" clip-path="url(#id_0)" d="M508.0 332.0L496.0 332.0L496.0 330.0C496.0 328.89542 496.89542 328.0 498.0 328.0L506.0 328.0C507.10458 328.0 508.0 328.89542 508.0 330.0Z" fill-rule="nonzero"/><path stroke="#000000" stroke-width="2.0" stroke-linecap="butt" stroke-opacity="0.0" clip-path="url(#id_0)" d="M551.0 332.0L539.0 332.0L539.0 332.0L551.0 332.0Z" fill-rule="nonzero"/><path fill="#4285f4" clip-path="url(#id_0)" d="M551.0 332.0L539.0 332.0L539.0 332.0L551.0 332.0Z" fill-rule="nonzero"/><path stroke="#000000" stroke-width="2.0" stroke-linecap="butt" stroke-opacity="0.0" clip-path="url(#id_0)" d="M88.0 332.0L76.0 332.0L76.0 330.0C76.0 328.89542 76.89543 328.0 78.0 328.0L86.0 328.0C87.10457 328.0 88.0 328.89542 88.0 330.0Z" fill-rule="nonzero"/><path fill="#ea4335" clip-path="url(#id_0)" d="M88.0 332.0L76.0 332.0L76.0 330.0C76.0 328.89542 76.89543 328.0 78.0 328.0L86.0 328.0C87.10457 328.0 88.0 328.89542 88.0 330.0Z" fill-rule="nonzero"/><path stroke="#000000" stroke-width="2.0" stroke-linecap="butt" stroke-opacity="0.0" clip-path="url(#id_0)" d="M131.0 332.0L119.0 332.0L119.0 326.0C119.0 324.89542 119.89543 324.0 121.0 324.0L129.0 324.0C130.10457 324.0 131.0 324.89542 131.0 326.0Z" fill-rule="nonzero"/><path fill="#ea4335" clip-path="url(#id_0)" d="M131.0 332.0L119.0 332.0L119.0 326.0C119.0 324.89542 119.89543 324.0 121.0 324.0L129.0 324.0C130.10457 324.0 131.0 324.89542 131.0 326.0Z" fill-rule="nonzero"/><path stroke="#000000" stroke-width="2.0" stroke-linecap="butt" stroke-opacity="0.0" clip-path="url(#id_0)" d="M175.0 332.0L163.0 332.0L163.0 298.0C163.0 296.89542 163.89543 296.0 165.0 296.0L173.0 296.0C174.10457 296.0 175.0 296.89542 175.0 298.0Z" fill-rule="nonzero"/><path fill="#ea4335" clip-path="url(#id_0)" d="M175.0 332.0L163.0 332.0L163.0 298.0C163.0 296.89542 163.89543 296.0 165.0 296.0L173.0 296.0C174.10457 296.0 175.0 296.89542 175.0 298.0Z" fill-rule="nonzero"/><path stroke="#000000" stroke-width="2.0" stroke-linecap="butt" stroke-opacity="0.0" clip-path="url(#id_0)" d="M218.0 332.0L206.0 332.0L206.0 254.0C206.0 252.89543 206.89543 252.0 208.0 252.0L216.0 252.0C217.10457 252.0 218.0 252.89543 218.0 254.0Z" fill-rule="nonzero"/><path fill="#ea4335" clip-path="url(#id_0)" d="M218.0 332.0L206.0 332.0L206.0 254.0C206.0 252.89543 206.89543 252.0 208.0 252.0L216.0 252.0C217.10457 252.0 218.0 252.89543 218.0 254.0Z" fill-rule="nonzero"/><path stroke="#000000" stroke-width="2.0" stroke-linecap="butt" stroke-opacity="0.0" clip-path="url(#id_0)" d="M261.0 332.0L249.0 332.0L249.0 190.0C249.0 188.89543 249.89543 188.0 251.0 188.0L259.0 188.0C260.10458 188.0 261.0 188.89543 261.0 190.0Z" fill-rule="nonzero"/><path fill="#ea4335" clip-path="url(#id_0)" d="M261.0 332.0L249.0 332.0L249.0 190.0C249.0 188.89543 249.89543 188.0 251.0 188.0L259.0 188.0C260.10458 188.0 261.0 188.89543 261.0 190.0Z" fill-rule="nonzero"/><path stroke="#000000" stroke-width="2.0" stroke-linecap="butt" stroke-opacity="0.0" clip-path="url(#id_0)" d="M305.0 332.0L293.0 332.0L293.0 138.0C293.0 136.89543 293.89542 136.0 295.0 136.0L303.0 136.0C304.10458 136.0 305.0 136.89543 305.0 138.0Z" fill-rule="nonzero"/><path fill="#ea4335" clip-path="url(#id_0)" d="M305.0 332.0L293.0 332.0L293.0 138.0C293.0 136.89543 293.89542 136.0 295.0 136.0L303.0 136.0C304.10458 136.0 305.0 136.89543 305.0 138.0Z" fill-rule="nonzero"/><path stroke="#000000" stroke-width="2.0" stroke-linecap="butt" stroke-opacity="0.0" clip-path="url(#id_0)" d="M348.0 332.0L336.0 332.0L336.0 146.0C336.0 144.89543 336.89542 144.0 338.0 144.0L346.0 144.0C347.10458 144.0 348.0 144.89543 348.0 146.0Z" fill-rule="nonzero"/><path fill="#ea4335" clip-path="url(#id_0)" d="M348.0 332.0L336.0 332.0L336.0 146.0C336.0 144.89543 336.89542 144.0 338.0 144.0L346.0 144.0C347.10458 144.0 348.0 144.89543 348.0 146.0Z" fill-rule="nonzero"/><path stroke="#000000" stroke-width="2.0" stroke-linecap="butt" stroke-opacity="0.0" clip-path="url(#id_0)" d="M392.0 332.0L380.0 332.0L380.0 162.0C380.0 160.89543 380.89542 160.0 382.0 160.0L390.0 160.0C391.10458 160.0 392.0 160.89543 392.0 162.0Z" fill-rule="nonzero"/><path fill="#ea4335" clip-path="url(#id_0)" d="M392.0 332.0L380.0 332.0L380.0 162.0C380.0 160.89543 380.89542 160.0 382.0 160.0L390.0 160.0C391.10458 160.0 392.0 160.89543 392.0 162.0Z" fill-rule="nonzero"/><path stroke="#000000" stroke-width="2.0" stroke-linecap="butt" stroke-opacity="0.0" clip-path="url(#id_0)" d="M435.0 332.0L423.0 332.0L423.0 230.0C423.0 228.89543 423.89542 228.0 425.0 228.0L433.0 228.0C434.10458 228.0 435.0 228.89543 435.0 230.0Z" fill-rule="nonzero"/><path fill="#ea4335" clip-path="url(#id_0)" d="M435.0 332.0L423.0 332.0L423.0 230.0C423.0 228.89543 423.89542 228.0 425.0 228.0L433.0 228.0C434.10458 228.0 435.0 228.89543 435.0 230.0Z" fill-rule="nonzero"/><path stroke="#000000" stroke-width="2.0" stroke-linecap="butt" stroke-opacity="0.0" clip-path="url(#id_0)" d="M478.0 332.0L466.0 332.0L466.0 278.0C466.0 276.89542 466.89542 276.0 468.0 276.0L476.0 276.0C477.10458 276.0 478.0 276.89542 478.0 278.0Z" fill-rule="nonzero"/><path fill="#ea4335" clip-path="url(#id_0)" d="M478.0 332.0L466.0 332.0L466.0 278.0C466.0 276.89542 466.89542 276.0 468.0 276.0L476.0 276.0C477.10458 276.0 478.0 276.89542 478.0 278.0Z" fill-rule="nonzero"/><path stroke="#000000" stroke-width="2.0" stroke-linecap="butt" stroke-opacity="0.0" clip-path="url(#id_0)" d="M522.0 332.0L510.0 332.0L510.0 286.0C510.0 284.89542 510.89542 284.0 512.0 284.0L520.0 284.0C521.10455 284.0 522.0 284.89542 522.0 286.0Z" fill-rule="nonzero"/><path fill="#ea4335" clip-path="url(#id_0)" d="M522.0 332.0L510.0 332.0L510.0 286.0C510.0 284.89542 510.89542 284.0 512.0 284.0L520.0 284.0C521.10455 284.0 522.0 284.89542 522.0 286.0Z" fill-rule="nonzero"/><path stroke="#000000" stroke-width="2.0" stroke-linecap="butt" stroke-opacity="0.0" clip-path="url(#id_0)" d="M565.0 332.0L553.0 332.0L553.0 314.0C553.0 312.89542 553.89545 312.0 555.0 312.0L563.0 312.0C564.10455 312.0 565.0 312.89542 565.0 314.0Z" fill-rule="nonzero"/><path fill="#ea4335" clip-path="url(#id_0)" d="M565.0 332.0L553.0 332.0L553.0 314.0C553.0 312.89542 553.89545 312.0 555.0 312.0L563.0 312.0C564.10455 312.0 565.0 312.89542 565.0 314.0Z" fill-rule="nonzero"/><path fill="#000000" d="M33.05 332.21564Q33.05 330.6844 33.3625 329.7625Q33.675 328.825 34.284374 328.325Q34.909374 327.825 35.846874 327.825Q36.534374 327.825 37.05 328.10626Q37.58125 328.3875 37.925 328.91876Q38.26875 329.4344 38.45625 330.1844Q38.64375 330.9344 38.64375 332.21564Q38.64375 333.73126 38.33125 334.65314Q38.034374 335.575 37.409374 336.09064Q36.8 336.59064 35.846874 336.59064Q34.6125 336.59064 33.89375 335.7Q33.05 334.6375 33.05 332.21564ZM34.128124 332.21564Q34.128124 334.325 34.628124 335.02814Q35.128124 335.73126 35.846874 335.73126Q36.58125 335.73126 37.065624 335.02814Q37.565624 334.325 37.565624 332.21564Q37.565624 330.09064 37.065624 329.40314Q36.58125 328.7 35.83125 328.7Q35.1125 328.7 34.675 329.3094Q34.128124 330.09064 34.128124 332.21564Z" fill-rule="nonzero"/><path fill="#000000" d="M30.01875 296.3738L28.971874 296.3738L28.971874 289.65506Q28.58125 290.01443 27.95625 290.38943Q27.346874 290.7488 26.8625 290.9207L26.8625 289.90506Q27.7375 289.4832 28.39375 288.90506Q29.065624 288.3113 29.346874 287.7488L30.01875 287.7488L30.01875 296.3738ZM33.05 292.13943Q33.05 290.6082 33.3625 289.6863Q33.675 288.7488 34.284374 288.2488Q34.909374 287.7488 35.846874 287.7488Q36.534374 287.7488 37.05 288.03006Q37.58125 288.3113 37.925 288.84256Q38.26875 289.3582 38.45625 290.1082Q38.64375 290.8582 38.64375 292.13943Q38.64375 293.65506 38.33125 294.57693Q38.034374 295.4988 37.409374 296.01443Q36.8 296.51443 35.846874 296.51443Q34.6125 296.51443 33.89375 295.6238Q33.05 294.5613 33.05 292.13943ZM34.128124 292.13943Q34.128124 294.2488 34.628124 294.95193Q35.128124 295.65506 35.846874 295.65506Q36.58125 295.65506 37.065624 294.95193Q37.565624 294.2488 37.565624 292.13943Q37.565624 290.01443 37.065624 289.32693Q36.58125 288.6238 35.83125 288.6238Q35.1125 288.6238 34.675 289.2332Q34.128124 290.01443 34.128124 292.13943Z" fill-rule="nonzero"/><path fill="#000000" d="M31.596874 255.28198L31.596874 256.2976L25.909374 256.2976Q25.909374 255.9226 26.034374 255.56323Q26.253124 254.9851 26.721874 254.4226Q27.20625 253.8601 28.1125 253.12573Q29.51875 251.96948 30.003124 251.2976Q30.503124 250.62573 30.503124 250.03198Q30.503124 249.40698 30.05 248.9851Q29.596874 248.5476 28.878124 248.5476Q28.1125 248.5476 27.659374 249.00073Q27.20625 249.45386 27.190624 250.26636L26.1125 250.15698Q26.221874 248.93823 26.940624 248.31323Q27.675 247.6726 28.909374 247.6726Q30.14375 247.6726 30.8625 248.3601Q31.58125 249.0476 31.58125 250.06323Q31.58125 250.57886 31.3625 251.07886Q31.159374 251.56323 30.659374 252.12573Q30.175 252.6726 29.05 253.62573Q28.096874 254.4226 27.815624 254.71948Q27.55 255.00073 27.378124 255.28198L31.596874 255.28198ZM33.05 252.06323Q33.05 250.53198 33.3625 249.6101Q33.675 248.6726 34.284374 248.1726Q34.909374 247.6726 35.846874 247.6726Q36.534374 247.6726 37.05 247.95386Q37.58125 248.2351 37.925 248.76636Q38.26875 249.28198 38.45625 250.03198Q38.64375 250.78198 38.64375 252.06323Q38.64375 253.57886 38.33125 254.50073Q38.034374 255.4226 37.409374 255.93823Q36.8 256.43823 35.846874 256.43823Q34.6125 256.43823 33.89375 255.5476Q33.05 254.4851 33.05 252.06323ZM34.128124 252.06323Q34.128124 254.1726 34.628124 254.87573Q35.128124 255.57886 35.846874 255.57886Q36.58125 255.57886 37.065624 254.87573Q37.565624 254.1726 37.565624 252.06323Q37.565624 249.93823 37.065624 249.25073Q36.58125 248.5476 35.83125 248.5476Q35.1125 248.5476 34.675 249.15698Q34.128124 249.93823 34.128124 252.06323Z" fill-rule="nonzero"/><path fill="#000000" d="M26.05 213.95581L27.1125 213.81519Q27.284374 214.70581 27.721874 215.11206Q28.159374 215.50269 28.784374 215.50269Q29.534374 215.50269 30.05 214.98706Q30.565624 214.47144 30.565624 213.70581Q30.565624 212.98706 30.08125 212.51831Q29.6125 212.03394 28.878124 212.03394Q28.58125 212.03394 28.128124 212.15894L28.253124 211.22144Q28.3625 211.23706 28.425 211.23706Q29.096874 211.23706 29.628124 210.89331Q30.175 210.53394 30.175 209.79956Q30.175 209.22144 29.784374 208.84644Q29.39375 208.45581 28.76875 208.45581Q28.159374 208.45581 27.7375 208.84644Q27.33125 209.23706 27.221874 210.00269L26.159374 209.81519Q26.346874 208.76831 27.034374 208.19019Q27.721874 207.59644 28.7375 207.59644Q29.440624 207.59644 30.034374 207.90894Q30.628124 208.20581 30.940624 208.72144Q31.253124 209.23706 31.253124 209.83081Q31.253124 210.37769 30.95625 210.84644Q30.659374 211.29956 30.08125 211.56519Q30.83125 211.73706 31.253124 212.29956Q31.675 212.84644 31.675 213.69019Q31.675 214.81519 30.846874 215.59644Q30.034374 216.37769 28.784374 216.37769Q27.659374 216.37769 26.909374 215.70581Q26.159374 215.01831 26.05 213.95581ZM33.05 211.98706Q33.05 210.45581 33.3625 209.53394Q33.675 208.59644 34.284374 208.09644Q34.909374 207.59644 35.846874 207.59644Q36.534374 207.59644 37.05 207.87769Q37.58125 208.15894 37.925 208.69019Q38.26875 209.20581 38.45625 209.95581Q38.64375 210.70581 38.64375 211.98706Q38.64375 213.50269 38.33125 214.42456Q38.034374 215.34644 37.409374 215.86206Q36.8 216.36206 35.846874 216.36206Q34.6125 216.36206 33.89375 215.47144Q33.05 214.40894 33.05 211.98706ZM34.128124 211.98706Q34.128124 214.09644 34.628124 214.79956Q35.128124 215.50269 35.846874 215.50269Q36.58125 215.50269 37.065624 214.79956Q37.565624 214.09644 37.565624 211.98706Q37.565624 209.86206 37.065624 209.17456Q36.58125 208.47144 35.83125 208.47144Q35.1125 208.47144 34.675 209.08081Q34.128124 209.86206 34.128124 211.98706Z" fill-rule="nonzero"/><path fill="#000000" d="M29.425 176.14523L29.425 174.08273L25.70625 174.08273L25.70625 173.11398L29.628124 167.55148L30.4875 167.55148L30.4875 173.11398L31.64375 173.11398L31.64375 174.08273L30.4875 174.08273L30.4875 176.14523L29.425 176.14523ZM29.425 173.11398L29.425 169.25461L26.7375 173.11398L29.425 173.11398ZM33.05 171.91086Q33.05 170.37961 33.3625 169.45773Q33.675 168.52023 34.284374 168.02023Q34.909374 167.52023 35.846874 167.52023Q36.534374 167.52023 37.05 167.80148Q37.58125 168.08273 37.925 168.61398Q38.26875 169.12961 38.45625 169.87961Q38.64375 170.62961 38.64375 171.91086Q38.64375 173.42648 38.33125 174.34836Q38.034374 175.27023 37.409374 175.78586Q36.8 176.28586 35.846874 176.28586Q34.6125 176.28586 33.89375 175.39523Q33.05 174.33273 33.05 171.91086ZM34.128124 171.91086Q34.128124 174.02023 34.628124 174.72336Q35.128124 175.42648 35.846874 175.42648Q36.58125 175.42648 37.065624 174.72336Q37.565624 174.02023 37.565624 171.91086Q37.565624 169.78586 37.065624 169.09836Q36.58125 168.39523 35.83125 168.39523Q35.1125 168.39523 34.675 169.00461Q34.128124 169.78586 34.128124 171.91086Z" fill-rule="nonzero"/><path fill="#000000" d="M26.05 133.81905L27.159374 133.7253Q27.284374 134.5378 27.721874 134.94405Q28.175 135.3503 28.815624 135.3503Q29.565624 135.3503 30.096874 134.77217Q30.628124 134.19405 30.628124 133.25655Q30.628124 132.3503 30.1125 131.83467Q29.6125 131.30342 28.784374 131.30342Q28.284374 131.30342 27.8625 131.5378Q27.45625 131.77217 27.221874 132.13155L26.2375 132.00655L27.065624 127.600296L31.346874 127.600296L31.346874 128.6003L27.909374 128.6003L27.45625 130.9128Q28.221874 130.36592 29.065624 130.36592Q30.190624 130.36592 30.95625 131.14717Q31.7375 131.92842 31.7375 133.1628Q31.7375 134.31905 31.065624 135.17842Q30.2375 136.20967 28.815624 136.20967Q27.64375 136.20967 26.89375 135.55342Q26.159374 134.89717 26.05 133.81905ZM33.05 131.83467Q33.05 130.30342 33.3625 129.38155Q33.675 128.44405 34.284374 127.944046Q34.909374 127.444046 35.846874 127.444046Q36.534374 127.444046 37.05 127.725296Q37.58125 128.00655 37.925 128.5378Q38.26875 129.05342 38.45625 129.80342Q38.64375 130.55342 38.64375 131.83467Q38.64375 133.3503 38.33125 134.27217Q38.034374 135.19405 37.409374 135.70967Q36.8 136.20967 35.846874 136.20967Q34.6125 136.20967 33.89375 135.31905Q33.05 134.25655 33.05 131.83467ZM34.128124 131.83467Q34.128124 133.94405 34.628124 134.64717Q35.128124 135.3503 35.846874 135.3503Q36.58125 135.3503 37.065624 134.64717Q37.565624 133.94405 37.565624 131.83467Q37.565624 129.70967 37.065624 129.02217Q36.58125 128.31905 35.83125 128.31905Q35.1125 128.31905 34.675 128.92842Q34.128124 129.70967 34.128124 131.83467Z" fill-rule="nonzero"/><path fill="#000000" d="M31.51875 89.508484L30.471874 89.58661Q30.33125 88.96161 30.08125 88.68036Q29.64375 88.227234 29.01875 88.227234Q28.51875 88.227234 28.128124 88.508484Q27.64375 88.883484 27.346874 89.58661Q27.065624 90.27411 27.05 91.55536Q27.425 90.977234 27.971874 90.695984Q28.534374 90.414734 29.14375 90.414734Q30.190624 90.414734 30.925 91.195984Q31.675 91.977234 31.675 93.195984Q31.675 94.008484 31.315624 94.71161Q30.971874 95.39911 30.3625 95.77411Q29.753124 96.133484 28.9875 96.133484Q27.659374 96.133484 26.83125 95.164734Q26.003124 94.195984 26.003124 91.977234Q26.003124 89.477234 26.925 88.352234Q27.721874 87.36786 29.08125 87.36786Q30.096874 87.36786 30.7375 87.945984Q31.39375 88.508484 31.51875 89.508484ZM27.221874 93.21161Q27.221874 93.758484 27.440624 94.258484Q27.675 94.74286 28.08125 95.008484Q28.503124 95.27411 28.971874 95.27411Q29.628124 95.27411 30.1125 94.74286Q30.596874 94.195984 30.596874 93.27411Q30.596874 92.383484 30.1125 91.86786Q29.64375 91.352234 28.925 91.352234Q28.20625 91.352234 27.70625 91.86786Q27.221874 92.383484 27.221874 93.21161ZM33.05 91.758484Q33.05 90.227234 33.3625 89.30536Q33.675 88.36786 34.284374 87.86786Q34.909374 87.36786 35.846874 87.36786Q36.534374 87.36786 37.05 87.64911Q37.58125 87.93036 37.925 88.46161Q38.26875 88.977234 38.45625 89.727234Q38.64375 90.477234 38.64375 91.758484Q38.64375 93.27411 38.33125 94.195984Q38.034374 95.11786 37.409374 95.633484Q36.8 96.133484 35.846874 96.133484Q34.6125 96.133484 33.89375 95.24286Q33.05 94.18036 33.05 91.758484ZM34.128124 91.758484Q34.128124 93.86786 34.628124 94.570984Q35.128124 95.27411 35.846874 95.27411Q36.58125 95.27411 37.065624 94.570984Q37.565624 93.86786 37.565624 91.758484Q37.565624 89.633484 37.065624 88.945984Q36.58125 88.24286 35.83125 88.24286Q35.1125 88.24286 34.675 88.852234Q34.128124 89.633484 34.128124 91.758484Z" fill-rule="nonzero"/><path fill="#000000" d="M26.1125 48.447918L26.1125 47.432293L31.675 47.432293L31.675 48.260418Q30.8625 49.135418 30.05 50.588543Q29.253124 52.026043 28.815624 53.557293Q28.4875 54.635418 28.409374 55.916668L27.315624 55.916668Q27.33125 54.901043 27.70625 53.463543Q28.096874 52.026043 28.8 50.697918Q29.51875 49.369793 30.33125 48.447918L26.1125 48.447918ZM33.05 51.682293Q33.05 50.151043 33.3625 49.229168Q33.675 48.291668 34.284374 47.791668Q34.909374 47.291668 35.846874 47.291668Q36.534374 47.291668 37.05 47.572918Q37.58125 47.854168 37.925 48.385418Q38.26875 48.901043 38.45625 49.651043Q38.64375 50.401043 38.64375 51.682293Q38.64375 53.197918 38.33125 54.119793Q38.034374 55.041668 37.409374 55.557293Q36.8 56.057293 35.846874 56.057293Q34.6125 56.057293 33.89375 55.166668Q33.05 54.104168 33.05 51.682293ZM34.128124 51.682293Q34.128124 53.791668 34.628124 54.494793Q35.128124 55.197918 35.846874 55.197918Q36.58125 55.197918 37.065624 54.494793Q37.565624 53.791668 37.565624 51.682293Q37.565624 49.557293 37.065624 48.869793Q36.58125 48.166668 35.83125 48.166668Q35.1125 48.166668 34.675 48.776043Q34.128124 49.557293 34.128124 51.682293Z" fill-rule="nonzero"/><path fill="#000000" d="M65.18383 347.0125L66.21508 346.8719Q66.24633 347.85626 66.574455 348.21564Q66.90258 348.575 67.49633 348.575Q67.918205 348.575 68.230705 348.3875Q68.543205 348.1844 68.65258 347.85626Q68.77758 347.5125 68.77758 346.77814L68.77758 340.85626L69.90258 340.85626L69.90258 346.71564Q69.90258 347.79376 69.636955 348.3875Q69.386955 348.98126 68.824455 349.29376Q68.261955 349.59064 67.49633 349.59064Q66.37133 349.59064 65.761955 348.95Q65.168205 348.29376 65.18383 347.0125ZM75.699455 348.6844Q75.105705 349.1844 74.55883 349.3875Q74.02758 349.59064 73.40258 349.59064Q72.37133 349.59064 71.824455 349.09064Q71.27758 348.59064 71.27758 347.8094Q71.27758 347.35626 71.480705 346.98126Q71.68383 346.59064 72.02758 346.3719Q72.37133 346.1375 72.793205 346.02814Q73.09008 345.9344 73.730705 345.85626Q74.99633 345.71564 75.605705 345.4969Q75.605705 345.27814 75.605705 345.23126Q75.605705 344.575 75.30883 344.3094Q74.90258 343.96564 74.105705 343.96564Q73.37133 343.96564 73.011955 344.23126Q72.65258 344.48126 72.480705 345.1375L71.449455 344.9969Q71.59008 344.34064 71.918205 343.9344Q72.24633 343.52814 72.855705 343.3094Q73.46508 343.09064 74.261955 343.09064Q75.05883 343.09064 75.55883 343.27814Q76.05883 343.46564 76.293205 343.7469Q76.52758 344.02814 76.62133 344.46564Q76.668205 344.73126 76.668205 345.4344L76.668205 346.84064Q76.668205 348.3094 76.730705 348.7Q76.80883 349.09064 77.011955 349.45L75.90258 349.45Q75.74633 349.1219 75.699455 348.6844ZM75.605705 346.325Q75.02758 346.5594 73.886955 346.73126Q73.230705 346.825 72.96508 346.95Q72.699455 347.0594 72.543205 347.27814Q72.40258 347.4969 72.40258 347.77814Q72.40258 348.2 72.71508 348.48126Q73.043205 348.7625 73.65258 348.7625Q74.261955 348.7625 74.730705 348.4969Q75.21508 348.23126 75.43383 347.7625Q75.605705 347.40314 75.605705 346.71564L75.605705 346.325ZM78.636955 349.45L78.636955 343.23126L79.574455 343.23126L79.574455 344.10626Q80.261955 343.09064 81.55883 343.09064Q82.12133 343.09064 82.59008 343.29376Q83.074455 343.4969 83.30883 343.825Q83.543205 344.15314 83.636955 344.59064Q83.68383 344.8875 83.68383 345.6219L83.68383 349.45L82.636955 349.45L82.636955 345.66876Q82.636955 345.0125 82.511955 344.7Q82.386955 344.3875 82.074455 344.2Q81.761955 343.9969 81.34008 343.9969Q80.668205 343.9969 80.168205 344.4344Q79.68383 344.85626 79.68383 346.04376L79.68383 349.45L78.636955 349.45Z" fill-rule="nonzero"/><path fill="#000000" d="M108.71717 349.45L108.71717 340.85626L114.514046 340.85626L114.514046 341.8719L109.857796 341.8719L109.857796 344.52814L113.889046 344.52814L113.889046 345.54376L109.857796 345.54376L109.857796 349.45L108.71717 349.45ZM119.77967 347.45L120.87342 347.575Q120.62342 348.52814 119.920296 349.0594Q119.21717 349.59064 118.139046 349.59064Q116.77967 349.59064 115.96717 348.7469Q115.170296 347.90314 115.170296 346.3875Q115.170296 344.825 115.982796 343.96564Q116.795296 343.09064 118.076546 343.09064Q119.326546 343.09064 120.107796 343.9344Q120.90467 344.77814 120.90467 346.325Q120.90467 346.41876 120.90467 346.60626L116.264046 346.60626Q116.326546 347.6375 116.84217 348.1844Q117.357796 348.71564 118.139046 348.71564Q118.71717 348.71564 119.12342 348.41876Q119.545296 348.10626 119.77967 347.45ZM116.326546 345.7469L119.795296 345.7469Q119.732796 344.95 119.40467 344.5594Q118.889046 343.95 118.09217 343.95Q117.357796 343.95 116.857796 344.4344Q116.37342 344.91876 116.326546 345.7469ZM123.49842 349.45L122.514046 349.45L122.514046 340.85626L123.576546 340.85626L123.576546 343.91876Q124.24842 343.09064 125.27967 343.09064Q125.857796 343.09064 126.357796 343.325Q126.87342 343.54376 127.201546 343.96564Q127.545296 344.3875 127.732796 344.98126Q127.920296 345.575 127.920296 346.2469Q127.920296 347.84064 127.12342 348.71564Q126.326546 349.59064 125.232796 349.59064Q124.12342 349.59064 123.49842 348.66876L123.49842 349.45ZM123.482796 346.29376Q123.482796 347.40314 123.795296 347.90314Q124.295296 348.71564 125.139046 348.71564Q125.826546 348.71564 126.326546 348.1219Q126.84217 347.52814 126.84217 346.325Q126.84217 345.10626 126.357796 344.52814Q125.87342 343.95 125.18592 343.95Q124.49842 343.95 123.982796 344.5594Q123.482796 345.15314 123.482796 346.29376Z" fill-rule="nonzero"/><path fill="#000000" d="M153.51613 349.45L153.51613 340.85626L155.23488 340.85626L157.26613 346.9344Q157.54738 347.79376 157.67238 348.21564Q157.813 347.7469 158.1255 346.84064L160.188 340.85626L161.71925 340.85626L161.71925 349.45L160.6255 349.45L160.6255 342.2625L158.1255 349.45L157.09425 349.45L154.60988 342.1375L154.60988 349.45L153.51613 349.45ZM162.40675 349.45L162.40675 343.23126L163.35988 343.23126L163.35988 344.16876Q163.71925 343.5125 164.01613 343.3094Q164.32863 343.09064 164.70363 343.09064Q165.23488 343.09064 165.78175 343.41876L165.42238 344.40314Q165.03175 344.16876 164.65675 344.16876Q164.29738 344.16876 164.01613 344.3875Q163.7505 344.59064 163.64113 344.96564Q163.45363 345.52814 163.45363 346.1844L163.45363 349.45L162.40675 349.45ZM165.85988 349.45L165.85988 348.59064L169.82863 344.04376Q169.14113 344.075 168.6255 344.075L166.09425 344.075L166.09425 343.23126L171.188 343.23126L171.188 343.91876L167.813 347.8719L167.15675 348.59064Q167.8755 348.54376 168.48488 348.54376L171.3755 348.54376L171.3755 349.45L165.85988 349.45Z" fill-rule="nonzero"/><path fill="#000000" d="M196.0026 349.45L199.29947 340.85626L200.51822 340.85626L204.03384 349.45L202.7526 349.45L201.73697 346.84064L198.15884 346.84064L197.20572 349.45L196.0026 349.45ZM198.48697 345.91876L201.39322 345.91876L200.5026 343.54376Q200.08072 342.46564 199.89322 341.7625Q199.72134 342.59064 199.42447 343.40314L198.48697 345.91876ZM203.8151 351.84064L203.8151 343.23126L204.76822 343.23126L204.76822 344.02814Q205.11197 343.5594 205.53384 343.325Q205.97134 343.09064 206.58072 343.09064Q207.3776 343.09064 207.98697 343.4969Q208.59634 343.90314 208.89322 344.65314Q209.20572 345.40314 209.20572 346.29376Q209.20572 347.2469 208.86197 348.0125Q208.53384 348.77814 207.8776 349.1844Q207.22134 349.59064 206.5026 349.59064Q205.97134 349.59064 205.54947 349.3719Q205.1276 349.1375 204.86197 348.8094L204.86197 351.84064L203.8151 351.84064ZM204.76822 346.3719Q204.76822 347.575 205.2526 348.15314Q205.73697 348.71564 206.42447 348.71564Q207.1276 348.71564 207.6276 348.1219Q208.1276 347.52814 208.1276 346.27814Q208.1276 345.09064 207.64322 344.5125Q207.15884 343.91876 206.47134 343.91876Q205.79947 343.91876 205.28384 344.54376Q204.76822 345.16876 204.76822 346.3719ZM210.79947 349.45L210.79947 343.23126L211.7526 343.23126L211.7526 344.16876Q212.11197 343.5125 212.40884 343.3094Q212.72134 343.09064 213.09634 343.09064Q213.6276 343.09064 214.17447 343.41876L213.8151 344.40314Q213.42447 344.16876 213.04947 344.16876Q212.6901 344.16876 212.40884 344.3875Q212.14322 344.59064 212.03384 344.96564Q211.84634 345.52814 211.84634 346.1844L211.84634 349.45L210.79947 349.45Z" fill-rule="nonzero"/><path fill="#000000" d="M239.80156 349.45L239.80156 340.85626L241.52031 340.85626L243.55156 346.9344Q243.83281 347.79376 243.95781 348.21564Q244.09843 347.7469 244.41093 346.84064L246.47343 340.85626L248.00468 340.85626L248.00468 349.45L246.91093 349.45L246.91093 342.2625L244.41093 349.45L243.37968 349.45L240.89531 342.1375L240.89531 349.45L239.80156 349.45ZM252.77031 348.6844Q252.17656 349.1844 251.62968 349.3875Q251.09843 349.59064 250.47343 349.59064Q249.44218 349.59064 248.89531 349.09064Q248.34843 348.59064 248.34843 347.8094Q248.34843 347.35626 248.55156 346.98126Q248.75468 346.59064 249.09843 346.3719Q249.44218 346.1375 249.86406 346.02814Q250.16093 345.9344 250.80156 345.85626Q252.06718 345.71564 252.67656 345.4969Q252.67656 345.27814 252.67656 345.23126Q252.67656 344.575 252.37968 344.3094Q251.97343 343.96564 251.17656 343.96564Q250.44218 343.96564 250.08281 344.23126Q249.72343 344.48126 249.55156 345.1375L248.52031 344.9969Q248.66093 344.34064 248.98906 343.9344Q249.31718 343.52814 249.92656 343.3094Q250.53593 343.09064 251.33281 343.09064Q252.12968 343.09064 252.62968 343.27814Q253.12968 343.46564 253.36406 343.7469Q253.59843 344.02814 253.69218 344.46564Q253.73906 344.73126 253.73906 345.4344L253.73906 346.84064Q253.73906 348.3094 253.80156 348.7Q253.87968 349.09064 254.08281 349.45L252.97343 349.45Q252.81718 349.1219 252.77031 348.6844ZM252.67656 346.325Q252.09843 346.5594 250.95781 346.73126Q250.30156 346.825 250.03593 346.95Q249.77031 347.0594 249.61406 347.27814Q249.47343 347.4969 249.47343 347.77814Q249.47343 348.2 249.78593 348.48126Q250.11406 348.7625 250.72343 348.7625Q251.33281 348.7625 251.80156 348.4969Q252.28593 348.23126 252.50468 347.7625Q252.67656 347.40314 252.67656 346.71564L252.67656 346.325ZM255.70781 342.075L255.70781 340.85626L256.77032 340.85626L256.77032 342.075L255.70781 342.075ZM255.70781 349.45L255.70781 343.23126L256.77032 343.23126L256.77032 349.45L255.70781 349.45Z" fill-rule="nonzero"/><path fill="#000000" d="M282.1474 347.0125L283.17865 346.8719Q283.2099 347.85626 283.53802 348.21564Q283.86615 348.575 284.4599 348.575Q284.88177 348.575 285.19427 348.3875Q285.50677 348.1844 285.61615 347.85626Q285.74115 347.5125 285.74115 346.77814L285.74115 340.85626L286.86615 340.85626L286.86615 346.71564Q286.86615 347.79376 286.60052 348.3875Q286.35052 348.98126 285.78802 349.29376Q285.22552 349.59064 284.4599 349.59064Q283.3349 349.59064 282.72552 348.95Q282.13177 348.29376 282.1474 347.0125ZM292.67865 349.45L292.67865 348.52814Q291.94427 349.59064 290.69427 349.59064Q290.1474 349.59064 289.66302 349.3875Q289.19427 349.16876 288.9599 348.85626Q288.72552 348.52814 288.63177 348.0594Q288.56927 347.7625 288.56927 347.075L288.56927 343.23126L289.63177 343.23126L289.63177 346.6844Q289.63177 347.4969 289.69427 347.79376Q289.78802 348.2 290.10052 348.45Q290.42865 348.6844 290.91302 348.6844Q291.38177 348.6844 291.78802 348.45Q292.2099 348.2 292.38177 347.77814Q292.56927 347.35626 292.56927 346.5594L292.56927 343.23126L293.61615 343.23126L293.61615 349.45L292.67865 349.45ZM295.60052 349.45L295.60052 343.23126L296.53802 343.23126L296.53802 344.10626Q297.22552 343.09064 298.5224 343.09064Q299.0849 343.09064 299.55365 343.29376Q300.03802 343.4969 300.2724 343.825Q300.50677 344.15314 300.60052 344.59064Q300.6474 344.8875 300.6474 345.6219L300.6474 349.45L299.60052 349.45L299.60052 345.66876Q299.60052 345.0125 299.47552 344.7Q299.35052 344.3875 299.03802 344.2Q298.72552 343.9969 298.30365 343.9969Q297.63177 343.9969 297.13177 344.4344Q296.6474 344.85626 296.6474 346.04376L296.6474 349.45L295.60052 349.45Z" fill-rule="nonzero"/><path fill="#000000" d="M327.5401 347.0125L328.57135 346.8719Q328.6026 347.85626 328.93073 348.21564Q329.25885 348.575 329.8526 348.575Q330.27448 348.575 330.58698 348.3875Q330.89948 348.1844 331.00885 347.85626Q331.13385 347.5125 331.13385 346.77814L331.13385 340.85626L332.25885 340.85626L332.25885 346.71564Q332.25885 347.79376 331.99323 348.3875Q331.74323 348.98126 331.18073 349.29376Q330.61823 349.59064 329.8526 349.59064Q328.7276 349.59064 328.11823 348.95Q327.52448 348.29376 327.5401 347.0125ZM338.07135 349.45L338.07135 348.52814Q337.33698 349.59064 336.08698 349.59064Q335.5401 349.59064 335.05573 349.3875Q334.58698 349.16876 334.3526 348.85626Q334.11823 348.52814 334.02448 348.0594Q333.96198 347.7625 333.96198 347.075L333.96198 343.23126L335.02448 343.23126L335.02448 346.6844Q335.02448 347.4969 335.08698 347.79376Q335.18073 348.2 335.49323 348.45Q335.82135 348.6844 336.30573 348.6844Q336.77448 348.6844 337.18073 348.45Q337.6026 348.2 337.77448 347.77814Q337.96198 347.35626 337.96198 346.5594L337.96198 343.23126L339.00885 343.23126L339.00885 349.45L338.07135 349.45ZM340.96198 349.45L340.96198 340.85626L342.02448 340.85626L342.02448 349.45L340.96198 349.45Z" fill-rule="nonzero"/><path fill="#000000" d="M368.07346 349.45L371.37033 340.85626L372.58908 340.85626L376.1047 349.45L374.82346 349.45L373.80783 346.84064L370.2297 346.84064L369.27658 349.45L368.07346 349.45ZM370.55783 345.91876L373.46408 345.91876L372.57346 343.54376Q372.15158 342.46564 371.96408 341.7625Q371.7922 342.59064 371.49533 343.40314L370.55783 345.91876ZM379.96408 349.45L379.96408 348.52814Q379.2297 349.59064 377.9797 349.59064Q377.43283 349.59064 376.94846 349.3875Q376.4797 349.16876 376.24533 348.85626Q376.01096 348.52814 375.9172 348.0594Q375.8547 347.7625 375.8547 347.075L375.8547 343.23126L376.9172 343.23126L376.9172 346.6844Q376.9172 347.4969 376.9797 347.79376Q377.07346 348.2 377.38596 348.45Q377.71408 348.6844 378.19846 348.6844Q378.6672 348.6844 379.07346 348.45Q379.49533 348.2 379.6672 347.77814Q379.8547 347.35626 379.8547 346.5594L379.8547 343.23126L380.90158 343.23126L380.90158 349.45L379.96408 349.45ZM382.68283 349.96564L383.71408 350.1219Q383.77658 350.59064 384.07346 350.8094Q384.46408 351.10626 385.13596 351.10626Q385.87033 351.10626 386.26096 350.8094Q386.6672 350.5125 386.80783 349.9969Q386.90158 349.66876 386.88596 348.6375Q386.19846 349.45 385.1672 349.45Q383.88596 349.45 383.18283 348.52814Q382.4797 347.59064 382.4797 346.3094Q382.4797 345.41876 382.7922 344.66876Q383.12033 343.90314 383.7297 343.4969Q384.33908 343.09064 385.1672 343.09064Q386.27658 343.09064 386.99533 343.98126L386.99533 343.23126L387.96408 343.23126L387.96408 348.60626Q387.96408 350.0594 387.6672 350.66876Q387.37033 351.27814 386.7297 351.6219Q386.08908 351.98126 385.15158 351.98126Q384.0422 351.98126 383.3547 351.48126Q382.6672 350.98126 382.68283 349.96564ZM383.55783 346.23126Q383.55783 347.45 384.0422 348.0125Q384.52658 348.575 385.26096 348.575Q385.99533 348.575 386.4797 348.0125Q386.9797 347.45 386.9797 346.2625Q386.9797 345.1219 386.46408 344.54376Q385.96408 343.96564 385.24533 343.96564Q384.5422 343.96564 384.0422 344.54376Q383.55783 345.10626 383.55783 346.23126Z" fill-rule="nonzero"/><path fill="#000000" d="M411.52866 346.6844L412.59116 346.59064Q412.66928 347.2469 412.95053 347.65314Q413.23178 348.0594 413.8099 348.325Q414.40366 348.575 415.13803 348.575Q415.77866 348.575 416.27866 348.3875Q416.77866 348.1844 417.01303 347.85626Q417.26303 347.5125 417.26303 347.1219Q417.26303 346.71564 417.02866 346.41876Q416.79428 346.10626 416.26303 345.90314Q415.90366 345.7625 414.71616 345.48126Q413.54428 345.2 413.07553 344.95Q412.45053 344.6219 412.15366 344.15314Q411.85678 343.66876 411.85678 343.075Q411.85678 342.4344 412.21616 341.8719Q412.59116 341.29376 413.29428 341.0125Q414.01303 340.71564 414.8724 340.71564Q415.82553 340.71564 416.5599 341.02814Q417.29428 341.325 417.6849 341.9344Q418.07553 342.52814 418.10678 343.27814L417.01303 343.35626Q416.91928 342.54376 416.40366 342.1375Q415.90366 341.71564 414.91928 341.71564Q413.88803 341.71564 413.41928 342.09064Q412.95053 342.46564 412.95053 342.9969Q412.95053 343.46564 413.27866 343.7625Q413.60678 344.0594 414.98178 344.3719Q416.3724 344.6844 416.88803 344.91876Q417.63803 345.27814 417.9974 345.8094Q418.35678 346.325 418.35678 347.02814Q418.35678 347.71564 417.96616 348.325Q417.57553 348.91876 416.84116 349.2625Q416.10678 349.59064 415.1849 349.59064Q414.01303 349.59064 413.21616 349.2625Q412.4349 348.91876 411.98178 348.23126Q411.54428 347.54376 411.52866 346.6844ZM424.02866 347.45L425.1224 347.575Q424.8724 348.52814 424.16928 349.0594Q423.46616 349.59064 422.38803 349.59064Q421.02866 349.59064 420.21616 348.7469Q419.41928 347.90314 419.41928 346.3875Q419.41928 344.825 420.23178 343.96564Q421.04428 343.09064 422.32553 343.09064Q423.57553 343.09064 424.35678 343.9344Q425.15366 344.77814 425.15366 346.325Q425.15366 346.41876 425.15366 346.60626L420.51303 346.60626Q420.57553 347.6375 421.09116 348.1844Q421.60678 348.71564 422.38803 348.71564Q422.96616 348.71564 423.3724 348.41876Q423.79428 348.10626 424.02866 347.45ZM420.57553 345.7469L424.04428 345.7469Q423.98178 344.95 423.65366 344.5594Q423.13803 343.95 422.34116 343.95Q421.60678 343.95 421.10678 344.4344Q420.6224 344.91876 420.57553 345.7469ZM426.77866 351.84064L426.77866 343.23126L427.73178 343.23126L427.73178 344.02814Q428.07553 343.5594 428.4974 343.325Q428.9349 343.09064 429.54428 343.09064Q430.34116 343.09064 430.95053 343.4969Q431.5599 343.90314 431.85678 344.65314Q432.16928 345.40314 432.16928 346.29376Q432.16928 347.2469 431.82553 348.0125Q431.4974 348.77814 430.84116 349.1844Q430.1849 349.59064 429.46616 349.59064Q428.9349 349.59064 428.51303 349.3719Q428.09116 349.1375 427.82553 348.8094L427.82553 351.84064L426.77866 351.84064ZM427.73178 346.3719Q427.73178 347.575 428.21616 348.15314Q428.70053 348.71564 429.38803 348.71564Q430.09116 348.71564 430.59116 348.1219Q431.09116 347.52814 431.09116 346.27814Q431.09116 345.09064 430.60678 344.5125Q430.1224 343.91876 429.4349 343.91876Q428.76303 343.91876 428.2474 344.54376Q427.73178 345.16876 427.73178 346.3719Z" fill-rule="nonzero"/><path fill="#000000" d="M456.9526 345.2625Q456.9526 343.1219 458.09323 341.91876Q459.24948 340.7 461.06198 340.7Q462.2651 340.7 463.21823 341.27814Q464.17136 341.84064 464.67136 342.85626Q465.17136 343.8719 465.17136 345.16876Q465.17136 346.46564 464.6401 347.4969Q464.10886 348.52814 463.1401 349.0594Q462.18698 349.59064 461.06198 349.59064Q459.84323 349.59064 458.8901 349.0125Q457.93698 348.41876 457.43698 347.41876Q456.9526 346.40314 456.9526 345.2625ZM458.12448 345.27814Q458.12448 346.84064 458.9526 347.73126Q459.79636 348.6219 461.06198 348.6219Q462.34323 348.6219 463.17136 347.73126Q463.99948 346.825 463.99948 345.15314Q463.99948 344.10626 463.6401 343.325Q463.29636 342.54376 462.60886 342.1219Q461.92136 341.6844 461.0776 341.6844Q459.87448 341.6844 458.99948 342.5125Q458.12448 343.34064 458.12448 345.27814ZM466.17136 349.45L466.17136 340.85626L467.23386 340.85626L467.23386 345.7625L469.71823 343.23126L471.09323 343.23126L468.7026 345.52814L471.3276 349.45L470.03073 349.45L467.96823 346.2625L467.23386 346.98126L467.23386 349.45L466.17136 349.45ZM474.46823 348.5125L474.62448 349.4344Q474.17136 349.52814 473.8276 349.52814Q473.24948 349.52814 472.93698 349.35626Q472.62448 349.16876 472.48386 348.8719Q472.35886 348.575 472.35886 347.6219L472.35886 344.04376L471.59323 344.04376L471.59323 343.23126L472.35886 343.23126L472.35886 341.6844L473.40573 341.0594L473.40573 343.23126L474.46823 343.23126L474.46823 344.04376L473.40573 344.04376L473.40573 347.6844Q473.40573 348.1375 473.4526 348.2625Q473.5151 348.3875 473.6401 348.46564Q473.7651 348.54376 473.99948 348.54376Q474.18698 348.54376 474.46823 348.5125Z" fill-rule="nonzero"/><path fill="#000000" d="M499.1891 349.45L499.1891 340.85626L500.34534 340.85626L504.86096 347.60626L504.86096 340.85626L505.9547 340.85626L505.9547 349.45L504.78284 349.45L500.2672 342.7L500.2672 349.45L499.1891 349.45ZM507.67346 346.34064Q507.67346 344.60626 508.6266 343.77814Q509.42346 343.09064 510.5797 343.09064Q511.86096 343.09064 512.67346 343.9344Q513.5016 344.7625 513.5016 346.2469Q513.5016 347.45 513.1422 348.1375Q512.78284 348.825 512.0797 349.21564Q511.3922 349.59064 510.5797 349.59064Q509.28284 349.59064 508.47034 348.7625Q507.67346 347.91876 507.67346 346.34064ZM508.7516 346.34064Q508.7516 347.52814 509.2672 348.1219Q509.79846 348.71564 510.5797 348.71564Q511.3766 348.71564 511.8922 348.1219Q512.40784 347.52814 512.40784 346.3094Q512.40784 345.15314 511.8766 344.5594Q511.36096 343.96564 510.5797 343.96564Q509.79846 343.96564 509.2672 344.5594Q508.7516 345.1375 508.7516 346.34064ZM516.78284 349.45L514.42346 343.23126L515.53284 343.23126L516.8766 346.95Q517.0797 347.5594 517.2672 348.2Q517.40784 347.71564 517.65784 347.02814L519.04846 343.23126L520.1266 343.23126L517.7672 349.45L516.78284 349.45Z" fill-rule="nonzero"/><path fill="#000000" d="M542.5818 349.45L542.5818 340.85626L545.55054 340.85626Q546.55054 340.85626 547.0818 340.98126Q547.81616 341.15314 548.3318 341.59064Q549.0193 342.16876 549.3474 343.075Q549.69116 343.96564 549.69116 345.10626Q549.69116 346.09064 549.4568 346.84064Q549.23804 347.59064 548.87866 348.09064Q548.5193 348.59064 548.0818 348.8719Q547.6599 349.15314 547.06616 349.3094Q546.4724 349.45 545.69116 349.45L542.5818 349.45ZM543.7224 348.4344L545.55054 348.4344Q546.4099 348.4344 546.8943 348.27814Q547.37866 348.1219 547.6599 347.825Q548.06616 347.4344 548.2849 346.7469Q548.5193 346.0594 548.5193 345.09064Q548.5193 343.7469 548.06616 343.02814Q547.62866 342.29376 547.00366 342.04376Q546.5349 341.8719 545.5349 341.8719L543.7224 341.8719L543.7224 348.4344ZM555.7068 347.45L556.80054 347.575Q556.55054 348.52814 555.8474 349.0594Q555.1443 349.59064 554.06616 349.59064Q552.7068 349.59064 551.8943 348.7469Q551.0974 347.90314 551.0974 346.3875Q551.0974 344.825 551.9099 343.96564Q552.7224 343.09064 554.00366 343.09064Q555.25366 343.09064 556.0349 343.9344Q556.8318 344.77814 556.8318 346.325Q556.8318 346.41876 556.8318 346.60626L552.19116 346.60626Q552.25366 347.6375 552.7693 348.1844Q553.2849 348.71564 554.06616 348.71564Q554.6443 348.71564 555.05054 348.41876Q555.4724 348.10626 555.7068 347.45ZM552.25366 345.7469L555.7224 345.7469Q555.6599 344.95 555.3318 344.5594Q554.81616 343.95 554.0193 343.95Q553.2849 343.95 552.7849 344.4344Q552.30054 344.91876 552.25366 345.7469ZM557.8943 349.45L557.8943 348.59064L561.86304 344.04376Q561.17554 344.075 560.6599 344.075L558.12866 344.075L558.12866 343.23126L563.2224 343.23126L563.2224 343.91876L559.8474 347.8719L559.19116 348.59064Q559.9099 348.54376 560.5193 348.54376L563.4099 348.54376L563.4099 349.45L557.8943 349.45Z" fill-rule="nonzero"/><path fill="#4285f4" d="M187.5 20.55C187.5 19.997715 187.94771 19.55 188.5 19.55L198.5 19.55C199.05229 19.55 199.5 19.997715 199.5 20.55L199.5 30.55C199.5 31.102285 199.05229 31.55 198.5 31.55L188.5 31.55C187.94771 31.55 187.5 31.102285 187.5 30.55Z" fill-rule="nonzero"/><path fill="#1a1a1a" d="M213.54688 28.534374L213.54688 29.55L207.85938 29.55Q207.85938 29.175 207.98438 28.815624Q208.20312 28.2375 208.67188 27.675Q209.15625 27.1125 210.0625 26.378124Q211.46875 25.221874 211.95312 24.55Q212.45312 23.878124 212.45312 23.284374Q212.45312 22.659374 212.0 22.2375Q211.54688 21.8 210.82812 21.8Q210.0625 21.8 209.60938 22.253124Q209.15625 22.70625 209.14062 23.51875L208.0625 23.409374Q208.17188 22.190624 208.89062 21.565624Q209.625 20.925 210.85938 20.925Q212.09375 20.925 212.8125 21.6125Q213.53125 22.3 213.53125 23.315624Q213.53125 23.83125 213.3125 24.33125Q213.10938 24.815624 212.60938 25.378124Q212.125 25.925 211.0 26.878124Q210.04688 27.675 209.76562 27.971874Q209.5 28.253124 209.32812 28.534374L213.54688 28.534374ZM215.0 25.315624Q215.0 23.784374 215.3125 22.8625Q215.625 21.925 216.23438 21.425Q216.85938 20.925 217.79688 20.925Q218.48438 20.925 219.0 21.20625Q219.53125 21.4875 219.875 22.01875Q220.21875 22.534374 220.40625 23.284374Q220.59375 24.034374 220.59375 25.315624Q220.59375 26.83125 220.28125 27.753124Q219.98438 28.675 219.35938 29.190624Q218.75 29.690624 217.79688 29.690624Q216.5625 29.690624 215.84375 28.8Q215.0 27.7375 215.0 25.315624ZM216.07812 25.315624Q216.07812 27.425 216.57812 28.128124Q217.07812 28.83125 217.79688 28.83125Q218.53125 28.83125 219.01562 28.128124Q219.51562 27.425 219.51562 25.315624Q219.51562 23.190624 219.01562 22.503124Q218.53125 21.8 217.78125 21.8Q217.0625 21.8 216.625 22.409374Q216.07812 23.190624 216.07812 25.315624ZM227.54688 28.534374L227.54688 29.55L221.85938 29.55Q221.85938 29.175 221.98438 28.815624Q222.20312 28.2375 222.67188 27.675Q223.15625 27.1125 224.0625 26.378124Q225.46875 25.221874 225.95312 24.55Q226.45312 23.878124 226.45312 23.284374Q226.45312 22.659374 226.0 22.2375Q225.54688 21.8 224.82812 21.8Q224.0625 21.8 223.60938 22.253124Q223.15625 22.70625 223.14062 23.51875L222.0625 23.409374Q222.17188 22.190624 222.89062 21.565624Q223.625 20.925 224.85938 20.925Q226.09375 20.925 226.8125 21.6125Q227.53125 22.3 227.53125 23.315624Q227.53125 23.83125 227.3125 24.33125Q227.10938 24.815624 226.60938 25.378124Q226.125 25.925 225.0 26.878124Q224.04688 27.675 223.76562 27.971874Q223.5 28.253124 223.32812 28.534374L227.54688 28.534374ZM232.375 29.55L232.375 27.4875L228.65625 27.4875L228.65625 26.51875L232.57812 20.95625L233.4375 20.95625L233.4375 26.51875L234.59375 26.51875L234.59375 27.4875L233.4375 27.4875L233.4375 29.55L232.375 29.55ZM232.375 26.51875L232.375 22.659374L229.6875 26.51875L232.375 26.51875ZM243.54688 27.55L244.64062 27.675Q244.39062 28.628124 243.6875 29.159374Q242.98438 29.690624 241.90625 29.690624Q240.54688 29.690624 239.73438 28.846874Q238.9375 28.003124 238.9375 26.4875Q238.9375 24.925 239.75 24.065624Q240.5625 23.190624 241.84375 23.190624Q243.09375 23.190624 243.875 24.034374Q244.67188 24.878124 244.67188 26.425Q244.67188 26.51875 244.67188 26.70625L240.03125 26.70625Q240.09375 27.7375 240.60938 28.284374Q241.125 28.815624 241.90625 28.815624Q242.48438 28.815624 242.89062 28.51875Q243.3125 28.20625 243.54688 27.55ZM240.09375 25.846874L243.5625 25.846874Q243.5 25.05 243.17188 24.659374Q242.65625 24.05 241.85938 24.05Q241.125 24.05 240.625 24.534374Q240.14062 25.01875 240.09375 25.846874ZM246.28125 29.55L246.28125 23.33125L247.23438 23.33125L247.23438 24.26875Q247.59375 23.6125 247.89062 23.409374Q248.20312 23.190624 248.57812 23.190624Q249.10938 23.190624 249.65625 23.51875L249.29688 24.503124Q248.90625 24.26875 248.53125 24.26875Q248.17188 24.26875 247.89062 24.4875Q247.625 24.690624 247.51562 25.065624Q247.32812 25.628124 247.32812 26.284374L247.32812 29.55L246.28125 29.55ZM251.4375 29.55L249.53125 23.33125L250.625 23.33125L251.60938 26.925L251.98438 28.253124Q252.01562 28.159374 252.3125 26.971874L253.29688 23.33125L254.375 23.33125L255.3125 26.940624L255.625 28.128124L255.98438 26.925L257.04688 23.33125L258.07812 23.33125L256.125 29.55L255.03125 29.55L254.04688 25.815624L253.79688 24.76875L252.54688 29.55L251.4375 29.55ZM263.35938 28.784374Q262.76562 29.284374 262.21875 29.4875Q261.6875 29.690624 261.0625 29.690624Q260.03125 29.690624 259.48438 29.190624Q258.9375 28.690624 258.9375 27.909374Q258.9375 27.45625 259.14062 27.08125Q259.34375 26.690624 259.6875 26.471874Q260.03125 26.2375 260.45312 26.128124Q260.75 26.034374 261.39062 25.95625Q262.65625 25.815624 263.26562 25.596874Q263.26562 25.378124 263.26562 25.33125Q263.26562 24.675 262.96875 24.409374Q262.5625 24.065624 261.76562 24.065624Q261.03125 24.065624 260.67188 24.33125Q260.3125 24.58125 260.14062 25.2375L259.10938 25.096874Q259.25 24.440624 259.57812 24.034374Q259.90625 23.628124 260.51562 23.409374Q261.125 23.190624 261.92188 23.190624Q262.71875 23.190624 263.21875 23.378124Q263.71875 23.565624 263.95312 23.846874Q264.1875 24.128124 264.28125 24.565624Q264.32812 24.83125 264.32812 25.534374L264.32812 26.940624Q264.32812 28.409374 264.39062 28.8Q264.46875 29.190624 264.67188 29.55L263.5625 29.55Q263.40625 29.221874 263.35938 28.784374ZM263.26562 26.425Q262.6875 26.659374 261.54688 26.83125Q260.89062 26.925 260.625 27.05Q260.35938 27.159374 260.20312 27.378124Q260.0625 27.596874 260.0625 27.878124Q260.0625 28.3 260.375 28.58125Q260.70312 28.8625 261.3125 28.8625Q261.92188 28.8625 262.39062 28.596874Q262.875 28.33125 263.09375 27.8625Q263.26562 27.503124 263.26562 26.815624L263.26562 26.425ZM266.28125 29.55L266.28125 23.33125L267.23438 23.33125L267.23438 24.26875Q267.59375 23.6125 267.89062 23.409374Q268.20312 23.190624 268.57812 23.190624Q269.10938 23.190624 269.65625 23.51875L269.29688 24.503124Q268.90625 24.26875 268.53125 24.26875Q268.17188 24.26875 267.89062 24.4875Q267.625 24.690624 267.51562 25.065624Q267.32812 25.628124 267.32812 26.284374L267.32812 29.55L266.28125 29.55ZM272.59375 28.6125L272.75 29.534374Q272.29688 29.628124 271.95312 29.628124Q271.375 29.628124 271.0625 29.45625Q270.75 29.26875 270.60938 28.971874Q270.48438 28.675 270.48438 27.721874L270.48438 24.14375L269.71875 24.14375L269.71875 23.33125L270.48438 23.33125L270.48438 21.784374L271.53125 21.159374L271.53125 23.33125L272.59375 23.33125L272.59375 24.14375L271.53125 24.14375L271.53125 27.784374Q271.53125 28.2375 271.57812 28.3625Q271.64062 28.4875 271.76562 28.565624Q271.89062 28.64375 272.125 28.64375Q272.3125 28.64375 272.59375 28.6125ZM277.54688 27.55L278.64062 27.675Q278.39062 28.628124 277.6875 29.159374Q276.98438 29.690624 275.90625 29.690624Q274.54688 29.690624 273.73438 28.846874Q272.9375 28.003124 272.9375 26.4875Q272.9375 24.925 273.75 24.065624Q274.5625 23.190624 275.84375 23.190624Q277.09375 23.190624 277.875 24.034374Q278.67188 24.878124 278.67188 26.425Q278.67188 26.51875 278.67188 26.70625L274.03125 26.70625Q274.09375 27.7375 274.60938 28.284374Q275.125 28.815624 275.90625 28.815624Q276.48438 28.815624 276.89062 28.51875Q277.3125 28.20625 277.54688 27.55ZM274.09375 25.846874L277.5625 25.846874Q277.5 25.05 277.17188 24.659374Q276.65625 24.05 275.85938 24.05Q275.125 24.05 274.625 24.534374Q274.14062 25.01875 274.09375 25.846874ZM282.59375 28.6125L282.75 29.534374Q282.29688 29.628124 281.95312 29.628124Q281.375 29.628124 281.0625 29.45625Q280.75 29.26875 280.60938 28.971874Q280.48438 28.675 280.48438 27.721874L280.48438 24.14375L279.71875 24.14375L279.71875 23.33125L280.48438 23.33125L280.48438 21.784374L281.53125 21.159374L281.53125 23.33125L282.59375 23.33125L282.59375 24.14375L281.53125 24.14375L281.53125 27.784374Q281.53125 28.2375 281.57812 28.3625Q281.64062 28.4875 281.76562 28.565624Q281.89062 28.64375 282.125 28.64375Q282.3125 28.64375 282.59375 28.6125Z" fill-rule="nonzero"/><path fill="#ea4335" d="M298.5 20.55C298.5 19.997715 298.94772 19.55 299.5 19.55L309.5 19.55C310.05228 19.55 310.5 19.997715 310.5 20.55L310.5 30.55C310.5 31.102285 310.05228 31.55 309.5 31.55L299.5 31.55C298.94772 31.55 298.5 31.102285 298.5 30.55Z" fill-rule="nonzero"/><path fill="#1a1a1a" d="M321.60938 29.55L321.60938 21.971874L318.78125 21.971874L318.78125 20.95625L325.59375 20.95625L325.59375 21.971874L322.75 21.971874L322.75 29.55L321.60938 29.55ZM330.35938 28.784374Q329.76562 29.284374 329.21875 29.4875Q328.6875 29.690624 328.0625 29.690624Q327.03125 29.690624 326.48438 29.190624Q325.9375 28.690624 325.9375 27.909374Q325.9375 27.45625 326.14062 27.08125Q326.34375 26.690624 326.6875 26.471874Q327.03125 26.2375 327.45312 26.128124Q327.75 26.034374 328.39062 25.95625Q329.65625 25.815624 330.26562 25.596874Q330.26562 25.378124 330.26562 25.33125Q330.26562 24.675 329.96875 24.409374Q329.5625 24.065624 328.76562 24.065624Q328.03125 24.065624 327.67188 24.33125Q327.3125 24.58125 327.14062 25.2375L326.10938 25.096874Q326.25 24.440624 326.57812 24.034374Q326.90625 23.628124 327.51562 23.409374Q328.125 23.190624 328.92188 23.190624Q329.71875 23.190624 330.21875 23.378124Q330.71875 23.565624 330.95312 23.846874Q331.1875 24.128124 331.28125 24.565624Q331.32812 24.83125 331.32812 25.534374L331.32812 26.940624Q331.32812 28.409374 331.39062 28.8Q331.46875 29.190624 331.67188 29.55L330.5625 29.55Q330.40625 29.221874 330.35938 28.784374ZM330.26562 26.425Q329.6875 26.659374 328.54688 26.83125Q327.89062 26.925 327.625 27.05Q327.35938 27.159374 327.20312 27.378124Q327.0625 27.596874 327.0625 27.878124Q327.0625 28.3 327.375 28.58125Q327.70312 28.8625 328.3125 28.8625Q328.92188 28.8625 329.39062 28.596874Q329.875 28.33125 330.09375 27.8625Q330.26562 27.503124 330.26562 26.815624L330.26562 26.425ZM335.59375 28.6125L335.75 29.534374Q335.29688 29.628124 334.95312 29.628124Q334.375 29.628124 334.0625 29.45625Q333.75 29.26875 333.60938 28.971874Q333.48438 28.675 333.48438 27.721874L333.48438 24.14375L332.71875 24.14375L332.71875 23.33125L333.48438 23.33125L333.48438 21.784374L334.53125 21.159374L334.53125 23.33125L335.59375 23.33125L335.59375 24.14375L334.53125 24.14375L334.53125 27.784374Q334.53125 28.2375 334.57812 28.3625Q334.64062 28.4875 334.76562 28.565624Q334.89062 28.64375 335.125 28.64375Q335.3125 28.64375 335.59375 28.6125ZM335.875 27.690624L336.90625 27.534374Q337.0 28.159374 337.39062 28.4875Q337.79688 28.815624 338.53125 28.815624Q339.25 28.815624 339.59375 28.534374Q339.95312 28.2375 339.95312 27.83125Q339.95312 27.471874 339.64062 27.26875Q339.42188 27.128124 338.5625 26.909374Q337.40625 26.6125 336.95312 26.409374Q336.51562 26.190624 336.28125 25.815624Q336.04688 25.440624 336.04688 24.971874Q336.04688 24.565624 336.23438 24.20625Q336.42188 23.846874 336.75 23.6125Q337.0 23.440624 337.42188 23.315624Q337.84375 23.190624 338.34375 23.190624Q339.0625 23.190624 339.60938 23.409374Q340.17188 23.6125 340.4375 23.971874Q340.70312 24.33125 340.79688 24.925L339.76562 25.065624Q339.70312 24.596874 339.35938 24.33125Q339.03125 24.05 338.40625 24.05Q337.6875 24.05 337.375 24.3Q337.0625 24.534374 337.0625 24.8625Q337.0625 25.065624 337.1875 25.221874Q337.32812 25.39375 337.59375 25.503124Q337.75 25.565624 338.53125 25.76875Q339.65625 26.08125 340.09375 26.26875Q340.53125 26.45625 340.78125 26.815624Q341.03125 27.175 341.03125 27.721874Q341.03125 28.253124 340.71875 28.721874Q340.42188 29.175 339.84375 29.440624Q339.26562 29.690624 338.53125 29.690624Q337.3125 29.690624 336.67188 29.190624Q336.04688 28.675 335.875 27.690624ZM347.35938 28.784374Q346.76562 29.284374 346.21875 29.4875Q345.6875 29.690624 345.0625 29.690624Q344.03125 29.690624 343.48438 29.190624Q342.9375 28.690624 342.9375 27.909374Q342.9375 27.45625 343.14062 27.08125Q343.34375 26.690624 343.6875 26.471874Q344.03125 26.2375 344.45312 26.128124Q344.75 26.034374 345.39062 25.95625Q346.65625 25.815624 347.26562 25.596874Q347.26562 25.378124 347.26562 25.33125Q347.26562 24.675 346.96875 24.409374Q346.5625 24.065624 345.76562 24.065624Q345.03125 24.065624 344.67188 24.33125Q344.3125 24.58125 344.14062 25.2375L343.10938 25.096874Q343.25 24.440624 343.57812 24.034374Q343.90625 23.628124 344.51562 23.409374Q345.125 23.190624 345.92188 23.190624Q346.71875 23.190624 347.21875 23.378124Q347.71875 23.565624 347.95312 23.846874Q348.1875 24.128124 348.28125 24.565624Q348.32812 24.83125 348.32812 25.534374L348.32812 26.940624Q348.32812 28.409374 348.39062 28.8Q348.46875 29.190624 348.67188 29.55L347.5625 29.55Q347.40625 29.221874 347.35938 28.784374ZM347.26562 26.425Q346.6875 26.659374 345.54688 26.83125Q344.89062 26.925 344.625 27.05Q344.35938 27.159374 344.20312 27.378124Q344.0625 27.596874 344.0625 27.878124Q344.0625 28.3 344.375 28.58125Q344.70312 28.8625 345.3125 28.8625Q345.92188 28.8625 346.39062 28.596874Q346.875 28.33125 347.09375 27.8625Q347.26562 27.503124 347.26562 26.815624L347.26562 26.425ZM344.15625 22.1125L344.15625 20.909374L345.25 20.909374L345.25 22.1125L344.15625 22.1125ZM346.34375 22.1125L346.34375 20.909374L347.4375 20.909374L347.4375 22.1125L346.34375 22.1125ZM354.35938 27.26875L355.39062 27.409374Q355.21875 28.471874 354.51562 29.08125Q353.8125 29.690624 352.79688 29.690624Q351.51562 29.690624 350.73438 28.8625Q349.96875 28.01875 349.96875 26.45625Q349.96875 25.45625 350.29688 24.70625Q350.64062 23.940624 351.3125 23.565624Q352.0 23.190624 352.8125 23.190624Q353.8125 23.190624 354.45312 23.70625Q355.10938 24.20625 355.29688 25.159374L354.26562 25.315624Q354.125 24.690624 353.75 24.378124Q353.375 24.05 352.84375 24.05Q352.04688 24.05 351.54688 24.628124Q351.04688 25.190624 351.04688 26.425Q351.04688 27.690624 351.53125 28.253124Q352.01562 28.815624 352.78125 28.815624Q353.40625 28.815624 353.8125 28.440624Q354.23438 28.065624 354.35938 27.26875ZM356.29688 29.55L356.29688 20.95625L357.34375 20.95625L357.34375 24.034374Q358.07812 23.190624 359.20312 23.190624Q359.90625 23.190624 360.40625 23.471874Q360.92188 23.7375 361.14062 24.221874Q361.35938 24.690624 361.35938 25.6125L361.35938 29.55L360.3125 29.55L360.3125 25.6125Q360.3125 24.815624 359.96875 24.45625Q359.625 24.096874 359.0 24.096874Q358.53125 24.096874 358.10938 24.346874Q357.70312 24.58125 357.51562 25.003124Q357.34375 25.409374 357.34375 26.14375L357.34375 29.55L356.29688 29.55ZM363.26562 29.55L363.26562 20.95625L364.32812 20.95625L364.32812 29.55L363.26562 29.55ZM366.29688 22.175L366.29688 20.95625L367.35938 20.95625L367.35938 22.175L366.29688 22.175ZM366.29688 29.55L366.29688 23.33125L367.35938 23.33125L367.35938 29.55L366.29688 29.55ZM373.35938 27.26875L374.39062 27.409374Q374.21875 28.471874 373.51562 29.08125Q372.8125 29.690624 371.79688 29.690624Q370.51562 29.690624 369.73438 28.8625Q368.96875 28.01875 368.96875 26.45625Q368.96875 25.45625 369.29688 24.70625Q369.64062 23.940624 370.3125 23.565624Q371.0 23.190624 371.8125 23.190624Q372.8125 23.190624 373.45312 23.70625Q374.10938 24.20625 374.29688 25.159374L373.26562 25.315624Q373.125 24.690624 372.75 24.378124Q372.375 24.05 371.84375 24.05Q371.04688 24.05 370.54688 24.628124Q370.04688 25.190624 370.04688 26.425Q370.04688 27.690624 370.53125 28.253124Q371.01562 28.815624 371.78125 28.815624Q372.40625 28.815624 372.8125 28.440624Q373.23438 28.065624 373.35938 27.26875ZM375.29688 29.55L375.29688 20.95625L376.34375 20.95625L376.34375 24.034374Q377.07812 23.190624 378.20312 23.190624Q378.90625 23.190624 379.40625 23.471874Q379.92188 23.7375 380.14062 24.221874Q380.35938 24.690624 380.35938 25.6125L380.35938 29.55L379.3125 29.55L379.3125 25.6125Q379.3125 24.815624 378.96875 24.45625Q378.625 24.096874 378.0 24.096874Q377.53125 24.096874 377.10938 24.346874Q376.70312 24.58125 376.51562 25.003124Q376.34375 25.409374 376.34375 26.14375L376.34375 29.55L375.29688 29.55ZM390.54688 28.534374L390.54688 29.55L384.85938 29.55Q384.85938 29.175 384.98438 28.815624Q385.20312 28.2375 385.67188 27.675Q386.15625 27.1125 387.0625 26.378124Q388.46875 25.221874 388.95312 24.55Q389.45312 23.878124 389.45312 23.284374Q389.45312 22.659374 389.0 22.2375Q388.54688 21.8 387.82812 21.8Q387.0625 21.8 386.60938 22.253124Q386.15625 22.70625 386.14062 23.51875L385.0625 23.409374Q385.17188 22.190624 385.89062 21.565624Q386.625 20.925 387.85938 20.925Q389.09375 20.925 389.8125 21.6125Q390.53125 22.3 390.53125 23.315624Q390.53125 23.83125 390.3125 24.33125Q390.10938 24.815624 389.60938 25.378124Q389.125 25.925 388.0 26.878124Q387.04688 27.675 386.76562 27.971874Q386.5 28.253124 386.32812 28.534374L390.54688 28.534374ZM392.0 25.315624Q392.0 23.784374 392.3125 22.8625Q392.625 21.925 393.23438 21.425Q393.85938 20.925 394.79688 20.925Q395.48438 20.925 396.0 21.20625Q396.53125 21.4875 396.875 22.01875Q397.21875 22.534374 397.40625 23.284374Q397.59375 24.034374 397.59375 25.315624Q397.59375 26.83125 397.28125 27.753124Q396.98438 28.675 396.35938 29.190624Q395.75 29.690624 394.79688 29.690624Q393.5625 29.690624 392.84375 28.8Q392.0 27.7375 392.0 25.315624ZM393.07812 25.315624Q393.07812 27.425 393.57812 28.128124Q394.07812 28.83125 394.79688 28.83125Q395.53125 28.83125 396.01562 28.128124Q396.51562 27.425 396.51562 25.315624Q396.51562 23.190624 396.01562 22.503124Q395.53125 21.8 394.78125 21.8Q394.0625 21.8 393.625 22.409374Q393.07812 23.190624 393.07812 25.315624ZM404.54688 28.534374L404.54688 29.55L398.85938 29.55Q398.85938 29.175 398.98438 28.815624Q399.20312 28.2375 399.67188 27.675Q400.15625 27.1125 401.0625 26.378124Q402.46875 25.221874 402.95312 24.55Q403.45312 23.878124 403.45312 23.284374Q403.45312 22.659374 403.0 22.2375Q402.54688 21.8 401.82812 21.8Q401.0625 21.8 400.60938 22.253124Q400.15625 22.70625 400.14062 23.51875L399.0625 23.409374Q399.17188 22.190624 399.89062 21.565624Q400.625 20.925 401.85938 20.925Q403.09375 20.925 403.8125 21.6125Q404.53125 22.3 404.53125 23.315624Q404.53125 23.83125 404.3125 24.33125Q404.10938 24.815624 403.60938 25.378124Q403.125 25.925 402.0 26.878124Q401.04688 27.675 400.76562 27.971874Q400.5 28.253124 400.32812 28.534374L404.54688 28.534374ZM409.375 29.55L409.375 27.4875L405.65625 27.4875L405.65625 26.51875L409.57812 20.95625L410.4375 20.95625L410.4375 26.51875L411.59375 26.51875L411.59375 27.4875L410.4375 27.4875L410.4375 29.55L409.375 29.55ZM409.375 26.51875L409.375 22.659374L406.6875 26.51875L409.375 26.51875Z" fill-rule="nonzero"/></svg>