<svg version="1.1" viewBox="0.0 0.0 600.0 371.0" fill="none" stroke="none" stroke-linecap="square" stroke-miterlimit="10" width="600" height="371" xmlns:xlink="http://www.w3.org/1999/xlink" xmlns="http://www.w3.org/2000/svg"><path fill="#ffffff" fill-opacity="0.0" d="M0 0L600.0 0L600.0 371.0L0 371.0L0 0Z" fill-rule="nonzero"/><path stroke="#333333" stroke-width="1.0" stroke-linecap="butt" d="M45.5 332.5L581.5 332.5" fill-rule="nonzero"/><path stroke="#cccccc" stroke-width="1.0" stroke-linecap="butt" d="M45.5 276.5L581.5 276.5" fill-rule="nonzero"/><path stroke="#cccccc" stroke-width="1.0" stroke-linecap="butt" d="M45.5 220.5L581.5 220.5" fill-rule="nonzero"/><path stroke="#cccccc" stroke-width="1.0" stroke-linecap="butt" d="M45.5 164.5L581.5 164.5" fill-rule="nonzero"/><path stroke="#cccccc" stroke-width="1.0" stroke-linecap="butt" d="M45.5 108.5L581.5 108.5" fill-rule="nonzero"/><path stroke="#cccccc" stroke-width="1.0" stroke-linecap="butt" d="M45.5 51.5L581.5 51.5" fill-rule="nonzero"/><clipPath id="id_0"><path d="M45.55 51.916668L581.45 51.916668L581.45 332.45L45.55 332.45L45.55 51.916668Z" clip-rule="nonzero"/></clipPath><path stroke="#000000" stroke-width="2.0" stroke-linecap="butt" stroke-opacity="0.0" clip-path="url(#id_0)" d="M74.0 332.0L62.0 332.0L62.0 329.0C62.0 327.89542 62.89543 327.0 64.0 327.0L72.0 327.0C73.10457 327.0 74.0 327.89542 74.0 329.0Z" fill-rule="nonzero"/><path fill="#4285f4" clip-path="url(#id_0)" d="M74.0 332.0L62.0 332.0L62.0 329.0C62.0 327.89542 62.89543 327.0 64.0 327.0L72.0 327.0C73.10457 327.0 74.0 327.89542 74.0 329.0Z" fill-rule="nonzero"/><path stroke="#000000" stroke-width="2.0" stroke-linecap="butt" stroke-opacity="0.0" clip-path="url(#id_0)" d="M117.0 332.0L105.0 332.0L105.0 323.0C105.0 321.89542 105.89543 321.0 107.0 321.0L115.0 321.0C116.10457 321.0 117.0 321.89542 117.0 323.0Z" fill-rule="nonzero"/><path fill="#4285f4" clip-path="url(#id_0)" d="M117.0 332.0L105.0 332.0L105.0 323.0C105.0 321.89542 105.89543 321.0 107.0 321.0L115.0 321.0C116.10457 321.0 117.0 321.89542 117.0 323.0Z" fill-rule="nonzero"/><path stroke="#000000" stroke-width="2.0" stroke-linecap="butt" stroke-opacity="0.0" clip-path="url(#id_0)" d="M161.0 332.0L149.0 332.0L149.0 284.0C149.0 282.89542 149.89543 282.0 151.0 282.0L159.0 282.0C160.10457 282.0 161.0 282.89542 161.0 284.0Z" fill-rule="nonzero"/><path fill="#4285f4" clip-path="url(#id_0)" d="M161.0 332.0L149.0 332.0L149.0 284.0C149.0 282.89542 149.89543 282.0 151.0 282.0L159.0 282.0C160.10457 282.0 161.0 282.89542 161.0 284.0Z" fill-rule="nonzero"/><path stroke="#000000" stroke-width="2.0" stroke-linecap="butt" stroke-opacity="0.0" clip-path="url(#id_0)" d="M204.0 332.0L192.0 332.0L192.0 222.0C192.0 220.89543 192.89543 220.0 194.0 220.0L202.0 220.0C203.10457 220.0 204.0 220.89543 204.0 222.0Z" fill-rule="nonzero"/><path fill="#4285f4" clip-path="url(#id_0)" d="M204.0 332.0L192.0 332.0L192.0 222.0C192.0 220.89543 192.89543 220.0 194.0 220.0L202.0 220.0C203.10457 220.0 204.0 220.89543 204.0 222.0Z" fill-rule="nonzero"/><path stroke="#000000" stroke-width="2.0" stroke-linecap="butt" stroke-opacity="0.0" clip-path="url(#id_0)" d="M247.0 332.0L235.0 332.0L235.0 132.0C235.0 130.89543 235.89543 130.0 237.0 130.0L245.0 130.0C246.10457 130.0 247.0 130.89543 247.0 132.0Z" fill-rule="nonzero"/><path fill="#4285f4" clip-path="url(#id_0)" d="M247.0 332.0L235.0 332.0L235.0 132.0C235.0 130.89543 235.89543 130.0 237.0 130.0L245.0 130.0C246.10457 130.0 247.0 130.89543 247.0 132.0Z" fill-rule="nonzero"/><path stroke="#000000" stroke-width="2.0" stroke-linecap="butt" stroke-opacity="0.0" clip-path="url(#id_0)" d="M291.0 332.0L279.0 332.0L279.0 60.0C279.0 58.89543 279.89542 58.0 281.0 58.0L289.0 58.0C290.10458 58.0 291.0 58.89543 291.0 60.0Z" fill-rule="nonzero"/><path fill="#4285f4" clip-path="url(#id_0)" d="M291.0 332.0L279.0 332.0L279.0 60.0C279.0 58.89543 279.89542 58.0 281.0 58.0L289.0 58.0C290.10458 58.0 291.0 58.89543 291.0 60.0Z" fill-rule="nonzero"/><path stroke="#000000" stroke-width="2.0" stroke-linecap="butt" stroke-opacity="0.0" clip-path="url(#id_0)" d="M334.0 332.0L322.0 332.0L322.0 71.0C322.0 69.89543 322.89542 69.0 324.0 69.0L332.0 69.0C333.10458 69.0 334.0 69.89543 334.0 71.0Z" fill-rule="nonzero"/><path fill="#4285f4" clip-path="url(#id_0)" d="M334.0 332.0L322.0 332.0L322.0 71.0C322.0 69.89543 322.89542 69.0 324.0 69.0L332.0 69.0C333.10458 69.0 334.0 69.89543 334.0 71.0Z" fill-rule="nonzero"/><path stroke="#000000" stroke-width="2.0" stroke-linecap="butt" stroke-opacity="0.0" clip-path="url(#id_0)" d="M378.0 332.0L366.0 332.0L366.0 93.0C366.0 91.89543 366.89542 91.0 368.0 91.0L376.0 91.0C377.10458 91.0 378.0 91.89543 378.0 93.0Z" fill-rule="nonzero"/><path fill="#4285f4" clip-path="url(#id_0)" d="M378.0 332.0L366.0 332.0L366.0 93.0C366.0 91.89543 366.89542 91.0 368.0 91.0L376.0 91.0C377.10458 91.0 378.0 91.89543 378.0 93.0Z" fill-rule="nonzero"/><path stroke="#000000" stroke-width="2.0" stroke-linecap="butt" stroke-opacity="0.0" clip-path="url(#id_0)" d="M421.0 332.0L409.0 332.0L409.0 189.0C409.0 187.89543 409.89542 187.0 411.0 187.0L419.0 187.0C420.10458 187.0 421.0 187.89543 421.0 189.0Z" fill-rule="nonzero"/><path fill="#4285f4" clip-path="url(#id_0)" d="M421.0 332.0L409.0 332.0L409.0 189.0C409.0 187.89543 409.89542 187.0 411.0 187.0L419.0 187.0C420.10458 187.0 421.0 187.89543 421.0 189.0Z" fill-rule="nonzero"/><path stroke="#000000" stroke-width="2.0" stroke-linecap="butt" stroke-opacity="0.0" clip-path="url(#id_0)" d="M464.0 332.0L452.0 332.0L452.0 256.0C452.0 254.89543 452.89542 254.0 454.0 254.0L462.0 254.0C463.10458 254.0 464.0 254.89543 464.0 256.0Z" fill-rule="nonzero"/><path fill="#4285f4" clip-path="url(#id_0)" d="M464.0 332.0L452.0 332.0L452.0 256.0C452.0 254.89543 452.89542 254.0 454.0 254.0L462.0 254.0C463.10458 254.0 464.0 254.89543 464.0 256.0Z" fill-rule="nonzero"/><path stroke="#000000" stroke-width="2.0" stroke-linecap="butt" stroke-opacity="0.0" clip-path="url(#id_0)" d="M508.0 332.0L496.0 332.0L496.0 267.0C496.0 265.89542 496.89542 265.0 498.0 265.0L506.0 265.0C507.10458 265.0 508.0 265.89542 508.0 267.0Z" fill-rule="nonzero"/><path fill="#4285f4" clip-path="url(#id_0)" d="M508.0 332.0L496.0 332.0L496.0 267.0C496.0 265.89542 496.89542 265.0 498.0 265.0L506.0 265.0C507.10458 265.0 508.0 265.89542 508.0 267.0Z" fill-rule="nonzero"/><path stroke="#000000" stroke-width="2.0" stroke-linecap="butt" stroke-opacity="0.0" clip-path="url(#id_0)" d="M551.0 332.0L539.0 332.0L539.0 306.0C539.0 304.89542 539.89545 304.0 541.0 304.0L549.0 304.0C550.10455 304.0 551.0 304.89542 551.0 306.0Z" fill-rule="nonzero"/><path fill="#4285f4" clip-path="url(#id_0)" d="M551.0 332.0L539.0 332.0L539.0 306.0C539.0 304.89542 539.89545 304.0 541.0 304.0L549.0 304.0C550.10455 304.0 551.0 304.89542 551.0 306.0Z" fill-rule="nonzero"/><path stroke="#000000" stroke-width="2.0" stroke-linecap="butt" stroke-opacity="0.0" clip-path="url(#id_0)" d="M88.0 332.0L76.0 332.0L76.0 332.0L88.0 332.0Z" fill-rule="nonzero"/><path fill="#ea4335" clip-path="url(#id_0)" d="M88.0 332.0L76.0 332.0L76.0 332.0L88.0 332.0Z" fill-rule="nonzero"/><path stroke="#000000" stroke-width="2.0" stroke-linecap="butt" stroke-opacity="0.0" clip-path="url(#id_0)" d="M131.0 332.0L119.0 332.0L119.0 332.0L131.0 332.0Z" fill-rule="nonzero"/><path fill="#ea4335" clip-path="url(#id_0)" d="M131.0 332.0L119.0 332.0L119.0 332.0L131.0 332.0Z" fill-rule="nonzero"/><path stroke="#000000" stroke-width="2.0" stroke-linecap="butt" stroke-opacity="0.0" clip-path="url(#id_0)" d="M175.0 332.0L163.0 332.0L163.0 301.0C163.0 299.89542 163.89543 299.0 165.0 299.0L173.0 299.0C174.10457 299.0 175.0 299.89542 175.0 301.0Z" fill-rule="nonzero"/><path fill="#ea4335" clip-path="url(#id_0)" d="M175.0 332.0L163.0 332.0L163.0 301.0C163.0 299.89542 163.89543 299.0 165.0 299.0L173.0 299.0C174.10457 299.0 175.0 299.89542 175.0 301.0Z" fill-rule="nonzero"/><path stroke="#000000" stroke-width="2.0" stroke-linecap="butt" stroke-opacity="0.0" clip-path="url(#id_0)" d="M218.0 332.0L206.0 332.0L206.0 273.0C206.0 271.89542 206.89543 271.0 208.0 271.0L216.0 271.0C217.10457 271.0 218.0 271.89542 218.0 273.0Z" fill-rule="nonzero"/><path fill="#ea4335" clip-path="url(#id_0)" d="M218.0 332.0L206.0 332.0L206.0 273.0C206.0 271.89542 206.89543 271.0 208.0 271.0L216.0 271.0C217.10457 271.0 218.0 271.89542 218.0 273.0Z" fill-rule="nonzero"/><path stroke="#000000" stroke-width="2.0" stroke-linecap="butt" stroke-opacity="0.0" clip-path="url(#id_0)" d="M261.0 332.0L249.0 332.0L249.0 194.0C249.0 192.89543 249.89543 192.0 251.0 192.0L259.0 192.0C260.10458 192.0 261.0 192.89543 261.0 194.0Z" fill-rule="nonzero"/><path fill="#ea4335" clip-path="url(#id_0)" d="M261.0 332.0L249.0 332.0L249.0 194.0C249.0 192.89543 249.89543 192.0 251.0 192.0L259.0 192.0C260.10458 192.0 261.0 192.89543 261.0 194.0Z" fill-rule="nonzero"/><path stroke="#000000" stroke-width="2.0" stroke-linecap="butt" stroke-opacity="0.0" clip-path="url(#id_0)" d="M305.0 332.0L293.0 332.0L293.0 166.0C293.0 164.89543 293.89542 164.0 295.0 164.0L303.0 164.0C304.10458 164.0 305.0 164.89543 305.0 166.0Z" fill-rule="nonzero"/><path fill="#ea4335" clip-path="url(#id_0)" d="M305.0 332.0L293.0 332.0L293.0 166.0C293.0 164.89543 293.89542 164.0 295.0 164.0L303.0 164.0C304.10458 164.0 305.0 164.89543 305.0 166.0Z" fill-rule="nonzero"/><path stroke="#000000" stroke-width="2.0" stroke-linecap="butt" stroke-opacity="0.0" clip-path="url(#id_0)" d="M348.0 332.0L336.0 332.0L336.0 239.0C336.0 237.89543 336.89542 237.0 338.0 237.0L346.0 237.0C347.10458 237.0 348.0 237.89543 348.0 239.0Z" fill-rule="nonzero"/><path fill="#ea4335" clip-path="url(#id_0)" d="M348.0 332.0L336.0 332.0L336.0 239.0C336.0 237.89543 336.89542 237.0 338.0 237.0L346.0 237.0C347.10458 237.0 348.0 237.89543 348.0 239.0Z" fill-rule="nonzero"/><path stroke="#000000" stroke-width="2.0" stroke-linecap="butt" stroke-opacity="0.0" clip-path="url(#id_0)" d="M392.0 332.0L380.0 332.0L380.0 245.0C380.0 243.89543 380.89542 243.0 382.0 243.0L390.0 243.0C391.10458 243.0 392.0 243.89543 392.0 245.0Z" fill-rule="nonzero"/><path fill="#ea4335" clip-path="url(#id_0)" d="M392.0 332.0L380.0 332.0L380.0 245.0C380.0 243.89543 380.89542 243.0 382.0 243.0L390.0 243.0C391.10458 243.0 392.0 243.89543 392.0 245.0Z" fill-rule="nonzero"/><path stroke="#000000" stroke-width="2.0" stroke-linecap="butt" stroke-opacity="0.0" clip-path="url(#id_0)" d="M435.0 332.0L423.0 332.0L423.0 217.0C423.0 215.89543 423.89542 215.0 425.0 215.0L433.0 215.0C434.10458 215.0 435.0 215.89543 435.0 217.0Z" fill-rule="nonzero"/><path fill="#ea4335" clip-path="url(#id_0)" d="M435.0 332.0L423.0 332.0L423.0 217.0C423.0 215.89543 423.89542 215.0 425.0 215.0L433.0 215.0C434.10458 215.0 435.0 215.89543 435.0 217.0Z" fill-rule="nonzero"/><path stroke="#000000" stroke-width="2.0" stroke-linecap="butt" stroke-opacity="0.0" clip-path="url(#id_0)" d="M478.0 332.0L466.0 332.0L466.0 256.0C466.0 254.89543 466.89542 254.0 468.0 254.0L476.0 254.0C477.10458 254.0 478.0 254.89543 478.0 256.0Z" fill-rule="nonzero"/><path fill="#ea4335" clip-path="url(#id_0)" d="M478.0 332.0L466.0 332.0L466.0 256.0C466.0 254.89543 466.89542 254.0 468.0 254.0L476.0 254.0C477.10458 254.0 478.0 254.89543 478.0 256.0Z" fill-rule="nonzero"/><path stroke="#000000" stroke-width="2.0" stroke-linecap="butt" stroke-opacity="0.0" clip-path="url(#id_0)" d="M522.0 332.0L510.0 332.0L510.0 290.0C510.0 288.89542 510.89542 288.0 512.0 288.0L520.0 288.0C521.10455 288.0 522.0 288.89542 522.0 290.0Z" fill-rule="nonzero"/><path fill="#ea4335" clip-path="url(#id_0)" d="M522.0 332.0L510.0 332.0L510.0 290.0C510.0 288.89542 510.89542 288.0 512.0 288.0L520.0 288.0C521.10455 288.0 522.0 288.89542 522.0 290.0Z" fill-rule="nonzero"/><path stroke="#000000" stroke-width="2.0" stroke-linecap="butt" stroke-opacity="0.0" clip-path="url(#id_0)" d="M565.0 332.0L553.0 332.0L553.0 318.0C553.0 316.89542 553.89545 316.0 555.0 316.0L563.0 316.0C564.10455 316.0 565.0 316.89542 565.0 318.0Z" fill-rule="nonzero"/><path fill="#ea4335" clip-path="url(#id_0)" d="M565.0 332.0L553.0 332.0L553.0 318.0C553.0 316.89542 553.89545 316.0 555.0 316.0L563.0 316.0C564.10455 316.0 565.0 316.89542 565.0 318.0Z" fill-rule="nonzero"/><path fill="#000000" d="M33.05 332.21564Q33.05 330.6844 33.3625 329.7625Q33.675 328.825 34.284374 328.325Q34.909374 327.825 35.846874 327.825Q36.534374 327.825 37.05 328.10626Q37.58125 328.3875 37.925 328.91876Q38.26875 329.4344 38.45625 330.1844Q38.64375 330.9344 38.64375 332.21564Q38.64375 333.73126 38.33125 334.65314Q38.034374 335.575 37.409374 336.09064Q36.8 336.59064 35.846874 336.59064Q34.6125 336.59064 33.89375 335.7Q33.05 334.6375 33.05 332.21564ZM34.128124 332.21564Q34.128124 334.325 34.628124 335.02814Q35.128124 335.73126 35.846874 335.73126Q36.58125 335.73126 37.065624 335.02814Q37.565624 334.325 37.565624 332.21564Q37.565624 330.09064 37.065624 329.40314Q36.58125 328.7 35.83125 328.7Q35.1125 328.7 34.675 329.3094Q34.128124 330.09064 34.128124 332.21564Z" fill-rule="nonzero"/><path fill="#000000" d="M30.01875 280.34332L28.971874 280.34332L28.971874 273.62457Q28.58125 273.98395 27.95625 274.35895Q27.346874 274.71832 26.8625 274.8902L26.8625 273.87457Q27.7375 273.4527 28.39375 272.87457Q29.065624 272.28082 29.346874 271.71832L30.01875 271.71832L30.01875 280.34332ZM33.05 276.10895Q33.05 274.5777 33.3625 273.65582Q33.675 272.71832 34.284374 272.21832Q34.909374 271.71832 35.846874 271.71832Q36.534374 271.71832 37.05 271.99957Q37.58125 272.28082 37.925 272.81207Q38.26875 273.3277 38.45625 274.0777Q38.64375 274.8277 38.64375 276.10895Q38.64375 277.62457 38.33125 278.54645Q38.034374 279.46832 37.409374 279.98395Q36.8 280.48395 35.846874 280.48395Q34.6125 280.48395 33.89375 279.59332Q33.05 278.53082 33.05 276.10895ZM34.128124 276.10895Q34.128124 278.21832 34.628124 278.92145Q35.128124 279.62457 35.846874 279.62457Q36.58125 279.62457 37.065624 278.92145Q37.565624 278.21832 37.565624 276.10895Q37.565624 273.98395 37.065624 273.29645Q36.58125 272.59332 35.83125 272.59332Q35.1125 272.59332 34.675 273.2027Q34.128124 273.98395 34.128124 276.10895Z" fill-rule="nonzero"/><path fill="#000000" d="M31.596874 223.22104L31.596874 224.23666L25.909374 224.23666Q25.909374 223.86166 26.034374 223.50229Q26.253124 222.92416 26.721874 222.36166Q27.20625 221.79916 28.1125 221.06479Q29.51875 219.90854 30.003124 219.23666Q30.503124 218.56479 30.503124 217.97104Q30.503124 217.34604 30.05 216.92416Q29.596874 216.48666 28.878124 216.48666Q28.1125 216.48666 27.659374 216.93979Q27.20625 217.39291 27.190624 218.20541L26.1125 218.09604Q26.221874 216.87729 26.940624 216.25229Q27.675 215.61166 28.909374 215.61166Q30.14375 215.61166 30.8625 216.29916Q31.58125 216.98666 31.58125 218.00229Q31.58125 218.51791 31.3625 219.01791Q31.159374 219.50229 30.659374 220.06479Q30.175 220.61166 29.05 221.56479Q28.096874 222.36166 27.815624 222.65854Q27.55 222.93979 27.378124 223.22104L31.596874 223.22104ZM33.05 220.00229Q33.05 218.47104 33.3625 217.54916Q33.675 216.61166 34.284374 216.11166Q34.909374 215.61166 35.846874 215.61166Q36.534374 215.61166 37.05 215.89291Q37.58125 216.17416 37.925 216.70541Q38.26875 217.22104 38.45625 217.97104Q38.64375 218.72104 38.64375 220.00229Q38.64375 221.51791 38.33125 222.43979Q38.034374 223.36166 37.409374 223.87729Q36.8 224.37729 35.846874 224.37729Q34.6125 224.37729 33.89375 223.48666Q33.05 222.42416 33.05 220.00229ZM34.128124 220.00229Q34.128124 222.11166 34.628124 222.81479Q35.128124 223.51791 35.846874 223.51791Q36.58125 223.51791 37.065624 222.81479Q37.565624 222.11166 37.565624 220.00229Q37.565624 217.87729 37.065624 217.18979Q36.58125 216.48666 35.83125 216.48666Q35.1125 216.48666 34.675 217.09604Q34.128124 217.87729 34.128124 220.00229Z" fill-rule="nonzero"/><path fill="#000000" d="M26.05 165.86438L27.1125 165.72375Q27.284374 166.61438 27.721874 167.02063Q28.159374 167.41125 28.784374 167.41125Q29.534374 167.41125 30.05 166.89563Q30.565624 166.38 30.565624 165.61438Q30.565624 164.89563 30.08125 164.42688Q29.6125 163.9425 28.878124 163.9425Q28.58125 163.9425 28.128124 164.0675L28.253124 163.13Q28.3625 163.14563 28.425 163.14563Q29.096874 163.14563 29.628124 162.80188Q30.175 162.4425 30.175 161.70813Q30.175 161.13 29.784374 160.755Q29.39375 160.36438 28.76875 160.36438Q28.159374 160.36438 27.7375 160.755Q27.33125 161.14563 27.221874 161.91125L26.159374 161.72375Q26.346874 160.67688 27.034374 160.09875Q27.721874 159.505 28.7375 159.505Q29.440624 159.505 30.034374 159.8175Q30.628124 160.11438 30.940624 160.63Q31.253124 161.14563 31.253124 161.73938Q31.253124 162.28625 30.95625 162.755Q30.659374 163.20813 30.08125 163.47375Q30.83125 163.64563 31.253124 164.20813Q31.675 164.755 31.675 165.59875Q31.675 166.72375 30.846874 167.505Q30.034374 168.28625 28.784374 168.28625Q27.659374 168.28625 26.909374 167.61438Q26.159374 166.92688 26.05 165.86438ZM33.05 163.89563Q33.05 162.36438 33.3625 161.4425Q33.675 160.505 34.284374 160.005Q34.909374 159.505 35.846874 159.505Q36.534374 159.505 37.05 159.78625Q37.58125 160.0675 37.925 160.59875Q38.26875 161.11438 38.45625 161.86438Q38.64375 162.61438 38.64375 163.89563Q38.64375 165.41125 38.33125 166.33313Q38.034374 167.255 37.409374 167.77063Q36.8 168.27063 35.846874 168.27063Q34.6125 168.27063 33.89375 167.38Q33.05 166.3175 33.05 163.89563ZM34.128124 163.89563Q34.128124 166.005 34.628124 166.70813Q35.128124 167.41125 35.846874 167.41125Q36.58125 167.41125 37.065624 166.70813Q37.565624 166.005 37.565624 163.89563Q37.565624 161.77063 37.065624 161.08313Q36.58125 160.38 35.83125 160.38Q35.1125 160.38 34.675 160.98938Q34.128124 161.77063 34.128124 163.89563Z" fill-rule="nonzero"/><path fill="#000000" d="M29.425 112.02333L29.425 109.96083L25.70625 109.96083L25.70625 108.99208L29.628124 103.42958L30.4875 103.42958L30.4875 108.99208L31.64375 108.99208L31.64375 109.96083L30.4875 109.96083L30.4875 112.02333L29.425 112.02333ZM29.425 108.99208L29.425 105.132706L26.7375 108.99208L29.425 108.99208ZM33.05 107.788956Q33.05 106.257706 33.3625 105.33583Q33.675 104.39833 34.284374 103.89833Q34.909374 103.39833 35.846874 103.39833Q36.534374 103.39833 37.05 103.67958Q37.58125 103.96083 37.925 104.49208Q38.26875 105.007706 38.45625 105.757706Q38.64375 106.507706 38.64375 107.788956Q38.64375 109.30458 38.33125 110.226456Q38.034374 111.14833 37.409374 111.663956Q36.8 112.163956 35.846874 112.163956Q34.6125 112.163956 33.89375 111.27333Q33.05 110.21083 33.05 107.788956ZM34.128124 107.788956Q34.128124 109.89833 34.628124 110.601456Q35.128124 111.30458 35.846874 111.30458Q36.58125 111.30458 37.065624 110.601456Q37.565624 109.89833 37.565624 107.788956Q37.565624 105.663956 37.065624 104.976456Q36.58125 104.27333 35.83125 104.27333Q35.1125 104.27333 34.675 104.882706Q34.128124 105.663956 34.128124 107.788956Z" fill-rule="nonzero"/><path fill="#000000" d="M26.05 53.666668L27.159374 53.572918Q27.284374 54.385418 27.721874 54.791668Q28.175 55.197918 28.815624 55.197918Q29.565624 55.197918 30.096874 54.619793Q30.628124 54.041668 30.628124 53.104168Q30.628124 52.197918 30.1125 51.682293Q29.6125 51.151043 28.784374 51.151043Q28.284374 51.151043 27.8625 51.385418Q27.45625 51.619793 27.221874 51.979168L26.2375 51.854168L27.065624 47.447918L31.346874 47.447918L31.346874 48.447918L27.909374 48.447918L27.45625 50.760418Q28.221874 50.213543 29.065624 50.213543Q30.190624 50.213543 30.95625 50.994793Q31.7375 51.776043 31.7375 53.010418Q31.7375 54.166668 31.065624 55.026043Q30.2375 56.057293 28.815624 56.057293Q27.64375 56.057293 26.89375 55.401043Q26.159374 54.744793 26.05 53.666668ZM33.05 51.682293Q33.05 50.151043 33.3625 49.229168Q33.675 48.291668 34.284374 47.791668Q34.909374 47.291668 35.846874 47.291668Q36.534374 47.291668 37.05 47.572918Q37.58125 47.854168 37.925 48.385418Q38.26875 48.901043 38.45625 49.651043Q38.64375 50.401043 38.64375 51.682293Q38.64375 53.197918 38.33125 54.119793Q38.034374 55.041668 37.409374 55.557293Q36.8 56.057293 35.846874 56.057293Q34.6125 56.057293 33.89375 55.166668Q33.05 54.104168 33.05 51.682293ZM34.128124 51.682293Q34.128124 53.791668 34.628124 54.494793Q35.128124 55.197918 35.846874 55.197918Q36.58125 55.197918 37.065624 54.494793Q37.565624 53.791668 37.565624 51.682293Q37.565624 49.557293 37.065624 48.869793Q36.58125 48.166668 35.83125 48.166668Q35.1125 48.166668 34.675 48.776043Q34.128124 49.557293 34.128124 51.682293Z" fill-rule="nonzero"/><path fill="#000000" d="M65.18383 347.0125L66.21508 346.8719Q66.24633 347.85626 66.574455 348.21564Q66.90258 348.575 67.49633 348.575Q67.918205 348.575 68.230705 348.3875Q68.543205 348.1844 68.65258 347.85626Q68.77758 347.5125 68.77758 346.77814L68.77758 340.85626L69.90258 340.85626L69.90258 346.71564Q69.90258 347.79376 69.636955 348.3875Q69.386955 348.98126 68.824455 349.29376Q68.261955 349.59064 67.49633 349.59064Q66.37133 349.59064 65.761955 348.95Q65.168205 348.29376 65.18383 347.0125ZM75.699455 348.6844Q75.105705 349.1844 74.55883 349.3875Q74.02758 349.59064 73.40258 349.59064Q72.37133 349.59064 71.824455 349.09064Q71.27758 348.59064 71.27758 347.8094Q71.27758 347.35626 71.480705 346.98126Q71.68383 346.59064 72.02758 346.3719Q72.37133 346.1375 72.793205 346.02814Q73.09008 345.9344 73.730705 345.85626Q74.99633 345.71564 75.605705 345.4969Q75.605705 345.27814 75.605705 345.23126Q75.605705 344.575 75.30883 344.3094Q74.90258 343.96564 74.105705 343.96564Q73.37133 343.96564 73.011955 344.23126Q72.65258 344.48126 72.480705 345.1375L71.449455 344.9969Q71.59008 344.34064 71.918205 343.9344Q72.24633 343.52814 72.855705 343.3094Q73.46508 343.09064 74.261955 343.09064Q75.05883 343.09064 75.55883 343.27814Q76.05883 343.46564 76.293205 343.7469Q76.52758 344.02814 76.62133 344.46564Q76.668205 344.73126 76.668205 345.4344L76.668205 346.84064Q76.668205 348.3094 76.730705 348.7Q76.80883 349.09064 77.011955 349.45L75.90258 349.45Q75.74633 349.1219 75.699455 348.6844ZM75.605705 346.325Q75.02758 346.5594 73.886955 346.73126Q73.230705 346.825 72.96508 346.95Q72.699455 347.0594 72.543205 347.27814Q72.40258 347.4969 72.40258 347.77814Q72.40258 348.2 72.71508 348.48126Q73.043205 348.7625 73.65258 348.7625Q74.261955 348.7625 74.730705 348.4969Q75.21508 348.23126 75.43383 347.7625Q75.605705 347.40314 75.605705 346.71564L75.605705 346.325ZM78.636955 349.45L78.636955 343.23126L79.574455 343.23126L79.574455 344.10626Q80.261955 343.09064 81.55883 343.09064Q82.12133 343.09064 82.59008 343.29376Q83.074455 343.4969 83.30883 343.825Q83.543205 344.15314 83.636955 344.59064Q83.68383 344.8875 83.68383 345.6219L83.68383 349.45L82.636955 349.45L82.636955 345.66876Q82.636955 345.0125 82.511955 344.7Q82.386955 344.3875 82.074455 344.2Q81.761955 343.9969 81.34008 343.9969Q80.668205 343.9969 80.168205 344.4344Q79.68383 344.85626 79.68383 346.04376L79.68383 349.45L78.636955 349.45Z" fill-rule="nonzero"/><path fill="#000000" d="M108.71717 349.45L108.71717 340.85626L114.514046 340.85626L114.514046 341.8719L109.857796 341.8719L109.857796 344.52814L113.889046 344.52814L113.889046 345.54376L109.857796 345.54376L109.857796 349.45L108.71717 349.45ZM119.77967 347.45L120.87342 347.575Q120.62342 348.52814 119.920296 349.0594Q119.21717 349.59064 118.139046 349.59064Q116.77967 349.59064 115.96717 348.7469Q115.170296 347.90314 115.170296 346.3875Q115.170296 344.825 115.982796 343.96564Q116.795296 343.09064 118.076546 343.09064Q119.326546 343.09064 120.107796 343.9344Q120.90467 344.77814 120.90467 346.325Q120.90467 346.41876 120.90467 346.60626L116.264046 346.60626Q116.326546 347.6375 116.84217 348.1844Q117.357796 348.71564 118.139046 348.71564Q118.71717 348.71564 119.12342 348.41876Q119.545296 348.10626 119.77967 347.45ZM116.326546 345.7469L119.795296 345.7469Q119.732796 344.95 119.40467 344.5594Q118.889046 343.95 118.09217 343.95Q117.357796 343.95 116.857796 344.4344Q116.37342 344.91876 116.326546 345.7469ZM123.49842 349.45L122.514046 349.45L122.514046 340.85626L123.576546 340.85626L123.576546 343.91876Q124.24842 343.09064 125.27967 343.09064Q125.857796 343.09064 126.357796 343.325Q126.87342 343.54376 127.201546 343.96564Q127.545296 344.3875 127.732796 344.98126Q127.920296 345.575 127.920296 346.2469Q127.920296 347.84064 127.12342 348.71564Q126.326546 349.59064 125.232796 349.59064Q124.12342 349.59064 123.49842 348.66876L123.49842 349.45ZM123.482796 346.29376Q123.482796 347.40314 123.795296 347.90314Q124.295296 348.71564 125.139046 348.71564Q125.826546 348.71564 126.326546 348.1219Q126.84217 347.52814 126.84217 346.325Q126.84217 345.10626 126.357796 344.52814Q125.87342 343.95 125.18592 343.95Q124.49842 343.95 123.982796 344.5594Q123.482796 345.15314 123.482796 346.29376Z" fill-rule="nonzero"/><path fill="#000000" d="M153.51613 349.45L153.51613 340.85626L155.23488 340.85626L157.26613 346.9344Q157.54738 347.79376 157.67238 348.21564Q157.813 347.7469 158.1255 346.84064L160.188 340.85626L161.71925 340.85626L161.71925 349.45L160.6255 349.45L160.6255 342.2625L158.1255 349.45L157.09425 349.45L154.60988 342.1375L154.60988 349.45L153.51613 349.45ZM162.40675 349.45L162.40675 343.23126L163.35988 343.23126L163.35988 344.16876Q163.71925 343.5125 164.01613 343.3094Q164.32863 343.09064 164.70363 343.09064Q165.23488 343.09064 165.78175 343.41876L165.42238 344.40314Q165.03175 344.16876 164.65675 344.16876Q164.29738 344.16876 164.01613 344.3875Q163.7505 344.59064 163.64113 344.96564Q163.45363 345.52814 163.45363 346.1844L163.45363 349.45L162.40675 349.45ZM165.85988 349.45L165.85988 348.59064L169.82863 344.04376Q169.14113 344.075 168.6255 344.075L166.09425 344.075L166.09425 343.23126L171.188 343.23126L171.188 343.91876L167.813 347.8719L167.15675 348.59064Q167.8755 348.54376 168.48488 348.54376L171.3755 348.54376L171.3755 349.45L165.85988 349.45Z" fill-rule="nonzero"/><path fill="#000000" d="M196.0026 349.45L199.29947 340.85626L200.51822 340.85626L204.03384 349.45L202.7526 349.45L201.73697 346.84064L198.15884 346.84064L197.20572 349.45L196.0026 349.45ZM198.48697 345.91876L201.39322 345.91876L200.5026 343.54376Q200.08072 342.46564 199.89322 341.7625Q199.72134 342.59064 199.42447 343.40314L198.48697 345.91876ZM203.8151 351.84064L203.8151 343.23126L204.76822 343.23126L204.76822 344.02814Q205.11197 343.5594 205.53384 343.325Q205.97134 343.09064 206.58072 343.09064Q207.3776 343.09064 207.98697 343.4969Q208.59634 343.90314 208.89322 344.65314Q209.20572 345.40314 209.20572 346.29376Q209.20572 347.2469 208.86197 348.0125Q208.53384 348.77814 207.8776 349.1844Q207.22134 349.59064 206.5026 349.59064Q205.97134 349.59064 205.54947 349.3719Q205.1276 349.1375 204.86197 348.8094L204.86197 351.84064L203.8151 351.84064ZM204.76822 346.3719Q204.76822 347.575 205.2526 348.15314Q205.73697 348.71564 206.42447 348.71564Q207.1276 348.71564 207.6276 348.1219Q208.1276 347.52814 208.1276 346.27814Q208.1276 345.09064 207.64322 344.5125Q207.15884 343.91876 206.47134 343.91876Q205.79947 343.91876 205.28384 344.54376Q204.76822 345.16876 204.76822 346.3719ZM210.79947 349.45L210.79947 343.23126L211.7526 343.23126L211.7526 344.16876Q212.11197 343.5125 212.40884 343.3094Q212.72134 343.09064 213.09634 343.09064Q213.6276 343.09064 214.17447 343.41876L213.8151 344.40314Q213.42447 344.16876 213.04947 344.16876Q212.6901 344.16876 212.40884 344.3875Q212.14322 344.59064 212.03384 344.96564Q211.84634 345.52814 211.84634 346.1844L211.84634 349.45L210.79947 349.45Z" fill-rule="nonzero"/><path fill="#000000" d="M239.80156 349.45L239.80156 340.85626L241.52031 340.85626L243.55156 346.9344Q243.83281 347.79376 243.95781 348.21564Q244.09843 347.7469 244.41093 346.84064L246.47343 340.85626L248.00468 340.85626L248.00468 349.45L246.91093 349.45L246.91093 342.2625L244.41093 349.45L243.37968 349.45L240.89531 342.1375L240.89531 349.45L239.80156 349.45ZM252.77031 348.6844Q252.17656 349.1844 251.62968 349.3875Q251.09843 349.59064 250.47343 349.59064Q249.44218 349.59064 248.89531 349.09064Q248.34843 348.59064 248.34843 347.8094Q248.34843 347.35626 248.55156 346.98126Q248.75468 346.59064 249.09843 346.3719Q249.44218 346.1375 249.86406 346.02814Q250.16093 345.9344 250.80156 345.85626Q252.06718 345.71564 252.67656 345.4969Q252.67656 345.27814 252.67656 345.23126Q252.67656 344.575 252.37968 344.3094Q251.97343 343.96564 251.17656 343.96564Q250.44218 343.96564 250.08281 344.23126Q249.72343 344.48126 249.55156 345.1375L248.52031 344.9969Q248.66093 344.34064 248.98906 343.9344Q249.31718 343.52814 249.92656 343.3094Q250.53593 343.09064 251.33281 343.09064Q252.12968 343.09064 252.62968 343.27814Q253.12968 343.46564 253.36406 343.7469Q253.59843 344.02814 253.69218 344.46564Q253.73906 344.73126 253.73906 345.4344L253.73906 346.84064Q253.73906 348.3094 253.80156 348.7Q253.87968 349.09064 254.08281 349.45L252.97343 349.45Q252.81718 349.1219 252.77031 348.6844ZM252.67656 346.325Q252.09843 346.5594 250.95781 346.73126Q250.30156 346.825 250.03593 346.95Q249.77031 347.0594 249.61406 347.27814Q249.47343 347.4969 249.47343 347.77814Q249.47343 348.2 249.78593 348.48126Q250.11406 348.7625 250.72343 348.7625Q251.33281 348.7625 251.80156 348.4969Q252.28593 348.23126 252.50468 347.7625Q252.67656 347.40314 252.67656 346.71564L252.67656 346.325ZM255.70781 342.075L255.70781 340.85626L256.77032 340.85626L256.77032 342.075L255.70781 342.075ZM255.70781 349.45L255.70781 343.23126L256.77032 343.23126L256.77032 349.45L255.70781 349.45Z" fill-rule="nonzero"/><path fill="#000000" d="M282.1474 347.0125L283.17865 346.8719Q283.2099 347.85626 283.53802 348.21564Q283.86615 348.575 284.4599 348.575Q284.88177 348.575 285.19427 348.3875Q285.50677 348.1844 285.61615 347.85626Q285.74115 347.5125 285.74115 346.77814L285.74115 340.85626L286.86615 340.85626L286.86615 346.71564Q286.86615 347.79376 286.60052 348.3875Q286.35052 348.98126 285.78802 349.29376Q285.22552 349.59064 284.4599 349.59064Q283.3349 349.59064 282.72552 348.95Q282.13177 348.29376 282.1474 347.0125ZM292.67865 349.45L292.67865 348.52814Q291.94427 349.59064 290.69427 349.59064Q290.1474 349.59064 289.66302 349.3875Q289.19427 349.16876 288.9599 348.85626Q288.72552 348.52814 288.63177 348.0594Q288.56927 347.7625 288.56927 347.075L288.56927 343.23126L289.63177 343.23126L289.63177 346.6844Q289.63177 347.4969 289.69427 347.79376Q289.78802 348.2 290.10052 348.45Q290.42865 348.6844 290.91302 348.6844Q291.38177 348.6844 291.78802 348.45Q292.2099 348.2 292.38177 347.77814Q292.56927 347.35626 292.56927 346.5594L292.56927 343.23126L293.61615 343.23126L293.61615 349.45L292.67865 349.45ZM295.60052 349.45L295.60052 343.23126L296.53802 343.23126L296.53802 344.10626Q297.22552 343.09064 298.5224 343.09064Q299.0849 343.09064 299.55365 343.29376Q300.03802 343.4969 300.2724 343.825Q300.50677 344.15314 300.60052 344.59064Q300.6474 344.8875 300.6474 345.6219L300.6474 349.45L299.60052 349.45L299.60052 345.66876Q299.60052 345.0125 299.47552 344.7Q299.35052 344.3875 299.03802 344.2Q298.72552 343.9969 298.30365 343.9969Q297.63177 343.9969 297.13177 344.4344Q296.6474 344.85626 296.6474 346.04376L296.6474 349.45L295.60052 349.45Z" fill-rule="nonzero"/><path fill="#000000" d="M327.5401 347.0125L328.57135 346.8719Q328.6026 347.85626 328.93073 348.21564Q329.25885 348.575 329.8526 348.575Q330.27448 348.575 330.58698 348.3875Q330.89948 348.1844 331.00885 347.85626Q331.13385 347.5125 331.13385 346.77814L331.13385 340.85626L332.25885 340.85626L332.25885 346.71564Q332.25885 347.79376 331.99323 348.3875Q331.74323 348.98126 331.18073 349.29376Q330.61823 349.59064 329.8526 349.59064Q328.7276 349.59064 328.11823 348.95Q327.52448 348.29376 327.5401 347.0125ZM338.07135 349.45L338.07135 348.52814Q337.33698 349.59064 336.08698 349.59064Q335.5401 349.59064 335.05573 349.3875Q334.58698 349.16876 334.3526 348.85626Q334.11823 348.52814 334.02448 348.0594Q333.96198 347.7625 333.96198 347.075L333.96198 343.23126L335.02448 343.23126L335.02448 346.6844Q335.02448 347.4969 335.08698 347.79376Q335.18073 348.2 335.49323 348.45Q335.82135 348.6844 336.30573 348.6844Q336.77448 348.6844 337.18073 348.45Q337.6026 348.2 337.77448 347.77814Q337.96198 347.35626 337.96198 346.5594L337.96198 343.23126L339.00885 343.23126L339.00885 349.45L338.07135 349.45ZM340.96198 349.45L340.96198 340.85626L342.02448 340.85626L342.02448 349.45L340.96198 349.45Z" fill-rule="nonzero"/><path fill="#000000" d="M368.07346 349.45L371.37033 340.85626L372.58908 340.85626L376.1047 349.45L374.82346 349.45L373.80783 346.84064L370.2297 346.84064L369.27658 349.45L368.07346 349.45ZM370.55783 345.91876L373.46408 345.91876L372.57346 343.54376Q372.15158 342.46564 371.96408 341.7625Q371.7922 342.59064 371.49533 343.40314L370.55783 345.91876ZM379.96408 349.45L379.96408 348.52814Q379.2297 349.59064 377.9797 349.59064Q377.43283 349.59064 376.94846 349.3875Q376.4797 349.16876 376.24533 348.85626Q376.01096 348.52814 375.9172 348.0594Q375.8547 347.7625 375.8547 347.075L375.8547 343.23126L376.9172 343.23126L376.9172 346.6844Q376.9172 347.4969 376.9797 347.79376Q377.07346 348.2 377.38596 348.45Q377.71408 348.6844 378.19846 348.6844Q378.6672 348.6844 379.07346 348.45Q379.49533 348.2 379.6672 347.77814Q379.8547 347.35626 379.8547 346.5594L379.8547 343.23126L380.90158 343.23126L380.90158 349.45L379.96408 349.45ZM382.68283 349.96564L383.71408 350.1219Q383.77658 350.59064 384.07346 350.8094Q384.46408 351.10626 385.13596 351.10626Q385.87033 351.10626 386.26096 350.8094Q386.6672 350.5125 386.80783 349.9969Q386.90158 349.66876 386.88596 348.6375Q386.19846 349.45 385.1672 349.45Q383.88596 349.45 383.18283 348.52814Q382.4797 347.59064 382.4797 346.3094Q382.4797 345.41876 382.7922 344.66876Q383.12033 343.90314 383.7297 343.4969Q384.33908 343.09064 385.1672 343.09064Q386.27658 343.09064 386.99533 343.98126L386.99533 343.23126L387.96408 343.23126L387.96408 348.60626Q387.96408 350.0594 387.6672 350.66876Q387.37033 351.27814 386.7297 351.6219Q386.08908 351.98126 385.15158 351.98126Q384.0422 351.98126 383.3547 351.48126Q382.6672 350.98126 382.68283 349.96564ZM383.55783 346.23126Q383.55783 347.45 384.0422 348.0125Q384.52658 348.575 385.26096 348.575Q385.99533 348.575 386.4797 348.0125Q386.9797 347.45 386.9797 346.2625Q386.9797 345.1219 386.46408 344.54376Q385.96408 343.96564 385.24533 343.96564Q384.5422 343.96564 384.0422 344.54376Q383.55783 345.10626 383.55783 346.23126Z" fill-rule="nonzero"/><path fill="#000000" d="M411.52866 346.6844L412.59116 346.59064Q412.66928 347.2469 412.95053 347.65314Q413.23178 348.0594 413.8099 348.325Q414.40366 348.575 415.13803 348.575Q415.77866 348.575 416.27866 348.3875Q416.77866 348.1844 417.01303 347.85626Q417.26303 347.5125 417.26303 347.1219Q417.26303 346.71564 417.02866 346.41876Q416.79428 346.10626 416.26303 345.90314Q415.90366 345.7625 414.71616 345.48126Q413.54428 345.2 413.07553 344.95Q412.45053 344.6219 412.15366 344.15314Q411.85678 343.66876 411.85678 343.075Q411.85678 342.4344 412.21616 341.8719Q412.59116 341.29376 413.29428 341.0125Q414.01303 340.71564 414.8724 340.71564Q415.82553 340.71564 416.5599 341.02814Q417.29428 341.325 417.6849 341.9344Q418.07553 342.52814 418.10678 343.27814L417.01303 343.35626Q416.91928 342.54376 416.40366 342.1375Q415.90366 341.71564 414.91928 341.71564Q413.88803 341.71564 413.41928 342.09064Q412.95053 342.46564 412.95053 342.9969Q412.95053 343.46564 413.27866 343.7625Q413.60678 344.0594 414.98178 344.3719Q416.3724 344.6844 416.88803 344.91876Q417.63803 345.27814 417.9974 345.8094Q418.35678 346.325 418.35678 347.02814Q418.35678 347.71564 417.96616 348.325Q417.57553 348.91876 416.84116 349.2625Q416.10678 349.59064 415.1849 349.59064Q414.01303 349.59064 413.21616 349.2625Q412.4349 348.91876 411.98178 348.23126Q411.54428 347.54376 411.52866 346.6844ZM424.02866 347.45L425.1224 347.575Q424.8724 348.52814 424.16928 349.0594Q423.46616 349.59064 422.38803 349.59064Q421.02866 349.59064 420.21616 348.7469Q419.41928 347.90314 419.41928 346.3875Q419.41928 344.825 420.23178 343.96564Q421.04428 343.09064 422.32553 343.09064Q423.57553 343.09064 424.35678 343.9344Q425.15366 344.77814 425.15366 346.325Q425.15366 346.41876 425.15366 346.60626L420.51303 346.60626Q420.57553 347.6375 421.09116 348.1844Q421.60678 348.71564 422.38803 348.71564Q422.96616 348.71564 423.3724 348.41876Q423.79428 348.10626 424.02866 347.45ZM420.57553 345.7469L424.04428 345.7469Q423.98178 344.95 423.65366 344.5594Q423.13803 343.95 422.34116 343.95Q421.60678 343.95 421.10678 344.4344Q420.6224 344.91876 420.57553 345.7469ZM426.77866 351.84064L426.77866 343.23126L427.73178 343.23126L427.73178 344.02814Q428.07553 343.5594 428.4974 343.325Q428.9349 343.09064 429.54428 343.09064Q430.34116 343.09064 430.95053 343.4969Q431.5599 343.90314 431.85678 344.65314Q432.16928 345.40314 432.16928 346.29376Q432.16928 347.2469 431.82553 348.0125Q431.4974 348.77814 430.84116 349.1844Q430.1849 349.59064 429.46616 349.59064Q428.9349 349.59064 428.51303 349.3719Q428.09116 349.1375 427.82553 348.8094L427.82553 351.84064L426.77866 351.84064ZM427.73178 346.3719Q427.73178 347.575 428.21616 348.15314Q428.70053 348.71564 429.38803 348.71564Q430.09116 348.71564 430.59116 348.1219Q431.09116 347.52814 431.09116 346.27814Q431.09116 345.09064 430.60678 344.5125Q430.1224 343.91876 429.4349 343.91876Q428.76303 343.91876 428.2474 344.54376Q427.73178 345.16876 427.73178 346.3719Z" fill-rule="nonzero"/><path fill="#000000" d="M456.9526 345.2625Q456.9526 343.1219 458.09323 341.91876Q459.24948 340.7 461.06198 340.7Q462.2651 340.7 463.21823 341.27814Q464.17136 341.84064 464.67136 342.85626Q465.17136 343.8719 465.17136 345.16876Q465.17136 346.46564 464.6401 347.4969Q464.10886 348.52814 463.1401 349.0594Q462.18698 349.59064 461.06198 349.59064Q459.84323 349.59064 458.8901 349.0125Q457.93698 348.41876 457.43698 347.41876Q456.9526 346.40314 456.9526 345.2625ZM458.12448 345.27814Q458.12448 346.84064 458.9526 347.73126Q459.79636 348.6219 461.06198 348.6219Q462.34323 348.6219 463.17136 347.73126Q463.99948 346.825 463.99948 345.15314Q463.99948 344.10626 463.6401 343.325Q463.29636 342.54376 462.60886 342.1219Q461.92136 341.6844 461.0776 341.6844Q459.87448 341.6844 458.99948 342.5125Q458.12448 343.34064 458.12448 345.27814ZM466.17136 349.45L466.17136 340.85626L467.23386 340.85626L467.23386 345.7625L469.71823 343.23126L471.09323 343.23126L468.7026 345.52814L471.3276 349.45L470.03073 349.45L467.96823 346.2625L467.23386 346.98126L467.23386 349.45L466.17136 349.45ZM474.46823 348.5125L474.62448 349.4344Q474.17136 349.52814 473.8276 349.52814Q473.24948 349.52814 472.93698 349.35626Q472.62448 349.16876 472.48386 348.8719Q472.35886 348.575 472.35886 347.6219L472.35886 344.04376L471.59323 344.04376L471.59323 343.23126L472.35886 343.23126L472.35886 341.6844L473.40573 341.0594L473.40573 343.23126L474.46823 343.23126L474.46823 344.04376L473.40573 344.04376L473.40573 347.6844Q473.40573 348.1375 473.4526 348.2625Q473.5151 348.3875 473.6401 348.46564Q473.7651 348.54376 473.99948 348.54376Q474.18698 348.54376 474.46823 348.5125Z" fill-rule="nonzero"/><path fill="#000000" d="M499.1891 349.45L499.1891 340.85626L500.34534 340.85626L504.86096 347.60626L504.86096 340.85626L505.9547 340.85626L505.9547 349.45L504.78284 349.45L500.2672 342.7L500.2672 349.45L499.1891 349.45ZM507.67346 346.34064Q507.67346 344.60626 508.6266 343.77814Q509.42346 343.09064 510.5797 343.09064Q511.86096 343.09064 512.67346 343.9344Q513.5016 344.7625 513.5016 346.2469Q513.5016 347.45 513.1422 348.1375Q512.78284 348.825 512.0797 349.21564Q511.3922 349.59064 510.5797 349.59064Q509.28284 349.59064 508.47034 348.7625Q507.67346 347.91876 507.67346 346.34064ZM508.7516 346.34064Q508.7516 347.52814 509.2672 348.1219Q509.79846 348.71564 510.5797 348.71564Q511.3766 348.71564 511.8922 348.1219Q512.40784 347.52814 512.40784 346.3094Q512.40784 345.15314 511.8766 344.5594Q511.36096 343.96564 510.5797 343.96564Q509.79846 343.96564 509.2672 344.5594Q508.7516 345.1375 508.7516 346.34064ZM516.78284 349.45L514.42346 343.23126L515.53284 343.23126L516.8766 346.95Q517.0797 347.5594 517.2672 348.2Q517.40784 347.71564 517.65784 347.02814L519.04846 343.23126L520.1266 343.23126L517.7672 349.45L516.78284 349.45Z" fill-rule="nonzero"/><path fill="#000000" d="M542.5818 349.45L542.5818 340.85626L545.55054 340.85626Q546.55054 340.85626 547.0818 340.98126Q547.81616 341.15314 548.3318 341.59064Q549.0193 342.16876 549.3474 343.075Q549.69116 343.96564 549.69116 345.10626Q549.69116 346.09064 549.4568 346.84064Q549.23804 347.59064 548.87866 348.09064Q548.5193 348.59064 548.0818 348.8719Q547.6599 349.15314 547.06616 349.3094Q546.4724 349.45 545.69116 349.45L542.5818 349.45ZM543.7224 348.4344L545.55054 348.4344Q546.4099 348.4344 546.8943 348.27814Q547.37866 348.1219 547.6599 347.825Q548.06616 347.4344 548.2849 346.7469Q548.5193 346.0594 548.5193 345.09064Q548.5193 343.7469 548.06616 343.02814Q547.62866 342.29376 547.00366 342.04376Q546.5349 341.8719 545.5349 341.8719L543.7224 341.8719L543.7224 348.4344ZM555.7068 347.45L556.80054 347.575Q556.55054 348.52814 555.8474 349.0594Q555.1443 349.59064 554.06616 349.59064Q552.7068 349.59064 551.8943 348.7469Q551.0974 347.90314 551.0974 346.3875Q551.0974 344.825 551.9099 343.96564Q552.7224 343.09064 554.00366 343.09064Q555.25366 343.09064 556.0349 343.9344Q556.8318 344.77814 556.8318 346.325Q556.8318 346.41876 556.8318 346.60626L552.19116 346.60626Q552.25366 347.6375 552.7693 348.1844Q553.2849 348.71564 554.06616 348.71564Q554.6443 348.71564 555.05054 348.41876Q555.4724 348.10626 555.7068 347.45ZM552.25366 345.7469L555.7224 345.7469Q555.6599 344.95 555.3318 344.5594Q554.81616 343.95 554.0193 343.95Q553.2849 343.95 552.7849 344.4344Q552.30054 344.91876 552.25366 345.7469ZM557.8943 349.45L557.8943 348.59064L561.86304 344.04376Q561.17554 344.075 560.6599 344.075L558.12866 344.075L558.12866 343.23126L563.2224 343.23126L563.2224 343.91876L559.8474 347.8719L559.19116 348.59064Q559.9099 348.54376 560.5193 348.54376L563.4099 348.54376L563.4099 349.45L557.8943 349.45Z" fill-rule="nonzero"/><path fill="#4285f4" d="M244.0 20.55C244.0 19.997715 244.44771 19.55 245.0 19.55L255.0 19.55C255.55229 19.55 256.0 19.997715 256.0 20.55L256.0 30.55C256.0 31.102285 255.55229 31.55 255.0 31.55L245.0 31.55C244.44771 31.55 244.0 31.102285 244.0 30.55Z" fill-rule="nonzero"/><path fill="#1a1a1a" d="M270.04688 28.534374L270.04688 29.55L264.35938 29.55Q264.35938 29.175 264.48438 28.815624Q264.70312 28.2375 265.17188 27.675Q265.65625 27.1125 266.5625 26.378124Q267.96875 25.221874 268.45312 24.55Q268.95312 23.878124 268.95312 23.284374Q268.95312 22.659374 268.5 22.2375Q268.04688 21.8 267.32812 21.8Q266.5625 21.8 266.10938 22.253124Q265.65625 22.70625 265.64062 23.51875L264.5625 23.409374Q264.67188 22.190624 265.39062 21.565624Q266.125 20.925 267.35938 20.925Q268.59375 20.925 269.3125 21.6125Q270.03125 22.3 270.03125 23.315624Q270.03125 23.83125 269.8125 24.33125Q269.60938 24.815624 269.10938 25.378124Q268.625 25.925 267.5 26.878124Q266.54688 27.675 266.26562 27.971874Q266.0 28.253124 265.82812 28.534374L270.04688 28.534374ZM271.5 25.315624Q271.5 23.784374 271.8125 22.8625Q272.125 21.925 272.73438 21.425Q273.35938 20.925 274.29688 20.925Q274.98438 20.925 275.5 21.20625Q276.03125 21.4875 276.375 22.01875Q276.71875 22.534374 276.90625 23.284374Q277.09375 24.034374 277.09375 25.315624Q277.09375 26.83125 276.78125 27.753124Q276.48438 28.675 275.85938 29.190624Q275.25 29.690624 274.29688 29.690624Q273.0625 29.690624 272.34375 28.8Q271.5 27.7375 271.5 25.315624ZM272.57812 25.315624Q272.57812 27.425 273.07812 28.128124Q273.57812 28.83125 274.29688 28.83125Q275.03125 28.83125 275.51562 28.128124Q276.01562 27.425 276.01562 25.315624Q276.01562 23.190624 275.51562 22.503124Q275.03125 21.8 274.28125 21.8Q273.5625 21.8 273.125 22.409374Q272.57812 23.190624 272.57812 25.315624ZM284.04688 28.534374L284.04688 29.55L278.35938 29.55Q278.35938 29.175 278.48438 28.815624Q278.70312 28.2375 279.17188 27.675Q279.65625 27.1125 280.5625 26.378124Q281.96875 25.221874 282.45312 24.55Q282.95312 23.878124 282.95312 23.284374Q282.95312 22.659374 282.5 22.2375Q282.04688 21.8 281.32812 21.8Q280.5625 21.8 280.10938 22.253124Q279.65625 22.70625 279.64062 23.51875L278.5625 23.409374Q278.67188 22.190624 279.39062 21.565624Q280.125 20.925 281.35938 20.925Q282.59375 20.925 283.3125 21.6125Q284.03125 22.3 284.03125 23.315624Q284.03125 23.83125 283.8125 24.33125Q283.60938 24.815624 283.10938 25.378124Q282.625 25.925 281.5 26.878124Q280.54688 27.675 280.26562 27.971874Q280.0 28.253124 279.82812 28.534374L284.04688 28.534374ZM288.875 29.55L288.875 27.4875L285.15625 27.4875L285.15625 26.51875L289.07812 20.95625L289.9375 20.95625L289.9375 26.51875L291.09375 26.51875L291.09375 27.4875L289.9375 27.4875L289.9375 29.55L288.875 29.55ZM288.875 26.51875L288.875 22.659374L286.1875 26.51875L288.875 26.51875Z" fill-rule="nonzero"/><path fill="#ea4335" d="M308.0 20.55C308.0 19.997715 308.44772 19.55 309.0 19.55L319.0 19.55C319.55228 19.55 320.0 19.997715 320.0 20.55L320.0 30.55C320.0 31.102285 319.55228 31.55 319.0 31.55L309.0 31.55C308.44772 31.55 308.0 31.102285 308.0 30.55Z" fill-rule="nonzero"/><path fill="#1a1a1a" d="M334.04688 28.534374L334.04688 29.55L328.35938 29.55Q328.35938 29.175 328.48438 28.815624Q328.70312 28.2375 329.17188 27.675Q329.65625 27.1125 330.5625 26.378124Q331.96875 25.221874 332.45312 24.55Q332.95312 23.878124 332.95312 23.284374Q332.95312 22.659374 332.5 22.2375Q332.04688 21.8 331.32812 21.8Q330.5625 21.8 330.10938 22.253124Q329.65625 22.70625 329.64062 23.51875L328.5625 23.409374Q328.67188 22.190624 329.39062 21.565624Q330.125 20.925 331.35938 20.925Q332.59375 20.925 333.3125 21.6125Q334.03125 22.3 334.03125 23.315624Q334.03125 23.83125 333.8125 24.33125Q333.60938 24.815624 333.10938 25.378124Q332.625 25.925 331.5 26.878124Q330.54688 27.675 330.26562 27.971874Q330.0 28.253124 329.82812 28.534374L334.04688 28.534374ZM335.5 25.315624Q335.5 23.784374 335.8125 22.8625Q336.125 21.925 336.73438 21.425Q337.35938 20.925 338.29688 20.925Q338.98438 20.925 339.5 21.20625Q340.03125 21.4875 340.375 22.01875Q340.71875 22.534374 340.90625 23.284374Q341.09375 24.034374 341.09375 25.315624Q341.09375 26.83125 340.78125 27.753124Q340.48438 28.675 339.85938 29.190624Q339.25 29.690624 338.29688 29.690624Q337.0625 29.690624 336.34375 28.8Q335.5 27.7375 335.5 25.315624ZM336.57812 25.315624Q336.57812 27.425 337.07812 28.128124Q337.57812 28.83125 338.29688 28.83125Q339.03125 28.83125 339.51562 28.128124Q340.01562 27.425 340.01562 25.315624Q340.01562 23.190624 339.51562 22.503124Q339.03125 21.8 338.28125 21.8Q337.5625 21.8 337.125 22.409374Q336.57812 23.190624 336.57812 25.315624ZM348.04688 28.534374L348.04688 29.55L342.35938 29.55Q342.35938 29.175 342.48438 28.815624Q342.70312 28.2375 343.17188 27.675Q343.65625 27.1125 344.5625 26.378124Q345.96875 25.221874 346.45312 24.55Q346.95312 23.878124 346.95312 23.284374Q346.95312 22.659374 346.5 22.2375Q346.04688 21.8 345.32812 21.8Q344.5625 21.8 344.10938 22.253124Q343.65625 22.70625 343.64062 23.51875L342.5625 23.409374Q342.67188 22.190624 343.39062 21.565624Q344.125 20.925 345.35938 20.925Q346.59375 20.925 347.3125 21.6125Q348.03125 22.3 348.03125 23.315624Q348.03125 23.83125 347.8125 24.33125Q347.60938 24.815624 347.10938 25.378124Q346.625 25.925 345.5 26.878124Q344.54688 27.675 344.26562 27.971874Q344.0 28.253124 343.82812 28.534374L348.04688 28.534374ZM349.5 27.284374L350.5625 27.14375Q350.73438 28.034374 351.17188 28.440624Q351.60938 28.83125 352.23438 28.83125Q352.98438 28.83125 353.5 28.315624Q354.01562 27.8 354.01562 27.034374Q354.01562 26.315624 353.53125 25.846874Q353.0625 25.3625 352.32812 25.3625Q352.03125 25.3625 351.57812 25.4875L351.70312 24.55Q351.8125 24.565624 351.875 24.565624Q352.54688 24.565624 353.07812 24.221874Q353.625 23.8625 353.625 23.128124Q353.625 22.55 353.23438 22.175Q352.84375 21.784374 352.21875 21.784374Q351.60938 21.784374 351.1875 22.175Q350.78125 22.565624 350.67188 23.33125L349.60938 23.14375Q349.79688 22.096874 350.48438 21.51875Q351.17188 20.925 352.1875 20.925Q352.89062 20.925 353.48438 21.2375Q354.07812 21.534374 354.39062 22.05Q354.70312 22.565624 354.70312 23.159374Q354.70312 23.70625 354.40625 24.175Q354.10938 24.628124 353.53125 24.89375Q354.28125 25.065624 354.70312 25.628124Q355.125 26.175 355.125 27.01875Q355.125 28.14375 354.29688 28.925Q353.48438 29.70625 352.23438 29.70625Q351.10938 29.70625 350.35938 29.034374Q349.60938 28.346874 349.5 27.284374Z" fill-rule="nonzero"/></svg>