<svg version="1.1" viewBox="0.0 0.0 600.0 401.0" fill="none" stroke="none" stroke-linecap="square" stroke-miterlimit="10" width="600" height="401" xmlns:xlink="http://www.w3.org/1999/xlink" xmlns="http://www.w3.org/2000/svg"><path fill="#ffffff" fill-opacity="0.0" d="M0 0L600.0 0L600.0 401.0L0 401.0L0 0Z" fill-rule="nonzero"/><path stroke="#333333" stroke-width="1.0" stroke-linecap="butt" d="M47.5 360.5L579.5 360.5" fill-rule="nonzero"/><path stroke="#434343" stroke-width="1.0" stroke-linecap="butt" d="M47.5 333.5L579.5 333.5" fill-rule="nonzero"/><path stroke="#434343" stroke-width="1.0" stroke-linecap="butt" d="M47.5 305.5L579.5 305.5" fill-rule="nonzero"/><path stroke="#434343" stroke-width="1.0" stroke-linecap="butt" d="M47.5 277.5L579.5 277.5" fill-rule="nonzero"/><path stroke="#434343" stroke-width="1.0" stroke-linecap="butt" d="M47.5 249.5L579.5 249.5" fill-rule="nonzero"/><path stroke="#434343" stroke-width="1.0" stroke-linecap="butt" d="M47.5 221.5L579.5 221.5" fill-rule="nonzero"/><path stroke="#434343" stroke-width="1.0" stroke-linecap="butt" d="M47.5 193.5L579.5 193.5" fill-rule="nonzero"/><path stroke="#434343" stroke-width="1.0" stroke-linecap="butt" d="M47.5 165.5L579.5 165.5" fill-rule="nonzero"/><path stroke="#434343" stroke-width="1.0" stroke-linecap="butt" d="M47.5 138.5L579.5 138.5" fill-rule="nonzero"/><path stroke="#434343" stroke-width="1.0" stroke-linecap="butt" d="M47.5 110.5L579.5 110.5" fill-rule="nonzero"/><path stroke="#434343" stroke-width="1.0" stroke-linecap="butt" d="M47.5 82.5L579.5 82.5" fill-rule="nonzero"/><path stroke="#434343" stroke-width="1.0" stroke-linecap="butt" d="M47.5 54.5L579.5 54.5" fill-rule="nonzero"/><clipPath id="id_0"><path d="M47.05 54.416668L579.95 54.416668L579.95 360.95L47.05 360.95L47.05 54.416668Z" clip-rule="nonzero"/></clipPath><path stroke="#000000" stroke-width="2.0" stroke-linecap="butt" stroke-opacity="0.0" clip-path="url(#id_0)" d="M81.0 361.0L66.0 361.0L66.0 318.0C66.0 316.89542 66.89543 316.0 68.0 316.0L79.0 316.0C80.10457 316.0 81.0 316.89542 81.0 318.0Z" fill-rule="nonzero"/><path fill="#4285f4" clip-path="url(#id_0)" d="M81.0 361.0L66.0 361.0L66.0 318.0C66.0 316.89542 66.89543 316.0 68.0 316.0L79.0 316.0C80.10457 316.0 81.0 316.89542 81.0 318.0Z" fill-rule="nonzero"/><path stroke="#000000" stroke-width="2.0" stroke-linecap="butt" stroke-opacity="0.0" clip-path="url(#id_0)" d="M132.0 361.0L117.0 361.0L117.0 285.0C117.0 283.89542 117.89543 283.0 119.0 283.0L130.0 283.0C131.10457 283.0 132.0 283.89542 132.0 285.0Z" fill-rule="nonzero"/><path fill="#4285f4" clip-path="url(#id_0)" d="M132.0 361.0L117.0 361.0L117.0 285.0C117.0 283.89542 117.89543 283.0 119.0 283.0L130.0 283.0C131.10457 283.0 132.0 283.89542 132.0 285.0Z" fill-rule="nonzero"/><path stroke="#000000" stroke-width="2.0" stroke-linecap="butt" stroke-opacity="0.0" clip-path="url(#id_0)" d="M184.0 361.0L169.0 361.0L169.0 151.0C169.0 149.89543 169.89543 149.0 171.0 149.0L182.0 149.0C183.10457 149.0 184.0 149.89543 184.0 151.0Z" fill-rule="nonzero"/><path fill="#4285f4" clip-path="url(#id_0)" d="M184.0 361.0L169.0 361.0L169.0 151.0C169.0 149.89543 169.89543 149.0 171.0 149.0L182.0 149.0C183.10457 149.0 184.0 149.89543 184.0 151.0Z" fill-rule="nonzero"/><path stroke="#000000" stroke-width="2.0" stroke-linecap="butt" stroke-opacity="0.0" clip-path="url(#id_0)" d="M235.0 361.0L220.0 361.0L220.0 73.0C220.0 71.89543 220.89543 71.0 222.0 71.0L233.0 71.0C234.10457 71.0 235.0 71.89543 235.0 73.0Z" fill-rule="nonzero"/><path fill="#4285f4" clip-path="url(#id_0)" d="M235.0 361.0L220.0 361.0L220.0 73.0C220.0 71.89543 220.89543 71.0 222.0 71.0L233.0 71.0C234.10457 71.0 235.0 71.89543 235.0 73.0Z" fill-rule="nonzero"/><path stroke="#000000" stroke-width="2.0" stroke-linecap="butt" stroke-opacity="0.0" clip-path="url(#id_0)" d="M287.0 361.0L272.0 361.0L272.0 62.0C272.0 60.89543 272.89542 60.0 274.0 60.0L285.0 60.0C286.10458 60.0 287.0 60.89543 287.0 62.0Z" fill-rule="nonzero"/><path fill="#4285f4" clip-path="url(#id_0)" d="M287.0 361.0L272.0 361.0L272.0 62.0C272.0 60.89543 272.89542 60.0 274.0 60.0L285.0 60.0C286.10458 60.0 287.0 60.89543 287.0 62.0Z" fill-rule="nonzero"/><path stroke="#000000" stroke-width="2.0" stroke-linecap="butt" stroke-opacity="0.0" clip-path="url(#id_0)" d="M338.0 361.0L323.0 361.0L323.0 95.0C323.0 93.89543 323.89542 93.0 325.0 93.0L336.0 93.0C337.10458 93.0 338.0 93.89543 338.0 95.0Z" fill-rule="nonzero"/><path fill="#4285f4" clip-path="url(#id_0)" d="M338.0 361.0L323.0 361.0L323.0 95.0C323.0 93.89543 323.89542 93.0 325.0 93.0L336.0 93.0C337.10458 93.0 338.0 93.89543 338.0 95.0Z" fill-rule="nonzero"/><path stroke="#000000" stroke-width="2.0" stroke-linecap="butt" stroke-opacity="0.0" clip-path="url(#id_0)" d="M390.0 361.0L375.0 361.0L375.0 140.0C375.0 138.89543 375.89542 138.0 377.0 138.0L388.0 138.0C389.10458 138.0 390.0 138.89543 390.0 140.0Z" fill-rule="nonzero"/><path fill="#4285f4" clip-path="url(#id_0)" d="M390.0 361.0L375.0 361.0L375.0 140.0C375.0 138.89543 375.89542 138.0 377.0 138.0L388.0 138.0C389.10458 138.0 390.0 138.89543 390.0 140.0Z" fill-rule="nonzero"/><path stroke="#000000" stroke-width="2.0" stroke-linecap="butt" stroke-opacity="0.0" clip-path="url(#id_0)" d="M441.0 361.0L426.0 361.0L426.0 229.0C426.0 227.89543 426.89542 227.0 428.0 227.0L439.0 227.0C440.10458 227.0 441.0 227.89543 441.0 229.0Z" fill-rule="nonzero"/><path fill="#4285f4" clip-path="url(#id_0)" d="M441.0 361.0L426.0 361.0L426.0 229.0C426.0 227.89543 426.89542 227.0 428.0 227.0L439.0 227.0C440.10458 227.0 441.0 227.89543 441.0 229.0Z" fill-rule="nonzero"/><path stroke="#000000" stroke-width="2.0" stroke-linecap="butt" stroke-opacity="0.0" clip-path="url(#id_0)" d="M493.0 361.0L478.0 361.0L478.0 346.0C478.0 344.89542 478.89542 344.0 480.0 344.0L491.0 344.0C492.10458 344.0 493.0 344.89542 493.0 346.0Z" fill-rule="nonzero"/><path fill="#4285f4" clip-path="url(#id_0)" d="M493.0 361.0L478.0 361.0L478.0 346.0C478.0 344.89542 478.89542 344.0 480.0 344.0L491.0 344.0C492.10458 344.0 493.0 344.89542 493.0 346.0Z" fill-rule="nonzero"/><path stroke="#000000" stroke-width="2.0" stroke-linecap="butt" stroke-opacity="0.0" clip-path="url(#id_0)" d="M544.0 361.0L529.0 361.0L529.0 361.0L544.0 361.0Z" fill-rule="nonzero"/><path fill="#4285f4" clip-path="url(#id_0)" d="M544.0 361.0L529.0 361.0L529.0 361.0L544.0 361.0Z" fill-rule="nonzero"/><path stroke="#000000" stroke-width="2.0" stroke-linecap="butt" stroke-opacity="0.0" clip-path="url(#id_0)" d="M98.0 361.0L83.0 361.0L83.0 330.0C83.0 328.89542 83.89543 328.0 85.0 328.0L96.0 328.0C97.10457 328.0 98.0 328.89542 98.0 330.0Z" fill-rule="nonzero"/><path fill="#ea4335" clip-path="url(#id_0)" d="M98.0 361.0L83.0 361.0L83.0 330.0C83.0 328.89542 83.89543 328.0 85.0 328.0L96.0 328.0C97.10457 328.0 98.0 328.89542 98.0 330.0Z" fill-rule="nonzero"/><path stroke="#000000" stroke-width="2.0" stroke-linecap="butt" stroke-opacity="0.0" clip-path="url(#id_0)" d="M149.0 361.0L134.0 361.0L134.0 302.0C134.0 300.89542 134.89543 300.0 136.0 300.0L147.0 300.0C148.10457 300.0 149.0 300.89542 149.0 302.0Z" fill-rule="nonzero"/><path fill="#ea4335" clip-path="url(#id_0)" d="M149.0 361.0L134.0 361.0L134.0 302.0C134.0 300.89542 134.89543 300.0 136.0 300.0L147.0 300.0C148.10457 300.0 149.0 300.89542 149.0 302.0Z" fill-rule="nonzero"/><path stroke="#000000" stroke-width="2.0" stroke-linecap="butt" stroke-opacity="0.0" clip-path="url(#id_0)" d="M201.0 361.0L186.0 361.0L186.0 224.0C186.0 222.89543 186.89543 222.0 188.0 222.0L199.0 222.0C200.10457 222.0 201.0 222.89543 201.0 224.0Z" fill-rule="nonzero"/><path fill="#ea4335" clip-path="url(#id_0)" d="M201.0 361.0L186.0 361.0L186.0 224.0C186.0 222.89543 186.89543 222.0 188.0 222.0L199.0 222.0C200.10457 222.0 201.0 222.89543 201.0 224.0Z" fill-rule="nonzero"/><path stroke="#000000" stroke-width="2.0" stroke-linecap="butt" stroke-opacity="0.0" clip-path="url(#id_0)" d="M252.0 361.0L237.0 361.0L237.0 196.0C237.0 194.89543 237.89543 194.0 239.0 194.0L250.0 194.0C251.10457 194.0 252.0 194.89543 252.0 196.0Z" fill-rule="nonzero"/><path fill="#ea4335" clip-path="url(#id_0)" d="M252.0 361.0L237.0 361.0L237.0 196.0C237.0 194.89543 237.89543 194.0 239.0 194.0L250.0 194.0C251.10457 194.0 252.0 194.89543 252.0 196.0Z" fill-rule="nonzero"/><path stroke="#000000" stroke-width="2.0" stroke-linecap="butt" stroke-opacity="0.0" clip-path="url(#id_0)" d="M304.0 361.0L289.0 361.0L289.0 268.0C289.0 266.89542 289.89542 266.0 291.0 266.0L302.0 266.0C303.10458 266.0 304.0 266.89542 304.0 268.0Z" fill-rule="nonzero"/><path fill="#ea4335" clip-path="url(#id_0)" d="M304.0 361.0L289.0 361.0L289.0 268.0C289.0 266.89542 289.89542 266.0 291.0 266.0L302.0 266.0C303.10458 266.0 304.0 266.89542 304.0 268.0Z" fill-rule="nonzero"/><path stroke="#000000" stroke-width="2.0" stroke-linecap="butt" stroke-opacity="0.0" clip-path="url(#id_0)" d="M355.0 361.0L340.0 361.0L340.0 274.0C340.0 272.89542 340.89542 272.0 342.0 272.0L353.0 272.0C354.10458 272.0 355.0 272.89542 355.0 274.0Z" fill-rule="nonzero"/><path fill="#ea4335" clip-path="url(#id_0)" d="M355.0 361.0L340.0 361.0L340.0 274.0C340.0 272.89542 340.89542 272.0 342.0 272.0L353.0 272.0C354.10458 272.0 355.0 272.89542 355.0 274.0Z" fill-rule="nonzero"/><path stroke="#000000" stroke-width="2.0" stroke-linecap="butt" stroke-opacity="0.0" clip-path="url(#id_0)" d="M407.0 361.0L392.0 361.0L392.0 246.0C392.0 244.89543 392.89542 244.0 394.0 244.0L405.0 244.0C406.10458 244.0 407.0 244.89543 407.0 246.0Z" fill-rule="nonzero"/><path fill="#ea4335" clip-path="url(#id_0)" d="M407.0 361.0L392.0 361.0L392.0 246.0C392.0 244.89543 392.89542 244.0 394.0 244.0L405.0 244.0C406.10458 244.0 407.0 244.89543 407.0 246.0Z" fill-rule="nonzero"/><path stroke="#000000" stroke-width="2.0" stroke-linecap="butt" stroke-opacity="0.0" clip-path="url(#id_0)" d="M458.0 361.0L443.0 361.0L443.0 285.0C443.0 283.89542 443.89542 283.0 445.0 283.0L456.0 283.0C457.10458 283.0 458.0 283.89542 458.0 285.0Z" fill-rule="nonzero"/><path fill="#ea4335" clip-path="url(#id_0)" d="M458.0 361.0L443.0 361.0L443.0 285.0C443.0 283.89542 443.89542 283.0 445.0 283.0L456.0 283.0C457.10458 283.0 458.0 283.89542 458.0 285.0Z" fill-rule="nonzero"/><path stroke="#000000" stroke-width="2.0" stroke-linecap="butt" stroke-opacity="0.0" clip-path="url(#id_0)" d="M510.0 361.0L495.0 361.0L495.0 318.0C495.0 316.89542 495.89542 316.0 497.0 316.0L508.0 316.0C509.10458 316.0 510.0 316.89542 510.0 318.0Z" fill-rule="nonzero"/><path fill="#ea4335" clip-path="url(#id_0)" d="M510.0 361.0L495.0 361.0L495.0 318.0C495.0 316.89542 495.89542 316.0 497.0 316.0L508.0 316.0C509.10458 316.0 510.0 316.89542 510.0 318.0Z" fill-rule="nonzero"/><path stroke="#000000" stroke-width="2.0" stroke-linecap="butt" stroke-opacity="0.0" clip-path="url(#id_0)" d="M561.0 361.0L546.0 361.0L546.0 346.0C546.0 344.89542 546.89545 344.0 548.0 344.0L559.0 344.0C560.10455 344.0 561.0 344.89542 561.0 346.0Z" fill-rule="nonzero"/><path fill="#ea4335" clip-path="url(#id_0)" d="M561.0 361.0L546.0 361.0L546.0 346.0C546.0 344.89542 546.89545 344.0 548.0 344.0L559.0 344.0C560.10455 344.0 561.0 344.89542 561.0 346.0Z" fill-rule="nonzero"/><path fill="#000000" d="M34.55 360.71564Q34.55 359.1844 34.8625 358.2625Q35.175 357.325 35.784374 356.825Q36.409374 356.325 37.346874 356.325Q38.034374 356.325 38.55 356.60626Q39.08125 356.8875 39.425 357.41876Q39.76875 357.9344 39.95625 358.6844Q40.14375 359.4344 40.14375 360.71564Q40.14375 362.23126 39.83125 363.15314Q39.534374 364.075 38.909374 364.59064Q38.3 365.09064 37.346874 365.09064Q36.1125 365.09064 35.39375 364.2Q34.55 363.1375 34.55 360.71564ZM35.628124 360.71564Q35.628124 362.825 36.128124 363.52814Q36.628124 364.23126 37.346874 364.23126Q38.08125 364.23126 38.565624 363.52814Q39.065624 362.825 39.065624 360.71564Q39.065624 358.59064 38.565624 357.90314Q38.08125 357.2 37.33125 357.2Q36.6125 357.2 36.175 357.8094Q35.628124 358.59064 35.628124 360.71564Z" fill-rule="nonzero"/><path fill="#000000" d="M34.55 334.83334L35.659374 334.7396Q35.784374 335.5521 36.221874 335.95834Q36.675 336.3646 37.315624 336.3646Q38.065624 336.3646 38.596874 335.78647Q39.128124 335.20834 39.128124 334.27084Q39.128124 333.3646 38.6125 332.84897Q38.1125 332.31772 37.284374 332.31772Q36.784374 332.31772 36.3625 332.5521Q35.95625 332.78647 35.721874 333.14584L34.7375 333.02084L35.565624 328.6146L39.846874 328.6146L39.846874 329.6146L36.409374 329.6146L35.95625 331.9271Q36.721874 331.38022 37.565624 331.38022Q38.690624 331.38022 39.45625 332.16147Q40.2375 332.94272 40.2375 334.1771Q40.2375 335.33334 39.565624 336.19272Q38.7375 337.22397 37.315624 337.22397Q36.14375 337.22397 35.39375 336.56772Q34.659374 335.91147 34.55 334.83334Z" fill-rule="nonzero"/><path fill="#000000" d="M31.51875 309.21667L30.471874 309.21667L30.471874 302.49792Q30.08125 302.8573 29.45625 303.2323Q28.846874 303.59167 28.3625 303.76355L28.3625 302.74792Q29.2375 302.32605 29.89375 301.74792Q30.565624 301.15417 30.846874 300.59167L31.51875 300.59167L31.51875 309.21667ZM34.55 304.9823Q34.55 303.45105 34.8625 302.52917Q35.175 301.59167 35.784374 301.09167Q36.409374 300.59167 37.346874 300.59167Q38.034374 300.59167 38.55 300.87292Q39.08125 301.15417 39.425 301.68542Q39.76875 302.20105 39.95625 302.95105Q40.14375 303.70105 40.14375 304.9823Q40.14375 306.49792 39.83125 307.4198Q39.534374 308.34167 38.909374 308.8573Q38.3 309.3573 37.346874 309.3573Q36.1125 309.3573 35.39375 308.46667Q34.55 307.40417 34.55 304.9823ZM35.628124 304.9823Q35.628124 307.09167 36.128124 307.7948Q36.628124 308.49792 37.346874 308.49792Q38.08125 308.49792 38.565624 307.7948Q39.065624 307.09167 39.065624 304.9823Q39.065624 302.8573 38.565624 302.1698Q38.08125 301.46667 37.33125 301.46667Q36.6125 301.46667 36.175 302.07605Q35.628124 302.8573 35.628124 304.9823Z" fill-rule="nonzero"/><path fill="#000000" d="M31.51875 281.35L30.471874 281.35L30.471874 274.63126Q30.08125 274.99063 29.45625 275.36563Q28.846874 275.725 28.3625 275.89688L28.3625 274.88126Q29.2375 274.45938 29.89375 273.88126Q30.565624 273.2875 30.846874 272.725L31.51875 272.725L31.51875 281.35ZM34.55 279.1L35.659374 279.00626Q35.784374 279.81876 36.221874 280.225Q36.675 280.63126 37.315624 280.63126Q38.065624 280.63126 38.596874 280.05313Q39.128124 279.475 39.128124 278.5375Q39.128124 277.63126 38.6125 277.11563Q38.1125 276.58438 37.284374 276.58438Q36.784374 276.58438 36.3625 276.81876Q35.95625 277.05313 35.721874 277.4125L34.7375 277.2875L35.565624 272.88126L39.846874 272.88126L39.846874 273.88126L36.409374 273.88126L35.95625 276.19376Q36.721874 275.64688 37.565624 275.64688Q38.690624 275.64688 39.45625 276.42813Q40.2375 277.20938 40.2375 278.44376Q40.2375 279.6 39.565624 280.45938Q38.7375 281.49063 37.315624 281.49063Q36.14375 281.49063 35.39375 280.83438Q34.659374 280.17813 34.55 279.1Z" fill-rule="nonzero"/><path fill="#000000" d="M33.096874 252.46771L33.096874 253.48334L27.409374 253.48334Q27.409374 253.10834 27.534374 252.74896Q27.753124 252.17084 28.221874 251.60834Q28.70625 251.04584 29.6125 250.31146Q31.01875 249.15521 31.503124 248.48334Q32.003124 247.81146 32.003124 247.21771Q32.003124 246.59271 31.55 246.17084Q31.096874 245.73334 30.378124 245.73334Q29.6125 245.73334 29.159374 246.18646Q28.70625 246.63959 28.690624 247.45209L27.6125 247.34271Q27.721874 246.12396 28.440624 245.49896Q29.175 244.85834 30.409374 244.85834Q31.64375 244.85834 32.3625 245.54584Q33.08125 246.23334 33.08125 247.24896Q33.08125 247.76459 32.8625 248.26459Q32.659374 248.74896 32.159374 249.31146Q31.675 249.85834 30.55 250.81146Q29.596874 251.60834 29.315624 251.90521Q29.05 252.18646 28.878124 252.46771L33.096874 252.46771ZM34.55 249.24896Q34.55 247.71771 34.8625 246.79584Q35.175 245.85834 35.784374 245.35834Q36.409374 244.85834 37.346874 244.85834Q38.034374 244.85834 38.55 245.13959Q39.08125 245.42084 39.425 245.95209Q39.76875 246.46771 39.95625 247.21771Q40.14375 247.96771 40.14375 249.24896Q40.14375 250.76459 39.83125 251.68646Q39.534374 252.60834 38.909374 253.12396Q38.3 253.62396 37.346874 253.62396Q36.1125 253.62396 35.39375 252.73334Q34.55 251.67084 34.55 249.24896ZM35.628124 249.24896Q35.628124 251.35834 36.128124 252.06146Q36.628124 252.76459 37.346874 252.76459Q38.08125 252.76459 38.565624 252.06146Q39.065624 251.35834 39.065624 249.24896Q39.065624 247.12396 38.565624 246.43646Q38.08125 245.73334 37.33125 245.73334Q36.6125 245.73334 36.175 246.34271Q35.628124 247.12396 35.628124 249.24896Z" fill-rule="nonzero"/><path fill="#000000" d="M33.096874 224.60104L33.096874 225.61667L27.409374 225.61667Q27.409374 225.24167 27.534374 224.8823Q27.753124 224.30417 28.221874 223.74167Q28.70625 223.17917 29.6125 222.4448Q31.01875 221.28854 31.503124 220.61667Q32.003124 219.9448 32.003124 219.35104Q32.003124 218.72604 31.55 218.30417Q31.096874 217.86667 30.378124 217.86667Q29.6125 217.86667 29.159374 218.3198Q28.70625 218.77292 28.690624 219.58542L27.6125 219.47604Q27.721874 218.2573 28.440624 217.6323Q29.175 216.99167 30.409374 216.99167Q31.64375 216.99167 32.3625 217.67917Q33.08125 218.36667 33.08125 219.3823Q33.08125 219.89792 32.8625 220.39792Q32.659374 220.8823 32.159374 221.4448Q31.675 221.99167 30.55 222.9448Q29.596874 223.74167 29.315624 224.03854Q29.05 224.3198 28.878124 224.60104L33.096874 224.60104ZM34.55 223.36667L35.659374 223.27292Q35.784374 224.08542 36.221874 224.49167Q36.675 224.89792 37.315624 224.89792Q38.065624 224.89792 38.596874 224.3198Q39.128124 223.74167 39.128124 222.80417Q39.128124 221.89792 38.6125 221.3823Q38.1125 220.85104 37.284374 220.85104Q36.784374 220.85104 36.3625 221.08542Q35.95625 221.3198 35.721874 221.67917L34.7375 221.55417L35.565624 217.14792L39.846874 217.14792L39.846874 218.14792L36.409374 218.14792L35.95625 220.46042Q36.721874 219.91354 37.565624 219.91354Q38.690624 219.91354 39.45625 220.6948Q40.2375 221.47604 40.2375 222.71042Q40.2375 223.86667 39.565624 224.72604Q38.7375 225.7573 37.315624 225.7573Q36.14375 225.7573 35.39375 225.10104Q34.659374 224.4448 34.55 223.36667Z" fill-rule="nonzero"/><path fill="#000000" d="M27.55 195.48438L28.6125 195.34375Q28.784374 196.23438 29.221874 196.64062Q29.659374 197.03125 30.284374 197.03125Q31.034374 197.03125 31.55 196.51562Q32.065624 196.0 32.065624 195.23438Q32.065624 194.51562 31.58125 194.04688Q31.1125 193.5625 30.378124 193.5625Q30.08125 193.5625 29.628124 193.6875L29.753124 192.75Q29.8625 192.76562 29.925 192.76562Q30.596874 192.76562 31.128124 192.42188Q31.675 192.0625 31.675 191.32812Q31.675 190.75 31.284374 190.375Q30.89375 189.98438 30.26875 189.98438Q29.659374 189.98438 29.2375 190.375Q28.83125 190.76562 28.721874 191.53125L27.659374 191.34375Q27.846874 190.29688 28.534374 189.71875Q29.221874 189.125 30.2375 189.125Q30.940624 189.125 31.534374 189.4375Q32.128124 189.73438 32.440624 190.25Q32.753124 190.76562 32.753124 191.35938Q32.753124 191.90625 32.45625 192.375Q32.159374 192.82812 31.58125 193.09375Q32.33125 193.26562 32.753124 193.82812Q33.175 194.375 33.175 195.21875Q33.175 196.34375 32.346874 197.125Q31.534374 197.90625 30.284374 197.90625Q29.159374 197.90625 28.409374 197.23438Q27.659374 196.54688 27.55 195.48438ZM34.55 193.51562Q34.55 191.98438 34.8625 191.0625Q35.175 190.125 35.784374 189.625Q36.409374 189.125 37.346874 189.125Q38.034374 189.125 38.55 189.40625Q39.08125 189.6875 39.425 190.21875Q39.76875 190.73438 39.95625 191.48438Q40.14375 192.23438 40.14375 193.51562Q40.14375 195.03125 39.83125 195.95312Q39.534374 196.875 38.909374 197.39062Q38.3 197.89062 37.346874 197.89062Q36.1125 197.89062 35.39375 197.0Q34.55 195.9375 34.55 193.51562ZM35.628124 193.51562Q35.628124 195.625 36.128124 196.32812Q36.628124 197.03125 37.346874 197.03125Q38.08125 197.03125 38.565624 196.32812Q39.065624 195.625 39.065624 193.51562Q39.065624 191.39062 38.565624 190.70312Q38.08125 190.0 37.33125 190.0Q36.6125 190.0 36.175 190.60938Q35.628124 191.39062 35.628124 193.51562Z" fill-rule="nonzero"/><path fill="#000000" d="M27.55 167.6177L28.6125 167.47708Q28.784374 168.3677 29.221874 168.77396Q29.659374 169.16458 30.284374 169.16458Q31.034374 169.16458 31.55 168.64896Q32.065624 168.13333 32.065624 167.3677Q32.065624 166.64896 31.58125 166.1802Q31.1125 165.69583 30.378124 165.69583Q30.08125 165.69583 29.628124 165.82083L29.753124 164.88333Q29.8625 164.89896 29.925 164.89896Q30.596874 164.89896 31.128124 164.5552Q31.675 164.19583 31.675 163.46146Q31.675 162.88333 31.284374 162.50833Q30.89375 162.1177 30.26875 162.1177Q29.659374 162.1177 29.2375 162.50833Q28.83125 162.89896 28.721874 163.66458L27.659374 163.47708Q27.846874 162.4302 28.534374 161.85208Q29.221874 161.25833 30.2375 161.25833Q30.940624 161.25833 31.534374 161.57083Q32.128124 161.8677 32.440624 162.38333Q32.753124 162.89896 32.753124 163.4927Q32.753124 164.03958 32.45625 164.50833Q32.159374 164.96146 31.58125 165.22708Q32.33125 165.39896 32.753124 165.96146Q33.175 166.50833 33.175 167.35208Q33.175 168.47708 32.346874 169.25833Q31.534374 170.03958 30.284374 170.03958Q29.159374 170.03958 28.409374 169.3677Q27.659374 168.6802 27.55 167.6177ZM34.55 167.63333L35.659374 167.53958Q35.784374 168.35208 36.221874 168.75833Q36.675 169.16458 37.315624 169.16458Q38.065624 169.16458 38.596874 168.58646Q39.128124 168.00833 39.128124 167.07083Q39.128124 166.16458 38.6125 165.64896Q38.1125 165.1177 37.284374 165.1177Q36.784374 165.1177 36.3625 165.35208Q35.95625 165.58646 35.721874 165.94583L34.7375 165.82083L35.565624 161.41458L39.846874 161.41458L39.846874 162.41458L36.409374 162.41458L35.95625 164.72708Q36.721874 164.1802 37.565624 164.1802Q38.690624 164.1802 39.45625 164.96146Q40.2375 165.7427 40.2375 166.97708Q40.2375 168.13333 39.565624 168.9927Q38.7375 170.02396 37.315624 170.02396Q36.14375 170.02396 35.39375 169.3677Q34.659374 168.71146 34.55 167.63333Z" fill-rule="nonzero"/><path fill="#000000" d="M30.925 142.01666L30.925 139.95416L27.20625 139.95416L27.20625 138.98541L31.128124 133.42291L31.9875 133.42291L31.9875 138.98541L33.14375 138.98541L33.14375 139.95416L31.9875 139.95416L31.9875 142.01666L30.925 142.01666ZM30.925 138.98541L30.925 135.12604L28.2375 138.98541L30.925 138.98541ZM34.55 137.78229Q34.55 136.25104 34.8625 135.32916Q35.175 134.39166 35.784374 133.89166Q36.409374 133.39166 37.346874 133.39166Q38.034374 133.39166 38.55 133.67291Q39.08125 133.95416 39.425 134.48541Q39.76875 135.00104 39.95625 135.75104Q40.14375 136.50104 40.14375 137.78229Q40.14375 139.29791 39.83125 140.21979Q39.534374 141.14166 38.909374 141.65729Q38.3 142.15729 37.346874 142.15729Q36.1125 142.15729 35.39375 141.26666Q34.55 140.20416 34.55 137.78229ZM35.628124 137.78229Q35.628124 139.89166 36.128124 140.59479Q36.628124 141.29791 37.346874 141.29791Q38.08125 141.29791 38.565624 140.59479Q39.065624 139.89166 39.065624 137.78229Q39.065624 135.65729 38.565624 134.96979Q38.08125 134.26666 37.33125 134.26666Q36.6125 134.26666 36.175 134.87604Q35.628124 135.65729 35.628124 137.78229Z" fill-rule="nonzero"/><path fill="#000000" d="M30.925 114.15L30.925 112.0875L27.20625 112.0875L27.20625 111.11875L31.128124 105.55625L31.9875 105.55625L31.9875 111.11875L33.14375 111.11875L33.14375 112.0875L31.9875 112.0875L31.9875 114.15L30.925 114.15ZM30.925 111.11875L30.925 107.25938L28.2375 111.11875L30.925 111.11875ZM34.55 111.9L35.659374 111.80625Q35.784374 112.61875 36.221874 113.025Q36.675 113.43125 37.315624 113.43125Q38.065624 113.43125 38.596874 112.85313Q39.128124 112.275 39.128124 111.3375Q39.128124 110.43125 38.6125 109.91563Q38.1125 109.38438 37.284374 109.38438Q36.784374 109.38438 36.3625 109.61875Q35.95625 109.85313 35.721874 110.2125L34.7375 110.0875L35.565624 105.68125L39.846874 105.68125L39.846874 106.68125L36.409374 106.68125L35.95625 108.99375Q36.721874 108.44688 37.565624 108.44688Q38.690624 108.44688 39.45625 109.22813Q40.2375 110.00938 40.2375 111.24375Q40.2375 112.4 39.565624 113.25938Q38.7375 114.29063 37.315624 114.29063Q36.14375 114.29063 35.39375 113.63438Q34.659374 112.97813 34.55 111.9Z" fill-rule="nonzero"/><path fill="#000000" d="M27.55 84.03333L28.659374 83.93958Q28.784374 84.75208 29.221874 85.15833Q29.675 85.56458 30.315624 85.56458Q31.065624 85.56458 31.596874 84.98646Q32.128124 84.40833 32.128124 83.47083Q32.128124 82.56458 31.6125 82.04896Q31.1125 81.51771 30.284374 81.51771Q29.784374 81.51771 29.3625 81.75208Q28.95625 81.98646 28.721874 82.34583L27.7375 82.22083L28.565624 77.81458L32.846874 77.81458L32.846874 78.81458L29.409374 78.81458L28.95625 81.12708Q29.721874 80.58021 30.565624 80.58021Q31.690624 80.58021 32.45625 81.36146Q33.2375 82.14271 33.2375 83.37708Q33.2375 84.53333 32.565624 85.39271Q31.7375 86.42396 30.315624 86.42396Q29.14375 86.42396 28.39375 85.76771Q27.659374 85.11146 27.55 84.03333ZM34.55 82.04896Q34.55 80.51771 34.8625 79.59583Q35.175 78.65833 35.784374 78.15833Q36.409374 77.65833 37.346874 77.65833Q38.034374 77.65833 38.55 77.93958Q39.08125 78.22083 39.425 78.75208Q39.76875 79.26771 39.95625 80.01771Q40.14375 80.76771 40.14375 82.04896Q40.14375 83.56458 39.83125 84.48646Q39.534374 85.40833 38.909374 85.92396Q38.3 86.42396 37.346874 86.42396Q36.1125 86.42396 35.39375 85.53333Q34.55 84.47083 34.55 82.04896ZM35.628124 82.04896Q35.628124 84.15833 36.128124 84.86146Q36.628124 85.56458 37.346874 85.56458Q38.08125 85.56458 38.565624 84.86146Q39.065624 84.15833 39.065624 82.04896Q39.065624 79.92396 38.565624 79.23646Q38.08125 78.53333 37.33125 78.53333Q36.6125 78.53333 36.175 79.14271Q35.628124 79.92396 35.628124 82.04896Z" fill-rule="nonzero"/><path fill="#000000" d="M27.55 56.166668L28.659374 56.072918Q28.784374 56.885418 29.221874 57.291668Q29.675 57.697918 30.315624 57.697918Q31.065624 57.697918 31.596874 57.119793Q32.128124 56.541668 32.128124 55.604168Q32.128124 54.697918 31.6125 54.182293Q31.1125 53.651043 30.284374 53.651043Q29.784374 53.651043 29.3625 53.885418Q28.95625 54.119793 28.721874 54.479168L27.7375 54.354168L28.565624 49.947918L32.846874 49.947918L32.846874 50.947918L29.409374 50.947918L28.95625 53.260418Q29.721874 52.713543 30.565624 52.713543Q31.690624 52.713543 32.45625 53.494793Q33.2375 54.276043 33.2375 55.510418Q33.2375 56.666668 32.565624 57.526043Q31.7375 58.557293 30.315624 58.557293Q29.14375 58.557293 28.39375 57.901043Q27.659374 57.244793 27.55 56.166668ZM34.55 56.166668L35.659374 56.072918Q35.784374 56.885418 36.221874 57.291668Q36.675 57.697918 37.315624 57.697918Q38.065624 57.697918 38.596874 57.119793Q39.128124 56.541668 39.128124 55.604168Q39.128124 54.697918 38.6125 54.182293Q38.1125 53.651043 37.284374 53.651043Q36.784374 53.651043 36.3625 53.885418Q35.95625 54.119793 35.721874 54.479168L34.7375 54.354168L35.565624 49.947918L39.846874 49.947918L39.846874 50.947918L36.409374 50.947918L35.95625 53.260418Q36.721874 52.713543 37.565624 52.713543Q38.690624 52.713543 39.45625 53.494793Q40.2375 54.276043 40.2375 55.510418Q40.2375 56.666668 39.565624 57.526043Q38.7375 58.557293 37.315624 58.557293Q36.14375 58.557293 35.39375 57.901043Q34.659374 57.244793 34.55 56.166668Z" fill-rule="nonzero"/><path fill="#000000" d="M73.69497 377.95L73.69497 369.35626L75.41372 369.35626L77.44497 375.4344Q77.72622 376.29376 77.85122 376.71564Q77.991844 376.2469 78.304344 375.34064L80.366844 369.35626L81.898094 369.35626L81.898094 377.95L80.804344 377.95L80.804344 370.7625L78.304344 377.95L77.273094 377.95L74.78872 370.6375L74.78872 377.95L73.69497 377.95ZM82.585594 377.95L82.585594 371.73126L83.53872 371.73126L83.53872 372.66876Q83.898094 372.0125 84.19497 371.8094Q84.50747 371.59064 84.88247 371.59064Q85.41372 371.59064 85.960594 371.91876L85.60122 372.90314Q85.210594 372.66876 84.835594 372.66876Q84.47622 372.66876 84.19497 372.8875Q83.929344 373.09064 83.81997 373.46564Q83.63247 374.02814 83.63247 374.6844L83.63247 377.95L82.585594 377.95ZM86.03872 377.95L86.03872 377.09064L90.00747 372.54376Q89.31997 372.575 88.804344 372.575L86.273094 372.575L86.273094 371.73126L91.366844 371.73126L91.366844 372.41876L87.991844 376.3719L87.335594 377.09064Q88.054344 377.04376 88.66372 377.04376L91.554344 377.04376L91.554344 377.95L86.03872 377.95Z" fill-rule="nonzero"/><path fill="#000000" d="M124.27664 377.95L127.57352 369.35626L128.79227 369.35626L132.30789 377.95L131.02664 377.95L130.01102 375.34064L126.43289 375.34064L125.47977 377.95L124.27664 377.95ZM126.76102 374.41876L129.66727 374.41876L128.77664 372.04376Q128.35477 370.96564 128.16727 370.2625Q127.99539 371.09064 127.69852 371.90314L126.76102 374.41876ZM132.08914 380.34064L132.08914 371.73126L133.04227 371.73126L133.04227 372.52814Q133.38602 372.0594 133.80789 371.825Q134.24539 371.59064 134.85477 371.59064Q135.65164 371.59064 136.26102 371.9969Q136.87039 372.40314 137.16727 373.15314Q137.47977 373.90314 137.47977 374.79376Q137.47977 375.7469 137.13602 376.5125Q136.80789 377.27814 136.15164 377.6844Q135.49539 378.09064 134.77664 378.09064Q134.24539 378.09064 133.82352 377.8719Q133.40164 377.6375 133.13602 377.3094L133.13602 380.34064L132.08914 380.34064ZM133.04227 374.8719Q133.04227 376.075 133.52664 376.65314Q134.01102 377.21564 134.69852 377.21564Q135.40164 377.21564 135.90164 376.6219Q136.40164 376.02814 136.40164 374.77814Q136.40164 373.59064 135.91727 373.0125Q135.43289 372.41876 134.74539 372.41876Q134.07352 372.41876 133.55789 373.04376Q133.04227 373.66876 133.04227 374.8719ZM139.07352 377.95L139.07352 371.73126L140.02664 371.73126L140.02664 372.66876Q140.38602 372.0125 140.68289 371.8094Q140.99539 371.59064 141.37039 371.59064Q141.90164 371.59064 142.44852 371.91876L142.08914 372.90314Q141.69852 372.66876 141.32352 372.66876Q140.96414 372.66876 140.68289 372.8875Q140.41727 373.09064 140.30789 373.46564Q140.12039 374.02814 140.12039 374.6844L140.12039 377.95L139.07352 377.95Z" fill-rule="nonzero"/><path fill="#000000" d="M176.17082 377.95L176.17082 369.35626L177.88957 369.35626L179.92082 375.4344Q180.20207 376.29376 180.32707 376.71564Q180.4677 376.2469 180.7802 375.34064L182.8427 369.35626L184.37395 369.35626L184.37395 377.95L183.2802 377.95L183.2802 370.7625L180.7802 377.95L179.74895 377.95L177.26457 370.6375L177.26457 377.95L176.17082 377.95ZM189.13957 377.1844Q188.54582 377.6844 187.99895 377.8875Q187.4677 378.09064 186.8427 378.09064Q185.81145 378.09064 185.26457 377.59064Q184.7177 377.09064 184.7177 376.3094Q184.7177 375.85626 184.92082 375.48126Q185.12395 375.09064 185.4677 374.8719Q185.81145 374.6375 186.23332 374.52814Q186.5302 374.4344 187.17082 374.35626Q188.43645 374.21564 189.04582 373.9969Q189.04582 373.77814 189.04582 373.73126Q189.04582 373.075 188.74895 372.8094Q188.3427 372.46564 187.54582 372.46564Q186.81145 372.46564 186.45207 372.73126Q186.0927 372.98126 185.92082 373.6375L184.88957 373.4969Q185.0302 372.84064 185.35832 372.4344Q185.68645 372.02814 186.29582 371.8094Q186.9052 371.59064 187.70207 371.59064Q188.49895 371.59064 188.99895 371.77814Q189.49895 371.96564 189.73332 372.2469Q189.9677 372.52814 190.06145 372.96564Q190.10832 373.23126 190.10832 373.9344L190.10832 375.34064Q190.10832 376.8094 190.17082 377.2Q190.24895 377.59064 190.45207 377.95L189.3427 377.95Q189.18645 377.6219 189.13957 377.1844ZM189.04582 374.825Q188.4677 375.0594 187.32707 375.23126Q186.67082 375.325 186.4052 375.45Q186.13957 375.5594 185.98332 375.77814Q185.8427 375.9969 185.8427 376.27814Q185.8427 376.7 186.1552 376.98126Q186.48332 377.2625 187.0927 377.2625Q187.70207 377.2625 188.17082 376.9969Q188.6552 376.73126 188.87395 376.2625Q189.04582 375.90314 189.04582 375.21564L189.04582 374.825ZM192.07707 370.575L192.07707 369.35626L193.13957 369.35626L193.13957 370.575L192.07707 370.575ZM192.07707 377.95L192.07707 371.73126L193.13957 371.73126L193.13957 377.95L192.07707 377.95Z" fill-rule="nonzero"/><path fill="#000000" d="M226.61186 375.5125L227.64311 375.3719Q227.67436 376.35626 228.00249 376.71564Q228.33061 377.075 228.92436 377.075Q229.34624 377.075 229.65874 376.8875Q229.97124 376.6844 230.08061 376.35626Q230.20561 376.0125 230.20561 375.27814L230.20561 369.35626L231.33061 369.35626L231.33061 375.21564Q231.33061 376.29376 231.06499 376.8875Q230.81499 377.48126 230.25249 377.79376Q229.68999 378.09064 228.92436 378.09064Q227.79936 378.09064 227.18999 377.45Q226.59624 376.79376 226.61186 375.5125ZM237.14311 377.95L237.14311 377.02814Q236.40874 378.09064 235.15874 378.09064Q234.61186 378.09064 234.12749 377.8875Q233.65874 377.66876 233.42436 377.35626Q233.18999 377.02814 233.09624 376.5594Q233.03374 376.2625 233.03374 375.575L233.03374 371.73126L234.09624 371.73126L234.09624 375.1844Q234.09624 375.9969 234.15874 376.29376Q234.25249 376.7 234.56499 376.95Q234.89311 377.1844 235.37749 377.1844Q235.84624 377.1844 236.25249 376.95Q236.67436 376.7 236.84624 376.27814Q237.03374 375.85626 237.03374 375.0594L237.03374 371.73126L238.08061 371.73126L238.08061 377.95L237.14311 377.95ZM240.06499 377.95L240.06499 371.73126L241.00249 371.73126L241.00249 372.60626Q241.68999 371.59064 242.98686 371.59064Q243.54936 371.59064 244.01811 371.79376Q244.50249 371.9969 244.73686 372.325Q244.97124 372.65314 245.06499 373.09064Q245.11186 373.3875 245.11186 374.1219L245.11186 377.95L244.06499 377.95L244.06499 374.16876Q244.06499 373.5125 243.93999 373.2Q243.81499 372.8875 243.50249 372.7Q243.18999 372.4969 242.76811 372.4969Q242.09624 372.4969 241.59624 372.9344Q241.11186 373.35626 241.11186 374.54376L241.11186 377.95L240.06499 377.95Z" fill-rule="nonzero"/><path fill="#000000" d="M280.0998 375.5125L281.13104 375.3719Q281.1623 376.35626 281.49042 376.71564Q281.81854 377.075 282.4123 377.075Q282.83417 377.075 283.14667 376.8875Q283.45917 376.6844 283.56854 376.35626Q283.69354 376.0125 283.69354 375.27814L283.69354 369.35626L284.81854 369.35626L284.81854 375.21564Q284.81854 376.29376 284.55292 376.8875Q284.30292 377.48126 283.74042 377.79376Q283.17792 378.09064 282.4123 378.09064Q281.2873 378.09064 280.67792 377.45Q280.08417 376.79376 280.0998 375.5125ZM290.63104 377.95L290.63104 377.02814Q289.89667 378.09064 288.64667 378.09064Q288.0998 378.09064 287.61542 377.8875Q287.14667 377.66876 286.9123 377.35626Q286.67792 377.02814 286.58417 376.5594Q286.52167 376.2625 286.52167 375.575L286.52167 371.73126L287.58417 371.73126L287.58417 375.1844Q287.58417 375.9969 287.64667 376.29376Q287.74042 376.7 288.05292 376.95Q288.38104 377.1844 288.86542 377.1844Q289.33417 377.1844 289.74042 376.95Q290.1623 376.7 290.33417 376.27814Q290.52167 375.85626 290.52167 375.0594L290.52167 371.73126L291.56854 371.73126L291.56854 377.95L290.63104 377.95ZM293.52167 377.95L293.52167 369.35626L294.58417 369.35626L294.58417 377.95L293.52167 377.95Z" fill-rule="nonzero"/><path fill="#000000" d="M328.72833 377.95L332.0252 369.35626L333.24396 369.35626L336.75958 377.95L335.47833 377.95L334.4627 375.34064L330.88458 375.34064L329.93146 377.95L328.72833 377.95ZM331.2127 374.41876L334.11896 374.41876L333.22833 372.04376Q332.80646 370.96564 332.61896 370.2625Q332.44708 371.09064 332.1502 371.90314L331.2127 374.41876ZM340.61896 377.95L340.61896 377.02814Q339.88458 378.09064 338.63458 378.09064Q338.0877 378.09064 337.60333 377.8875Q337.13458 377.66876 336.9002 377.35626Q336.66583 377.02814 336.57208 376.5594Q336.50958 376.2625 336.50958 375.575L336.50958 371.73126L337.57208 371.73126L337.57208 375.1844Q337.57208 375.9969 337.63458 376.29376Q337.72833 376.7 338.04083 376.95Q338.36896 377.1844 338.85333 377.1844Q339.32208 377.1844 339.72833 376.95Q340.1502 376.7 340.32208 376.27814Q340.50958 375.85626 340.50958 375.0594L340.50958 371.73126L341.55646 371.73126L341.55646 377.95L340.61896 377.95ZM343.3377 378.46564L344.36896 378.6219Q344.43146 379.09064 344.72833 379.3094Q345.11896 379.60626 345.79083 379.60626Q346.5252 379.60626 346.91583 379.3094Q347.32208 379.0125 347.4627 378.4969Q347.55646 378.16876 347.54083 377.1375Q346.85333 377.95 345.82208 377.95Q344.54083 377.95 343.8377 377.02814Q343.13458 376.09064 343.13458 374.8094Q343.13458 373.91876 343.44708 373.16876Q343.7752 372.40314 344.38458 371.9969Q344.99396 371.59064 345.82208 371.59064Q346.93146 371.59064 347.6502 372.48126L347.6502 371.73126L348.61896 371.73126L348.61896 377.10626Q348.61896 378.5594 348.32208 379.16876Q348.0252 379.77814 347.38458 380.1219Q346.74396 380.48126 345.80646 380.48126Q344.69708 380.48126 344.00958 379.98126Q343.32208 379.48126 343.3377 378.46564ZM344.2127 374.73126Q344.2127 375.95 344.69708 376.5125Q345.18146 377.075 345.91583 377.075Q346.6502 377.075 347.13458 376.5125Q347.63458 375.95 347.63458 374.7625Q347.63458 373.6219 347.11896 373.04376Q346.61896 372.46564 345.9002 372.46564Q345.19708 372.46564 344.69708 373.04376Q344.2127 373.60626 344.2127 374.73126Z" fill-rule="nonzero"/><path fill="#000000" d="M380.27875 375.1844L381.34125 375.09064Q381.41937 375.7469 381.70062 376.15314Q381.98187 376.5594 382.56 376.825Q383.15375 377.075 383.88812 377.075Q384.52875 377.075 385.02875 376.8875Q385.52875 376.6844 385.76312 376.35626Q386.01312 376.0125 386.01312 375.6219Q386.01312 375.21564 385.77875 374.91876Q385.54437 374.60626 385.01312 374.40314Q384.65375 374.2625 383.46625 373.98126Q382.29437 373.7 381.82562 373.45Q381.20062 373.1219 380.90375 372.65314Q380.60687 372.16876 380.60687 371.575Q380.60687 370.9344 380.96625 370.3719Q381.34125 369.79376 382.04437 369.5125Q382.76312 369.21564 383.6225 369.21564Q384.57562 369.21564 385.31 369.52814Q386.04437 369.825 386.435 370.4344Q386.82562 371.02814 386.85687 371.77814L385.76312 371.85626Q385.66937 371.04376 385.15375 370.6375Q384.65375 370.21564 383.66937 370.21564Q382.63812 370.21564 382.16937 370.59064Q381.70062 370.96564 381.70062 371.4969Q381.70062 371.96564 382.02875 372.2625Q382.35687 372.5594 383.73187 372.8719Q385.1225 373.1844 385.63812 373.41876Q386.38812 373.77814 386.7475 374.3094Q387.10687 374.825 387.10687 375.52814Q387.10687 376.21564 386.71625 376.825Q386.32562 377.41876 385.59125 377.7625Q384.85687 378.09064 383.935 378.09064Q382.76312 378.09064 381.96625 377.7625Q381.185 377.41876 380.73187 376.73126Q380.29437 376.04376 380.27875 375.1844ZM392.77875 375.95L393.8725 376.075Q393.6225 377.02814 392.91937 377.5594Q392.21625 378.09064 391.13812 378.09064Q389.77875 378.09064 388.96625 377.2469Q388.16937 376.40314 388.16937 374.8875Q388.16937 373.325 388.98187 372.46564Q389.79437 371.59064 391.07562 371.59064Q392.32562 371.59064 393.10687 372.4344Q393.90375 373.27814 393.90375 374.825Q393.90375 374.91876 393.90375 375.10626L389.26312 375.10626Q389.32562 376.1375 389.84125 376.6844Q390.35687 377.21564 391.13812 377.21564Q391.71625 377.21564 392.1225 376.91876Q392.54437 376.60626 392.77875 375.95ZM389.32562 374.2469L392.79437 374.2469Q392.73187 373.45 392.40375 373.0594Q391.88812 372.45 391.09125 372.45Q390.35687 372.45 389.85687 372.9344Q389.3725 373.41876 389.32562 374.2469ZM395.52875 380.34064L395.52875 371.73126L396.48187 371.73126L396.48187 372.52814Q396.82562 372.0594 397.2475 371.825Q397.685 371.59064 398.29437 371.59064Q399.09125 371.59064 399.70062 371.9969Q400.31 372.40314 400.60687 373.15314Q400.91937 373.90314 400.91937 374.79376Q400.91937 375.7469 400.57562 376.5125Q400.2475 377.27814 399.59125 377.6844Q398.935 378.09064 398.21625 378.09064Q397.685 378.09064 397.26312 377.8719Q396.84125 377.6375 396.57562 377.3094L396.57562 380.34064L395.52875 380.34064ZM396.48187 374.8719Q396.48187 376.075 396.96625 376.65314Q397.45062 377.21564 398.13812 377.21564Q398.84125 377.21564 399.34125 376.6219Q399.84125 376.02814 399.84125 374.77814Q399.84125 373.59064 399.35687 373.0125Q398.8725 372.41876 398.185 372.41876Q397.51312 372.41876 396.9975 373.04376Q396.48187 373.66876 396.48187 374.8719Z" fill-rule="nonzero"/><path fill="#000000" d="M433.79794 373.7625Q433.79794 371.6219 434.93857 370.41876Q436.09482 369.2 437.90732 369.2Q439.11044 369.2 440.06357 369.77814Q441.0167 370.34064 441.5167 371.35626Q442.0167 372.3719 442.0167 373.66876Q442.0167 374.96564 441.48544 375.9969Q440.9542 377.02814 439.98544 377.5594Q439.03232 378.09064 437.90732 378.09064Q436.68857 378.09064 435.73544 377.5125Q434.78232 376.91876 434.28232 375.91876Q433.79794 374.90314 433.79794 373.7625ZM434.96982 373.77814Q434.96982 375.34064 435.79794 376.23126Q436.6417 377.1219 437.90732 377.1219Q439.18857 377.1219 440.0167 376.23126Q440.84482 375.325 440.84482 373.65314Q440.84482 372.60626 440.48544 371.825Q440.1417 371.04376 439.4542 370.6219Q438.7667 370.1844 437.92294 370.1844Q436.71982 370.1844 435.84482 371.0125Q434.96982 371.84064 434.96982 373.77814ZM443.0167 377.95L443.0167 369.35626L444.0792 369.35626L444.0792 374.2625L446.56357 371.73126L447.93857 371.73126L445.54794 374.02814L448.17294 377.95L446.87607 377.95L444.81357 374.7625L444.0792 375.48126L444.0792 377.95L443.0167 377.95ZM451.31357 377.0125L451.46982 377.9344Q451.0167 378.02814 450.67294 378.02814Q450.09482 378.02814 449.78232 377.85626Q449.46982 377.66876 449.3292 377.3719Q449.2042 377.075 449.2042 376.1219L449.2042 372.54376L448.43857 372.54376L448.43857 371.73126L449.2042 371.73126L449.2042 370.1844L450.25107 369.5594L450.25107 371.73126L451.31357 371.73126L451.31357 372.54376L450.25107 372.54376L450.25107 376.1844Q450.25107 376.6375 450.29794 376.7625Q450.36044 376.8875 450.48544 376.96564Q450.61044 377.04376 450.84482 377.04376Q451.03232 377.04376 451.31357 377.0125Z" fill-rule="nonzero"/><path fill="#000000" d="M484.1296 377.95L484.1296 369.35626L485.28586 369.35626L489.80148 376.10626L489.80148 369.35626L490.89523 369.35626L490.89523 377.95L489.72336 377.95L485.20773 371.2L485.20773 377.95L484.1296 377.95ZM492.61398 374.84064Q492.61398 373.10626 493.5671 372.27814Q494.36398 371.59064 495.52023 371.59064Q496.80148 371.59064 497.61398 372.4344Q498.4421 373.2625 498.4421 374.7469Q498.4421 375.95 498.08273 376.6375Q497.72336 377.325 497.02023 377.71564Q496.33273 378.09064 495.52023 378.09064Q494.22336 378.09064 493.41086 377.2625Q492.61398 376.41876 492.61398 374.84064ZM493.6921 374.84064Q493.6921 376.02814 494.20773 376.6219Q494.73898 377.21564 495.52023 377.21564Q496.3171 377.21564 496.83273 376.6219Q497.34836 376.02814 497.34836 374.8094Q497.34836 373.65314 496.8171 373.0594Q496.30148 372.46564 495.52023 372.46564Q494.73898 372.46564 494.20773 373.0594Q493.6921 373.6375 493.6921 374.84064ZM501.72336 377.95L499.36398 371.73126L500.47336 371.73126L501.8171 375.45Q502.02023 376.0594 502.20773 376.7Q502.34836 376.21564 502.59836 375.52814L503.98898 371.73126L505.0671 371.73126L502.70773 377.95L501.72336 377.95Z" fill-rule="nonzero"/><path fill="#000000" d="M535.61755 377.95L535.61755 369.35626L538.5863 369.35626Q539.5863 369.35626 540.11755 369.48126Q540.8519 369.65314 541.36755 370.09064Q542.05505 370.66876 542.3832 371.575Q542.7269 372.46564 542.7269 373.60626Q542.7269 374.59064 542.49255 375.34064Q542.2738 376.09064 541.9144 376.59064Q541.55505 377.09064 541.11755 377.3719Q540.6957 377.65314 540.1019 377.8094Q539.5082 377.95 538.7269 377.95L535.61755 377.95ZM536.7582 376.9344L538.5863 376.9344Q539.4457 376.9344 539.93005 376.77814Q540.4144 376.6219 540.6957 376.325Q541.1019 375.9344 541.3207 375.2469Q541.55505 374.5594 541.55505 373.59064Q541.55505 372.2469 541.1019 371.52814Q540.6644 370.79376 540.0394 370.54376Q539.5707 370.3719 538.5707 370.3719L536.7582 370.3719L536.7582 376.9344ZM548.74255 375.95L549.8363 376.075Q549.5863 377.02814 548.8832 377.5594Q548.18005 378.09064 547.1019 378.09064Q545.74255 378.09064 544.93005 377.2469Q544.1332 376.40314 544.1332 374.8875Q544.1332 373.325 544.9457 372.46564Q545.7582 371.59064 547.0394 371.59064Q548.2894 371.59064 549.0707 372.4344Q549.86755 373.27814 549.86755 374.825Q549.86755 374.91876 549.86755 375.10626L545.2269 375.10626Q545.2894 376.1375 545.80505 376.6844Q546.3207 377.21564 547.1019 377.21564Q547.68005 377.21564 548.0863 376.91876Q548.5082 376.60626 548.74255 375.95ZM545.2894 374.2469L548.7582 374.2469Q548.6957 373.45 548.36755 373.0594Q547.8519 372.45 547.05505 372.45Q546.3207 372.45 545.8207 372.9344Q545.3363 373.41876 545.2894 374.2469ZM550.93005 377.95L550.93005 377.09064L554.8988 372.54376Q554.2113 372.575 553.6957 372.575L551.1644 372.575L551.1644 371.73126L556.2582 371.73126L556.2582 372.41876L552.8832 376.3719L552.2269 377.09064Q552.9457 377.04376 553.55505 377.04376L556.4457 377.04376L556.4457 377.95L550.93005 377.95Z" fill-rule="nonzero"/><path fill="#4285f4" d="M125.5 22.05C125.5 21.497715 125.947716 21.05 126.5 21.05L136.5 21.05C137.05229 21.05 137.5 21.497715 137.5 22.05L137.5 32.05C137.5 32.602283 137.05229 33.05 136.5 33.05L126.5 33.05C125.947716 33.05 125.5 32.602283 125.5 32.05Z" fill-rule="nonzero"/><path fill="#1a1a1a" d="M146.45312 31.05L146.45312 22.45625L152.65625 22.45625L152.65625 23.471874L147.59375 23.471874L147.59375 26.096874L152.34375 26.096874L152.34375 27.1125L147.59375 27.1125L147.59375 30.034374L152.85938 30.034374L152.85938 31.05L146.45312 31.05ZM154.28125 31.05L154.28125 24.83125L155.23438 24.83125L155.23438 25.76875Q155.59375 25.1125 155.89062 24.909374Q156.20312 24.690624 156.57812 24.690624Q157.10938 24.690624 157.65625 25.01875L157.29688 26.003124Q156.90625 25.76875 156.53125 25.76875Q156.17188 25.76875 155.89062 25.9875Q155.625 26.190624 155.51562 26.565624Q155.32812 27.128124 155.32812 27.784374L155.32812 31.05L154.28125 31.05ZM159.4375 31.05L157.53125 24.83125L158.625 24.83125L159.60938 28.425L159.98438 29.753124Q160.01562 29.659374 160.3125 28.471874L161.29688 24.83125L162.375 24.83125L163.3125 28.440624L163.625 29.628124L163.98438 28.425L165.04688 24.83125L166.07812 24.83125L164.125 31.05L163.03125 31.05L162.04688 27.315624L161.79688 26.26875L160.54688 31.05L159.4375 31.05ZM171.35938 30.284374Q170.76562 30.784374 170.21875 30.9875Q169.6875 31.190624 169.0625 31.190624Q168.03125 31.190624 167.48438 30.690624Q166.9375 30.190624 166.9375 29.409374Q166.9375 28.95625 167.14062 28.58125Q167.34375 28.190624 167.6875 27.971874Q168.03125 27.7375 168.45312 27.628124Q168.75 27.534374 169.39062 27.45625Q170.65625 27.315624 171.26562 27.096874Q171.26562 26.878124 171.26562 26.83125Q171.26562 26.175 170.96875 25.909374Q170.5625 25.565624 169.76562 25.565624Q169.03125 25.565624 168.67188 25.83125Q168.3125 26.08125 168.14062 26.7375L167.10938 26.596874Q167.25 25.940624 167.57812 25.534374Q167.90625 25.128124 168.51562 24.909374Q169.125 24.690624 169.92188 24.690624Q170.71875 24.690624 171.21875 24.878124Q171.71875 25.065624 171.95312 25.346874Q172.1875 25.628124 172.28125 26.065624Q172.32812 26.33125 172.32812 27.034374L172.32812 28.440624Q172.32812 29.909374 172.39062 30.3Q172.46875 30.690624 172.67188 31.05L171.5625 31.05Q171.40625 30.721874 171.35938 30.284374ZM171.26562 27.925Q170.6875 28.159374 169.54688 28.33125Q168.89062 28.425 168.625 28.55Q168.35938 28.659374 168.20312 28.878124Q168.0625 29.096874 168.0625 29.378124Q168.0625 29.8 168.375 30.08125Q168.70312 30.3625 169.3125 30.3625Q169.92188 30.3625 170.39062 30.096874Q170.875 29.83125 171.09375 29.3625Q171.26562 29.003124 171.26562 28.315624L171.26562 27.925ZM174.28125 31.05L174.28125 24.83125L175.23438 24.83125L175.23438 25.76875Q175.59375 25.1125 175.89062 24.909374Q176.20312 24.690624 176.57812 24.690624Q177.10938 24.690624 177.65625 25.01875L177.29688 26.003124Q176.90625 25.76875 176.53125 25.76875Q176.17188 25.76875 175.89062 25.9875Q175.625 26.190624 175.51562 26.565624Q175.32812 27.128124 175.32812 27.784374L175.32812 31.05L174.28125 31.05ZM180.59375 30.1125L180.75 31.034374Q180.29688 31.128124 179.95312 31.128124Q179.375 31.128124 179.0625 30.95625Q178.75 30.76875 178.60938 30.471874Q178.48438 30.175 178.48438 29.221874L178.48438 25.64375L177.71875 25.64375L177.71875 24.83125L178.48438 24.83125L178.48438 23.284374L179.53125 22.659374L179.53125 24.83125L180.59375 24.83125L180.59375 25.64375L179.53125 25.64375L179.53125 29.284374Q179.53125 29.7375 179.57812 29.8625Q179.64062 29.9875 179.76562 30.065624Q179.89062 30.14375 180.125 30.14375Q180.3125 30.14375 180.59375 30.1125ZM185.54688 29.05L186.64062 29.175Q186.39062 30.128124 185.6875 30.659374Q184.98438 31.190624 183.90625 31.190624Q182.54688 31.190624 181.73438 30.346874Q180.9375 29.503124 180.9375 27.9875Q180.9375 26.425 181.75 25.565624Q182.5625 24.690624 183.84375 24.690624Q185.09375 24.690624 185.875 25.534374Q186.67188 26.378124 186.67188 27.925Q186.67188 28.01875 186.67188 28.20625L182.03125 28.20625Q182.09375 29.2375 182.60938 29.784374Q183.125 30.315624 183.90625 30.315624Q184.48438 30.315624 184.89062 30.01875Q185.3125 29.70625 185.54688 29.05ZM182.09375 27.346874L185.5625 27.346874Q185.5 26.55 185.17188 26.159374Q184.65625 25.55 183.85938 25.55Q183.125 25.55 182.625 26.034374Q182.14062 26.51875 182.09375 27.346874ZM190.59375 30.1125L190.75 31.034374Q190.29688 31.128124 189.95312 31.128124Q189.375 31.128124 189.0625 30.95625Q188.75 30.76875 188.60938 30.471874Q188.48438 30.175 188.48438 29.221874L188.48438 25.64375L187.71875 25.64375L187.71875 24.83125L188.48438 24.83125L188.48438 23.284374L189.53125 22.659374L189.53125 24.83125L190.59375 24.83125L190.59375 25.64375L189.53125 25.64375L189.53125 29.284374Q189.53125 29.7375 189.57812 29.8625Q189.64062 29.9875 189.76562 30.065624Q189.89062 30.14375 190.125 30.14375Q190.3125 30.14375 190.59375 30.1125ZM195.54688 29.05L196.64062 29.175Q196.39062 30.128124 195.6875 30.659374Q194.98438 31.190624 193.90625 31.190624Q192.54688 31.190624 191.73438 30.346874Q190.9375 29.503124 190.9375 27.9875Q190.9375 26.425 191.75 25.565624Q192.5625 24.690624 193.84375 24.690624Q195.09375 24.690624 195.875 25.534374Q196.67188 26.378124 196.67188 27.925Q196.67188 28.01875 196.67188 28.20625L192.03125 28.20625Q192.09375 29.2375 192.60938 29.784374Q193.125 30.315624 193.90625 30.315624Q194.48438 30.315624 194.89062 30.01875Q195.3125 29.70625 195.54688 29.05ZM192.09375 27.346874L195.5625 27.346874Q195.5 26.55 195.17188 26.159374Q194.65625 25.55 193.85938 25.55Q193.125 25.55 192.625 26.034374Q192.14062 26.51875 192.09375 27.346874ZM202.26562 31.05L201.28125 31.05L201.28125 22.45625L202.34375 22.45625L202.34375 25.51875Q203.01562 24.690624 204.04688 24.690624Q204.625 24.690624 205.125 24.925Q205.64062 25.14375 205.96875 25.565624Q206.3125 25.9875 206.5 26.58125Q206.6875 27.175 206.6875 27.846874Q206.6875 29.440624 205.89062 30.315624Q205.09375 31.190624 204.0 31.190624Q202.89062 31.190624 202.26562 30.26875L202.26562 31.05ZM202.25 27.89375Q202.25 29.003124 202.5625 29.503124Q203.0625 30.315624 203.90625 30.315624Q204.59375 30.315624 205.09375 29.721874Q205.60938 29.128124 205.60938 27.925Q205.60938 26.70625 205.125 26.128124Q204.64062 25.55 203.95312 25.55Q203.26562 25.55 202.75 26.159374Q202.25 26.753124 202.25 27.89375ZM208.26562 31.05L208.26562 22.45625L209.32812 22.45625L209.32812 31.05L208.26562 31.05ZM215.375 31.05L215.375 30.128124Q214.64062 31.190624 213.39062 31.190624Q212.84375 31.190624 212.35938 30.9875Q211.89062 30.76875 211.65625 30.45625Q211.42188 30.128124 211.32812 29.659374Q211.26562 29.3625 211.26562 28.675L211.26562 24.83125L212.32812 24.83125L212.32812 28.284374Q212.32812 29.096874 212.39062 29.39375Q212.48438 29.8 212.79688 30.05Q213.125 30.284374 213.60938 30.284374Q214.07812 30.284374 214.48438 30.05Q214.90625 29.8 215.07812 29.378124Q215.26562 28.95625 215.26562 28.159374L215.26562 24.83125L216.3125 24.83125L216.3125 31.05L215.375 31.05ZM212.15625 23.6125L212.15625 22.409374L213.25 22.409374L213.25 23.6125L212.15625 23.6125ZM214.34375 23.6125L214.34375 22.409374L215.4375 22.409374L215.4375 23.6125L214.34375 23.6125ZM218.29688 31.05L218.29688 22.45625L219.34375 22.45625L219.34375 25.534374Q220.07812 24.690624 221.20312 24.690624Q221.90625 24.690624 222.40625 24.971874Q222.92188 25.2375 223.14062 25.721874Q223.35938 26.190624 223.35938 27.1125L223.35938 31.05L222.3125 31.05L222.3125 27.1125Q222.3125 26.315624 221.96875 25.95625Q221.625 25.596874 221.0 25.596874Q220.53125 25.596874 220.10938 25.846874Q219.70312 26.08125 219.51562 26.503124Q219.34375 26.909374 219.34375 27.64375L219.34375 31.05L218.29688 31.05ZM229.54688 29.05L230.64062 29.175Q230.39062 30.128124 229.6875 30.659374Q228.98438 31.190624 227.90625 31.190624Q226.54688 31.190624 225.73438 30.346874Q224.9375 29.503124 224.9375 27.9875Q224.9375 26.425 225.75 25.565624Q226.5625 24.690624 227.84375 24.690624Q229.09375 24.690624 229.875 25.534374Q230.67188 26.378124 230.67188 27.925Q230.67188 28.01875 230.67188 28.20625L226.03125 28.20625Q226.09375 29.2375 226.60938 29.784374Q227.125 30.315624 227.90625 30.315624Q228.48438 30.315624 228.89062 30.01875Q229.3125 29.70625 229.54688 29.05ZM226.09375 27.346874L229.5625 27.346874Q229.5 26.55 229.17188 26.159374Q228.65625 25.55 227.85938 25.55Q227.125 25.55 226.625 26.034374Q226.14062 26.51875 226.09375 27.346874ZM232.29688 31.05L232.29688 24.83125L233.23438 24.83125L233.23438 25.70625Q233.92188 24.690624 235.21875 24.690624Q235.78125 24.690624 236.25 24.89375Q236.73438 25.096874 236.96875 25.425Q237.20312 25.753124 237.29688 26.190624Q237.34375 26.4875 237.34375 27.221874L237.34375 31.05L236.29688 31.05L236.29688 27.26875Q236.29688 26.6125 236.17188 26.3Q236.04688 25.9875 235.73438 25.8Q235.42188 25.596874 235.0 25.596874Q234.32812 25.596874 233.82812 26.034374Q233.34375 26.45625 233.34375 27.64375L233.34375 31.05L232.29688 31.05ZM243.32812 31.05L243.32812 30.26875Q242.73438 31.190624 241.59375 31.190624Q240.84375 31.190624 240.21875 30.784374Q239.59375 30.3625 239.25 29.628124Q238.90625 28.89375 238.90625 27.940624Q238.90625 27.01875 239.21875 26.253124Q239.53125 25.4875 240.15625 25.096874Q240.78125 24.690624 241.54688 24.690624Q242.10938 24.690624 242.54688 24.925Q242.98438 25.159374 243.26562 25.534374L243.26562 22.45625L244.3125 22.45625L244.3125 31.05L243.32812 31.05ZM240.0 27.940624Q240.0 29.14375 240.5 29.7375Q241.0 30.315624 241.6875 30.315624Q242.375 30.315624 242.85938 29.753124Q243.34375 29.190624 243.34375 28.034374Q243.34375 26.753124 242.84375 26.159374Q242.35938 25.565624 241.64062 25.565624Q240.9375 25.565624 240.46875 26.14375Q240.0 26.70625 240.0 27.940624ZM250.54688 29.05L251.64062 29.175Q251.39062 30.128124 250.6875 30.659374Q249.98438 31.190624 248.90625 31.190624Q247.54688 31.190624 246.73438 30.346874Q245.9375 29.503124 245.9375 27.9875Q245.9375 26.425 246.75 25.565624Q247.5625 24.690624 248.84375 24.690624Q250.09375 24.690624 250.875 25.534374Q251.67188 26.378124 251.67188 27.925Q251.67188 28.01875 251.67188 28.20625L247.03125 28.20625Q247.09375 29.2375 247.60938 29.784374Q248.125 30.315624 248.90625 30.315624Q249.48438 30.315624 249.89062 30.01875Q250.3125 29.70625 250.54688 29.05ZM247.09375 27.346874L250.5625 27.346874Q250.5 26.55 250.17188 26.159374Q249.65625 25.55 248.85938 25.55Q248.125 25.55 247.625 26.034374Q247.14062 26.51875 247.09375 27.346874ZM255.48438 31.05L258.78125 22.45625L260.0 22.45625L263.51562 31.05L262.23438 31.05L261.21875 28.440624L257.64062 28.440624L256.6875 31.05L255.48438 31.05ZM257.96875 27.51875L260.875 27.51875L259.98438 25.14375Q259.5625 24.065624 259.375 23.3625Q259.20312 24.190624 258.90625 25.003124L257.96875 27.51875ZM263.28125 31.05L263.28125 24.83125L264.23438 24.83125L264.23438 25.76875Q264.59375 25.1125 264.89062 24.909374Q265.20312 24.690624 265.57812 24.690624Q266.10938 24.690624 266.65625 25.01875L266.29688 26.003124Q265.90625 25.76875 265.53125 25.76875Q265.17188 25.76875 264.89062 25.9875Q264.625 26.190624 264.51562 26.565624Q264.32812 27.128124 264.32812 27.784374L264.32812 31.05L263.28125 31.05ZM269.59375 30.1125L269.75 31.034374Q269.29688 31.128124 268.95312 31.128124Q268.375 31.128124 268.0625 30.95625Q267.75 30.76875 267.60938 30.471874Q267.48438 30.175 267.48438 29.221874L267.48438 25.64375L266.71875 25.64375L266.71875 24.83125L267.48438 24.83125L267.48438 23.284374L268.53125 22.659374L268.53125 24.83125L269.59375 24.83125L269.59375 25.64375L268.53125 25.64375L268.53125 29.284374Q268.53125 29.7375 268.57812 29.8625Q268.64062 29.9875 268.76562 30.065624Q268.89062 30.14375 269.125 30.14375Q269.3125 30.14375 269.59375 30.1125ZM274.54688 29.05L275.64062 29.175Q275.39062 30.128124 274.6875 30.659374Q273.98438 31.190624 272.90625 31.190624Q271.54688 31.190624 270.73438 30.346874Q269.9375 29.503124 269.9375 27.9875Q269.9375 26.425 270.75 25.565624Q271.5625 24.690624 272.84375 24.690624Q274.09375 24.690624 274.875 25.534374Q275.67188 26.378124 275.67188 27.925Q275.67188 28.01875 275.67188 28.20625L271.03125 28.20625Q271.09375 29.2375 271.60938 29.784374Q272.125 30.315624 272.90625 30.315624Q273.48438 30.315624 273.89062 30.01875Q274.3125 29.70625 274.54688 29.05ZM271.09375 27.346874L274.5625 27.346874Q274.5 26.55 274.17188 26.159374Q273.65625 25.55 272.85938 25.55Q272.125 25.55 271.625 26.034374Q271.14062 26.51875 271.09375 27.346874ZM277.29688 31.05L277.29688 24.83125L278.23438 24.83125L278.23438 25.70625Q278.92188 24.690624 280.21875 24.690624Q280.78125 24.690624 281.25 24.89375Q281.73438 25.096874 281.96875 25.425Q282.20312 25.753124 282.29688 26.190624Q282.34375 26.4875 282.34375 27.221874L282.34375 31.05L281.29688 31.05L281.29688 27.26875Q281.29688 26.6125 281.17188 26.3Q281.04688 25.9875 280.73438 25.8Q280.42188 25.596874 280.0 25.596874Q279.32812 25.596874 278.82812 26.034374Q278.34375 26.45625 278.34375 27.64375L278.34375 31.05L277.29688 31.05Z" fill-rule="nonzero"/><path fill="#ea4335" d="M299.5 22.05C299.5 21.497715 299.94772 21.05 300.5 21.05L310.5 21.05C311.05228 21.05 311.5 21.497715 311.5 22.05L311.5 32.05C311.5 32.602283 311.05228 33.05 310.5 33.05L300.5 33.05C299.94772 33.05 299.5 32.602283 299.5 32.05Z" fill-rule="nonzero"/><path fill="#1a1a1a" d="M320.375 31.05L320.375 22.45625L323.60938 22.45625Q324.59375 22.45625 325.1875 22.721874Q325.78125 22.9875 326.10938 23.534374Q326.45312 24.065624 326.45312 24.659374Q326.45312 25.20625 326.15625 25.690624Q325.85938 26.175 325.25 26.471874Q326.03125 26.70625 326.4375 27.26875Q326.85938 27.815624 326.85938 28.565624Q326.85938 29.159374 326.60938 29.690624Q326.35938 30.20625 325.98438 30.4875Q325.60938 30.76875 325.03125 30.909374Q324.46875 31.05 323.65625 31.05L320.375 31.05ZM321.51562 26.065624L323.375 26.065624Q324.125 26.065624 324.45312 25.971874Q324.89062 25.846874 325.10938 25.55Q325.32812 25.2375 325.32812 24.784374Q325.32812 24.3625 325.125 24.034374Q324.92188 23.70625 324.53125 23.596874Q324.15625 23.471874 323.23438 23.471874L321.51562 23.471874L321.51562 26.065624ZM321.51562 30.034374L323.65625 30.034374Q324.20312 30.034374 324.42188 29.9875Q324.82812 29.925 325.07812 29.76875Q325.34375 29.596874 325.51562 29.284374Q325.6875 28.971874 325.6875 28.565624Q325.6875 28.08125 325.4375 27.721874Q325.20312 27.3625 324.76562 27.221874Q324.32812 27.08125 323.5 27.08125L321.51562 27.08125L321.51562 30.034374ZM332.54688 29.05L333.64062 29.175Q333.39062 30.128124 332.6875 30.659374Q331.98438 31.190624 330.90625 31.190624Q329.54688 31.190624 328.73438 30.346874Q327.9375 29.503124 327.9375 27.9875Q327.9375 26.425 328.75 25.565624Q329.5625 24.690624 330.84375 24.690624Q332.09375 24.690624 332.875 25.534374Q333.67188 26.378124 333.67188 27.925Q333.67188 28.01875 333.67188 28.20625L329.03125 28.20625Q329.09375 29.2375 329.60938 29.784374Q330.125 30.315624 330.90625 30.315624Q331.48438 30.315624 331.89062 30.01875Q332.3125 29.70625 332.54688 29.05ZM329.09375 27.346874L332.5625 27.346874Q332.5 26.55 332.17188 26.159374Q331.65625 25.55 330.85938 25.55Q330.125 25.55 329.625 26.034374Q329.14062 26.51875 329.09375 27.346874ZM334.90625 27.940624Q334.90625 26.20625 335.85938 25.378124Q336.65625 24.690624 337.8125 24.690624Q339.09375 24.690624 339.90625 25.534374Q340.73438 26.3625 340.73438 27.846874Q340.73438 29.05 340.375 29.7375Q340.01562 30.425 339.3125 30.815624Q338.625 31.190624 337.8125 31.190624Q336.51562 31.190624 335.70312 30.3625Q334.90625 29.51875 334.90625 27.940624ZM335.98438 27.940624Q335.98438 29.128124 336.5 29.721874Q337.03125 30.315624 337.8125 30.315624Q338.60938 30.315624 339.125 29.721874Q339.64062 29.128124 339.64062 27.909374Q339.64062 26.753124 339.10938 26.159374Q338.59375 25.565624 337.8125 25.565624Q337.03125 25.565624 336.5 26.159374Q335.98438 26.7375 335.98438 27.940624ZM343.26562 31.05L342.28125 31.05L342.28125 22.45625L343.34375 22.45625L343.34375 25.51875Q344.01562 24.690624 345.04688 24.690624Q345.625 24.690624 346.125 24.925Q346.64062 25.14375 346.96875 25.565624Q347.3125 25.9875 347.5 26.58125Q347.6875 27.175 347.6875 27.846874Q347.6875 29.440624 346.89062 30.315624Q346.09375 31.190624 345.0 31.190624Q343.89062 31.190624 343.26562 30.26875L343.26562 31.05ZM343.25 27.89375Q343.25 29.003124 343.5625 29.503124Q344.0625 30.315624 344.90625 30.315624Q345.59375 30.315624 346.09375 29.721874Q346.60938 29.128124 346.60938 27.925Q346.60938 26.70625 346.125 26.128124Q345.64062 25.55 344.95312 25.55Q344.26562 25.55 343.75 26.159374Q343.25 26.753124 343.25 27.89375ZM353.35938 30.284374Q352.76562 30.784374 352.21875 30.9875Q351.6875 31.190624 351.0625 31.190624Q350.03125 31.190624 349.48438 30.690624Q348.9375 30.190624 348.9375 29.409374Q348.9375 28.95625 349.14062 28.58125Q349.34375 28.190624 349.6875 27.971874Q350.03125 27.7375 350.45312 27.628124Q350.75 27.534374 351.39062 27.45625Q352.65625 27.315624 353.26562 27.096874Q353.26562 26.878124 353.26562 26.83125Q353.26562 26.175 352.96875 25.909374Q352.5625 25.565624 351.76562 25.565624Q351.03125 25.565624 350.67188 25.83125Q350.3125 26.08125 350.14062 26.7375L349.10938 26.596874Q349.25 25.940624 349.57812 25.534374Q349.90625 25.128124 350.51562 24.909374Q351.125 24.690624 351.92188 24.690624Q352.71875 24.690624 353.21875 24.878124Q353.71875 25.065624 353.95312 25.346874Q354.1875 25.628124 354.28125 26.065624Q354.32812 26.33125 354.32812 27.034374L354.32812 28.440624Q354.32812 29.909374 354.39062 30.3Q354.46875 30.690624 354.67188 31.05L353.5625 31.05Q353.40625 30.721874 353.35938 30.284374ZM353.26562 27.925Q352.6875 28.159374 351.54688 28.33125Q350.89062 28.425 350.625 28.55Q350.35938 28.659374 350.20312 28.878124Q350.0625 29.096874 350.0625 29.378124Q350.0625 29.8 350.375 30.08125Q350.70312 30.3625 351.3125 30.3625Q351.92188 30.3625 352.39062 30.096874Q352.875 29.83125 353.09375 29.3625Q353.26562 29.003124 353.26562 28.315624L353.26562 27.925ZM360.35938 28.76875L361.39062 28.909374Q361.21875 29.971874 360.51562 30.58125Q359.8125 31.190624 358.79688 31.190624Q357.51562 31.190624 356.73438 30.3625Q355.96875 29.51875 355.96875 27.95625Q355.96875 26.95625 356.29688 26.20625Q356.64062 25.440624 357.3125 25.065624Q358.0 24.690624 358.8125 24.690624Q359.8125 24.690624 360.45312 25.20625Q361.10938 25.70625 361.29688 26.659374L360.26562 26.815624Q360.125 26.190624 359.75 25.878124Q359.375 25.55 358.84375 25.55Q358.04688 25.55 357.54688 26.128124Q357.04688 26.690624 357.04688 27.925Q357.04688 29.190624 357.53125 29.753124Q358.01562 30.315624 358.78125 30.315624Q359.40625 30.315624 359.8125 29.940624Q360.23438 29.565624 360.35938 28.76875ZM362.29688 31.05L362.29688 22.45625L363.34375 22.45625L363.34375 25.534374Q364.07812 24.690624 365.20312 24.690624Q365.90625 24.690624 366.40625 24.971874Q366.92188 25.2375 367.14062 25.721874Q367.35938 26.190624 367.35938 27.1125L367.35938 31.05L366.3125 31.05L366.3125 27.1125Q366.3125 26.315624 365.96875 25.95625Q365.625 25.596874 365.0 25.596874Q364.53125 25.596874 364.10938 25.846874Q363.70312 26.08125 363.51562 26.503124Q363.34375 26.909374 363.34375 27.64375L363.34375 31.05L362.29688 31.05ZM371.59375 30.1125L371.75 31.034374Q371.29688 31.128124 370.95312 31.128124Q370.375 31.128124 370.0625 30.95625Q369.75 30.76875 369.60938 30.471874Q369.48438 30.175 369.48438 29.221874L369.48438 25.64375L368.71875 25.64375L368.71875 24.83125L369.48438 24.83125L369.48438 23.284374L370.53125 22.659374L370.53125 24.83125L371.59375 24.83125L371.59375 25.64375L370.53125 25.64375L370.53125 29.284374Q370.53125 29.7375 370.57812 29.8625Q370.64062 29.9875 370.76562 30.065624Q370.89062 30.14375 371.125 30.14375Q371.3125 30.14375 371.59375 30.1125ZM376.54688 29.05L377.64062 29.175Q377.39062 30.128124 376.6875 30.659374Q375.98438 31.190624 374.90625 31.190624Q373.54688 31.190624 372.73438 30.346874Q371.9375 29.503124 371.9375 27.9875Q371.9375 26.425 372.75 25.565624Q373.5625 24.690624 374.84375 24.690624Q376.09375 24.690624 376.875 25.534374Q377.67188 26.378124 377.67188 27.925Q377.67188 28.01875 377.67188 28.20625L373.03125 28.20625Q373.09375 29.2375 373.60938 29.784374Q374.125 30.315624 374.90625 30.315624Q375.48438 30.315624 375.89062 30.01875Q376.3125 29.70625 376.54688 29.05ZM373.09375 27.346874L376.5625 27.346874Q376.5 26.55 376.17188 26.159374Q375.65625 25.55 374.85938 25.55Q374.125 25.55 373.625 26.034374Q373.14062 26.51875 373.09375 27.346874ZM381.59375 30.1125L381.75 31.034374Q381.29688 31.128124 380.95312 31.128124Q380.375 31.128124 380.0625 30.95625Q379.75 30.76875 379.60938 30.471874Q379.48438 30.175 379.48438 29.221874L379.48438 25.64375L378.71875 25.64375L378.71875 24.83125L379.48438 24.83125L379.48438 23.284374L380.53125 22.659374L380.53125 24.83125L381.59375 24.83125L381.59375 25.64375L380.53125 25.64375L380.53125 29.284374Q380.53125 29.7375 380.57812 29.8625Q380.64062 29.9875 380.76562 30.065624Q380.89062 30.14375 381.125 30.14375Q381.3125 30.14375 381.59375 30.1125ZM386.54688 29.05L387.64062 29.175Q387.39062 30.128124 386.6875 30.659374Q385.98438 31.190624 384.90625 31.190624Q383.54688 31.190624 382.73438 30.346874Q381.9375 29.503124 381.9375 27.9875Q381.9375 26.425 382.75 25.565624Q383.5625 24.690624 384.84375 24.690624Q386.09375 24.690624 386.875 25.534374Q387.67188 26.378124 387.67188 27.925Q387.67188 28.01875 387.67188 28.20625L383.03125 28.20625Q383.09375 29.2375 383.60938 29.784374Q384.125 30.315624 384.90625 30.315624Q385.48438 30.315624 385.89062 30.01875Q386.3125 29.70625 386.54688 29.05ZM383.09375 27.346874L386.5625 27.346874Q386.5 26.55 386.17188 26.159374Q385.65625 25.55 384.85938 25.55Q384.125 25.55 383.625 26.034374Q383.14062 26.51875 383.09375 27.346874ZM393.26562 31.05L392.28125 31.05L392.28125 22.45625L393.34375 22.45625L393.34375 25.51875Q394.01562 24.690624 395.04688 24.690624Q395.625 24.690624 396.125 24.925Q396.64062 25.14375 396.96875 25.565624Q397.3125 25.9875 397.5 26.58125Q397.6875 27.175 397.6875 27.846874Q397.6875 29.440624 396.89062 30.315624Q396.09375 31.190624 395.0 31.190624Q393.89062 31.190624 393.26562 30.26875L393.26562 31.05ZM393.25 27.89375Q393.25 29.003124 393.5625 29.503124Q394.0625 30.315624 394.90625 30.315624Q395.59375 30.315624 396.09375 29.721874Q396.60938 29.128124 396.60938 27.925Q396.60938 26.70625 396.125 26.128124Q395.64062 25.55 394.95312 25.55Q394.26562 25.55 393.75 26.159374Q393.25 26.753124 393.25 27.89375ZM399.26562 31.05L399.26562 22.45625L400.32812 22.45625L400.32812 31.05L399.26562 31.05ZM406.375 31.05L406.375 30.128124Q405.64062 31.190624 404.39062 31.190624Q403.84375 31.190624 403.35938 30.9875Q402.89062 30.76875 402.65625 30.45625Q402.42188 30.128124 402.32812 29.659374Q402.26562 29.3625 402.26562 28.675L402.26562 24.83125L403.32812 24.83125L403.32812 28.284374Q403.32812 29.096874 403.39062 29.39375Q403.48438 29.8 403.79688 30.05Q404.125 30.284374 404.60938 30.284374Q405.07812 30.284374 405.48438 30.05Q405.90625 29.8 406.07812 29.378124Q406.26562 28.95625 406.26562 28.159374L406.26562 24.83125L407.3125 24.83125L407.3125 31.05L406.375 31.05ZM403.15625 23.6125L403.15625 22.409374L404.25 22.409374L404.25 23.6125L403.15625 23.6125ZM405.34375 23.6125L405.34375 22.409374L406.4375 22.409374L406.4375 23.6125L405.34375 23.6125ZM409.29688 31.05L409.29688 22.45625L410.34375 22.45625L410.34375 25.534374Q411.07812 24.690624 412.20312 24.690624Q412.90625 24.690624 413.40625 24.971874Q413.92188 25.2375 414.14062 25.721874Q414.35938 26.190624 414.35938 27.1125L414.35938 31.05L413.3125 31.05L413.3125 27.1125Q413.3125 26.315624 412.96875 25.95625Q412.625 25.596874 412.0 25.596874Q411.53125 25.596874 411.10938 25.846874Q410.70312 26.08125 410.51562 26.503124Q410.34375 26.909374 410.34375 27.64375L410.34375 31.05L409.29688 31.05ZM420.54688 29.05L421.64062 29.175Q421.39062 30.128124 420.6875 30.659374Q419.98438 31.190624 418.90625 31.190624Q417.54688 31.190624 416.73438 30.346874Q415.9375 29.503124 415.9375 27.9875Q415.9375 26.425 416.75 25.565624Q417.5625 24.690624 418.84375 24.690624Q420.09375 24.690624 420.875 25.534374Q421.67188 26.378124 421.67188 27.925Q421.67188 28.01875 421.67188 28.20625L417.03125 28.20625Q417.09375 29.2375 417.60938 29.784374Q418.125 30.315624 418.90625 30.315624Q419.48438 30.315624 419.89062 30.01875Q420.3125 29.70625 420.54688 29.05ZM417.09375 27.346874L420.5625 27.346874Q420.5 26.55 420.17188 26.159374Q419.65625 25.55 418.85938 25.55Q418.125 25.55 417.625 26.034374Q417.14062 26.51875 417.09375 27.346874ZM423.29688 31.05L423.29688 24.83125L424.23438 24.83125L424.23438 25.70625Q424.92188 24.690624 426.21875 24.690624Q426.78125 24.690624 427.25 24.89375Q427.73438 25.096874 427.96875 25.425Q428.20312 25.753124 428.29688 26.190624Q428.34375 26.4875 428.34375 27.221874L428.34375 31.05L427.29688 31.05L427.29688 27.26875Q427.29688 26.6125 427.17188 26.3Q427.04688 25.9875 426.73438 25.8Q426.42188 25.596874 426.0 25.596874Q425.32812 25.596874 424.82812 26.034374Q424.34375 26.45625 424.34375 27.64375L424.34375 31.05L423.29688 31.05ZM434.32812 31.05L434.32812 30.26875Q433.73438 31.190624 432.59375 31.190624Q431.84375 31.190624 431.21875 30.784374Q430.59375 30.3625 430.25 29.628124Q429.90625 28.89375 429.90625 27.940624Q429.90625 27.01875 430.21875 26.253124Q430.53125 25.4875 431.15625 25.096874Q431.78125 24.690624 432.54688 24.690624Q433.10938 24.690624 433.54688 24.925Q433.98438 25.159374 434.26562 25.534374L434.26562 22.45625L435.3125 22.45625L435.3125 31.05L434.32812 31.05ZM431.0 27.940624Q431.0 29.14375 431.5 29.7375Q432.0 30.315624 432.6875 30.315624Q433.375 30.315624 433.85938 29.753124Q434.34375 29.190624 434.34375 28.034374Q434.34375 26.753124 433.84375 26.159374Q433.35938 25.565624 432.64062 25.565624Q431.9375 25.565624 431.46875 26.14375Q431.0 26.70625 431.0 27.940624ZM441.54688 29.05L442.64062 29.175Q442.39062 30.128124 441.6875 30.659374Q440.98438 31.190624 439.90625 31.190624Q438.54688 31.190624 437.73438 30.346874Q436.9375 29.503124 436.9375 27.9875Q436.9375 26.425 437.75 25.565624Q438.5625 24.690624 439.84375 24.690624Q441.09375 24.690624 441.875 25.534374Q442.67188 26.378124 442.67188 27.925Q442.67188 28.01875 442.67188 28.20625L438.03125 28.20625Q438.09375 29.2375 438.60938 29.784374Q439.125 30.315624 439.90625 30.315624Q440.48438 30.315624 440.89062 30.01875Q441.3125 29.70625 441.54688 29.05ZM438.09375 27.346874L441.5625 27.346874Q441.5 26.55 441.17188 26.159374Q440.65625 25.55 439.85938 25.55Q439.125 25.55 438.625 26.034374Q438.14062 26.51875 438.09375 27.346874ZM446.48438 31.05L449.78125 22.45625L451.0 22.45625L454.51562 31.05L453.23438 31.05L452.21875 28.440624L448.64062 28.440624L447.6875 31.05L446.48438 31.05ZM448.96875 27.51875L451.875 27.51875L450.98438 25.14375Q450.5625 24.065624 450.375 23.3625Q450.20312 24.190624 449.90625 25.003124L448.96875 27.51875ZM454.28125 31.05L454.28125 24.83125L455.23438 24.83125L455.23438 25.76875Q455.59375 25.1125 455.89062 24.909374Q456.20312 24.690624 456.57812 24.690624Q457.10938 24.690624 457.65625 25.01875L457.29688 26.003124Q456.90625 25.76875 456.53125 25.76875Q456.17188 25.76875 455.89062 25.9875Q455.625 26.190624 455.51562 26.565624Q455.32812 27.128124 455.32812 27.784374L455.32812 31.05L454.28125 31.05ZM460.59375 30.1125L460.75 31.034374Q460.29688 31.128124 459.95312 31.128124Q459.375 31.128124 459.0625 30.95625Q458.75 30.76875 458.60938 30.471874Q458.48438 30.175 458.48438 29.221874L458.48438 25.64375L457.71875 25.64375L457.71875 24.83125L458.48438 24.83125L458.48438 23.284374L459.53125 22.659374L459.53125 24.83125L460.59375 24.83125L460.59375 25.64375L459.53125 25.64375L459.53125 29.284374Q459.53125 29.7375 459.57812 29.8625Q459.64062 29.9875 459.76562 30.065624Q459.89062 30.14375 460.125 30.14375Q460.3125 30.14375 460.59375 30.1125ZM465.54688 29.05L466.64062 29.175Q466.39062 30.128124 465.6875 30.659374Q464.98438 31.190624 463.90625 31.190624Q462.54688 31.190624 461.73438 30.346874Q460.9375 29.503124 460.9375 27.9875Q460.9375 26.425 461.75 25.565624Q462.5625 24.690624 463.84375 24.690624Q465.09375 24.690624 465.875 25.534374Q466.67188 26.378124 466.67188 27.925Q466.67188 28.01875 466.67188 28.20625L462.03125 28.20625Q462.09375 29.2375 462.60938 29.784374Q463.125 30.315624 463.90625 30.315624Q464.48438 30.315624 464.89062 30.01875Q465.3125 29.70625 465.54688 29.05ZM462.09375 27.346874L465.5625 27.346874Q465.5 26.55 465.17188 26.159374Q464.65625 25.55 463.85938 25.55Q463.125 25.55 462.625 26.034374Q462.14062 26.51875 462.09375 27.346874ZM468.29688 31.05L468.29688 24.83125L469.23438 24.83125L469.23438 25.70625Q469.92188 24.690624 471.21875 24.690624Q471.78125 24.690624 472.25 24.89375Q472.73438 25.096874 472.96875 25.425Q473.20312 25.753124 473.29688 26.190624Q473.34375 26.4875 473.34375 27.221874L473.34375 31.05L472.29688 31.05L472.29688 27.26875Q472.29688 26.6125 472.17188 26.3Q472.04688 25.9875 471.73438 25.8Q471.42188 25.596874 471.0 25.596874Q470.32812 25.596874 469.82812 26.034374Q469.34375 26.45625 469.34375 27.64375L469.34375 31.05L468.29688 31.05Z" fill-rule="nonzero"/></svg>