<svg version="1.1" viewBox="0.0 0.0 600.0 371.0" fill="none" stroke="none" stroke-linecap="square" stroke-miterlimit="10" width="600" height="371" xmlns:xlink="http://www.w3.org/1999/xlink" xmlns="http://www.w3.org/2000/svg"><path fill="#ffffff" fill-opacity="0.0" d="M0 0L600.0 0L600.0 371.0L0 371.0L0 0Z" fill-rule="nonzero"/><path stroke="#333333" stroke-width="1.0" stroke-linecap="butt" d="M45.5 332.5L581.5 332.5" fill-rule="nonzero"/><path stroke="#cccccc" stroke-width="1.0" stroke-linecap="butt" d="M45.5 304.5L581.5 304.5" fill-rule="nonzero"/><path stroke="#cccccc" stroke-width="1.0" stroke-linecap="butt" d="M45.5 276.5L581.5 276.5" fill-rule="nonzero"/><path stroke="#cccccc" stroke-width="1.0" stroke-linecap="butt" d="M45.5 248.5L581.5 248.5" fill-rule="nonzero"/><path stroke="#cccccc" stroke-width="1.0" stroke-linecap="butt" d="M45.5 220.5L581.5 220.5" fill-rule="nonzero"/><path stroke="#cccccc" stroke-width="1.0" stroke-linecap="butt" d="M45.5 192.5L581.5 192.5" fill-rule="nonzero"/><path stroke="#cccccc" stroke-width="1.0" stroke-linecap="butt" d="M45.5 164.5L581.5 164.5" fill-rule="nonzero"/><path stroke="#cccccc" stroke-width="1.0" stroke-linecap="butt" d="M45.5 136.5L581.5 136.5" fill-rule="nonzero"/><path stroke="#cccccc" stroke-width="1.0" stroke-linecap="butt" d="M45.5 108.5L581.5 108.5" fill-rule="nonzero"/><path stroke="#cccccc" stroke-width="1.0" stroke-linecap="butt" d="M45.5 79.5L581.5 79.5" fill-rule="nonzero"/><path stroke="#cccccc" stroke-width="1.0" stroke-linecap="butt" d="M45.5 51.5L581.5 51.5" fill-rule="nonzero"/><clipPath id="id_0"><path d="M45.55 51.916668L581.45 51.916668L581.45 332.45L45.55 332.45L45.55 51.916668Z" clip-rule="nonzero"/></clipPath><path stroke="#000000" stroke-width="2.0" stroke-linecap="butt" stroke-opacity="0.0" clip-path="url(#id_0)" d="M67.0 332.0L62.0 332.0L62.0 331.0C62.0 330.44772 62.447716 330.0 63.0 330.0L66.0 330.0C66.552284 330.0 67.0 330.44772 67.0 331.0Z" fill-rule="nonzero"/><path fill="#4285f4" clip-path="url(#id_0)" d="M67.0 332.0L62.0 332.0L62.0 331.0C62.0 330.44772 62.447716 330.0 63.0 330.0L66.0 330.0C66.552284 330.0 67.0 330.44772 67.0 331.0Z" fill-rule="nonzero"/><path stroke="#000000" stroke-width="2.0" stroke-linecap="butt" stroke-opacity="0.0" clip-path="url(#id_0)" d="M110.0 332.0L105.0 332.0L105.0 326.0C105.0 324.89542 105.89543 324.0 107.0 324.0L108.0 324.0C109.10457 324.0 110.0 324.89542 110.0 326.0Z" fill-rule="nonzero"/><path fill="#4285f4" clip-path="url(#id_0)" d="M110.0 332.0L105.0 332.0L105.0 326.0C105.0 324.89542 105.89543 324.0 107.0 324.0L108.0 324.0C109.10457 324.0 110.0 324.89542 110.0 326.0Z" fill-rule="nonzero"/><path stroke="#000000" stroke-width="2.0" stroke-linecap="butt" stroke-opacity="0.0" clip-path="url(#id_0)" d="M154.0 332.0L149.0 332.0L149.0 312.0C149.0 310.89542 149.89543 310.0 151.0 310.0L152.0 310.0C153.10457 310.0 154.0 310.89542 154.0 312.0Z" fill-rule="nonzero"/><path fill="#4285f4" clip-path="url(#id_0)" d="M154.0 332.0L149.0 332.0L149.0 312.0C149.0 310.89542 149.89543 310.0 151.0 310.0L152.0 310.0C153.10457 310.0 154.0 310.89542 154.0 312.0Z" fill-rule="nonzero"/><path stroke="#000000" stroke-width="2.0" stroke-linecap="butt" stroke-opacity="0.0" clip-path="url(#id_0)" d="M197.0 332.0L192.0 332.0L192.0 276.0C192.0 274.89542 192.89543 274.0 194.0 274.0L195.0 274.0C196.10457 274.0 197.0 274.89542 197.0 276.0Z" fill-rule="nonzero"/><path fill="#4285f4" clip-path="url(#id_0)" d="M197.0 332.0L192.0 332.0L192.0 276.0C192.0 274.89542 192.89543 274.0 194.0 274.0L195.0 274.0C196.10457 274.0 197.0 274.89542 197.0 276.0Z" fill-rule="nonzero"/><path stroke="#000000" stroke-width="2.0" stroke-linecap="butt" stroke-opacity="0.0" clip-path="url(#id_0)" d="M240.0 332.0L235.0 332.0L235.0 177.0C235.0 175.89543 235.89543 175.0 237.0 175.0L238.0 175.0C239.10457 175.0 240.0 175.89543 240.0 177.0Z" fill-rule="nonzero"/><path fill="#4285f4" clip-path="url(#id_0)" d="M240.0 332.0L235.0 332.0L235.0 177.0C235.0 175.89543 235.89543 175.0 237.0 175.0L238.0 175.0C239.10457 175.0 240.0 175.89543 240.0 177.0Z" fill-rule="nonzero"/><path stroke="#000000" stroke-width="2.0" stroke-linecap="butt" stroke-opacity="0.0" clip-path="url(#id_0)" d="M284.0 332.0L279.0 332.0L279.0 76.0C279.0 74.89543 279.89542 74.0 281.0 74.0L282.0 74.0C283.10458 74.0 284.0 74.89543 284.0 76.0Z" fill-rule="nonzero"/><path fill="#4285f4" clip-path="url(#id_0)" d="M284.0 332.0L279.0 332.0L279.0 76.0C279.0 74.89543 279.89542 74.0 281.0 74.0L282.0 74.0C283.10458 74.0 284.0 74.89543 284.0 76.0Z" fill-rule="nonzero"/><path stroke="#000000" stroke-width="2.0" stroke-linecap="butt" stroke-opacity="0.0" clip-path="url(#id_0)" d="M327.0 332.0L322.0 332.0L322.0 82.0C322.0 80.89543 322.89542 80.0 324.0 80.0L325.0 80.0C326.10458 80.0 327.0 80.89543 327.0 82.0Z" fill-rule="nonzero"/><path fill="#4285f4" clip-path="url(#id_0)" d="M327.0 332.0L322.0 332.0L322.0 82.0C322.0 80.89543 322.89542 80.0 324.0 80.0L325.0 80.0C326.10458 80.0 327.0 80.89543 327.0 82.0Z" fill-rule="nonzero"/><path stroke="#000000" stroke-width="2.0" stroke-linecap="butt" stroke-opacity="0.0" clip-path="url(#id_0)" d="M371.0 332.0L366.0 332.0L366.0 93.0C366.0 91.89543 366.89542 91.0 368.0 91.0L369.0 91.0C370.10458 91.0 371.0 91.89543 371.0 93.0Z" fill-rule="nonzero"/><path fill="#4285f4" clip-path="url(#id_0)" d="M371.0 332.0L366.0 332.0L366.0 93.0C366.0 91.89543 366.89542 91.0 368.0 91.0L369.0 91.0C370.10458 91.0 371.0 91.89543 371.0 93.0Z" fill-rule="nonzero"/><path stroke="#000000" stroke-width="2.0" stroke-linecap="butt" stroke-opacity="0.0" clip-path="url(#id_0)" d="M414.0 332.0L409.0 332.0L409.0 158.0C409.0 156.89543 409.89542 156.0 411.0 156.0L412.0 156.0C413.10458 156.0 414.0 156.89543 414.0 158.0Z" fill-rule="nonzero"/><path fill="#4285f4" clip-path="url(#id_0)" d="M414.0 332.0L409.0 332.0L409.0 158.0C409.0 156.89543 409.89542 156.0 411.0 156.0L412.0 156.0C413.10458 156.0 414.0 156.89543 414.0 158.0Z" fill-rule="nonzero"/><path stroke="#000000" stroke-width="2.0" stroke-linecap="butt" stroke-opacity="0.0" clip-path="url(#id_0)" d="M457.0 332.0L452.0 332.0L452.0 262.0C452.0 260.89542 452.89542 260.0 454.0 260.0L455.0 260.0C456.10458 260.0 457.0 260.89542 457.0 262.0Z" fill-rule="nonzero"/><path fill="#4285f4" clip-path="url(#id_0)" d="M457.0 332.0L452.0 332.0L452.0 262.0C452.0 260.89542 452.89542 260.0 454.0 260.0L455.0 260.0C456.10458 260.0 457.0 260.89542 457.0 262.0Z" fill-rule="nonzero"/><path stroke="#000000" stroke-width="2.0" stroke-linecap="butt" stroke-opacity="0.0" clip-path="url(#id_0)" d="M501.0 332.0L496.0 332.0L496.0 331.0C496.0 330.44772 496.44772 330.0 497.0 330.0L500.0 330.0C500.55228 330.0 501.0 330.44772 501.0 331.0Z" fill-rule="nonzero"/><path fill="#4285f4" clip-path="url(#id_0)" d="M501.0 332.0L496.0 332.0L496.0 331.0C496.0 330.44772 496.44772 330.0 497.0 330.0L500.0 330.0C500.55228 330.0 501.0 330.44772 501.0 331.0Z" fill-rule="nonzero"/><path stroke="#000000" stroke-width="2.0" stroke-linecap="butt" stroke-opacity="0.0" clip-path="url(#id_0)" d="M544.0 332.0L539.0 332.0L539.0 332.0L544.0 332.0Z" fill-rule="nonzero"/><path fill="#4285f4" clip-path="url(#id_0)" d="M544.0 332.0L539.0 332.0L539.0 332.0L544.0 332.0Z" fill-rule="nonzero"/><path stroke="#000000" stroke-width="2.0" stroke-linecap="butt" stroke-opacity="0.0" clip-path="url(#id_0)" d="M74.0 332.0L69.0 332.0L69.0 331.0C69.0 330.44772 69.447716 330.0 70.0 330.0L73.0 330.0C73.552284 330.0 74.0 330.44772 74.0 331.0Z" fill-rule="nonzero"/><path fill="#ea4335" clip-path="url(#id_0)" d="M74.0 332.0L69.0 332.0L69.0 331.0C69.0 330.44772 69.447716 330.0 70.0 330.0L73.0 330.0C73.552284 330.0 74.0 330.44772 74.0 331.0Z" fill-rule="nonzero"/><path stroke="#000000" stroke-width="2.0" stroke-linecap="butt" stroke-opacity="0.0" clip-path="url(#id_0)" d="M117.0 332.0L112.0 332.0L112.0 329.0C112.0 327.89542 112.89543 327.0 114.0 327.0L115.0 327.0C116.10457 327.0 117.0 327.89542 117.0 329.0Z" fill-rule="nonzero"/><path fill="#ea4335" clip-path="url(#id_0)" d="M117.0 332.0L112.0 332.0L112.0 329.0C112.0 327.89542 112.89543 327.0 114.0 327.0L115.0 327.0C116.10457 327.0 117.0 327.89542 117.0 329.0Z" fill-rule="nonzero"/><path stroke="#000000" stroke-width="2.0" stroke-linecap="butt" stroke-opacity="0.0" clip-path="url(#id_0)" d="M161.0 332.0L156.0 332.0L156.0 320.0C156.0 318.89542 156.89543 318.0 158.0 318.0L159.0 318.0C160.10457 318.0 161.0 318.89542 161.0 320.0Z" fill-rule="nonzero"/><path fill="#ea4335" clip-path="url(#id_0)" d="M161.0 332.0L156.0 332.0L156.0 320.0C156.0 318.89542 156.89543 318.0 158.0 318.0L159.0 318.0C160.10457 318.0 161.0 318.89542 161.0 320.0Z" fill-rule="nonzero"/><path stroke="#000000" stroke-width="2.0" stroke-linecap="butt" stroke-opacity="0.0" clip-path="url(#id_0)" d="M204.0 332.0L199.0 332.0L199.0 259.0C199.0 257.89542 199.89543 257.0 201.0 257.0L202.0 257.0C203.10457 257.0 204.0 257.89542 204.0 259.0Z" fill-rule="nonzero"/><path fill="#ea4335" clip-path="url(#id_0)" d="M204.0 332.0L199.0 332.0L199.0 259.0C199.0 257.89542 199.89543 257.0 201.0 257.0L202.0 257.0C203.10457 257.0 204.0 257.89542 204.0 259.0Z" fill-rule="nonzero"/><path stroke="#000000" stroke-width="2.0" stroke-linecap="butt" stroke-opacity="0.0" clip-path="url(#id_0)" d="M247.0 332.0L242.0 332.0L242.0 191.0C242.0 189.89543 242.89543 189.0 244.0 189.0L245.0 189.0C246.10457 189.0 247.0 189.89543 247.0 191.0Z" fill-rule="nonzero"/><path fill="#ea4335" clip-path="url(#id_0)" d="M247.0 332.0L242.0 332.0L242.0 191.0C242.0 189.89543 242.89543 189.0 244.0 189.0L245.0 189.0C246.10457 189.0 247.0 189.89543 247.0 191.0Z" fill-rule="nonzero"/><path stroke="#000000" stroke-width="2.0" stroke-linecap="butt" stroke-opacity="0.0" clip-path="url(#id_0)" d="M291.0 332.0L286.0 332.0L286.0 141.0C286.0 139.89543 286.89542 139.0 288.0 139.0L289.0 139.0C290.10458 139.0 291.0 139.89543 291.0 141.0Z" fill-rule="nonzero"/><path fill="#ea4335" clip-path="url(#id_0)" d="M291.0 332.0L286.0 332.0L286.0 141.0C286.0 139.89543 286.89542 139.0 288.0 139.0L289.0 139.0C290.10458 139.0 291.0 139.89543 291.0 141.0Z" fill-rule="nonzero"/><path stroke="#000000" stroke-width="2.0" stroke-linecap="butt" stroke-opacity="0.0" clip-path="url(#id_0)" d="M334.0 332.0L329.0 332.0L329.0 197.0C329.0 195.89543 329.89542 195.0 331.0 195.0L332.0 195.0C333.10458 195.0 334.0 195.89543 334.0 197.0Z" fill-rule="nonzero"/><path fill="#ea4335" clip-path="url(#id_0)" d="M334.0 332.0L329.0 332.0L329.0 197.0C329.0 195.89543 329.89542 195.0 331.0 195.0L332.0 195.0C333.10458 195.0 334.0 195.89543 334.0 197.0Z" fill-rule="nonzero"/><path stroke="#000000" stroke-width="2.0" stroke-linecap="butt" stroke-opacity="0.0" clip-path="url(#id_0)" d="M378.0 332.0L373.0 332.0L373.0 222.0C373.0 220.89543 373.89542 220.0 375.0 220.0L376.0 220.0C377.10458 220.0 378.0 220.89543 378.0 222.0Z" fill-rule="nonzero"/><path fill="#ea4335" clip-path="url(#id_0)" d="M378.0 332.0L373.0 332.0L373.0 222.0C373.0 220.89543 373.89542 220.0 375.0 220.0L376.0 220.0C377.10458 220.0 378.0 220.89543 378.0 222.0Z" fill-rule="nonzero"/><path stroke="#000000" stroke-width="2.0" stroke-linecap="butt" stroke-opacity="0.0" clip-path="url(#id_0)" d="M421.0 332.0L416.0 332.0L416.0 208.0C416.0 206.89543 416.89542 206.0 418.0 206.0L419.0 206.0C420.10458 206.0 421.0 206.89543 421.0 208.0Z" fill-rule="nonzero"/><path fill="#ea4335" clip-path="url(#id_0)" d="M421.0 332.0L416.0 332.0L416.0 208.0C416.0 206.89543 416.89542 206.0 418.0 206.0L419.0 206.0C420.10458 206.0 421.0 206.89543 421.0 208.0Z" fill-rule="nonzero"/><path stroke="#000000" stroke-width="2.0" stroke-linecap="butt" stroke-opacity="0.0" clip-path="url(#id_0)" d="M464.0 332.0L459.0 332.0L459.0 276.0C459.0 274.89542 459.89542 274.0 461.0 274.0L462.0 274.0C463.10458 274.0 464.0 274.89542 464.0 276.0Z" fill-rule="nonzero"/><path fill="#ea4335" clip-path="url(#id_0)" d="M464.0 332.0L459.0 332.0L459.0 276.0C459.0 274.89542 459.89542 274.0 461.0 274.0L462.0 274.0C463.10458 274.0 464.0 274.89542 464.0 276.0Z" fill-rule="nonzero"/><path stroke="#000000" stroke-width="2.0" stroke-linecap="butt" stroke-opacity="0.0" clip-path="url(#id_0)" d="M508.0 332.0L503.0 332.0L503.0 295.0C503.0 293.89542 503.89542 293.0 505.0 293.0L506.0 293.0C507.10458 293.0 508.0 293.89542 508.0 295.0Z" fill-rule="nonzero"/><path fill="#ea4335" clip-path="url(#id_0)" d="M508.0 332.0L503.0 332.0L503.0 295.0C503.0 293.89542 503.89542 293.0 505.0 293.0L506.0 293.0C507.10458 293.0 508.0 293.89542 508.0 295.0Z" fill-rule="nonzero"/><path stroke="#000000" stroke-width="2.0" stroke-linecap="butt" stroke-opacity="0.0" clip-path="url(#id_0)" d="M551.0 332.0L546.0 332.0L546.0 331.0C546.0 330.44772 546.4477 330.0 547.0 330.0L550.0 330.0C550.5523 330.0 551.0 330.44772 551.0 331.0Z" fill-rule="nonzero"/><path fill="#ea4335" clip-path="url(#id_0)" d="M551.0 332.0L546.0 332.0L546.0 331.0C546.0 330.44772 546.4477 330.0 547.0 330.0L550.0 330.0C550.5523 330.0 551.0 330.44772 551.0 331.0Z" fill-rule="nonzero"/><path stroke="#000000" stroke-width="2.0" stroke-linecap="butt" stroke-opacity="0.0" clip-path="url(#id_0)" d="M81.0 332.0L76.0 332.0L76.0 331.0C76.0 330.44772 76.447716 330.0 77.0 330.0L80.0 330.0C80.552284 330.0 81.0 330.44772 81.0 331.0Z" fill-rule="nonzero"/><path fill="#6aa84f" clip-path="url(#id_0)" d="M81.0 332.0L76.0 332.0L76.0 331.0C76.0 330.44772 76.447716 330.0 77.0 330.0L80.0 330.0C80.552284 330.0 81.0 330.44772 81.0 331.0Z" fill-rule="nonzero"/><path stroke="#000000" stroke-width="2.0" stroke-linecap="butt" stroke-opacity="0.0" clip-path="url(#id_0)" d="M124.0 332.0L119.0 332.0L119.0 329.0C119.0 327.89542 119.89543 327.0 121.0 327.0L122.0 327.0C123.10457 327.0 124.0 327.89542 124.0 329.0Z" fill-rule="nonzero"/><path fill="#6aa84f" clip-path="url(#id_0)" d="M124.0 332.0L119.0 332.0L119.0 329.0C119.0 327.89542 119.89543 327.0 121.0 327.0L122.0 327.0C123.10457 327.0 124.0 327.89542 124.0 329.0Z" fill-rule="nonzero"/><path stroke="#000000" stroke-width="2.0" stroke-linecap="butt" stroke-opacity="0.0" clip-path="url(#id_0)" d="M168.0 332.0L163.0 332.0L163.0 309.0C163.0 307.89542 163.89543 307.0 165.0 307.0L166.0 307.0C167.10457 307.0 168.0 307.89542 168.0 309.0Z" fill-rule="nonzero"/><path fill="#6aa84f" clip-path="url(#id_0)" d="M168.0 332.0L163.0 332.0L163.0 309.0C163.0 307.89542 163.89543 307.0 165.0 307.0L166.0 307.0C167.10457 307.0 168.0 307.89542 168.0 309.0Z" fill-rule="nonzero"/><path stroke="#000000" stroke-width="2.0" stroke-linecap="butt" stroke-opacity="0.0" clip-path="url(#id_0)" d="M211.0 332.0L206.0 332.0L206.0 278.0C206.0 276.89542 206.89543 276.0 208.0 276.0L209.0 276.0C210.10457 276.0 211.0 276.89542 211.0 278.0Z" fill-rule="nonzero"/><path fill="#6aa84f" clip-path="url(#id_0)" d="M211.0 332.0L206.0 332.0L206.0 278.0C206.0 276.89542 206.89543 276.0 208.0 276.0L209.0 276.0C210.10457 276.0 211.0 276.89542 211.0 278.0Z" fill-rule="nonzero"/><path stroke="#000000" stroke-width="2.0" stroke-linecap="butt" stroke-opacity="0.0" clip-path="url(#id_0)" d="M254.0 332.0L249.0 332.0L249.0 233.0C249.0 231.89543 249.89543 231.0 251.0 231.0L252.0 231.0C253.10457 231.0 254.0 231.89543 254.0 233.0Z" fill-rule="nonzero"/><path fill="#6aa84f" clip-path="url(#id_0)" d="M254.0 332.0L249.0 332.0L249.0 233.0C249.0 231.89543 249.89543 231.0 251.0 231.0L252.0 231.0C253.10457 231.0 254.0 231.89543 254.0 233.0Z" fill-rule="nonzero"/><path stroke="#000000" stroke-width="2.0" stroke-linecap="butt" stroke-opacity="0.0" clip-path="url(#id_0)" d="M298.0 332.0L293.0 332.0L293.0 197.0C293.0 195.89543 293.89542 195.0 295.0 195.0L296.0 195.0C297.10458 195.0 298.0 195.89543 298.0 197.0Z" fill-rule="nonzero"/><path fill="#6aa84f" clip-path="url(#id_0)" d="M298.0 332.0L293.0 332.0L293.0 197.0C293.0 195.89543 293.89542 195.0 295.0 195.0L296.0 195.0C297.10458 195.0 298.0 195.89543 298.0 197.0Z" fill-rule="nonzero"/><path stroke="#000000" stroke-width="2.0" stroke-linecap="butt" stroke-opacity="0.0" clip-path="url(#id_0)" d="M341.0 332.0L336.0 332.0L336.0 203.0C336.0 201.89543 336.89542 201.0 338.0 201.0L339.0 201.0C340.10458 201.0 341.0 201.89543 341.0 203.0Z" fill-rule="nonzero"/><path fill="#6aa84f" clip-path="url(#id_0)" d="M341.0 332.0L336.0 332.0L336.0 203.0C336.0 201.89543 336.89542 201.0 338.0 201.0L339.0 201.0C340.10458 201.0 341.0 201.89543 341.0 203.0Z" fill-rule="nonzero"/><path stroke="#000000" stroke-width="2.0" stroke-linecap="butt" stroke-opacity="0.0" clip-path="url(#id_0)" d="M385.0 332.0L380.0 332.0L380.0 214.0C380.0 212.89543 380.89542 212.0 382.0 212.0L383.0 212.0C384.10458 212.0 385.0 212.89543 385.0 214.0Z" fill-rule="nonzero"/><path fill="#6aa84f" clip-path="url(#id_0)" d="M385.0 332.0L380.0 332.0L380.0 214.0C380.0 212.89543 380.89542 212.0 382.0 212.0L383.0 212.0C384.10458 212.0 385.0 212.89543 385.0 214.0Z" fill-rule="nonzero"/><path stroke="#000000" stroke-width="2.0" stroke-linecap="butt" stroke-opacity="0.0" clip-path="url(#id_0)" d="M428.0 332.0L423.0 332.0L423.0 262.0C423.0 260.89542 423.89542 260.0 425.0 260.0L426.0 260.0C427.10458 260.0 428.0 260.89542 428.0 262.0Z" fill-rule="nonzero"/><path fill="#6aa84f" clip-path="url(#id_0)" d="M428.0 332.0L423.0 332.0L423.0 262.0C423.0 260.89542 423.89542 260.0 425.0 260.0L426.0 260.0C427.10458 260.0 428.0 260.89542 428.0 262.0Z" fill-rule="nonzero"/><path stroke="#000000" stroke-width="2.0" stroke-linecap="butt" stroke-opacity="0.0" clip-path="url(#id_0)" d="M471.0 332.0L466.0 332.0L466.0 295.0C466.0 293.89542 466.89542 293.0 468.0 293.0L469.0 293.0C470.10458 293.0 471.0 293.89542 471.0 295.0Z" fill-rule="nonzero"/><path fill="#6aa84f" clip-path="url(#id_0)" d="M471.0 332.0L466.0 332.0L466.0 295.0C466.0 293.89542 466.89542 293.0 468.0 293.0L469.0 293.0C470.10458 293.0 471.0 293.89542 471.0 295.0Z" fill-rule="nonzero"/><path stroke="#000000" stroke-width="2.0" stroke-linecap="butt" stroke-opacity="0.0" clip-path="url(#id_0)" d="M515.0 332.0L510.0 332.0L510.0 301.0C510.0 299.89542 510.89542 299.0 512.0 299.0L513.0 299.0C514.10455 299.0 515.0 299.89542 515.0 301.0Z" fill-rule="nonzero"/><path fill="#6aa84f" clip-path="url(#id_0)" d="M515.0 332.0L510.0 332.0L510.0 301.0C510.0 299.89542 510.89542 299.0 512.0 299.0L513.0 299.0C514.10455 299.0 515.0 299.89542 515.0 301.0Z" fill-rule="nonzero"/><path stroke="#000000" stroke-width="2.0" stroke-linecap="butt" stroke-opacity="0.0" clip-path="url(#id_0)" d="M558.0 332.0L553.0 332.0L553.0 318.0C553.0 316.89542 553.89545 316.0 555.0 316.0L556.0 316.0C557.10455 316.0 558.0 316.89542 558.0 318.0Z" fill-rule="nonzero"/><path fill="#6aa84f" clip-path="url(#id_0)" d="M558.0 332.0L553.0 332.0L553.0 318.0C553.0 316.89542 553.89545 316.0 555.0 316.0L556.0 316.0C557.10455 316.0 558.0 316.89542 558.0 318.0Z" fill-rule="nonzero"/><path stroke="#000000" stroke-width="2.0" stroke-linecap="butt" stroke-opacity="0.0" clip-path="url(#id_0)" d="M88.0 332.0L83.0 332.0L83.0 332.0L88.0 332.0Z" fill-rule="nonzero"/><path fill="#b6d7a8" clip-path="url(#id_0)" d="M88.0 332.0L83.0 332.0L83.0 332.0L88.0 332.0Z" fill-rule="nonzero"/><path stroke="#000000" stroke-width="2.0" stroke-linecap="butt" stroke-opacity="0.0" clip-path="url(#id_0)" d="M131.0 332.0L126.0 332.0L126.0 332.0L131.0 332.0Z" fill-rule="nonzero"/><path fill="#b6d7a8" clip-path="url(#id_0)" d="M131.0 332.0L126.0 332.0L126.0 332.0L131.0 332.0Z" fill-rule="nonzero"/><path stroke="#000000" stroke-width="2.0" stroke-linecap="butt" stroke-opacity="0.0" clip-path="url(#id_0)" d="M175.0 332.0L170.0 332.0L170.0 318.0C170.0 316.89542 170.89543 316.0 172.0 316.0L173.0 316.0C174.10457 316.0 175.0 316.89542 175.0 318.0Z" fill-rule="nonzero"/><path fill="#b6d7a8" clip-path="url(#id_0)" d="M175.0 332.0L170.0 332.0L170.0 318.0C170.0 316.89542 170.89543 316.0 172.0 316.0L173.0 316.0C174.10457 316.0 175.0 316.89542 175.0 318.0Z" fill-rule="nonzero"/><path stroke="#000000" stroke-width="2.0" stroke-linecap="butt" stroke-opacity="0.0" clip-path="url(#id_0)" d="M218.0 332.0L213.0 332.0L213.0 304.0C213.0 302.89542 213.89543 302.0 215.0 302.0L216.0 302.0C217.10457 302.0 218.0 302.89542 218.0 304.0Z" fill-rule="nonzero"/><path fill="#b6d7a8" clip-path="url(#id_0)" d="M218.0 332.0L213.0 332.0L213.0 304.0C213.0 302.89542 213.89543 302.0 215.0 302.0L216.0 302.0C217.10457 302.0 218.0 302.89542 218.0 304.0Z" fill-rule="nonzero"/><path stroke="#000000" stroke-width="2.0" stroke-linecap="butt" stroke-opacity="0.0" clip-path="url(#id_0)" d="M261.0 332.0L256.0 332.0L256.0 264.0C256.0 262.89542 256.89542 262.0 258.0 262.0L259.0 262.0C260.10458 262.0 261.0 262.89542 261.0 264.0Z" fill-rule="nonzero"/><path fill="#b6d7a8" clip-path="url(#id_0)" d="M261.0 332.0L256.0 332.0L256.0 264.0C256.0 262.89542 256.89542 262.0 258.0 262.0L259.0 262.0C260.10458 262.0 261.0 262.89542 261.0 264.0Z" fill-rule="nonzero"/><path stroke="#000000" stroke-width="2.0" stroke-linecap="butt" stroke-opacity="0.0" clip-path="url(#id_0)" d="M305.0 332.0L300.0 332.0L300.0 250.0C300.0 248.89543 300.89542 248.0 302.0 248.0L303.0 248.0C304.10458 248.0 305.0 248.89543 305.0 250.0Z" fill-rule="nonzero"/><path fill="#b6d7a8" clip-path="url(#id_0)" d="M305.0 332.0L300.0 332.0L300.0 250.0C300.0 248.89543 300.89542 248.0 302.0 248.0L303.0 248.0C304.10458 248.0 305.0 248.89543 305.0 250.0Z" fill-rule="nonzero"/><path stroke="#000000" stroke-width="2.0" stroke-linecap="butt" stroke-opacity="0.0" clip-path="url(#id_0)" d="M348.0 332.0L343.0 332.0L343.0 287.0C343.0 285.89542 343.89542 285.0 345.0 285.0L346.0 285.0C347.10458 285.0 348.0 285.89542 348.0 287.0Z" fill-rule="nonzero"/><path fill="#b6d7a8" clip-path="url(#id_0)" d="M348.0 332.0L343.0 332.0L343.0 287.0C343.0 285.89542 343.89542 285.0 345.0 285.0L346.0 285.0C347.10458 285.0 348.0 285.89542 348.0 287.0Z" fill-rule="nonzero"/><path stroke="#000000" stroke-width="2.0" stroke-linecap="butt" stroke-opacity="0.0" clip-path="url(#id_0)" d="M392.0 332.0L387.0 332.0L387.0 290.0C387.0 288.89542 387.89542 288.0 389.0 288.0L390.0 288.0C391.10458 288.0 392.0 288.89542 392.0 290.0Z" fill-rule="nonzero"/><path fill="#b6d7a8" clip-path="url(#id_0)" d="M392.0 332.0L387.0 332.0L387.0 290.0C387.0 288.89542 387.89542 288.0 389.0 288.0L390.0 288.0C391.10458 288.0 392.0 288.89542 392.0 290.0Z" fill-rule="nonzero"/><path stroke="#000000" stroke-width="2.0" stroke-linecap="butt" stroke-opacity="0.0" clip-path="url(#id_0)" d="M435.0 332.0L430.0 332.0L430.0 276.0C430.0 274.89542 430.89542 274.0 432.0 274.0L433.0 274.0C434.10458 274.0 435.0 274.89542 435.0 276.0Z" fill-rule="nonzero"/><path fill="#b6d7a8" clip-path="url(#id_0)" d="M435.0 332.0L430.0 332.0L430.0 276.0C430.0 274.89542 430.89542 274.0 432.0 274.0L433.0 274.0C434.10458 274.0 435.0 274.89542 435.0 276.0Z" fill-rule="nonzero"/><path stroke="#000000" stroke-width="2.0" stroke-linecap="butt" stroke-opacity="0.0" clip-path="url(#id_0)" d="M478.0 332.0L473.0 332.0L473.0 295.0C473.0 293.89542 473.89542 293.0 475.0 293.0L476.0 293.0C477.10458 293.0 478.0 293.89542 478.0 295.0Z" fill-rule="nonzero"/><path fill="#b6d7a8" clip-path="url(#id_0)" d="M478.0 332.0L473.0 332.0L473.0 295.0C473.0 293.89542 473.89542 293.0 475.0 293.0L476.0 293.0C477.10458 293.0 478.0 293.89542 478.0 295.0Z" fill-rule="nonzero"/><path stroke="#000000" stroke-width="2.0" stroke-linecap="butt" stroke-opacity="0.0" clip-path="url(#id_0)" d="M522.0 332.0L517.0 332.0L517.0 312.0C517.0 310.89542 517.89545 310.0 519.0 310.0L520.0 310.0C521.10455 310.0 522.0 310.89542 522.0 312.0Z" fill-rule="nonzero"/><path fill="#b6d7a8" clip-path="url(#id_0)" d="M522.0 332.0L517.0 332.0L517.0 312.0C517.0 310.89542 517.89545 310.0 519.0 310.0L520.0 310.0C521.10455 310.0 522.0 310.89542 522.0 312.0Z" fill-rule="nonzero"/><path stroke="#000000" stroke-width="2.0" stroke-linecap="butt" stroke-opacity="0.0" clip-path="url(#id_0)" d="M565.0 332.0L560.0 332.0L560.0 326.0C560.0 324.89542 560.89545 324.0 562.0 324.0L563.0 324.0C564.10455 324.0 565.0 324.89542 565.0 326.0Z" fill-rule="nonzero"/><path fill="#b6d7a8" clip-path="url(#id_0)" d="M565.0 332.0L560.0 332.0L560.0 326.0C560.0 324.89542 560.89545 324.0 562.0 324.0L563.0 324.0C564.10455 324.0 565.0 324.89542 565.0 326.0Z" fill-rule="nonzero"/><path fill="#000000" d="M33.05 332.21564Q33.05 330.6844 33.3625 329.7625Q33.675 328.825 34.284374 328.325Q34.909374 327.825 35.846874 327.825Q36.534374 327.825 37.05 328.10626Q37.58125 328.3875 37.925 328.91876Q38.26875 329.4344 38.45625 330.1844Q38.64375 330.9344 38.64375 332.21564Q38.64375 333.73126 38.33125 334.65314Q38.034374 335.575 37.409374 336.09064Q36.8 336.59064 35.846874 336.59064Q34.6125 336.59064 33.89375 335.7Q33.05 334.6375 33.05 332.21564ZM34.128124 332.21564Q34.128124 334.325 34.628124 335.02814Q35.128124 335.73126 35.846874 335.73126Q36.58125 335.73126 37.065624 335.02814Q37.565624 334.325 37.565624 332.21564Q37.565624 330.09064 37.065624 329.40314Q36.58125 328.7 35.83125 328.7Q35.1125 328.7 34.675 329.3094Q34.128124 330.09064 34.128124 332.21564Z" fill-rule="nonzero"/><path fill="#000000" d="M30.01875 308.39667L28.971874 308.39667L28.971874 301.67792Q28.58125 302.0373 27.95625 302.4123Q27.346874 302.77167 26.8625 302.94354L26.8625 301.92792Q27.7375 301.50604 28.39375 300.92792Q29.065624 300.33417 29.346874 299.77167L30.01875 299.77167L30.01875 308.39667ZM33.05 304.1623Q33.05 302.63104 33.3625 301.70917Q33.675 300.77167 34.284374 300.27167Q34.909374 299.77167 35.846874 299.77167Q36.534374 299.77167 37.05 300.05292Q37.58125 300.33417 37.925 300.86542Q38.26875 301.38104 38.45625 302.13104Q38.64375 302.88104 38.64375 304.1623Q38.64375 305.67792 38.33125 306.5998Q38.034374 307.52167 37.409374 308.0373Q36.8 308.5373 35.846874 308.5373Q34.6125 308.5373 33.89375 307.64667Q33.05 306.58417 33.05 304.1623ZM34.128124 304.1623Q34.128124 306.27167 34.628124 306.9748Q35.128124 307.67792 35.846874 307.67792Q36.58125 307.67792 37.065624 306.9748Q37.565624 306.27167 37.565624 304.1623Q37.565624 302.0373 37.065624 301.3498Q36.58125 300.64667 35.83125 300.64667Q35.1125 300.64667 34.675 301.25604Q34.128124 302.0373 34.128124 304.1623Z" fill-rule="nonzero"/><path fill="#000000" d="M31.596874 279.3277L31.596874 280.34332L25.909374 280.34332Q25.909374 279.96832 26.034374 279.60895Q26.253124 279.03082 26.721874 278.46832Q27.20625 277.90582 28.1125 277.17145Q29.51875 276.0152 30.003124 275.34332Q30.503124 274.67145 30.503124 274.0777Q30.503124 273.4527 30.05 273.03082Q29.596874 272.59332 28.878124 272.59332Q28.1125 272.59332 27.659374 273.04645Q27.20625 273.49957 27.190624 274.31207L26.1125 274.2027Q26.221874 272.98395 26.940624 272.35895Q27.675 271.71832 28.909374 271.71832Q30.14375 271.71832 30.8625 272.40582Q31.58125 273.09332 31.58125 274.10895Q31.58125 274.62457 31.3625 275.12457Q31.159374 275.60895 30.659374 276.17145Q30.175 276.71832 29.05 277.67145Q28.096874 278.46832 27.815624 278.7652Q27.55 279.04645 27.378124 279.3277L31.596874 279.3277ZM33.05 276.10895Q33.05 274.5777 33.3625 273.65582Q33.675 272.71832 34.284374 272.21832Q34.909374 271.71832 35.846874 271.71832Q36.534374 271.71832 37.05 271.99957Q37.58125 272.28082 37.925 272.81207Q38.26875 273.3277 38.45625 274.0777Q38.64375 274.8277 38.64375 276.10895Q38.64375 277.62457 38.33125 278.54645Q38.034374 279.46832 37.409374 279.98395Q36.8 280.48395 35.846874 280.48395Q34.6125 280.48395 33.89375 279.59332Q33.05 278.53082 33.05 276.10895ZM34.128124 276.10895Q34.128124 278.21832 34.628124 278.92145Q35.128124 279.62457 35.846874 279.62457Q36.58125 279.62457 37.065624 278.92145Q37.565624 278.21832 37.565624 276.10895Q37.565624 273.98395 37.065624 273.29645Q36.58125 272.59332 35.83125 272.59332Q35.1125 272.59332 34.675 273.2027Q34.128124 273.98395 34.128124 276.10895Z" fill-rule="nonzero"/><path fill="#000000" d="M26.05 250.02437L27.1125 249.88374Q27.284374 250.77437 27.721874 251.18062Q28.159374 251.57124 28.784374 251.57124Q29.534374 251.57124 30.05 251.05562Q30.565624 250.54 30.565624 249.77437Q30.565624 249.05562 30.08125 248.58687Q29.6125 248.1025 28.878124 248.1025Q28.58125 248.1025 28.128124 248.2275L28.253124 247.29Q28.3625 247.30562 28.425 247.30562Q29.096874 247.30562 29.628124 246.96187Q30.175 246.6025 30.175 245.86812Q30.175 245.29 29.784374 244.915Q29.39375 244.52437 28.76875 244.52437Q28.159374 244.52437 27.7375 244.915Q27.33125 245.30562 27.221874 246.07124L26.159374 245.88374Q26.346874 244.83687 27.034374 244.25874Q27.721874 243.665 28.7375 243.665Q29.440624 243.665 30.034374 243.9775Q30.628124 244.27437 30.940624 244.79Q31.253124 245.30562 31.253124 245.89937Q31.253124 246.44624 30.95625 246.915Q30.659374 247.36812 30.08125 247.63374Q30.83125 247.80562 31.253124 248.36812Q31.675 248.915 31.675 249.75874Q31.675 250.88374 30.846874 251.665Q30.034374 252.44624 28.784374 252.44624Q27.659374 252.44624 26.909374 251.77437Q26.159374 251.08687 26.05 250.02437ZM33.05 248.05562Q33.05 246.52437 33.3625 245.6025Q33.675 244.665 34.284374 244.165Q34.909374 243.665 35.846874 243.665Q36.534374 243.665 37.05 243.94624Q37.58125 244.2275 37.925 244.75874Q38.26875 245.27437 38.45625 246.02437Q38.64375 246.77437 38.64375 248.05562Q38.64375 249.57124 38.33125 250.49312Q38.034374 251.415 37.409374 251.93062Q36.8 252.43062 35.846874 252.43062Q34.6125 252.43062 33.89375 251.54Q33.05 250.4775 33.05 248.05562ZM34.128124 248.05562Q34.128124 250.165 34.628124 250.86812Q35.128124 251.57124 35.846874 251.57124Q36.58125 251.57124 37.065624 250.86812Q37.565624 250.165 37.565624 248.05562Q37.565624 245.93062 37.065624 245.24312Q36.58125 244.54 35.83125 244.54Q35.1125 244.54 34.675 245.14937Q34.128124 245.93062 34.128124 248.05562Z" fill-rule="nonzero"/><path fill="#000000" d="M29.425 224.23666L29.425 222.17416L25.70625 222.17416L25.70625 221.20541L29.628124 215.64291L30.4875 215.64291L30.4875 221.20541L31.64375 221.20541L31.64375 222.17416L30.4875 222.17416L30.4875 224.23666L29.425 224.23666ZM29.425 221.20541L29.425 217.34604L26.7375 221.20541L29.425 221.20541ZM33.05 220.00229Q33.05 218.47104 33.3625 217.54916Q33.675 216.61166 34.284374 216.11166Q34.909374 215.61166 35.846874 215.61166Q36.534374 215.61166 37.05 215.89291Q37.58125 216.17416 37.925 216.70541Q38.26875 217.22104 38.45625 217.97104Q38.64375 218.72104 38.64375 220.00229Q38.64375 221.51791 38.33125 222.43979Q38.034374 223.36166 37.409374 223.87729Q36.8 224.37729 35.846874 224.37729Q34.6125 224.37729 33.89375 223.48666Q33.05 222.42416 33.05 220.00229ZM34.128124 220.00229Q34.128124 222.11166 34.628124 222.81479Q35.128124 223.51791 35.846874 223.51791Q36.58125 223.51791 37.065624 222.81479Q37.565624 222.11166 37.565624 220.00229Q37.565624 217.87729 37.065624 217.18979Q36.58125 216.48666 35.83125 216.48666Q35.1125 216.48666 34.675 217.09604Q34.128124 217.87729 34.128124 220.00229Z" fill-rule="nonzero"/><path fill="#000000" d="M26.05 193.93333L27.159374 193.83958Q27.284374 194.65208 27.721874 195.05833Q28.175 195.46458 28.815624 195.46458Q29.565624 195.46458 30.096874 194.88646Q30.628124 194.30833 30.628124 193.37083Q30.628124 192.46458 30.1125 191.94896Q29.6125 191.41771 28.784374 191.41771Q28.284374 191.41771 27.8625 191.65208Q27.45625 191.88646 27.221874 192.24583L26.2375 192.12083L27.065624 187.71458L31.346874 187.71458L31.346874 188.71458L27.909374 188.71458L27.45625 191.02708Q28.221874 190.48021 29.065624 190.48021Q30.190624 190.48021 30.95625 191.26146Q31.7375 192.04271 31.7375 193.27708Q31.7375 194.43333 31.065624 195.29271Q30.2375 196.32396 28.815624 196.32396Q27.64375 196.32396 26.89375 195.66771Q26.159374 195.01146 26.05 193.93333ZM33.05 191.94896Q33.05 190.41771 33.3625 189.49583Q33.675 188.55833 34.284374 188.05833Q34.909374 187.55833 35.846874 187.55833Q36.534374 187.55833 37.05 187.83958Q37.58125 188.12083 37.925 188.65208Q38.26875 189.16771 38.45625 189.91771Q38.64375 190.66771 38.64375 191.94896Q38.64375 193.46458 38.33125 194.38646Q38.034374 195.30833 37.409374 195.82396Q36.8 196.32396 35.846874 196.32396Q34.6125 196.32396 33.89375 195.43333Q33.05 194.37083 33.05 191.94896ZM34.128124 191.94896Q34.128124 194.05833 34.628124 194.76146Q35.128124 195.46458 35.846874 195.46458Q36.58125 195.46458 37.065624 194.76146Q37.565624 194.05833 37.565624 191.94896Q37.565624 189.82396 37.065624 189.13646Q36.58125 188.43333 35.83125 188.43333Q35.1125 188.43333 34.675 189.04271Q34.128124 189.82396 34.128124 191.94896Z" fill-rule="nonzero"/><path fill="#000000" d="M31.51875 161.64563L30.471874 161.72375Q30.33125 161.09875 30.08125 160.8175Q29.64375 160.36438 29.01875 160.36438Q28.51875 160.36438 28.128124 160.64563Q27.64375 161.02063 27.346874 161.72375Q27.065624 162.41125 27.05 163.6925Q27.425 163.11438 27.971874 162.83313Q28.534374 162.55188 29.14375 162.55188Q30.190624 162.55188 30.925 163.33313Q31.675 164.11438 31.675 165.33313Q31.675 166.14563 31.315624 166.84875Q30.971874 167.53625 30.3625 167.91125Q29.753124 168.27063 28.9875 168.27063Q27.659374 168.27063 26.83125 167.30188Q26.003124 166.33313 26.003124 164.11438Q26.003124 161.61438 26.925 160.48938Q27.721874 159.505 29.08125 159.505Q30.096874 159.505 30.7375 160.08313Q31.39375 160.64563 31.51875 161.64563ZM27.221874 165.34875Q27.221874 165.89563 27.440624 166.39563Q27.675 166.88 28.08125 167.14563Q28.503124 167.41125 28.971874 167.41125Q29.628124 167.41125 30.1125 166.88Q30.596874 166.33313 30.596874 165.41125Q30.596874 164.52063 30.1125 164.005Q29.64375 163.48938 28.925 163.48938Q28.20625 163.48938 27.70625 164.005Q27.221874 164.52063 27.221874 165.34875ZM33.05 163.89563Q33.05 162.36438 33.3625 161.4425Q33.675 160.505 34.284374 160.005Q34.909374 159.505 35.846874 159.505Q36.534374 159.505 37.05 159.78625Q37.58125 160.0675 37.925 160.59875Q38.26875 161.11438 38.45625 161.86438Q38.64375 162.61438 38.64375 163.89563Q38.64375 165.41125 38.33125 166.33313Q38.034374 167.255 37.409374 167.77063Q36.8 168.27063 35.846874 168.27063Q34.6125 168.27063 33.89375 167.38Q33.05 166.3175 33.05 163.89563ZM34.128124 163.89563Q34.128124 166.005 34.628124 166.70813Q35.128124 167.41125 35.846874 167.41125Q36.58125 167.41125 37.065624 166.70813Q37.565624 166.005 37.565624 163.89563Q37.565624 161.77063 37.065624 161.08313Q36.58125 160.38 35.83125 160.38Q35.1125 160.38 34.675 160.98938Q34.128124 161.77063 34.128124 163.89563Z" fill-rule="nonzero"/><path fill="#000000" d="M26.1125 132.60791L26.1125 131.59229L31.675 131.59229L31.675 132.42041Q30.8625 133.29541 30.05 134.74854Q29.253124 136.18604 28.815624 137.71729Q28.4875 138.79541 28.409374 140.07666L27.315624 140.07666Q27.33125 139.06104 27.70625 137.62354Q28.096874 136.18604 28.8 134.85791Q29.51875 133.52979 30.33125 132.60791L26.1125 132.60791ZM33.05 135.84229Q33.05 134.31104 33.3625 133.38916Q33.675 132.45166 34.284374 131.95166Q34.909374 131.45166 35.846874 131.45166Q36.534374 131.45166 37.05 131.73291Q37.58125 132.01416 37.925 132.54541Q38.26875 133.06104 38.45625 133.81104Q38.64375 134.56104 38.64375 135.84229Q38.64375 137.35791 38.33125 138.27979Q38.034374 139.20166 37.409374 139.71729Q36.8 140.21729 35.846874 140.21729Q34.6125 140.21729 33.89375 139.32666Q33.05 138.26416 33.05 135.84229ZM34.128124 135.84229Q34.128124 137.95166 34.628124 138.65479Q35.128124 139.35791 35.846874 139.35791Q36.58125 139.35791 37.065624 138.65479Q37.565624 137.95166 37.565624 135.84229Q37.565624 133.71729 37.065624 133.02979Q36.58125 132.32666 35.83125 132.32666Q35.1125 132.32666 34.675 132.93604Q34.128124 133.71729 34.128124 135.84229Z" fill-rule="nonzero"/><path fill="#000000" d="M27.675 107.36708Q27.01875 107.11708 26.690624 106.67958Q26.378124 106.226456 26.378124 105.61708Q26.378124 104.67958 27.05 104.038956Q27.7375 103.39833 28.846874 103.39833Q29.971874 103.39833 30.659374 104.05458Q31.346874 104.71083 31.346874 105.64833Q31.346874 106.24208 31.034374 106.67958Q30.721874 107.11708 30.08125 107.36708Q30.878124 107.61708 31.284374 108.195206Q31.690624 108.77333 31.690624 109.570206Q31.690624 110.663956 30.909374 111.413956Q30.14375 112.163956 28.8625 112.163956Q27.596874 112.163956 26.815624 111.413956Q26.034374 110.663956 26.034374 109.538956Q26.034374 108.695206 26.45625 108.132706Q26.89375 107.570206 27.675 107.36708ZM27.45625 105.570206Q27.45625 106.17958 27.846874 106.570206Q28.253124 106.96083 28.878124 106.96083Q29.4875 106.96083 29.878124 106.58583Q30.26875 106.195206 30.26875 105.632706Q30.26875 105.05458 29.8625 104.663956Q29.45625 104.257706 28.8625 104.257706Q28.253124 104.257706 27.846874 104.64833Q27.45625 105.038956 27.45625 105.570206ZM27.128124 109.538956Q27.128124 109.99208 27.33125 110.413956Q27.55 110.83583 27.971874 111.070206Q28.39375 111.30458 28.878124 111.30458Q29.628124 111.30458 30.1125 110.820206Q30.6125 110.33583 30.6125 109.58583Q30.6125 108.820206 30.1125 108.320206Q29.6125 107.820206 28.846874 107.820206Q28.096874 107.820206 27.6125 108.320206Q27.128124 108.80458 27.128124 109.538956ZM33.05 107.788956Q33.05 106.257706 33.3625 105.33583Q33.675 104.39833 34.284374 103.89833Q34.909374 103.39833 35.846874 103.39833Q36.534374 103.39833 37.05 103.67958Q37.58125 103.96083 37.925 104.49208Q38.26875 105.007706 38.45625 105.757706Q38.64375 106.507706 38.64375 107.788956Q38.64375 109.30458 38.33125 110.226456Q38.034374 111.14833 37.409374 111.663956Q36.8 112.163956 35.846874 112.163956Q34.6125 112.163956 33.89375 111.27333Q33.05 110.21083 33.05 107.788956ZM34.128124 107.788956Q34.128124 109.89833 34.628124 110.601456Q35.128124 111.30458 35.846874 111.30458Q36.58125 111.30458 37.065624 110.601456Q37.565624 109.89833 37.565624 107.788956Q37.565624 105.663956 37.065624 104.976456Q36.58125 104.27333 35.83125 104.27333Q35.1125 104.27333 34.675 104.882706Q34.128124 105.663956 34.128124 107.788956Z" fill-rule="nonzero"/><path fill="#000000" d="M26.20625 81.98563L27.221874 81.89188Q27.346874 82.61063 27.70625 82.93875Q28.08125 83.25125 28.64375 83.25125Q29.128124 83.25125 29.4875 83.0325Q29.8625 82.79813 30.096874 82.43875Q30.33125 82.06375 30.4875 81.43875Q30.64375 80.79813 30.64375 80.14188Q30.64375 80.06375 30.64375 79.92313Q30.33125 80.42313 29.784374 80.75125Q29.2375 81.06375 28.596874 81.06375Q27.51875 81.06375 26.784374 80.29813Q26.05 79.51688 26.05 78.25125Q26.05 76.93875 26.815624 76.14188Q27.596874 75.345 28.753124 75.345Q29.58125 75.345 30.26875 75.79813Q30.971874 76.25125 31.33125 77.095Q31.690624 77.92313 31.690624 79.50125Q31.690624 81.14188 31.33125 82.12625Q30.9875 83.095 30.26875 83.61063Q29.565624 84.11063 28.628124 84.11063Q27.6125 84.11063 26.971874 83.56375Q26.33125 83.00125 26.20625 81.98563ZM30.51875 78.18875Q30.51875 77.2825 30.034374 76.75125Q29.565624 76.22 28.878124 76.22Q28.175 76.22 27.64375 76.79813Q27.128124 77.36063 27.128124 78.2825Q27.128124 79.095 27.628124 79.61063Q28.128124 80.12625 28.846874 80.12625Q29.58125 80.12625 30.05 79.61063Q30.51875 79.095 30.51875 78.18875ZM33.05 79.73563Q33.05 78.20438 33.3625 77.2825Q33.675 76.345 34.284374 75.845Q34.909374 75.345 35.846874 75.345Q36.534374 75.345 37.05 75.62625Q37.58125 75.9075 37.925 76.43875Q38.26875 76.95438 38.45625 77.70438Q38.64375 78.45438 38.64375 79.73563Q38.64375 81.25125 38.33125 82.17313Q38.034374 83.095 37.409374 83.61063Q36.8 84.11063 35.846874 84.11063Q34.6125 84.11063 33.89375 83.22Q33.05 82.1575 33.05 79.73563ZM34.128124 79.73563Q34.128124 81.845 34.628124 82.54813Q35.128124 83.25125 35.846874 83.25125Q36.58125 83.25125 37.065624 82.54813Q37.565624 81.845 37.565624 79.73563Q37.565624 77.61063 37.065624 76.92313Q36.58125 76.22 35.83125 76.22Q35.1125 76.22 34.675 76.82938Q34.128124 77.61063 34.128124 79.73563Z" fill-rule="nonzero"/><path fill="#000000" d="M23.01875 55.916668L21.971874 55.916668L21.971874 49.197918Q21.58125 49.557293 20.95625 49.932293Q20.346874 50.291668 19.8625 50.463543L19.8625 49.447918Q20.7375 49.026043 21.39375 48.447918Q22.065624 47.854168 22.346874 47.291668L23.01875 47.291668L23.01875 55.916668ZM26.05 51.682293Q26.05 50.151043 26.3625 49.229168Q26.675 48.291668 27.284374 47.791668Q27.909374 47.291668 28.846874 47.291668Q29.534374 47.291668 30.05 47.572918Q30.58125 47.854168 30.925 48.385418Q31.26875 48.901043 31.45625 49.651043Q31.64375 50.401043 31.64375 51.682293Q31.64375 53.197918 31.33125 54.119793Q31.034374 55.041668 30.409374 55.557293Q29.8 56.057293 28.846874 56.057293Q27.6125 56.057293 26.89375 55.166668Q26.05 54.104168 26.05 51.682293ZM27.128124 51.682293Q27.128124 53.791668 27.628124 54.494793Q28.128124 55.197918 28.846874 55.197918Q29.58125 55.197918 30.065624 54.494793Q30.565624 53.791668 30.565624 51.682293Q30.565624 49.557293 30.065624 48.869793Q29.58125 48.166668 28.83125 48.166668Q28.1125 48.166668 27.675 48.776043Q27.128124 49.557293 27.128124 51.682293ZM33.05 51.682293Q33.05 50.151043 33.3625 49.229168Q33.675 48.291668 34.284374 47.791668Q34.909374 47.291668 35.846874 47.291668Q36.534374 47.291668 37.05 47.572918Q37.58125 47.854168 37.925 48.385418Q38.26875 48.901043 38.45625 49.651043Q38.64375 50.401043 38.64375 51.682293Q38.64375 53.197918 38.33125 54.119793Q38.034374 55.041668 37.409374 55.557293Q36.8 56.057293 35.846874 56.057293Q34.6125 56.057293 33.89375 55.166668Q33.05 54.104168 33.05 51.682293ZM34.128124 51.682293Q34.128124 53.791668 34.628124 54.494793Q35.128124 55.197918 35.846874 55.197918Q36.58125 55.197918 37.065624 54.494793Q37.565624 53.791668 37.565624 51.682293Q37.565624 49.557293 37.065624 48.869793Q36.58125 48.166668 35.83125 48.166668Q35.1125 48.166668 34.675 48.776043Q34.128124 49.557293 34.128124 51.682293Z" fill-rule="nonzero"/><path fill="#000000" d="M65.18383 347.0125L66.21508 346.8719Q66.24633 347.85626 66.574455 348.21564Q66.90258 348.575 67.49633 348.575Q67.918205 348.575 68.230705 348.3875Q68.543205 348.1844 68.65258 347.85626Q68.77758 347.5125 68.77758 346.77814L68.77758 340.85626L69.90258 340.85626L69.90258 346.71564Q69.90258 347.79376 69.636955 348.3875Q69.386955 348.98126 68.824455 349.29376Q68.261955 349.59064 67.49633 349.59064Q66.37133 349.59064 65.761955 348.95Q65.168205 348.29376 65.18383 347.0125ZM75.699455 348.6844Q75.105705 349.1844 74.55883 349.3875Q74.02758 349.59064 73.40258 349.59064Q72.37133 349.59064 71.824455 349.09064Q71.27758 348.59064 71.27758 347.8094Q71.27758 347.35626 71.480705 346.98126Q71.68383 346.59064 72.02758 346.3719Q72.37133 346.1375 72.793205 346.02814Q73.09008 345.9344 73.730705 345.85626Q74.99633 345.71564 75.605705 345.4969Q75.605705 345.27814 75.605705 345.23126Q75.605705 344.575 75.30883 344.3094Q74.90258 343.96564 74.105705 343.96564Q73.37133 343.96564 73.011955 344.23126Q72.65258 344.48126 72.480705 345.1375L71.449455 344.9969Q71.59008 344.34064 71.918205 343.9344Q72.24633 343.52814 72.855705 343.3094Q73.46508 343.09064 74.261955 343.09064Q75.05883 343.09064 75.55883 343.27814Q76.05883 343.46564 76.293205 343.7469Q76.52758 344.02814 76.62133 344.46564Q76.668205 344.73126 76.668205 345.4344L76.668205 346.84064Q76.668205 348.3094 76.730705 348.7Q76.80883 349.09064 77.011955 349.45L75.90258 349.45Q75.74633 349.1219 75.699455 348.6844ZM75.605705 346.325Q75.02758 346.5594 73.886955 346.73126Q73.230705 346.825 72.96508 346.95Q72.699455 347.0594 72.543205 347.27814Q72.40258 347.4969 72.40258 347.77814Q72.40258 348.2 72.71508 348.48126Q73.043205 348.7625 73.65258 348.7625Q74.261955 348.7625 74.730705 348.4969Q75.21508 348.23126 75.43383 347.7625Q75.605705 347.40314 75.605705 346.71564L75.605705 346.325ZM78.636955 349.45L78.636955 343.23126L79.574455 343.23126L79.574455 344.10626Q80.261955 343.09064 81.55883 343.09064Q82.12133 343.09064 82.59008 343.29376Q83.074455 343.4969 83.30883 343.825Q83.543205 344.15314 83.636955 344.59064Q83.68383 344.8875 83.68383 345.6219L83.68383 349.45L82.636955 349.45L82.636955 345.66876Q82.636955 345.0125 82.511955 344.7Q82.386955 344.3875 82.074455 344.2Q81.761955 343.9969 81.34008 343.9969Q80.668205 343.9969 80.168205 344.4344Q79.68383 344.85626 79.68383 346.04376L79.68383 349.45L78.636955 349.45Z" fill-rule="nonzero"/><path fill="#000000" d="M108.71717 349.45L108.71717 340.85626L114.514046 340.85626L114.514046 341.8719L109.857796 341.8719L109.857796 344.52814L113.889046 344.52814L113.889046 345.54376L109.857796 345.54376L109.857796 349.45L108.71717 349.45ZM119.77967 347.45L120.87342 347.575Q120.62342 348.52814 119.920296 349.0594Q119.21717 349.59064 118.139046 349.59064Q116.77967 349.59064 115.96717 348.7469Q115.170296 347.90314 115.170296 346.3875Q115.170296 344.825 115.982796 343.96564Q116.795296 343.09064 118.076546 343.09064Q119.326546 343.09064 120.107796 343.9344Q120.90467 344.77814 120.90467 346.325Q120.90467 346.41876 120.90467 346.60626L116.264046 346.60626Q116.326546 347.6375 116.84217 348.1844Q117.357796 348.71564 118.139046 348.71564Q118.71717 348.71564 119.12342 348.41876Q119.545296 348.10626 119.77967 347.45ZM116.326546 345.7469L119.795296 345.7469Q119.732796 344.95 119.40467 344.5594Q118.889046 343.95 118.09217 343.95Q117.357796 343.95 116.857796 344.4344Q116.37342 344.91876 116.326546 345.7469ZM123.49842 349.45L122.514046 349.45L122.514046 340.85626L123.576546 340.85626L123.576546 343.91876Q124.24842 343.09064 125.27967 343.09064Q125.857796 343.09064 126.357796 343.325Q126.87342 343.54376 127.201546 343.96564Q127.545296 344.3875 127.732796 344.98126Q127.920296 345.575 127.920296 346.2469Q127.920296 347.84064 127.12342 348.71564Q126.326546 349.59064 125.232796 349.59064Q124.12342 349.59064 123.49842 348.66876L123.49842 349.45ZM123.482796 346.29376Q123.482796 347.40314 123.795296 347.90314Q124.295296 348.71564 125.139046 348.71564Q125.826546 348.71564 126.326546 348.1219Q126.84217 347.52814 126.84217 346.325Q126.84217 345.10626 126.357796 344.52814Q125.87342 343.95 125.18592 343.95Q124.49842 343.95 123.982796 344.5594Q123.482796 345.15314 123.482796 346.29376Z" fill-rule="nonzero"/><path fill="#000000" d="M153.51613 349.45L153.51613 340.85626L155.23488 340.85626L157.26613 346.9344Q157.54738 347.79376 157.67238 348.21564Q157.813 347.7469 158.1255 346.84064L160.188 340.85626L161.71925 340.85626L161.71925 349.45L160.6255 349.45L160.6255 342.2625L158.1255 349.45L157.09425 349.45L154.60988 342.1375L154.60988 349.45L153.51613 349.45ZM162.40675 349.45L162.40675 343.23126L163.35988 343.23126L163.35988 344.16876Q163.71925 343.5125 164.01613 343.3094Q164.32863 343.09064 164.70363 343.09064Q165.23488 343.09064 165.78175 343.41876L165.42238 344.40314Q165.03175 344.16876 164.65675 344.16876Q164.29738 344.16876 164.01613 344.3875Q163.7505 344.59064 163.64113 344.96564Q163.45363 345.52814 163.45363 346.1844L163.45363 349.45L162.40675 349.45ZM165.85988 349.45L165.85988 348.59064L169.82863 344.04376Q169.14113 344.075 168.6255 344.075L166.09425 344.075L166.09425 343.23126L171.188 343.23126L171.188 343.91876L167.813 347.8719L167.15675 348.59064Q167.8755 348.54376 168.48488 348.54376L171.3755 348.54376L171.3755 349.45L165.85988 349.45Z" fill-rule="nonzero"/><path fill="#000000" d="M196.0026 349.45L199.29947 340.85626L200.51822 340.85626L204.03384 349.45L202.7526 349.45L201.73697 346.84064L198.15884 346.84064L197.20572 349.45L196.0026 349.45ZM198.48697 345.91876L201.39322 345.91876L200.5026 343.54376Q200.08072 342.46564 199.89322 341.7625Q199.72134 342.59064 199.42447 343.40314L198.48697 345.91876ZM203.8151 351.84064L203.8151 343.23126L204.76822 343.23126L204.76822 344.02814Q205.11197 343.5594 205.53384 343.325Q205.97134 343.09064 206.58072 343.09064Q207.3776 343.09064 207.98697 343.4969Q208.59634 343.90314 208.89322 344.65314Q209.20572 345.40314 209.20572 346.29376Q209.20572 347.2469 208.86197 348.0125Q208.53384 348.77814 207.8776 349.1844Q207.22134 349.59064 206.5026 349.59064Q205.97134 349.59064 205.54947 349.3719Q205.1276 349.1375 204.86197 348.8094L204.86197 351.84064L203.8151 351.84064ZM204.76822 346.3719Q204.76822 347.575 205.2526 348.15314Q205.73697 348.71564 206.42447 348.71564Q207.1276 348.71564 207.6276 348.1219Q208.1276 347.52814 208.1276 346.27814Q208.1276 345.09064 207.64322 344.5125Q207.15884 343.91876 206.47134 343.91876Q205.79947 343.91876 205.28384 344.54376Q204.76822 345.16876 204.76822 346.3719ZM210.79947 349.45L210.79947 343.23126L211.7526 343.23126L211.7526 344.16876Q212.11197 343.5125 212.40884 343.3094Q212.72134 343.09064 213.09634 343.09064Q213.6276 343.09064 214.17447 343.41876L213.8151 344.40314Q213.42447 344.16876 213.04947 344.16876Q212.6901 344.16876 212.40884 344.3875Q212.14322 344.59064 212.03384 344.96564Q211.84634 345.52814 211.84634 346.1844L211.84634 349.45L210.79947 349.45Z" fill-rule="nonzero"/><path fill="#000000" d="M239.80156 349.45L239.80156 340.85626L241.52031 340.85626L243.55156 346.9344Q243.83281 347.79376 243.95781 348.21564Q244.09843 347.7469 244.41093 346.84064L246.47343 340.85626L248.00468 340.85626L248.00468 349.45L246.91093 349.45L246.91093 342.2625L244.41093 349.45L243.37968 349.45L240.89531 342.1375L240.89531 349.45L239.80156 349.45ZM252.77031 348.6844Q252.17656 349.1844 251.62968 349.3875Q251.09843 349.59064 250.47343 349.59064Q249.44218 349.59064 248.89531 349.09064Q248.34843 348.59064 248.34843 347.8094Q248.34843 347.35626 248.55156 346.98126Q248.75468 346.59064 249.09843 346.3719Q249.44218 346.1375 249.86406 346.02814Q250.16093 345.9344 250.80156 345.85626Q252.06718 345.71564 252.67656 345.4969Q252.67656 345.27814 252.67656 345.23126Q252.67656 344.575 252.37968 344.3094Q251.97343 343.96564 251.17656 343.96564Q250.44218 343.96564 250.08281 344.23126Q249.72343 344.48126 249.55156 345.1375L248.52031 344.9969Q248.66093 344.34064 248.98906 343.9344Q249.31718 343.52814 249.92656 343.3094Q250.53593 343.09064 251.33281 343.09064Q252.12968 343.09064 252.62968 343.27814Q253.12968 343.46564 253.36406 343.7469Q253.59843 344.02814 253.69218 344.46564Q253.73906 344.73126 253.73906 345.4344L253.73906 346.84064Q253.73906 348.3094 253.80156 348.7Q253.87968 349.09064 254.08281 349.45L252.97343 349.45Q252.81718 349.1219 252.77031 348.6844ZM252.67656 346.325Q252.09843 346.5594 250.95781 346.73126Q250.30156 346.825 250.03593 346.95Q249.77031 347.0594 249.61406 347.27814Q249.47343 347.4969 249.47343 347.77814Q249.47343 348.2 249.78593 348.48126Q250.11406 348.7625 250.72343 348.7625Q251.33281 348.7625 251.80156 348.4969Q252.28593 348.23126 252.50468 347.7625Q252.67656 347.40314 252.67656 346.71564L252.67656 346.325ZM255.70781 342.075L255.70781 340.85626L256.77032 340.85626L256.77032 342.075L255.70781 342.075ZM255.70781 349.45L255.70781 343.23126L256.77032 343.23126L256.77032 349.45L255.70781 349.45Z" fill-rule="nonzero"/><path fill="#000000" d="M282.1474 347.0125L283.17865 346.8719Q283.2099 347.85626 283.53802 348.21564Q283.86615 348.575 284.4599 348.575Q284.88177 348.575 285.19427 348.3875Q285.50677 348.1844 285.61615 347.85626Q285.74115 347.5125 285.74115 346.77814L285.74115 340.85626L286.86615 340.85626L286.86615 346.71564Q286.86615 347.79376 286.60052 348.3875Q286.35052 348.98126 285.78802 349.29376Q285.22552 349.59064 284.4599 349.59064Q283.3349 349.59064 282.72552 348.95Q282.13177 348.29376 282.1474 347.0125ZM292.67865 349.45L292.67865 348.52814Q291.94427 349.59064 290.69427 349.59064Q290.1474 349.59064 289.66302 349.3875Q289.19427 349.16876 288.9599 348.85626Q288.72552 348.52814 288.63177 348.0594Q288.56927 347.7625 288.56927 347.075L288.56927 343.23126L289.63177 343.23126L289.63177 346.6844Q289.63177 347.4969 289.69427 347.79376Q289.78802 348.2 290.10052 348.45Q290.42865 348.6844 290.91302 348.6844Q291.38177 348.6844 291.78802 348.45Q292.2099 348.2 292.38177 347.77814Q292.56927 347.35626 292.56927 346.5594L292.56927 343.23126L293.61615 343.23126L293.61615 349.45L292.67865 349.45ZM295.60052 349.45L295.60052 343.23126L296.53802 343.23126L296.53802 344.10626Q297.22552 343.09064 298.5224 343.09064Q299.0849 343.09064 299.55365 343.29376Q300.03802 343.4969 300.2724 343.825Q300.50677 344.15314 300.60052 344.59064Q300.6474 344.8875 300.6474 345.6219L300.6474 349.45L299.60052 349.45L299.60052 345.66876Q299.60052 345.0125 299.47552 344.7Q299.35052 344.3875 299.03802 344.2Q298.72552 343.9969 298.30365 343.9969Q297.63177 343.9969 297.13177 344.4344Q296.6474 344.85626 296.6474 346.04376L296.6474 349.45L295.60052 349.45Z" fill-rule="nonzero"/><path fill="#000000" d="M327.5401 347.0125L328.57135 346.8719Q328.6026 347.85626 328.93073 348.21564Q329.25885 348.575 329.8526 348.575Q330.27448 348.575 330.58698 348.3875Q330.89948 348.1844 331.00885 347.85626Q331.13385 347.5125 331.13385 346.77814L331.13385 340.85626L332.25885 340.85626L332.25885 346.71564Q332.25885 347.79376 331.99323 348.3875Q331.74323 348.98126 331.18073 349.29376Q330.61823 349.59064 329.8526 349.59064Q328.7276 349.59064 328.11823 348.95Q327.52448 348.29376 327.5401 347.0125ZM338.07135 349.45L338.07135 348.52814Q337.33698 349.59064 336.08698 349.59064Q335.5401 349.59064 335.05573 349.3875Q334.58698 349.16876 334.3526 348.85626Q334.11823 348.52814 334.02448 348.0594Q333.96198 347.7625 333.96198 347.075L333.96198 343.23126L335.02448 343.23126L335.02448 346.6844Q335.02448 347.4969 335.08698 347.79376Q335.18073 348.2 335.49323 348.45Q335.82135 348.6844 336.30573 348.6844Q336.77448 348.6844 337.18073 348.45Q337.6026 348.2 337.77448 347.77814Q337.96198 347.35626 337.96198 346.5594L337.96198 343.23126L339.00885 343.23126L339.00885 349.45L338.07135 349.45ZM340.96198 349.45L340.96198 340.85626L342.02448 340.85626L342.02448 349.45L340.96198 349.45Z" fill-rule="nonzero"/><path fill="#000000" d="M368.07346 349.45L371.37033 340.85626L372.58908 340.85626L376.1047 349.45L374.82346 349.45L373.80783 346.84064L370.2297 346.84064L369.27658 349.45L368.07346 349.45ZM370.55783 345.91876L373.46408 345.91876L372.57346 343.54376Q372.15158 342.46564 371.96408 341.7625Q371.7922 342.59064 371.49533 343.40314L370.55783 345.91876ZM379.96408 349.45L379.96408 348.52814Q379.2297 349.59064 377.9797 349.59064Q377.43283 349.59064 376.94846 349.3875Q376.4797 349.16876 376.24533 348.85626Q376.01096 348.52814 375.9172 348.0594Q375.8547 347.7625 375.8547 347.075L375.8547 343.23126L376.9172 343.23126L376.9172 346.6844Q376.9172 347.4969 376.9797 347.79376Q377.07346 348.2 377.38596 348.45Q377.71408 348.6844 378.19846 348.6844Q378.6672 348.6844 379.07346 348.45Q379.49533 348.2 379.6672 347.77814Q379.8547 347.35626 379.8547 346.5594L379.8547 343.23126L380.90158 343.23126L380.90158 349.45L379.96408 349.45ZM382.68283 349.96564L383.71408 350.1219Q383.77658 350.59064 384.07346 350.8094Q384.46408 351.10626 385.13596 351.10626Q385.87033 351.10626 386.26096 350.8094Q386.6672 350.5125 386.80783 349.9969Q386.90158 349.66876 386.88596 348.6375Q386.19846 349.45 385.1672 349.45Q383.88596 349.45 383.18283 348.52814Q382.4797 347.59064 382.4797 346.3094Q382.4797 345.41876 382.7922 344.66876Q383.12033 343.90314 383.7297 343.4969Q384.33908 343.09064 385.1672 343.09064Q386.27658 343.09064 386.99533 343.98126L386.99533 343.23126L387.96408 343.23126L387.96408 348.60626Q387.96408 350.0594 387.6672 350.66876Q387.37033 351.27814 386.7297 351.6219Q386.08908 351.98126 385.15158 351.98126Q384.0422 351.98126 383.3547 351.48126Q382.6672 350.98126 382.68283 349.96564ZM383.55783 346.23126Q383.55783 347.45 384.0422 348.0125Q384.52658 348.575 385.26096 348.575Q385.99533 348.575 386.4797 348.0125Q386.9797 347.45 386.9797 346.2625Q386.9797 345.1219 386.46408 344.54376Q385.96408 343.96564 385.24533 343.96564Q384.5422 343.96564 384.0422 344.54376Q383.55783 345.10626 383.55783 346.23126Z" fill-rule="nonzero"/><path fill="#000000" d="M411.52866 346.6844L412.59116 346.59064Q412.66928 347.2469 412.95053 347.65314Q413.23178 348.0594 413.8099 348.325Q414.40366 348.575 415.13803 348.575Q415.77866 348.575 416.27866 348.3875Q416.77866 348.1844 417.01303 347.85626Q417.26303 347.5125 417.26303 347.1219Q417.26303 346.71564 417.02866 346.41876Q416.79428 346.10626 416.26303 345.90314Q415.90366 345.7625 414.71616 345.48126Q413.54428 345.2 413.07553 344.95Q412.45053 344.6219 412.15366 344.15314Q411.85678 343.66876 411.85678 343.075Q411.85678 342.4344 412.21616 341.8719Q412.59116 341.29376 413.29428 341.0125Q414.01303 340.71564 414.8724 340.71564Q415.82553 340.71564 416.5599 341.02814Q417.29428 341.325 417.6849 341.9344Q418.07553 342.52814 418.10678 343.27814L417.01303 343.35626Q416.91928 342.54376 416.40366 342.1375Q415.90366 341.71564 414.91928 341.71564Q413.88803 341.71564 413.41928 342.09064Q412.95053 342.46564 412.95053 342.9969Q412.95053 343.46564 413.27866 343.7625Q413.60678 344.0594 414.98178 344.3719Q416.3724 344.6844 416.88803 344.91876Q417.63803 345.27814 417.9974 345.8094Q418.35678 346.325 418.35678 347.02814Q418.35678 347.71564 417.96616 348.325Q417.57553 348.91876 416.84116 349.2625Q416.10678 349.59064 415.1849 349.59064Q414.01303 349.59064 413.21616 349.2625Q412.4349 348.91876 411.98178 348.23126Q411.54428 347.54376 411.52866 346.6844ZM424.02866 347.45L425.1224 347.575Q424.8724 348.52814 424.16928 349.0594Q423.46616 349.59064 422.38803 349.59064Q421.02866 349.59064 420.21616 348.7469Q419.41928 347.90314 419.41928 346.3875Q419.41928 344.825 420.23178 343.96564Q421.04428 343.09064 422.32553 343.09064Q423.57553 343.09064 424.35678 343.9344Q425.15366 344.77814 425.15366 346.325Q425.15366 346.41876 425.15366 346.60626L420.51303 346.60626Q420.57553 347.6375 421.09116 348.1844Q421.60678 348.71564 422.38803 348.71564Q422.96616 348.71564 423.3724 348.41876Q423.79428 348.10626 424.02866 347.45ZM420.57553 345.7469L424.04428 345.7469Q423.98178 344.95 423.65366 344.5594Q423.13803 343.95 422.34116 343.95Q421.60678 343.95 421.10678 344.4344Q420.6224 344.91876 420.57553 345.7469ZM426.77866 351.84064L426.77866 343.23126L427.73178 343.23126L427.73178 344.02814Q428.07553 343.5594 428.4974 343.325Q428.9349 343.09064 429.54428 343.09064Q430.34116 343.09064 430.95053 343.4969Q431.5599 343.90314 431.85678 344.65314Q432.16928 345.40314 432.16928 346.29376Q432.16928 347.2469 431.82553 348.0125Q431.4974 348.77814 430.84116 349.1844Q430.1849 349.59064 429.46616 349.59064Q428.9349 349.59064 428.51303 349.3719Q428.09116 349.1375 427.82553 348.8094L427.82553 351.84064L426.77866 351.84064ZM427.73178 346.3719Q427.73178 347.575 428.21616 348.15314Q428.70053 348.71564 429.38803 348.71564Q430.09116 348.71564 430.59116 348.1219Q431.09116 347.52814 431.09116 346.27814Q431.09116 345.09064 430.60678 344.5125Q430.1224 343.91876 429.4349 343.91876Q428.76303 343.91876 428.2474 344.54376Q427.73178 345.16876 427.73178 346.3719Z" fill-rule="nonzero"/><path fill="#000000" d="M456.9526 345.2625Q456.9526 343.1219 458.09323 341.91876Q459.24948 340.7 461.06198 340.7Q462.2651 340.7 463.21823 341.27814Q464.17136 341.84064 464.67136 342.85626Q465.17136 343.8719 465.17136 345.16876Q465.17136 346.46564 464.6401 347.4969Q464.10886 348.52814 463.1401 349.0594Q462.18698 349.59064 461.06198 349.59064Q459.84323 349.59064 458.8901 349.0125Q457.93698 348.41876 457.43698 347.41876Q456.9526 346.40314 456.9526 345.2625ZM458.12448 345.27814Q458.12448 346.84064 458.9526 347.73126Q459.79636 348.6219 461.06198 348.6219Q462.34323 348.6219 463.17136 347.73126Q463.99948 346.825 463.99948 345.15314Q463.99948 344.10626 463.6401 343.325Q463.29636 342.54376 462.60886 342.1219Q461.92136 341.6844 461.0776 341.6844Q459.87448 341.6844 458.99948 342.5125Q458.12448 343.34064 458.12448 345.27814ZM466.17136 349.45L466.17136 340.85626L467.23386 340.85626L467.23386 345.7625L469.71823 343.23126L471.09323 343.23126L468.7026 345.52814L471.3276 349.45L470.03073 349.45L467.96823 346.2625L467.23386 346.98126L467.23386 349.45L466.17136 349.45ZM474.46823 348.5125L474.62448 349.4344Q474.17136 349.52814 473.8276 349.52814Q473.24948 349.52814 472.93698 349.35626Q472.62448 349.16876 472.48386 348.8719Q472.35886 348.575 472.35886 347.6219L472.35886 344.04376L471.59323 344.04376L471.59323 343.23126L472.35886 343.23126L472.35886 341.6844L473.40573 341.0594L473.40573 343.23126L474.46823 343.23126L474.46823 344.04376L473.40573 344.04376L473.40573 347.6844Q473.40573 348.1375 473.4526 348.2625Q473.5151 348.3875 473.6401 348.46564Q473.7651 348.54376 473.99948 348.54376Q474.18698 348.54376 474.46823 348.5125Z" fill-rule="nonzero"/><path fill="#000000" d="M499.1891 349.45L499.1891 340.85626L500.34534 340.85626L504.86096 347.60626L504.86096 340.85626L505.9547 340.85626L505.9547 349.45L504.78284 349.45L500.2672 342.7L500.2672 349.45L499.1891 349.45ZM507.67346 346.34064Q507.67346 344.60626 508.6266 343.77814Q509.42346 343.09064 510.5797 343.09064Q511.86096 343.09064 512.67346 343.9344Q513.5016 344.7625 513.5016 346.2469Q513.5016 347.45 513.1422 348.1375Q512.78284 348.825 512.0797 349.21564Q511.3922 349.59064 510.5797 349.59064Q509.28284 349.59064 508.47034 348.7625Q507.67346 347.91876 507.67346 346.34064ZM508.7516 346.34064Q508.7516 347.52814 509.2672 348.1219Q509.79846 348.71564 510.5797 348.71564Q511.3766 348.71564 511.8922 348.1219Q512.40784 347.52814 512.40784 346.3094Q512.40784 345.15314 511.8766 344.5594Q511.36096 343.96564 510.5797 343.96564Q509.79846 343.96564 509.2672 344.5594Q508.7516 345.1375 508.7516 346.34064ZM516.78284 349.45L514.42346 343.23126L515.53284 343.23126L516.8766 346.95Q517.0797 347.5594 517.2672 348.2Q517.40784 347.71564 517.65784 347.02814L519.04846 343.23126L520.1266 343.23126L517.7672 349.45L516.78284 349.45Z" fill-rule="nonzero"/><path fill="#000000" d="M542.5818 349.45L542.5818 340.85626L545.55054 340.85626Q546.55054 340.85626 547.0818 340.98126Q547.81616 341.15314 548.3318 341.59064Q549.0193 342.16876 549.3474 343.075Q549.69116 343.96564 549.69116 345.10626Q549.69116 346.09064 549.4568 346.84064Q549.23804 347.59064 548.87866 348.09064Q548.5193 348.59064 548.0818 348.8719Q547.6599 349.15314 547.06616 349.3094Q546.4724 349.45 545.69116 349.45L542.5818 349.45ZM543.7224 348.4344L545.55054 348.4344Q546.4099 348.4344 546.8943 348.27814Q547.37866 348.1219 547.6599 347.825Q548.06616 347.4344 548.2849 346.7469Q548.5193 346.0594 548.5193 345.09064Q548.5193 343.7469 548.06616 343.02814Q547.62866 342.29376 547.00366 342.04376Q546.5349 341.8719 545.5349 341.8719L543.7224 341.8719L543.7224 348.4344ZM555.7068 347.45L556.80054 347.575Q556.55054 348.52814 555.8474 349.0594Q555.1443 349.59064 554.06616 349.59064Q552.7068 349.59064 551.8943 348.7469Q551.0974 347.90314 551.0974 346.3875Q551.0974 344.825 551.9099 343.96564Q552.7224 343.09064 554.00366 343.09064Q555.25366 343.09064 556.0349 343.9344Q556.8318 344.77814 556.8318 346.325Q556.8318 346.41876 556.8318 346.60626L552.19116 346.60626Q552.25366 347.6375 552.7693 348.1844Q553.2849 348.71564 554.06616 348.71564Q554.6443 348.71564 555.05054 348.41876Q555.4724 348.10626 555.7068 347.45ZM552.25366 345.7469L555.7224 345.7469Q555.6599 344.95 555.3318 344.5594Q554.81616 343.95 554.0193 343.95Q553.2849 343.95 552.7849 344.4344Q552.30054 344.91876 552.25366 345.7469ZM557.8943 349.45L557.8943 348.59064L561.86304 344.04376Q561.17554 344.075 560.6599 344.075L558.12866 344.075L558.12866 343.23126L563.2224 343.23126L563.2224 343.91876L559.8474 347.8719L559.19116 348.59064Q559.9099 348.54376 560.5193 348.54376L563.4099 348.54376L563.4099 349.45L557.8943 349.45Z" fill-rule="nonzero"/><path fill="#4285f4" d="M123.5 20.55C123.5 19.997715 123.947716 19.55 124.5 19.55L134.5 19.55C135.05229 19.55 135.5 19.997715 135.5 20.55L135.5 30.55C135.5 31.102285 135.05229 31.55 134.5 31.55L124.5 31.55C123.947716 31.55 123.5 31.102285 123.5 30.55Z" fill-rule="nonzero"/><path fill="#1a1a1a" d="M149.54688 28.534374L149.54688 29.55L143.85938 29.55Q143.85938 29.175 143.98438 28.815624Q144.20312 28.2375 144.67188 27.675Q145.15625 27.1125 146.0625 26.378124Q147.46875 25.221874 147.95312 24.55Q148.45312 23.878124 148.45312 23.284374Q148.45312 22.659374 148.0 22.2375Q147.54688 21.8 146.82812 21.8Q146.0625 21.8 145.60938 22.253124Q145.15625 22.70625 145.14062 23.51875L144.0625 23.409374Q144.17188 22.190624 144.89062 21.565624Q145.625 20.925 146.85938 20.925Q148.09375 20.925 148.8125 21.6125Q149.53125 22.3 149.53125 23.315624Q149.53125 23.83125 149.3125 24.33125Q149.10938 24.815624 148.60938 25.378124Q148.125 25.925 147.0 26.878124Q146.04688 27.675 145.76562 27.971874Q145.5 28.253124 145.32812 28.534374L149.54688 28.534374ZM151.0 25.315624Q151.0 23.784374 151.3125 22.8625Q151.625 21.925 152.23438 21.425Q152.85938 20.925 153.79688 20.925Q154.48438 20.925 155.0 21.20625Q155.53125 21.4875 155.875 22.01875Q156.21875 22.534374 156.40625 23.284374Q156.59375 24.034374 156.59375 25.315624Q156.59375 26.83125 156.28125 27.753124Q155.98438 28.675 155.35938 29.190624Q154.75 29.690624 153.79688 29.690624Q152.5625 29.690624 151.84375 28.8Q151.0 27.7375 151.0 25.315624ZM152.07812 25.315624Q152.07812 27.425 152.57812 28.128124Q153.07812 28.83125 153.79688 28.83125Q154.53125 28.83125 155.01562 28.128124Q155.51562 27.425 155.51562 25.315624Q155.51562 23.190624 155.01562 22.503124Q154.53125 21.8 153.78125 21.8Q153.0625 21.8 152.625 22.409374Q152.07812 23.190624 152.07812 25.315624ZM163.54688 28.534374L163.54688 29.55L157.85938 29.55Q157.85938 29.175 157.98438 28.815624Q158.20312 28.2375 158.67188 27.675Q159.15625 27.1125 160.0625 26.378124Q161.46875 25.221874 161.95312 24.55Q162.45312 23.878124 162.45312 23.284374Q162.45312 22.659374 162.0 22.2375Q161.54688 21.8 160.82812 21.8Q160.0625 21.8 159.60938 22.253124Q159.15625 22.70625 159.14062 23.51875L158.0625 23.409374Q158.17188 22.190624 158.89062 21.565624Q159.625 20.925 160.85938 20.925Q162.09375 20.925 162.8125 21.6125Q163.53125 22.3 163.53125 23.315624Q163.53125 23.83125 163.3125 24.33125Q163.10938 24.815624 162.60938 25.378124Q162.125 25.925 161.0 26.878124Q160.04688 27.675 159.76562 27.971874Q159.5 28.253124 159.32812 28.534374L163.54688 28.534374ZM165.0 27.3L166.10938 27.20625Q166.23438 28.01875 166.67188 28.425Q167.125 28.83125 167.76562 28.83125Q168.51562 28.83125 169.04688 28.253124Q169.57812 27.675 169.57812 26.7375Q169.57812 25.83125 169.0625 25.315624Q168.5625 24.784374 167.73438 24.784374Q167.23438 24.784374 166.8125 25.01875Q166.40625 25.253124 166.17188 25.6125L165.1875 25.4875L166.01562 21.08125L170.29688 21.08125L170.29688 22.08125L166.85938 22.08125L166.40625 24.39375Q167.17188 23.846874 168.01562 23.846874Q169.14062 23.846874 169.90625 24.628124Q170.6875 25.409374 170.6875 26.64375Q170.6875 27.8 170.01562 28.659374Q169.1875 29.690624 167.76562 29.690624Q166.59375 29.690624 165.84375 29.034374Q165.10938 28.378124 165.0 27.3ZM179.54688 27.55L180.64062 27.675Q180.39062 28.628124 179.6875 29.159374Q178.98438 29.690624 177.90625 29.690624Q176.54688 29.690624 175.73438 28.846874Q174.9375 28.003124 174.9375 26.4875Q174.9375 24.925 175.75 24.065624Q176.5625 23.190624 177.84375 23.190624Q179.09375 23.190624 179.875 24.034374Q180.67188 24.878124 180.67188 26.425Q180.67188 26.51875 180.67188 26.70625L176.03125 26.70625Q176.09375 27.7375 176.60938 28.284374Q177.125 28.815624 177.90625 28.815624Q178.48438 28.815624 178.89062 28.51875Q179.3125 28.20625 179.54688 27.55ZM176.09375 25.846874L179.5625 25.846874Q179.5 25.05 179.17188 24.659374Q178.65625 24.05 177.85938 24.05Q177.125 24.05 176.625 24.534374Q176.14062 25.01875 176.09375 25.846874ZM182.28125 29.55L182.28125 23.33125L183.23438 23.33125L183.23438 24.26875Q183.59375 23.6125 183.89062 23.409374Q184.20312 23.190624 184.57812 23.190624Q185.10938 23.190624 185.65625 23.51875L185.29688 24.503124Q184.90625 24.26875 184.53125 24.26875Q184.17188 24.26875 183.89062 24.4875Q183.625 24.690624 183.51562 25.065624Q183.32812 25.628124 183.32812 26.284374L183.32812 29.55L182.28125 29.55ZM187.4375 29.55L185.53125 23.33125L186.625 23.33125L187.60938 26.925L187.98438 28.253124Q188.01562 28.159374 188.3125 26.971874L189.29688 23.33125L190.375 23.33125L191.3125 26.940624L191.625 28.128124L191.98438 26.925L193.04688 23.33125L194.07812 23.33125L192.125 29.55L191.03125 29.55L190.04688 25.815624L189.79688 24.76875L188.54688 29.55L187.4375 29.55ZM199.35938 28.784374Q198.76562 29.284374 198.21875 29.4875Q197.6875 29.690624 197.0625 29.690624Q196.03125 29.690624 195.48438 29.190624Q194.9375 28.690624 194.9375 27.909374Q194.9375 27.45625 195.14062 27.08125Q195.34375 26.690624 195.6875 26.471874Q196.03125 26.2375 196.45312 26.128124Q196.75 26.034374 197.39062 25.95625Q198.65625 25.815624 199.26562 25.596874Q199.26562 25.378124 199.26562 25.33125Q199.26562 24.675 198.96875 24.409374Q198.5625 24.065624 197.76562 24.065624Q197.03125 24.065624 196.67188 24.33125Q196.3125 24.58125 196.14062 25.2375L195.10938 25.096874Q195.25 24.440624 195.57812 24.034374Q195.90625 23.628124 196.51562 23.409374Q197.125 23.190624 197.92188 23.190624Q198.71875 23.190624 199.21875 23.378124Q199.71875 23.565624 199.95312 23.846874Q200.1875 24.128124 200.28125 24.565624Q200.32812 24.83125 200.32812 25.534374L200.32812 26.940624Q200.32812 28.409374 200.39062 28.8Q200.46875 29.190624 200.67188 29.55L199.5625 29.55Q199.40625 29.221874 199.35938 28.784374ZM199.26562 26.425Q198.6875 26.659374 197.54688 26.83125Q196.89062 26.925 196.625 27.05Q196.35938 27.159374 196.20312 27.378124Q196.0625 27.596874 196.0625 27.878124Q196.0625 28.3 196.375 28.58125Q196.70312 28.8625 197.3125 28.8625Q197.92188 28.8625 198.39062 28.596874Q198.875 28.33125 199.09375 27.8625Q199.26562 27.503124 199.26562 26.815624L199.26562 26.425ZM202.28125 29.55L202.28125 23.33125L203.23438 23.33125L203.23438 24.26875Q203.59375 23.6125 203.89062 23.409374Q204.20312 23.190624 204.57812 23.190624Q205.10938 23.190624 205.65625 23.51875L205.29688 24.503124Q204.90625 24.26875 204.53125 24.26875Q204.17188 24.26875 203.89062 24.4875Q203.625 24.690624 203.51562 25.065624Q203.32812 25.628124 203.32812 26.284374L203.32812 29.55L202.28125 29.55ZM208.59375 28.6125L208.75 29.534374Q208.29688 29.628124 207.95312 29.628124Q207.375 29.628124 207.0625 29.45625Q206.75 29.26875 206.60938 28.971874Q206.48438 28.675 206.48438 27.721874L206.48438 24.14375L205.71875 24.14375L205.71875 23.33125L206.48438 23.33125L206.48438 21.784374L207.53125 21.159374L207.53125 23.33125L208.59375 23.33125L208.59375 24.14375L207.53125 24.14375L207.53125 27.784374Q207.53125 28.2375 207.57812 28.3625Q207.64062 28.4875 207.76562 28.565624Q207.89062 28.64375 208.125 28.64375Q208.3125 28.64375 208.59375 28.6125ZM213.54688 27.55L214.64062 27.675Q214.39062 28.628124 213.6875 29.159374Q212.98438 29.690624 211.90625 29.690624Q210.54688 29.690624 209.73438 28.846874Q208.9375 28.003124 208.9375 26.4875Q208.9375 24.925 209.75 24.065624Q210.5625 23.190624 211.84375 23.190624Q213.09375 23.190624 213.875 24.034374Q214.67188 24.878124 214.67188 26.425Q214.67188 26.51875 214.67188 26.70625L210.03125 26.70625Q210.09375 27.7375 210.60938 28.284374Q211.125 28.815624 211.90625 28.815624Q212.48438 28.815624 212.89062 28.51875Q213.3125 28.20625 213.54688 27.55ZM210.09375 25.846874L213.5625 25.846874Q213.5 25.05 213.17188 24.659374Q212.65625 24.05 211.85938 24.05Q211.125 24.05 210.625 24.534374Q210.14062 25.01875 210.09375 25.846874ZM218.59375 28.6125L218.75 29.534374Q218.29688 29.628124 217.95312 29.628124Q217.375 29.628124 217.0625 29.45625Q216.75 29.26875 216.60938 28.971874Q216.48438 28.675 216.48438 27.721874L216.48438 24.14375L215.71875 24.14375L215.71875 23.33125L216.48438 23.33125L216.48438 21.784374L217.53125 21.159374L217.53125 23.33125L218.59375 23.33125L218.59375 24.14375L217.53125 24.14375L217.53125 27.784374Q217.53125 28.2375 217.57812 28.3625Q217.64062 28.4875 217.76562 28.565624Q217.89062 28.64375 218.125 28.64375Q218.3125 28.64375 218.59375 28.6125Z" fill-rule="nonzero"/><path fill="#ea4335" d="M234.5 20.55C234.5 19.997715 234.94771 19.55 235.5 19.55L245.5 19.55C246.05229 19.55 246.5 19.997715 246.5 20.55L246.5 30.55C246.5 31.102285 246.05229 31.55 245.5 31.55L235.5 31.55C234.94771 31.55 234.5 31.102285 234.5 30.55Z" fill-rule="nonzero"/><path fill="#1a1a1a" d="M257.60938 29.55L257.60938 21.971874L254.78125 21.971874L254.78125 20.95625L261.59375 20.95625L261.59375 21.971874L258.75 21.971874L258.75 29.55L257.60938 29.55ZM266.35938 28.784374Q265.76562 29.284374 265.21875 29.4875Q264.6875 29.690624 264.0625 29.690624Q263.03125 29.690624 262.48438 29.190624Q261.9375 28.690624 261.9375 27.909374Q261.9375 27.45625 262.14062 27.08125Q262.34375 26.690624 262.6875 26.471874Q263.03125 26.2375 263.45312 26.128124Q263.75 26.034374 264.39062 25.95625Q265.65625 25.815624 266.26562 25.596874Q266.26562 25.378124 266.26562 25.33125Q266.26562 24.675 265.96875 24.409374Q265.5625 24.065624 264.76562 24.065624Q264.03125 24.065624 263.67188 24.33125Q263.3125 24.58125 263.14062 25.2375L262.10938 25.096874Q262.25 24.440624 262.57812 24.034374Q262.90625 23.628124 263.51562 23.409374Q264.125 23.190624 264.92188 23.190624Q265.71875 23.190624 266.21875 23.378124Q266.71875 23.565624 266.95312 23.846874Q267.1875 24.128124 267.28125 24.565624Q267.32812 24.83125 267.32812 25.534374L267.32812 26.940624Q267.32812 28.409374 267.39062 28.8Q267.46875 29.190624 267.67188 29.55L266.5625 29.55Q266.40625 29.221874 266.35938 28.784374ZM266.26562 26.425Q265.6875 26.659374 264.54688 26.83125Q263.89062 26.925 263.625 27.05Q263.35938 27.159374 263.20312 27.378124Q263.0625 27.596874 263.0625 27.878124Q263.0625 28.3 263.375 28.58125Q263.70312 28.8625 264.3125 28.8625Q264.92188 28.8625 265.39062 28.596874Q265.875 28.33125 266.09375 27.8625Q266.26562 27.503124 266.26562 26.815624L266.26562 26.425ZM271.59375 28.6125L271.75 29.534374Q271.29688 29.628124 270.95312 29.628124Q270.375 29.628124 270.0625 29.45625Q269.75 29.26875 269.60938 28.971874Q269.48438 28.675 269.48438 27.721874L269.48438 24.14375L268.71875 24.14375L268.71875 23.33125L269.48438 23.33125L269.48438 21.784374L270.53125 21.159374L270.53125 23.33125L271.59375 23.33125L271.59375 24.14375L270.53125 24.14375L270.53125 27.784374Q270.53125 28.2375 270.57812 28.3625Q270.64062 28.4875 270.76562 28.565624Q270.89062 28.64375 271.125 28.64375Q271.3125 28.64375 271.59375 28.6125ZM271.875 27.690624L272.90625 27.534374Q273.0 28.159374 273.39062 28.4875Q273.79688 28.815624 274.53125 28.815624Q275.25 28.815624 275.59375 28.534374Q275.95312 28.2375 275.95312 27.83125Q275.95312 27.471874 275.64062 27.26875Q275.42188 27.128124 274.5625 26.909374Q273.40625 26.6125 272.95312 26.409374Q272.51562 26.190624 272.28125 25.815624Q272.04688 25.440624 272.04688 24.971874Q272.04688 24.565624 272.23438 24.20625Q272.42188 23.846874 272.75 23.6125Q273.0 23.440624 273.42188 23.315624Q273.84375 23.190624 274.34375 23.190624Q275.0625 23.190624 275.60938 23.409374Q276.17188 23.6125 276.4375 23.971874Q276.70312 24.33125 276.79688 24.925L275.76562 25.065624Q275.70312 24.596874 275.35938 24.33125Q275.03125 24.05 274.40625 24.05Q273.6875 24.05 273.375 24.3Q273.0625 24.534374 273.0625 24.8625Q273.0625 25.065624 273.1875 25.221874Q273.32812 25.39375 273.59375 25.503124Q273.75 25.565624 274.53125 25.76875Q275.65625 26.08125 276.09375 26.26875Q276.53125 26.45625 276.78125 26.815624Q277.03125 27.175 277.03125 27.721874Q277.03125 28.253124 276.71875 28.721874Q276.42188 29.175 275.84375 29.440624Q275.26562 29.690624 274.53125 29.690624Q273.3125 29.690624 272.67188 29.190624Q272.04688 28.675 271.875 27.690624ZM283.35938 28.784374Q282.76562 29.284374 282.21875 29.4875Q281.6875 29.690624 281.0625 29.690624Q280.03125 29.690624 279.48438 29.190624Q278.9375 28.690624 278.9375 27.909374Q278.9375 27.45625 279.14062 27.08125Q279.34375 26.690624 279.6875 26.471874Q280.03125 26.2375 280.45312 26.128124Q280.75 26.034374 281.39062 25.95625Q282.65625 25.815624 283.26562 25.596874Q283.26562 25.378124 283.26562 25.33125Q283.26562 24.675 282.96875 24.409374Q282.5625 24.065624 281.76562 24.065624Q281.03125 24.065624 280.67188 24.33125Q280.3125 24.58125 280.14062 25.2375L279.10938 25.096874Q279.25 24.440624 279.57812 24.034374Q279.90625 23.628124 280.51562 23.409374Q281.125 23.190624 281.92188 23.190624Q282.71875 23.190624 283.21875 23.378124Q283.71875 23.565624 283.95312 23.846874Q284.1875 24.128124 284.28125 24.565624Q284.32812 24.83125 284.32812 25.534374L284.32812 26.940624Q284.32812 28.409374 284.39062 28.8Q284.46875 29.190624 284.67188 29.55L283.5625 29.55Q283.40625 29.221874 283.35938 28.784374ZM283.26562 26.425Q282.6875 26.659374 281.54688 26.83125Q280.89062 26.925 280.625 27.05Q280.35938 27.159374 280.20312 27.378124Q280.0625 27.596874 280.0625 27.878124Q280.0625 28.3 280.375 28.58125Q280.70312 28.8625 281.3125 28.8625Q281.92188 28.8625 282.39062 28.596874Q282.875 28.33125 283.09375 27.8625Q283.26562 27.503124 283.26562 26.815624L283.26562 26.425ZM280.15625 22.1125L280.15625 20.909374L281.25 20.909374L281.25 22.1125L280.15625 22.1125ZM282.34375 22.1125L282.34375 20.909374L283.4375 20.909374L283.4375 22.1125L282.34375 22.1125ZM290.35938 27.26875L291.39062 27.409374Q291.21875 28.471874 290.51562 29.08125Q289.8125 29.690624 288.79688 29.690624Q287.51562 29.690624 286.73438 28.8625Q285.96875 28.01875 285.96875 26.45625Q285.96875 25.45625 286.29688 24.70625Q286.64062 23.940624 287.3125 23.565624Q288.0 23.190624 288.8125 23.190624Q289.8125 23.190624 290.45312 23.70625Q291.10938 24.20625 291.29688 25.159374L290.26562 25.315624Q290.125 24.690624 289.75 24.378124Q289.375 24.05 288.84375 24.05Q288.04688 24.05 287.54688 24.628124Q287.04688 25.190624 287.04688 26.425Q287.04688 27.690624 287.53125 28.253124Q288.01562 28.815624 288.78125 28.815624Q289.40625 28.815624 289.8125 28.440624Q290.23438 28.065624 290.35938 27.26875ZM292.29688 29.55L292.29688 20.95625L293.34375 20.95625L293.34375 24.034374Q294.07812 23.190624 295.20312 23.190624Q295.90625 23.190624 296.40625 23.471874Q296.92188 23.7375 297.14062 24.221874Q297.35938 24.690624 297.35938 25.6125L297.35938 29.55L296.3125 29.55L296.3125 25.6125Q296.3125 24.815624 295.96875 24.45625Q295.625 24.096874 295.0 24.096874Q294.53125 24.096874 294.10938 24.346874Q293.70312 24.58125 293.51562 25.003124Q293.34375 25.409374 293.34375 26.14375L293.34375 29.55L292.29688 29.55ZM299.26562 29.55L299.26562 20.95625L300.32812 20.95625L300.32812 29.55L299.26562 29.55ZM302.29688 22.175L302.29688 20.95625L303.35938 20.95625L303.35938 22.175L302.29688 22.175ZM302.29688 29.55L302.29688 23.33125L303.35938 23.33125L303.35938 29.55L302.29688 29.55ZM309.35938 27.26875L310.39062 27.409374Q310.21875 28.471874 309.51562 29.08125Q308.8125 29.690624 307.79688 29.690624Q306.51562 29.690624 305.73438 28.8625Q304.96875 28.01875 304.96875 26.45625Q304.96875 25.45625 305.29688 24.70625Q305.64062 23.940624 306.3125 23.565624Q307.0 23.190624 307.8125 23.190624Q308.8125 23.190624 309.45312 23.70625Q310.10938 24.20625 310.29688 25.159374L309.26562 25.315624Q309.125 24.690624 308.75 24.378124Q308.375 24.05 307.84375 24.05Q307.04688 24.05 306.54688 24.628124Q306.04688 25.190624 306.04688 26.425Q306.04688 27.690624 306.53125 28.253124Q307.01562 28.815624 307.78125 28.815624Q308.40625 28.815624 308.8125 28.440624Q309.23438 28.065624 309.35938 27.26875ZM311.29688 29.55L311.29688 20.95625L312.34375 20.95625L312.34375 24.034374Q313.07812 23.190624 314.20312 23.190624Q314.90625 23.190624 315.40625 23.471874Q315.92188 23.7375 316.14062 24.221874Q316.35938 24.690624 316.35938 25.6125L316.35938 29.55L315.3125 29.55L315.3125 25.6125Q315.3125 24.815624 314.96875 24.45625Q314.625 24.096874 314.0 24.096874Q313.53125 24.096874 313.10938 24.346874Q312.70312 24.58125 312.51562 25.003124Q312.34375 25.409374 312.34375 26.14375L312.34375 29.55L311.29688 29.55ZM326.54688 28.534374L326.54688 29.55L320.85938 29.55Q320.85938 29.175 320.98438 28.815624Q321.20312 28.2375 321.67188 27.675Q322.15625 27.1125 323.0625 26.378124Q324.46875 25.221874 324.95312 24.55Q325.45312 23.878124 325.45312 23.284374Q325.45312 22.659374 325.0 22.2375Q324.54688 21.8 323.82812 21.8Q323.0625 21.8 322.60938 22.253124Q322.15625 22.70625 322.14062 23.51875L321.0625 23.409374Q321.17188 22.190624 321.89062 21.565624Q322.625 20.925 323.85938 20.925Q325.09375 20.925 325.8125 21.6125Q326.53125 22.3 326.53125 23.315624Q326.53125 23.83125 326.3125 24.33125Q326.10938 24.815624 325.60938 25.378124Q325.125 25.925 324.0 26.878124Q323.04688 27.675 322.76562 27.971874Q322.5 28.253124 322.32812 28.534374L326.54688 28.534374ZM328.0 25.315624Q328.0 23.784374 328.3125 22.8625Q328.625 21.925 329.23438 21.425Q329.85938 20.925 330.79688 20.925Q331.48438 20.925 332.0 21.20625Q332.53125 21.4875 332.875 22.01875Q333.21875 22.534374 333.40625 23.284374Q333.59375 24.034374 333.59375 25.315624Q333.59375 26.83125 333.28125 27.753124Q332.98438 28.675 332.35938 29.190624Q331.75 29.690624 330.79688 29.690624Q329.5625 29.690624 328.84375 28.8Q328.0 27.7375 328.0 25.315624ZM329.07812 25.315624Q329.07812 27.425 329.57812 28.128124Q330.07812 28.83125 330.79688 28.83125Q331.53125 28.83125 332.01562 28.128124Q332.51562 27.425 332.51562 25.315624Q332.51562 23.190624 332.01562 22.503124Q331.53125 21.8 330.78125 21.8Q330.0625 21.8 329.625 22.409374Q329.07812 23.190624 329.07812 25.315624ZM340.54688 28.534374L340.54688 29.55L334.85938 29.55Q334.85938 29.175 334.98438 28.815624Q335.20312 28.2375 335.67188 27.675Q336.15625 27.1125 337.0625 26.378124Q338.46875 25.221874 338.95312 24.55Q339.45312 23.878124 339.45312 23.284374Q339.45312 22.659374 339.0 22.2375Q338.54688 21.8 337.82812 21.8Q337.0625 21.8 336.60938 22.253124Q336.15625 22.70625 336.14062 23.51875L335.0625 23.409374Q335.17188 22.190624 335.89062 21.565624Q336.625 20.925 337.85938 20.925Q339.09375 20.925 339.8125 21.6125Q340.53125 22.3 340.53125 23.315624Q340.53125 23.83125 340.3125 24.33125Q340.10938 24.815624 339.60938 25.378124Q339.125 25.925 338.0 26.878124Q337.04688 27.675 336.76562 27.971874Q336.5 28.253124 336.32812 28.534374L340.54688 28.534374ZM342.0 27.3L343.10938 27.20625Q343.23438 28.01875 343.67188 28.425Q344.125 28.83125 344.76562 28.83125Q345.51562 28.83125 346.04688 28.253124Q346.57812 27.675 346.57812 26.7375Q346.57812 25.83125 346.0625 25.315624Q345.5625 24.784374 344.73438 24.784374Q344.23438 24.784374 343.8125 25.01875Q343.40625 25.253124 343.17188 25.6125L342.1875 25.4875L343.01562 21.08125L347.29688 21.08125L347.29688 22.08125L343.85938 22.08125L343.40625 24.39375Q344.17188 23.846874 345.01562 23.846874Q346.14062 23.846874 346.90625 24.628124Q347.6875 25.409374 347.6875 26.64375Q347.6875 27.8 347.01562 28.659374Q346.1875 29.690624 344.76562 29.690624Q343.59375 29.690624 342.84375 29.034374Q342.10938 28.378124 342.0 27.3Z" fill-rule="nonzero"/><path fill="#6aa84f" d="M364.5 20.55C364.5 19.997715 364.94772 19.55 365.5 19.55L375.5 19.55C376.05228 19.55 376.5 19.997715 376.5 20.55L376.5 30.55C376.5 31.102285 376.05228 31.55 375.5 31.55L365.5 31.55C364.94772 31.55 364.5 31.102285 364.5 30.55Z" fill-rule="nonzero"/><path fill="#1a1a1a" d="M390.54688 28.534374L390.54688 29.55L384.85938 29.55Q384.85938 29.175 384.98438 28.815624Q385.20312 28.2375 385.67188 27.675Q386.15625 27.1125 387.0625 26.378124Q388.46875 25.221874 388.95312 24.55Q389.45312 23.878124 389.45312 23.284374Q389.45312 22.659374 389.0 22.2375Q388.54688 21.8 387.82812 21.8Q387.0625 21.8 386.60938 22.253124Q386.15625 22.70625 386.14062 23.51875L385.0625 23.409374Q385.17188 22.190624 385.89062 21.565624Q386.625 20.925 387.85938 20.925Q389.09375 20.925 389.8125 21.6125Q390.53125 22.3 390.53125 23.315624Q390.53125 23.83125 390.3125 24.33125Q390.10938 24.815624 389.60938 25.378124Q389.125 25.925 388.0 26.878124Q387.04688 27.675 386.76562 27.971874Q386.5 28.253124 386.32812 28.534374L390.54688 28.534374ZM392.0 25.315624Q392.0 23.784374 392.3125 22.8625Q392.625 21.925 393.23438 21.425Q393.85938 20.925 394.79688 20.925Q395.48438 20.925 396.0 21.20625Q396.53125 21.4875 396.875 22.01875Q397.21875 22.534374 397.40625 23.284374Q397.59375 24.034374 397.59375 25.315624Q397.59375 26.83125 397.28125 27.753124Q396.98438 28.675 396.35938 29.190624Q395.75 29.690624 394.79688 29.690624Q393.5625 29.690624 392.84375 28.8Q392.0 27.7375 392.0 25.315624ZM393.07812 25.315624Q393.07812 27.425 393.57812 28.128124Q394.07812 28.83125 394.79688 28.83125Q395.53125 28.83125 396.01562 28.128124Q396.51562 27.425 396.51562 25.315624Q396.51562 23.190624 396.01562 22.503124Q395.53125 21.8 394.78125 21.8Q394.0625 21.8 393.625 22.409374Q393.07812 23.190624 393.07812 25.315624ZM404.54688 28.534374L404.54688 29.55L398.85938 29.55Q398.85938 29.175 398.98438 28.815624Q399.20312 28.2375 399.67188 27.675Q400.15625 27.1125 401.0625 26.378124Q402.46875 25.221874 402.95312 24.55Q403.45312 23.878124 403.45312 23.284374Q403.45312 22.659374 403.0 22.2375Q402.54688 21.8 401.82812 21.8Q401.0625 21.8 400.60938 22.253124Q400.15625 22.70625 400.14062 23.51875L399.0625 23.409374Q399.17188 22.190624 399.89062 21.565624Q400.625 20.925 401.85938 20.925Q403.09375 20.925 403.8125 21.6125Q404.53125 22.3 404.53125 23.315624Q404.53125 23.83125 404.3125 24.33125Q404.10938 24.815624 403.60938 25.378124Q403.125 25.925 402.0 26.878124Q401.04688 27.675 400.76562 27.971874Q400.5 28.253124 400.32812 28.534374L404.54688 28.534374ZM409.375 29.55L409.375 27.4875L405.65625 27.4875L405.65625 26.51875L409.57812 20.95625L410.4375 20.95625L410.4375 26.51875L411.59375 26.51875L411.59375 27.4875L410.4375 27.4875L410.4375 29.55L409.375 29.55ZM409.375 26.51875L409.375 22.659374L406.6875 26.51875L409.375 26.51875Z" fill-rule="nonzero"/><path fill="#b6d7a8" d="M428.5 20.55C428.5 19.997715 428.94772 19.55 429.5 19.55L439.5 19.55C440.05228 19.55 440.5 19.997715 440.5 20.55L440.5 30.55C440.5 31.102285 440.05228 31.55 439.5 31.55L429.5 31.55C428.94772 31.55 428.5 31.102285 428.5 30.55Z" fill-rule="nonzero"/><path fill="#1a1a1a" d="M454.54688 28.534374L454.54688 29.55L448.85938 29.55Q448.85938 29.175 448.98438 28.815624Q449.20312 28.2375 449.67188 27.675Q450.15625 27.1125 451.0625 26.378124Q452.46875 25.221874 452.95312 24.55Q453.45312 23.878124 453.45312 23.284374Q453.45312 22.659374 453.0 22.2375Q452.54688 21.8 451.82812 21.8Q451.0625 21.8 450.60938 22.253124Q450.15625 22.70625 450.14062 23.51875L449.0625 23.409374Q449.17188 22.190624 449.89062 21.565624Q450.625 20.925 451.85938 20.925Q453.09375 20.925 453.8125 21.6125Q454.53125 22.3 454.53125 23.315624Q454.53125 23.83125 454.3125 24.33125Q454.10938 24.815624 453.60938 25.378124Q453.125 25.925 452.0 26.878124Q451.04688 27.675 450.76562 27.971874Q450.5 28.253124 450.32812 28.534374L454.54688 28.534374ZM456.0 25.315624Q456.0 23.784374 456.3125 22.8625Q456.625 21.925 457.23438 21.425Q457.85938 20.925 458.79688 20.925Q459.48438 20.925 460.0 21.20625Q460.53125 21.4875 460.875 22.01875Q461.21875 22.534374 461.40625 23.284374Q461.59375 24.034374 461.59375 25.315624Q461.59375 26.83125 461.28125 27.753124Q460.98438 28.675 460.35938 29.190624Q459.75 29.690624 458.79688 29.690624Q457.5625 29.690624 456.84375 28.8Q456.0 27.7375 456.0 25.315624ZM457.07812 25.315624Q457.07812 27.425 457.57812 28.128124Q458.07812 28.83125 458.79688 28.83125Q459.53125 28.83125 460.01562 28.128124Q460.51562 27.425 460.51562 25.315624Q460.51562 23.190624 460.01562 22.503124Q459.53125 21.8 458.78125 21.8Q458.0625 21.8 457.625 22.409374Q457.07812 23.190624 457.07812 25.315624ZM468.54688 28.534374L468.54688 29.55L462.85938 29.55Q462.85938 29.175 462.98438 28.815624Q463.20312 28.2375 463.67188 27.675Q464.15625 27.1125 465.0625 26.378124Q466.46875 25.221874 466.95312 24.55Q467.45312 23.878124 467.45312 23.284374Q467.45312 22.659374 467.0 22.2375Q466.54688 21.8 465.82812 21.8Q465.0625 21.8 464.60938 22.253124Q464.15625 22.70625 464.14062 23.51875L463.0625 23.409374Q463.17188 22.190624 463.89062 21.565624Q464.625 20.925 465.85938 20.925Q467.09375 20.925 467.8125 21.6125Q468.53125 22.3 468.53125 23.315624Q468.53125 23.83125 468.3125 24.33125Q468.10938 24.815624 467.60938 25.378124Q467.125 25.925 466.0 26.878124Q465.04688 27.675 464.76562 27.971874Q464.5 28.253124 464.32812 28.534374L468.54688 28.534374ZM470.0 27.284374L471.0625 27.14375Q471.23438 28.034374 471.67188 28.440624Q472.10938 28.83125 472.73438 28.83125Q473.48438 28.83125 474.0 28.315624Q474.51562 27.8 474.51562 27.034374Q474.51562 26.315624 474.03125 25.846874Q473.5625 25.3625 472.82812 25.3625Q472.53125 25.3625 472.07812 25.4875L472.20312 24.55Q472.3125 24.565624 472.375 24.565624Q473.04688 24.565624 473.57812 24.221874Q474.125 23.8625 474.125 23.128124Q474.125 22.55 473.73438 22.175Q473.34375 21.784374 472.71875 21.784374Q472.10938 21.784374 471.6875 22.175Q471.28125 22.565624 471.17188 23.33125L470.10938 23.14375Q470.29688 22.096874 470.98438 21.51875Q471.67188 20.925 472.6875 20.925Q473.39062 20.925 473.98438 21.2375Q474.57812 21.534374 474.89062 22.05Q475.20312 22.565624 475.20312 23.159374Q475.20312 23.70625 474.90625 24.175Q474.60938 24.628124 474.03125 24.89375Q474.78125 25.065624 475.20312 25.628124Q475.625 26.175 475.625 27.01875Q475.625 28.14375 474.79688 28.925Q473.98438 29.70625 472.73438 29.70625Q471.60938 29.70625 470.85938 29.034374Q470.10938 28.346874 470.0 27.284374Z" fill-rule="nonzero"/></svg>